<svg width="229" height="264" viewBox="0 0 229 264" fill="none" xmlns="http://www.w3.org/2000/svg">
<path fill-rule="evenodd" clip-rule="evenodd" d="M58.8364 251.656C58.8364 251.656 78.3754 262.263 95.9605 262.263C113.546 262.543 120.524 252.494 120.524 252.494L58.8364 251.656Z" fill="#B8A9D4"/>
<path fill-rule="evenodd" clip-rule="evenodd" d="M164.347 9.3724C160.16 7.97675 155.973 6.86024 151.787 6.02286C100.427 -3.1884 44.601 35.8897 22.5498 99.5311C-1.45527 168.197 23.3872 239.375 78.0965 258.355C126.107 275.103 181.374 245.795 210.124 191.365C214.032 184.107 217.382 176.292 220.173 168.197C243.62 99.2519 218.778 28.3532 164.347 9.3724ZM91.7738 217.882C54.9288 205.042 38.181 157.032 54.3705 110.696C70.56 64.3608 113.546 37.0062 150.391 49.8461C155.136 51.5209 159.323 53.4748 163.231 56.2661C190.865 74.6886 202.03 116.558 187.794 157.032C187.515 157.869 187.236 158.706 186.957 159.544C169.93 204.484 127.781 230.443 91.7738 217.882Z" fill="#B8A9D4"/>
<path fill-rule="evenodd" clip-rule="evenodd" d="M132.806 0.71936C132.806 0.71936 162.672 4.62717 181.374 17.4671L164.347 16.6297L132.806 0.71936Z" fill="#FF7461"/>
<path fill-rule="evenodd" clip-rule="evenodd" d="M151.228 4.90655C96.798 -14.0742 33.1566 26.3995 9.15151 95.0652C-14.8536 163.731 9.98888 234.909 64.6982 253.89C111.313 270.079 164.626 243.004 193.935 191.644C198.959 182.991 203.146 173.5 206.775 163.731C230.78 94.7861 205.937 23.8873 151.228 4.90655ZM78.9338 213.416C42.0887 200.576 25.341 152.566 41.5305 106.23C57.72 59.8949 100.706 32.5403 137.551 45.3802C174.396 58.2202 191.144 106.23 174.954 152.566C171.325 162.614 166.58 172.105 160.998 180.2C140.063 208.95 107.684 223.185 78.9338 213.416Z" fill="url(#paint0_linear)"/>
<path fill-rule="evenodd" clip-rule="evenodd" d="M219.615 168.197C216.824 176.292 213.474 184.107 209.566 191.365L206.775 196.11L193.935 191.644L186.678 159.544C186.957 158.707 187.236 157.869 187.515 157.032C201.751 116.279 190.585 74.6887 162.952 56.2662L151.507 6.30212C155.694 7.13951 159.881 8.25602 164.068 9.65166C218.777 28.3533 243.62 99.2521 219.615 168.197Z" fill="url(#paint1_linear)"/>
<path fill-rule="evenodd" clip-rule="evenodd" d="M206.775 163.452C203.425 173.5 198.959 182.712 193.935 191.365L163.51 175.454C167.417 169.313 171.046 162.614 174.675 152.287C190.864 105.951 174.116 57.941 137.271 45.101L151.228 4.62732C205.937 23.8872 230.78 94.786 206.775 163.452Z" fill="url(#paint2_linear)"/>
<path d="M90.3777 102.881C91.2151 100.09 91.7734 98.1357 91.4942 97.0191C91.2151 95.9026 90.6569 95.0653 89.5404 94.7861C88.4239 94.507 87.5865 94.507 86.4699 95.3444C85.6326 96.1818 84.7952 97.5774 83.9578 99.8104L81.7247 106.51L75.5839 104.277L77.8169 98.1357C79.4917 93.1114 81.7247 89.4827 84.2369 87.5288C86.749 85.2957 89.8195 85.0166 92.8899 86.1331C96.2394 87.2496 98.1933 89.4827 98.7516 92.8322C99.589 96.1818 99.0307 100.369 97.0768 105.393C95.9603 108.743 94.5647 111.534 93.169 113.767C91.4942 116.279 90.0986 118.233 88.1447 120.187C86.47 122.141 84.7951 123.536 82.8412 125.211C81.1664 126.607 79.4917 128.002 77.8169 129.398C76.1422 130.794 75.0256 132.189 73.63 133.306C72.5135 134.702 71.6761 136.097 70.8387 137.772C70.5596 138.33 70.5596 138.889 70.5596 139.168L82.8412 143.355L79.7709 152.287L60.79 145.588L63.5813 138.051C64.6978 134.981 65.8144 132.469 67.2101 130.515C68.6057 128.561 70.2804 126.607 71.9552 124.932C73.63 123.257 75.3048 121.862 76.9796 120.745C78.6543 119.349 80.3291 117.954 82.0039 116.558C83.6786 114.883 85.0743 113.209 86.4699 111.255C88.1447 108.463 89.5403 105.951 90.3777 102.881Z" fill="#F2F2F2"/>
<path d="M97.6351 135.26L95.6812 141.121C94.8438 143.355 94.5647 145.029 94.8438 146.146C95.123 147.262 95.9603 148.1 96.7977 148.379C97.9142 148.658 98.7516 148.658 99.8681 147.821C100.706 147.262 101.543 145.588 102.38 143.355L107.125 129.677C107.963 127.444 108.242 125.769 107.963 124.653C107.684 123.536 107.126 122.699 106.009 122.42C104.892 122.141 104.055 122.141 102.939 122.978C102.101 123.815 101.264 125.211 100.426 127.444L99.8681 129.398L93.7273 127.165L107.405 91.4365L124.711 97.5774L121.64 106.51L110.196 102.602L104.613 117.116C106.846 114.604 109.359 113.767 111.871 114.604C114.383 115.442 115.779 117.396 116.058 120.187C116.337 122.978 115.778 126.886 114.104 131.352L109.358 145.308C107.684 150.333 105.451 153.961 102.939 155.915C100.426 158.148 97.356 158.428 94.2855 157.311C90.936 156.194 88.9821 153.961 88.4238 150.612C87.5864 147.262 88.1447 143.075 90.0986 138.051L91.7734 133.027L97.6351 135.26Z" fill="#F2F2F2"/>
<path d="M152.624 107.347L156.531 108.743L118.291 165.127L114.383 163.731L152.624 107.347ZM126.386 108.743C127.502 105.672 128.898 103.16 130.572 102.044C132.247 100.648 134.201 100.369 136.155 101.206C138.109 102.044 139.505 103.439 140.063 105.393C140.621 107.347 140.342 110.138 139.225 113.209L132.247 133.585C131.131 136.656 129.735 139.168 128.06 140.284C126.386 141.68 124.432 141.959 122.478 141.122C120.524 140.284 119.128 138.889 118.57 136.935C118.012 134.981 118.291 132.19 119.407 129.119L126.386 108.743ZM123.315 131.073C122.478 133.585 122.757 135.26 124.153 135.818C124.711 136.097 125.548 135.818 126.106 135.539C126.665 134.981 127.223 134.143 127.781 132.748L135.318 111.534C135.876 110.138 135.876 109.022 135.876 108.464C135.597 107.626 135.318 107.347 134.48 107.068C133.085 106.51 131.968 107.626 130.852 110.138L123.315 131.073ZM139.225 138.61C140.342 135.539 141.738 133.027 143.412 131.91C145.087 130.515 147.041 130.236 148.995 131.073C150.949 131.91 152.345 133.306 152.903 135.26C153.461 137.214 153.182 140.005 152.065 143.076L145.087 163.452C143.971 166.522 142.575 169.035 140.9 170.151C139.225 171.547 137.272 171.826 135.318 170.989C133.364 170.151 131.968 168.755 131.41 166.802C130.852 164.848 131.131 162.056 132.247 158.986L139.225 138.61ZM136.155 160.94C135.318 163.452 135.597 165.127 136.992 165.685C137.551 165.964 138.388 165.685 138.946 165.406C139.505 164.848 140.063 164.01 140.621 162.615L148.158 141.401C148.716 140.005 148.716 138.889 148.716 138.33C148.437 137.493 148.158 137.214 147.32 136.935C145.925 136.377 144.808 137.493 143.692 140.005L136.155 160.94Z" fill="#F2F2F2"/>
<defs>
<linearGradient id="paint0_linear" x1="65.8309" y1="254.068" x2="150.245" y2="4.46115" gradientUnits="userSpaceOnUse">
<stop offset="0.0171145" stop-color="#D4CBE2"/>
<stop offset="1" stop-color="#F3E6EE"/>
</linearGradient>
<linearGradient id="paint1_linear" x1="154.125" y1="177.708" x2="207.45" y2="24.3439" gradientUnits="userSpaceOnUse">
<stop offset="0.00198414" stop-color="#E03347"/>
<stop offset="1" stop-color="#FF6E27"/>
</linearGradient>
<linearGradient id="paint2_linear" x1="147.349" y1="175.352" x2="200.674" y2="21.988" gradientUnits="userSpaceOnUse">
<stop stop-color="#FFA700"/>
<stop offset="1" stop-color="#FFD328"/>
</linearGradient>
</defs>
</svg>
