<svg width="33" height="33" viewBox="0 0 33 33" fill="none" xmlns="http://www.w3.org/2000/svg">
<path d="M28.2931 0H4.04187C1.81278 0 0 1.81278 0 4.04187V28.2931C0 30.5222 1.81278 32.3349 4.04187 32.3349H28.2931C30.5222 32.3349 32.3349 30.5222 32.3349 28.2931V4.04187C32.3349 1.81278 30.5222 0 28.2931 0Z" fill="#1976D2"/>
<path d="M27.2826 16.1674H22.2303V12.1255C22.2303 11.01 23.1357 11.1151 24.2512 11.1151H26.2721V6.06274H22.2303C18.8816 6.06274 16.1675 8.77686 16.1675 12.1255V16.1674H12.1256V21.2197H16.1675V32.3349H22.2303V21.2197H25.2617L27.2826 16.1674Z" fill="#FAFAFA"/>
</svg>
