<svg width="130" height="117" viewBox="0 0 130 117" fill="none" xmlns="http://www.w3.org/2000/svg">
<path fill-rule="evenodd" clip-rule="evenodd" d="M24.0835 115.515L4.56506 17.4265L113.245 -7.8242e-05L122.113 99.7966L24.0835 115.515Z" fill="url(#paint0_radial)"/>
<path fill-rule="evenodd" clip-rule="evenodd" d="M4.56457 17.4267L1.21986 25.7662L20.3879 116.108L24.083 115.516L4.56457 17.4267Z" fill="url(#paint1_linear)"/>
<path fill-rule="evenodd" clip-rule="evenodd" d="M58.2311 47.6144C58.2311 47.6144 63.0872 34.7965 76.4589 31.9835C78.5977 31.4176 81.8581 30.8948 82.3277 31.0425C97.0568 31.1331 95.4896 50.558 86.9466 62.6294C78.2211 74.953 68.1016 78.5821 64.0516 83.9135L58.2311 47.6144Z" fill="url(#paint2_linear)"/>
<path fill-rule="evenodd" clip-rule="evenodd" d="M58.2311 47.6143C58.2311 47.6143 56.9314 35.3376 45.5242 36.4979C42.2289 36.8033 37.2993 38.0396 36.2125 38.2139C20.8066 42.2448 23.6563 61.4074 35.8322 70.6024C47.9733 79.5801 58.7203 79.8634 64.2341 83.6612L70.9723 82.5808L58.2311 47.6143Z" fill="url(#paint3_linear)"/>
<path fill-rule="evenodd" clip-rule="evenodd" d="M64.9695 46.5338C64.9695 46.5338 69.477 31.5423 83.1973 30.9029C99.0912 29.915 102.376 49.0078 93.685 61.5488C84.9596 73.8724 74.84 77.5015 70.79 82.8329L64.9695 46.5338Z" fill="url(#paint4_linear)"/>
<path fill-rule="evenodd" clip-rule="evenodd" d="M64.9691 46.5339C64.9691 46.5339 56.0003 33.7033 42.768 37.3857C27.362 41.4166 30.2117 60.5792 42.3877 69.7742C54.5288 78.7519 65.2758 79.0352 70.7896 82.833L64.9691 46.5339Z" fill="url(#paint5_linear)"/>
<defs>
<radialGradient id="paint0_radial" cx="0" cy="0" r="1" gradientUnits="userSpaceOnUse" gradientTransform="translate(62.1821 32.7696) rotate(-9.1097) scale(72.9425)">
<stop stop-color="#5178FE"/>
<stop offset="0.9944" stop-color="#713592"/>
</radialGradient>
<linearGradient id="paint1_linear" x1="26.7936" y1="114.65" x2="-1.70766" y2="19.3931" gradientUnits="userSpaceOnUse">
<stop offset="0.00558659" stop-color="#530E68"/>
<stop offset="1" stop-color="#60309D"/>
</linearGradient>
<linearGradient id="paint2_linear" x1="69.3452" y1="84.4944" x2="78.6876" y2="29.9511" gradientUnits="userSpaceOnUse">
<stop offset="0.00558659" stop-color="#530E68"/>
<stop offset="1" stop-color="#60309D"/>
</linearGradient>
<linearGradient id="paint3_linear" x1="61.2558" y1="87.574" x2="35.1288" y2="38.3101" gradientUnits="userSpaceOnUse">
<stop offset="0.00558659" stop-color="#530E68"/>
<stop offset="1" stop-color="#60309D"/>
</linearGradient>
<linearGradient id="paint4_linear" x1="75.5683" y1="83.3312" x2="84.6117" y2="30.5339" gradientUnits="userSpaceOnUse">
<stop offset="0.0171145" stop-color="#D4CBE2"/>
<stop offset="1" stop-color="#F3E6EE"/>
</linearGradient>
<linearGradient id="paint5_linear" x1="66.5197" y1="84.7822" x2="41.4221" y2="37.4593" gradientUnits="userSpaceOnUse">
<stop offset="0.0171145" stop-color="#D4CBE2"/>
<stop offset="1" stop-color="#F3E6EE"/>
</linearGradient>
</defs>
</svg>
