<svg width="33" height="33" viewBox="0 0 33 33" fill="none" xmlns="http://www.w3.org/2000/svg">
<path d="M2.11528 2.6864C-0.425712 5.32574 0.0943419 8.12945 0.0943419 16.647C0.0943419 23.7203 -1.13978 30.8111 5.31913 32.4804C7.33602 32.9991 25.2065 32.9991 27.2207 32.4777C29.9099 31.7838 32.0978 29.6025 32.3969 25.7991C32.4387 25.2683 32.4387 8.03514 32.3956 7.49353C32.0776 3.44223 29.5838 1.10737 26.2978 0.634476C25.5446 0.525346 25.3937 0.493011 21.5297 0.486275C7.82374 0.493011 4.81929 -0.117311 2.11528 2.6864Z" fill="url(#paint0_linear)"/>
<path d="M16.2591 4.71538C11.3671 4.71538 6.72163 4.28021 4.94725 8.83404C4.21432 10.7149 4.32076 13.1575 4.32076 16.6551C4.32076 19.7242 4.22241 22.6087 4.94725 24.4747C6.71759 29.0313 11.4008 28.5947 16.2564 28.5947C20.9409 28.5947 25.771 29.0825 27.5669 24.4747C28.3012 22.575 28.1934 20.1688 28.1934 16.6551C28.1934 11.9907 28.4507 8.97955 26.1886 6.7188C23.8982 4.42841 20.8008 4.71538 16.2537 4.71538H16.2591ZM15.1893 6.867C25.3937 6.85083 26.6925 5.71642 25.9757 21.4757C25.7211 27.0494 21.4771 26.4377 16.2604 26.4377C6.74857 26.4377 6.47508 26.1656 6.47508 16.6497C6.47508 7.02329 7.22956 6.87239 15.1893 6.86431V6.867ZM22.6318 8.84886C21.8409 8.84886 21.1996 9.49017 21.1996 10.281C21.1996 11.0719 21.8409 11.7132 22.6318 11.7132C23.4226 11.7132 24.0639 11.0719 24.0639 10.281C24.0639 9.49017 23.4226 8.84886 22.6318 8.84886ZM16.2591 10.5235C12.8734 10.5235 10.1289 13.2693 10.1289 16.6551C10.1289 20.0408 12.8734 22.7852 16.2591 22.7852C19.6448 22.7852 22.3879 20.0408 22.3879 16.6551C22.3879 13.2693 19.6448 10.5235 16.2591 10.5235ZM16.2591 12.6752C21.5203 12.6752 21.527 20.6349 16.2591 20.6349C10.9993 20.6349 10.9912 12.6752 16.2591 12.6752Z" fill="white"/>
<defs>
<linearGradient id="paint0_linear" x1="2.17728" y1="30.7559" x2="32.2292" y2="4.74637" gradientUnits="userSpaceOnUse">
<stop stop-color="#FFDD55"/>
<stop offset="0.5" stop-color="#FF543E"/>
<stop offset="1" stop-color="#C837AB"/>
</linearGradient>
</defs>
</svg>
