<svg width="174" height="157" viewBox="0 0 174 157" fill="none" xmlns="http://www.w3.org/2000/svg">
<path fill-rule="evenodd" clip-rule="evenodd" d="M173.468 37.4232V55.0341L133.183 156.957L7.92492 122.616L6.10352e-05 112.93L173.468 37.4232Z" fill="url(#paint0_radial)"/>
<path fill-rule="evenodd" clip-rule="evenodd" d="M0 112.93L38.9642 0L173.468 37.4232L128.34 146.831L0 112.93Z" fill="url(#paint1_linear)"/>
<path opacity="0.45" fill-rule="evenodd" clip-rule="evenodd" d="M133.183 156.957L128.34 146.831L6.10352e-05 112.93L7.92492 122.616L133.183 156.957Z" fill="#791B36"/>
<path opacity="0.3" fill-rule="evenodd" clip-rule="evenodd" d="M124.597 74.6263L127.459 84.0922L117.773 117.773L41.8259 95.3192V80.7902L61.8583 36.5427L65.6006 37.8636V47.1093H71.7644L78.3685 40.5052L98.401 48.4301L106.766 65.1605L124.597 74.6263Z" fill="#5C1748"/>
<path d="M61.1981 90.4761C54.8142 88.2747 49.5309 86.9539 43.1469 85.413C43.367 84.5324 39.1846 81.2303 39.4047 80.3498C44.4678 65.1604 53.9337 52.3925 57.676 35.6621C58.5565 36.1024 60.0974 32.8003 61.8585 32.8003C62.5189 32.8003 64.7203 37.6433 65.6009 37.8635C60.5377 50.8515 56.5752 65.8208 51.9524 81.0102C55.0343 81.8908 57.2356 77.7082 59.6572 78.1484C59.6572 78.1484 62.2988 83.2116 63.3995 83.2116L61.1981 90.4761Z" fill="#B12A43"/>
<path d="M82.7714 57.8958C78.3687 68.2423 73.0854 87.8344 72.8653 91.7969C70.4438 91.1364 66.7015 90.2559 63.8398 89.8156C64.28 88.9351 59.8773 85.4129 60.0974 84.7525C65.821 70.0033 73.5258 60.3173 74.1862 55.034C75.2869 55.4743 77.048 52.1723 79.0292 52.8327C79.0292 52.8327 82.111 57.6757 82.7714 57.8958ZM80.5701 51.732C76.8278 50.8514 73.7458 46.0084 72.8653 43.8071C70.8841 39.4043 74.8466 36.7627 78.1486 36.5426C88.2749 35.8822 89.8158 53.7132 80.5701 51.732Z" fill="#B12A43"/>
<path d="M106.767 65.1604C104.125 68.4624 95.5395 79.6894 92.4576 82.5511C93.3382 88.4948 94.6589 95.3191 95.9798 100.382L87.6146 98.6211L83.8723 93.5579L86.0736 84.9726C85.4132 86.9539 82.9917 95.7593 82.7716 97.9607C79.2494 96.86 78.1488 96.6399 75.7273 95.9795C75.9474 95.3191 71.7648 91.3566 71.985 90.9164C77.9286 74.4061 85.4133 65.8207 89.5959 46.0085C90.2563 46.2286 92.8979 42.9266 94.659 43.587C94.659 43.587 97.5208 48.6501 98.4013 48.6501C93.9986 61.1979 90.2563 72.8651 89.1556 76.8276C94.2187 69.7832 96.6402 65.8208 99.0617 61.8583L103.024 60.3173L106.767 65.1604Z" fill="#B12A43"/>
<path d="M118.214 105.886C110.289 106.326 105.446 104.785 103.024 101.703C101.263 99.2815 97.0806 95.0989 97.3007 91.1364C97.741 84.0921 104.785 75.0665 109.628 69.7832C113.811 65.3805 115.572 60.3174 119.314 63.1791C125.038 68.0221 127.019 79.2491 121.956 92.2371L109.188 90.2559C107.867 97.3003 112.49 93.9983 115.572 94.2184C116.453 94.2184 118.434 99.2815 119.314 99.2815L118.214 105.886ZM110.509 84.3123L116.453 84.9726C117.113 82.5511 119.094 76.1672 116.232 74.8464C113.151 74.1859 111.389 81.0102 110.509 84.3123Z" fill="#B12A43"/>
<path d="M57.4554 85.413C56.1346 84.9728 55.0341 84.5325 53.7132 84.3124C52.6125 83.8721 51.2916 83.652 50.191 83.2117C48.4299 82.7714 46.6689 82.111 44.9078 81.6707C43.1467 81.2304 41.3856 80.7901 39.4044 80.3499C40.9453 76.1673 42.2661 71.9847 43.5869 67.8021C44.9077 63.6195 46.2285 59.4369 47.5493 55.2543C48.65 51.0717 49.9708 47.1093 50.8513 42.9267C51.952 38.9642 52.8326 34.7816 53.9333 30.599C54.1535 30.599 54.3736 30.8191 54.8139 30.8191C55.0341 30.8191 55.4742 31.0393 55.6944 31.0393C56.1347 31.0393 56.575 31.2595 57.0153 31.4796C57.6757 31.6997 58.5562 31.9198 59.4367 32.14C60.3173 32.3601 61.1978 32.5802 62.0784 32.8004C60.7576 36.1024 59.6569 39.4045 58.336 43.1468C57.2354 46.669 55.9146 50.4113 54.8139 54.1536C53.7132 57.896 52.6125 61.6383 51.5119 65.3806C50.4112 69.1229 49.3105 72.6451 48.2098 76.1673C50.191 76.6076 51.9521 77.0478 53.7132 77.4881C55.4743 77.9284 57.4554 78.1485 59.6568 78.5888L57.4554 85.413Z" fill="url(#paint2_linear)"/>
<path d="M79.0291 52.8328C78.5888 54.1536 77.9283 55.4745 77.4881 56.7953C77.0478 58.1161 76.3874 59.6571 75.9471 61.198C75.5068 62.739 74.8464 64.2799 74.4061 65.8209C73.9658 67.3618 73.5256 68.9028 73.0853 70.4437C72.6451 72.2048 71.9846 73.9659 71.5444 75.727C71.1041 77.4881 70.6638 79.0291 70.4437 80.3499C70.0034 81.6707 69.7832 82.9915 69.5631 84.0922C69.3429 85.1929 69.1229 86.0734 69.1229 86.7338C68.2424 86.5137 67.1416 86.2936 66.261 86.0734C65.3805 85.8533 64.5 85.6332 63.3993 85.4131C62.2986 85.1929 61.1979 84.9727 60.0972 84.7526C61.6382 80.7901 62.9591 77.0478 64.2799 73.5256C65.3806 70.2236 66.4812 67.1417 67.1416 64.2799C67.802 61.8584 68.4624 59.8772 68.9027 58.1161C69.343 56.355 69.7832 54.8141 70.0034 53.4933C70.2235 51.9523 70.6638 50.8516 70.6638 49.7509C71.9846 50.1912 73.0853 50.6315 74.186 51.0717C75.2867 51.512 76.1672 51.7321 77.0478 51.9523C77.488 51.9523 77.7082 52.1724 78.1485 52.1724C78.3686 52.1724 78.8088 52.3926 78.8088 52.3926C78.5887 52.6127 78.8089 52.6127 79.0291 52.8328ZM83.8719 43.367C83.6518 44.0274 83.4318 44.6878 82.9915 45.3482C82.5512 45.7885 82.1109 46.2287 81.4505 46.669C80.7901 46.8892 80.1296 47.1093 79.4692 47.1093C78.5887 47.1093 77.9284 47.1093 76.8277 46.669C75.727 46.4489 75.0665 46.0086 74.4061 45.5683C73.7457 45.1281 73.3055 44.6878 73.0853 44.0274C72.8652 43.3669 72.645 42.9267 72.645 42.2663C72.645 41.6059 72.645 40.9455 72.8651 40.2851C73.0853 39.6247 73.3054 38.9642 73.7457 38.5239C74.186 38.0837 74.6263 37.6434 75.2867 37.2031C75.9471 36.983 76.6074 36.7629 77.2679 36.5427C78.1484 36.5427 79.029 36.5428 79.9095 36.983C80.7901 37.2032 81.6707 37.6434 82.3311 38.0837C82.9915 38.524 83.4317 39.1843 83.6519 39.6246C83.872 40.285 84.0922 40.9454 84.0922 41.6058C84.0922 41.826 84.0921 42.7066 83.8719 43.367Z" fill="url(#paint3_linear)"/>
<path d="M103.024 59.8772C100.823 62.739 98.8413 65.1605 97.3004 67.1417C95.7594 69.1229 94.4386 70.8841 93.1177 72.2049C92.0171 73.5257 91.1365 74.6264 90.256 75.5069C89.5956 76.3875 88.9352 77.0479 88.4949 77.268C88.7151 78.809 89.1553 81.0103 89.5956 83.8721C90.0359 86.7339 90.9164 90.4762 92.0171 95.0991L83.6519 93.3379L82.1109 79.4694C81.8908 80.57 81.4506 81.6707 81.2304 82.9916C80.7902 84.3124 80.57 85.6332 80.1298 86.7338C79.6895 88.0547 79.4693 89.1553 79.2492 90.0359C79.029 91.1366 78.8089 91.797 78.8089 92.2373L76.8277 91.5769C76.1673 91.3567 75.5069 91.1366 74.6263 90.9165C73.7458 90.6964 72.8651 90.4762 71.7645 90.256C72.645 87.8345 73.5256 85.1929 74.4061 82.7714C75.2867 80.3499 75.9471 78.1485 76.6075 76.1673C77.2679 73.966 77.9284 71.7646 78.5888 69.7834C79.2492 67.582 79.9096 64.9404 80.7901 61.8584C81.4506 59.2168 82.111 56.1349 82.9915 52.6127C83.8721 48.8704 84.7526 44.6878 85.8533 40.0649C88.715 40.9455 90.6963 41.826 92.2373 42.2663C92.6775 42.2663 92.8976 42.4865 93.1177 42.4865C93.3379 42.4865 93.558 42.7065 93.7781 42.7065C93.9983 42.7065 94.2185 42.9267 94.4386 42.9267C93.1178 46.8891 92.0171 50.4114 90.9164 53.4933C89.8157 56.5752 88.9351 59.2168 88.2747 61.6383C87.6143 63.8397 86.9539 65.8209 86.5136 67.3619C86.0734 68.9028 85.6331 70.2237 85.413 71.1042C87.174 68.9028 88.715 66.4813 90.4761 64.0598C92.017 61.6383 93.7782 58.9967 95.5393 56.1349L103.024 59.8772Z" fill="url(#paint4_linear)"/>
<path d="M114.471 100.823C112.05 101.043 110.069 100.823 108.307 100.602C106.546 100.382 105.005 99.942 103.905 99.7219C102.584 99.2816 101.263 98.6212 100.382 97.7406C99.5019 96.8601 98.8415 95.9795 98.1811 94.6587C97.7409 93.558 97.3007 92.2373 97.3007 90.9164C97.0805 89.5956 97.0805 88.2747 97.3007 86.7338C97.3007 85.413 97.5208 83.872 97.741 82.5512C97.9611 81.2304 98.4013 79.9096 98.6214 78.5888C99.502 75.5069 100.603 72.8652 101.703 70.4437C103.024 68.0222 104.345 66.041 105.666 64.5001C107.207 62.9591 108.748 61.8584 110.289 61.198C112.05 60.5376 113.591 60.5376 115.352 60.9779C116.673 61.4181 117.993 62.0785 118.874 63.1792C119.755 64.2799 120.415 65.6007 120.855 67.3618C121.296 69.1229 121.296 71.1041 121.075 73.5256C120.855 75.9471 120.415 78.5888 119.314 81.6707C119.094 82.5512 118.874 83.4318 118.434 84.3123C118.214 85.1929 117.773 86.0734 117.333 86.9539L104.565 84.9727C104.345 85.8533 104.345 86.7338 104.345 87.6144C104.345 88.4949 104.345 89.1553 104.565 89.8158C104.785 90.4762 105.005 91.1365 105.446 91.5768C105.886 92.0171 106.326 92.4574 106.987 92.6775C108.307 93.1178 109.408 93.3379 110.729 93.558C112.05 93.7782 113.371 93.9984 114.691 94.2185L114.471 100.823ZM106.767 79.2492L112.71 79.9096L113.151 78.5888C113.811 76.6076 114.031 75.0666 114.031 73.9659C114.031 72.8652 114.031 71.9846 113.811 71.3242C113.591 70.6638 113.15 70.2236 112.71 69.7833C112.05 69.5632 111.389 69.7833 110.949 70.2236C110.289 70.6638 109.848 71.3243 109.408 71.9847C108.968 72.8652 108.528 73.7457 108.307 74.8464C107.867 75.9471 107.647 77.0478 107.207 78.1485L106.767 79.2492Z" fill="url(#paint5_linear)"/>
<defs>
<radialGradient id="paint0_radial" cx="0" cy="0" r="1" gradientUnits="userSpaceOnUse" gradientTransform="translate(86.7087 97.1949) scale(74.4178)">
<stop stop-color="#B3819D"/>
<stop offset="1" stop-color="#785CA6"/>
</radialGradient>
<linearGradient id="paint1_linear" x1="76.5032" y1="138.441" x2="97.3133" y2="9.52465" gradientUnits="userSpaceOnUse">
<stop offset="0.0171145" stop-color="#D4CBE2"/>
<stop offset="1" stop-color="#F3E6EE"/>
</linearGradient>
<linearGradient id="paint2_linear" x1="48.1409" y1="77.3276" x2="69.3271" y2="22.4753" gradientUnits="userSpaceOnUse">
<stop offset="0.00198414" stop-color="#E03347"/>
<stop offset="1" stop-color="#FF6E27"/>
</linearGradient>
<linearGradient id="paint3_linear" x1="63.2163" y1="83.1502" x2="84.4027" y2="28.2979" gradientUnits="userSpaceOnUse">
<stop offset="0.00198414" stop-color="#E03347"/>
<stop offset="1" stop-color="#FF6E27"/>
</linearGradient>
<linearGradient id="paint4_linear" x1="80.4418" y1="89.8037" x2="101.628" y2="34.9514" gradientUnits="userSpaceOnUse">
<stop offset="0.00198414" stop-color="#E03347"/>
<stop offset="1" stop-color="#FF6E27"/>
</linearGradient>
<linearGradient id="paint5_linear" x1="102.979" y1="98.5083" x2="124.165" y2="43.656" gradientUnits="userSpaceOnUse">
<stop offset="0.00198414" stop-color="#E03347"/>
<stop offset="1" stop-color="#FF6E27"/>
</linearGradient>
</defs>
</svg>
