<svg width="84" height="131" viewBox="0 0 84 131" fill="none" xmlns="http://www.w3.org/2000/svg">
<path fill-rule="evenodd" clip-rule="evenodd" d="M20.8316 130.99C19.7316 128.49 16.6316 119.29 16.4316 116.79L15.3316 119.59C12.5316 109.49 14.0316 106.19 18.7316 97.8897L34.0316 100.19C35.0316 109.89 35.6316 113.39 29.3316 122.09L29.2316 119.09C28.1316 121.39 23.0316 128.59 20.8316 130.99Z" fill="#F57113"/>
<path fill-rule="evenodd" clip-rule="evenodd" d="M22.2316 122.59C21.4316 120.89 19.3316 114.39 19.1316 112.59L18.3315 114.59C16.4315 107.49 17.3316 105.09 20.7316 99.2897L31.5315 100.89C32.2315 107.69 32.6316 110.19 28.2316 116.39L28.1316 114.29C27.4316 115.79 23.8316 120.89 22.2316 122.59Z" fill="#FA9A2C"/>
<path fill-rule="evenodd" clip-rule="evenodd" d="M23.3316 116.49C22.7316 115.19 21.1316 110.49 21.0316 109.19L20.4316 110.59C19.0316 105.39 19.7316 103.69 22.1316 99.3897L30.0316 100.59C30.5316 105.59 30.8316 107.39 27.6316 111.89V110.29C27.0316 111.49 24.4316 115.19 23.3316 116.49Z" fill="#FAC545"/>
<path fill-rule="evenodd" clip-rule="evenodd" d="M24.2317 111.19C23.8317 110.29 22.7317 106.89 22.6317 105.99L22.2317 106.99C21.2317 103.29 21.7317 102.09 23.4317 98.9897L29.0317 99.7897C29.4317 103.39 29.6317 104.59 27.3317 107.89V106.79C26.9317 107.69 25.0317 110.29 24.2317 111.19Z" fill="#FFDF94"/>
<path opacity="0.3" fill-rule="evenodd" clip-rule="evenodd" d="M33.9317 103.39C31.8317 106.29 26.8317 106.59 22.7317 105.09C22.9317 106.59 25.2317 121.59 25.0317 123.79C26.0317 121.79 29.5317 116.79 30.1317 114.49L30.3317 117.29C32.8317 113.39 34.6317 108.09 33.9317 103.39Z" fill="#FFFFD1"/>
<path opacity="0.5" fill-rule="evenodd" clip-rule="evenodd" d="M20.8316 130.99C19.7316 128.49 16.6316 119.29 16.4316 116.79L15.3316 119.59C12.5316 109.49 14.0316 106.19 18.7316 97.8897L22.1316 98.3897C18.2316 102.39 17.6316 107.69 17.4316 111.99C17.8316 111.49 18.2316 111.09 19.3316 110.39C18.6316 117.99 19.3316 123.99 20.8316 130.99Z" fill="#B3510B"/>
<path opacity="0.32" fill-rule="evenodd" clip-rule="evenodd" d="M33.3315 105.59C31.6315 107.29 28.1315 107.89 25.0315 107.39C26.0315 111.29 26.4315 117.49 26.3315 119.69C27.0315 118.29 30.4315 112.19 30.8315 110.59L31.1315 113.39C32.6315 110.59 33.1315 107.99 33.3315 105.59Z" fill="#FFFFD1"/>
<path fill-rule="evenodd" clip-rule="evenodd" d="M27.0315 95.5897C31.4315 96.3897 34.6315 98.9897 34.1315 101.49C33.7315 103.99 29.8315 105.29 25.4315 104.49C21.0315 103.69 17.8315 101.09 18.3315 98.5897C18.7315 96.0897 22.6315 94.7897 27.0315 95.5897Z" fill="#FF9B54"/>
<path fill-rule="evenodd" clip-rule="evenodd" d="M36.5317 102.99C38.2317 99.5897 39.6317 96.4897 41.3317 93.0897L16.6317 89.1897C16.1317 88.3897 14.6317 88.9897 14.5317 88.1897C14.8317 91.8897 15.0317 95.3897 15.5317 99.1897C15.5317 100.49 16.3317 101.89 17.8317 103.19C19.9317 104.99 22.6318 105.99 25.2318 106.39C29.2318 106.89 34.3317 106.99 36.5317 102.99Z" fill="#7F9098"/>
<path fill-rule="evenodd" clip-rule="evenodd" d="M22.1316 90.0897L16.7316 89.2897C16.2316 88.4897 14.7316 89.0897 14.6316 88.2897C14.9316 91.9897 15.1316 95.4897 15.6316 99.2897C15.6316 100.59 16.4316 101.99 17.9316 103.29C19.9316 105.09 22.7316 106.09 25.3316 106.49C29.1316 107.09 34.0316 107.09 36.4316 103.49C33.3316 106.69 25.7316 105.49 23.2316 104.09C22.7316 99.2897 22.3316 94.6897 22.1316 90.0897Z" fill="#74858C"/>
<path fill-rule="evenodd" clip-rule="evenodd" d="M38.9318 85.5897C34.2318 81.4897 25.7318 79.8897 19.7318 81.8897C13.8318 83.8897 12.8318 88.8897 17.4318 92.9897C22.1318 97.0897 30.6318 98.6897 36.6318 96.6897C42.5318 94.5897 43.6318 89.6897 38.9318 85.5897Z" fill="#697A82"/>
<path fill-rule="evenodd" clip-rule="evenodd" d="M38.3316 85.7897C33.9316 81.9897 25.8316 80.3897 20.1316 82.2897C14.5316 84.1897 13.5316 88.8897 17.9316 92.7897C22.3316 96.6897 30.4316 98.1897 36.1316 96.2897C41.8316 94.2897 42.7316 89.6897 38.3316 85.7897Z" fill="#5F6F78"/>
<path fill-rule="evenodd" clip-rule="evenodd" d="M55.0317 55.4897C55.4317 50.4897 55.1317 45.2897 54.2317 40.3897C53.9317 38.9897 53.6317 37.6897 53.3317 36.2897C46.8317 15.0897 39.2317 9.08967 23.2317 30.4897C22.6317 31.3897 22.0317 32.2897 21.4317 33.1897C18.8317 37.2897 16.6317 42.0897 14.9317 46.9897C11.2317 58.3897 10.5317 74.2897 14.0317 85.7897C14.4317 87.0897 14.8317 88.1897 15.3317 89.1897C15.8317 90.0897 16.4317 90.8897 17.4317 91.7897C22.2317 95.9897 30.8317 97.4897 36.7317 95.4897C38.5317 94.8897 39.7317 94.0897 40.8317 92.7897C41.7317 91.7897 42.6317 90.4897 43.2317 89.5897C49.7317 80.5897 54.1317 66.8897 55.0317 55.4897Z" fill="#CED2D6"/>
<path fill-rule="evenodd" clip-rule="evenodd" d="M23.1316 30.5897C20.8316 33.5897 18.7316 37.5897 17.2316 40.9897C16.0316 43.7897 14.9316 46.5897 14.1316 49.4897C11.1316 60.6897 10.7316 75.1897 13.9316 85.8897C14.3316 87.1897 14.7316 88.2897 15.2316 89.2897C17.6316 93.5897 23.8316 95.7897 28.4316 96.2897C31.3316 96.5897 34.2316 96.3897 36.6316 95.4897C38.4316 94.8897 39.1316 94.5897 40.7316 92.8897C35.7316 96.5897 26.9316 95.0897 21.9316 92.2897C19.0316 74.5897 19.4316 57.2897 26.6316 43.2897C28.2316 44.0897 42.1316 48.5897 48.9316 42.4897L23.4316 30.8897C23.7316 30.3897 24.1316 29.8897 24.4316 29.4897C26.9316 26.0897 29.2316 23.3897 31.4316 21.2897C29.0316 23.2897 26.2316 26.3897 23.1316 30.5897Z" fill="#AEB5BB"/>
<path fill-rule="evenodd" clip-rule="evenodd" d="M41.3317 91.2897L41.5317 90.8897L41.2317 91.2897H41.3317Z" fill="#838489"/>
<path fill-rule="evenodd" clip-rule="evenodd" d="M52.7315 34.3897C50.7315 27.5897 47.4315 19.4897 42.5315 14.2897C42.4315 14.1897 42.3315 14.0897 42.2315 13.9897C42.1315 13.8897 41.9315 13.6897 41.6315 13.5897C41.4315 13.5897 41.1315 13.6897 41.0315 13.7897C34.3315 16.9897 27.7315 23.7897 23.5315 29.7897C23.2315 30.1897 23.0315 30.5897 22.8315 30.8897C21.8315 32.9897 22.4315 35.2897 23.8315 37.0897C25.1315 38.8897 27.0315 40.2897 28.8315 41.2897C29.1315 41.3897 29.3315 41.5897 29.6315 41.6897C34.6315 44.1897 41.7315 44.8897 46.7315 43.3897C48.5315 42.7897 50.3315 41.9897 51.5315 40.5897C52.1315 39.9897 52.6315 39.1897 52.9315 38.2897C53.1315 37.6897 53.2315 37.0897 53.2315 36.5897C53.1315 35.8897 52.9315 35.0897 52.7315 34.3897Z" fill="#C01617"/>
<path fill-rule="evenodd" clip-rule="evenodd" d="M41.7315 13.5897C41.4315 13.4897 41.1315 13.6897 41.0315 13.7897C34.3315 16.9897 27.7315 23.7897 23.5315 29.7897C23.2315 30.1897 23.0315 30.5897 22.8315 30.8897C21.8315 32.9897 22.4315 35.2897 23.8315 37.0897C23.8315 37.0897 23.8315 37.1897 23.9315 37.1897V37.2897C23.9315 37.3897 24.0315 37.3897 24.0315 37.4897C24.0315 37.4897 24.0315 37.4897 24.1315 37.5897C24.1315 37.5897 24.1315 37.6897 24.2315 37.6897C24.2315 37.7897 24.3315 37.7897 24.3315 37.8897C24.4315 37.9897 24.4315 37.9897 24.5315 38.0897C24.5315 38.0897 24.5315 38.0897 24.6315 38.1897C24.7315 38.2897 24.7315 38.3897 24.8315 38.3897C24.9315 38.4897 24.9315 38.4897 25.0315 38.5897L25.1315 38.6897L25.2315 38.7897C25.4315 38.8897 25.5315 39.0897 25.7315 39.1897L25.8315 39.2897L25.9315 39.3897H26.0315C26.1315 39.3897 26.1315 39.4897 26.2315 39.4897L26.3315 39.5897H26.4315L26.5315 39.6897H26.6315H26.7315L26.8315 39.7897H26.9315H27.0315H27.1315H27.2315H27.3315H27.4315C27.8315 40.0897 28.3315 40.2897 28.7315 40.5897C29.0315 40.6897 29.2315 40.8897 29.5315 40.9897C34.5315 43.4897 41.6315 44.1897 46.6315 42.6897C48.4315 42.1897 50.3315 41.1897 51.6315 39.7897C49.3315 41.3897 40.1315 46.1897 28.2315 37.5897C31.4315 29.7897 35.7315 21.7897 41.7315 13.5897Z" fill="#A51515"/>
<path fill-rule="evenodd" clip-rule="evenodd" d="M42.2316 15.2897C40.9316 17.1897 33.9315 29.1897 31.8315 38.7897C36.9315 42.0897 47.6315 43.5897 52.0315 36.9897C50.1315 29.3897 46.4316 20.3897 42.2316 15.2897Z" fill="#DE1F1F"/>
<path fill-rule="evenodd" clip-rule="evenodd" d="M42.4317 16.2897C42.3317 19.4897 41.3317 26.5897 40.0317 33.8897C38.5317 42.3897 51.1317 41.2897 48.9317 31.8897C47.5317 26.4897 44.5317 20.3897 42.4317 16.2897Z" fill="#FA3737"/>
<path fill-rule="evenodd" clip-rule="evenodd" d="M38.9317 96.3897C34.2317 99.5897 26.2317 98.4897 23.5317 97.3897C23.5317 99.3897 23.8317 101.39 24.0317 103.49C29.2317 105.29 33.5317 104.89 35.5317 103.09C36.6317 101.99 37.8317 98.8897 38.9317 96.3897Z" fill="#92A3AB"/>
<path fill-rule="evenodd" clip-rule="evenodd" d="M37.9316 97.3897C34.9316 99.8897 27.7316 99.4897 25.4316 98.6897C25.4316 99.7897 25.4316 100.49 25.5316 101.39C25.6316 102.89 25.8316 102.99 27.2316 103.29C30.8316 104.19 33.8316 103.59 35.2316 102.39C36.0316 101.49 37.0316 99.4897 37.9316 97.3897Z" fill="#A9BAC2"/>
<path fill-rule="evenodd" clip-rule="evenodd" d="M52.7316 41.4897C48.9316 47.3897 37.7316 49.3897 28.9316 47.0897C25.6316 57.1897 24.5315 74.8897 26.5315 90.2897C30.7315 92.8897 37.8316 92.2897 41.4316 90.2897C52.8316 73.0897 53.9316 55.1897 52.7316 41.4897Z" fill="#DDE2E6"/>
<path fill-rule="evenodd" clip-rule="evenodd" d="M51.5316 45.3897C49.2316 48.8897 43.7316 50.4897 38.1316 50.5897C37.5316 58.3897 33.5316 85.2897 32.9316 90.0897C36.2316 90.4897 38.7316 89.9897 40.7316 88.7897C48.3316 74.5897 52.3316 56.8897 51.5316 45.3897Z" fill="#EDF3F7"/>
<path fill-rule="evenodd" clip-rule="evenodd" d="M35.0317 50.1897C41.0317 51.2897 45.0317 56.8897 43.9317 62.6897C42.8317 68.5897 37.1317 72.3897 31.2317 71.2897C25.2317 70.1897 21.2317 64.5897 22.3317 58.7897C23.3317 52.9897 29.0317 49.0897 35.0317 50.1897Z" fill="#AEB5BB"/>
<path fill-rule="evenodd" clip-rule="evenodd" d="M31.9317 67.7897C28.0317 67.0897 25.4317 63.3897 26.1317 59.4897C26.8317 55.5897 30.5317 53.0897 34.4317 53.6897C38.3317 54.3897 40.9317 58.0897 40.2317 61.9897C39.4317 65.8897 35.7317 68.4897 31.9317 67.7897ZM34.9317 50.5897C29.3317 49.5897 23.9317 53.2897 22.9317 58.8897C21.9317 64.4897 25.6317 69.8897 31.2317 70.8897C36.8317 71.8897 42.2317 68.1897 43.2317 62.5897C44.3317 56.9897 40.6317 51.5897 34.9317 50.5897Z" fill="#EDF3F7"/>
<path fill-rule="evenodd" clip-rule="evenodd" d="M31.9317 67.7897C35.8317 68.4897 39.5317 65.8897 40.2317 62.0897C40.9317 58.1897 38.3317 54.4897 34.4317 53.7897C30.5317 53.0897 26.8317 55.6897 26.1317 59.5897C25.4317 63.3897 28.0317 67.0897 31.9317 67.7897Z" fill="#435469"/>
<path fill-rule="evenodd" clip-rule="evenodd" d="M34.4317 53.7897C38.3317 54.4897 40.9318 58.1897 40.2318 62.0897C40.1318 62.4897 40.0317 62.9897 39.8317 63.3897C39.8317 59.9897 37.4317 57.0897 33.9317 56.3897C30.5317 55.7897 27.2317 57.6897 26.0317 60.8897C26.0317 60.4897 26.0317 59.9897 26.1317 59.5897C26.8317 55.5897 30.5317 53.0897 34.4317 53.7897Z" fill="#2E3D4F"/>
<path fill-rule="evenodd" clip-rule="evenodd" d="M34.5317 53.2897C34.9317 53.3897 35.3317 53.0897 35.4317 52.6897C35.5317 52.2897 35.2317 51.8897 34.8317 51.7897C34.4317 51.6897 34.0317 51.9897 33.9317 52.3897C33.8317 52.7897 34.1317 53.1897 34.5317 53.2897Z" fill="#4B6380"/>
<path fill-rule="evenodd" clip-rule="evenodd" d="M31.5317 69.7897C31.9317 69.8897 32.3317 69.5897 32.4317 69.1897C32.5317 68.7897 32.2317 68.3897 31.8317 68.2897C31.4317 68.1897 31.0317 68.4897 30.9317 68.8897C30.8317 69.2897 31.1317 69.6897 31.5317 69.7897Z" fill="#4B6380"/>
<path fill-rule="evenodd" clip-rule="evenodd" d="M42.1317 62.3897C42.0317 62.7897 41.6317 63.0897 41.2317 62.9897C40.8317 62.8897 40.5317 62.4897 40.6317 62.0897C40.7317 61.6897 41.1317 61.3897 41.5317 61.4897C41.9317 61.5897 42.2317 61.9897 42.1317 62.3897Z" fill="#4B6380"/>
<path fill-rule="evenodd" clip-rule="evenodd" d="M25.6317 59.3897C25.5317 59.7897 25.1317 60.0897 24.7317 59.9897C24.3317 59.8897 24.0317 59.4897 24.1317 59.0897C24.2317 58.6897 24.6317 58.3897 25.0317 58.4897C25.4317 58.5897 25.7317 58.9897 25.6317 59.3897Z" fill="#4B6380"/>
<path fill-rule="evenodd" clip-rule="evenodd" d="M40.6316 55.4897C40.8316 55.7897 40.8316 56.2897 40.4316 56.5897C40.1316 56.7897 39.6316 56.7897 39.3316 56.3897C39.1316 56.0897 39.1316 55.5897 39.5316 55.2897C39.9316 55.0897 40.4316 55.1897 40.6316 55.4897Z" fill="#4B6380"/>
<path fill-rule="evenodd" clip-rule="evenodd" d="M26.9316 65.0897C27.1316 65.3897 27.1316 65.8897 26.7316 66.1897C26.4316 66.3897 25.9316 66.3897 25.6316 65.9897C25.4316 65.6897 25.4316 65.1897 25.8316 64.8897C26.1316 64.6897 26.6316 64.7897 26.9316 65.0897Z" fill="#4B6380"/>
<path fill-rule="evenodd" clip-rule="evenodd" d="M38.3317 68.2897C38.0317 68.4897 37.5317 68.4897 37.2317 68.0897C37.0317 67.7897 37.0317 67.2897 37.4317 66.9897C37.7317 66.7897 38.2317 66.7897 38.5317 67.1897C38.8317 67.5897 38.7317 67.9897 38.3317 68.2897Z" fill="#4B6380"/>
<path fill-rule="evenodd" clip-rule="evenodd" d="M28.8317 54.4897C28.5317 54.6897 28.0317 54.6897 27.7317 54.2897C27.5317 53.9897 27.5317 53.4897 27.9317 53.1897C28.2317 52.9897 28.7317 52.9897 29.0317 53.3897C29.2317 53.7897 29.1317 54.2897 28.8317 54.4897Z" fill="#4B6380"/>
<path fill-rule="evenodd" clip-rule="evenodd" d="M47.5318 78.8897L43.6318 80.2897C46.5318 97.8897 44.2318 107.39 41.8318 121.99L45.7318 120.59C47.6318 113.79 50.4318 106.79 51.3318 99.8897C51.7318 96.7897 51.7318 93.7897 51.3318 90.5897C50.7318 86.4897 49.4318 82.7897 47.5318 78.8897Z" fill="#C01617"/>
<path fill-rule="evenodd" clip-rule="evenodd" d="M47.5317 80.0897L44.7318 80.9897C47.2318 86.3897 49.1317 93.1897 48.6317 99.2897C48.1317 106.49 45.3317 114.19 43.0317 120.59L45.5317 119.69C48.0317 112.89 50.8318 103.29 51.2318 97.3897C51.5318 92.3897 50.3317 85.8897 47.5317 80.0897Z" fill="#DE1F1F"/>
<path fill-rule="evenodd" clip-rule="evenodd" d="M47.3317 80.6897L45.5317 81.2897C48.1317 84.1897 50.1317 91.3897 49.6317 98.1897C49.2317 104.29 47.9317 110.79 45.9317 117.99C48.2317 111.69 50.2317 102.49 50.5317 96.8897C50.9317 92.1897 50.0317 86.0897 47.3317 80.6897Z" fill="#FA3737"/>
<path fill-rule="evenodd" clip-rule="evenodd" d="M43.6317 80.2897L37.0317 96.1897C39.4317 103.39 41.1317 111.79 41.8317 121.99C45.9317 107.49 51.9317 97.2897 43.6317 80.2897Z" fill="#A51515"/>
<path fill-rule="evenodd" clip-rule="evenodd" d="M43.6317 80.2897L37.0317 96.1897C39.4317 103.39 41.1317 111.79 41.8317 121.99C44.7317 108.39 42.5317 92.4897 43.6317 80.2897Z" fill="#8F1111"/>
<path fill-rule="evenodd" clip-rule="evenodd" d="M13.3316 72.6897L16.5316 75.3897C7.63163 90.7897 6.53164 100.59 3.63164 115.09L0.431641 112.39C1.03164 105.39 0.831641 97.7897 2.43164 91.0897C3.13164 88.0897 4.13164 85.1897 5.73164 82.3897C7.63164 78.7897 10.2316 75.6897 13.3316 72.6897Z" fill="#C01617"/>
<path fill-rule="evenodd" clip-rule="evenodd" d="M12.9316 73.8897L15.2316 75.6897C11.0316 79.8897 6.83164 85.5897 5.13164 91.3897C3.13164 98.2897 3.03164 106.49 2.93164 113.29L0.931641 111.59C0.931641 104.39 1.63164 94.3897 3.43164 88.6897C4.93164 83.9897 8.33164 78.2897 12.9316 73.8897Z" fill="#DE1F1F"/>
<path fill-rule="evenodd" clip-rule="evenodd" d="M12.8316 74.4897L14.3316 75.6897C10.9316 77.5897 6.53159 83.5897 4.63159 90.0897C2.93159 95.8897 1.83159 102.49 1.13159 109.89C1.13159 103.09 2.53159 93.8897 4.13159 88.4897C5.53159 83.9897 8.53159 78.5897 12.8316 74.4897Z" fill="#FA3737"/>
<path fill-rule="evenodd" clip-rule="evenodd" d="M16.4316 75.3897L17.1316 92.5897C12.4316 98.4897 7.83159 105.79 3.63159 115.09C4.83159 100.09 2.83159 88.3897 16.4316 75.3897Z" fill="#A51515"/>
<path fill-rule="evenodd" clip-rule="evenodd" d="M16.4316 75.3897L17.1316 92.5897C12.4316 98.4897 7.83159 105.79 3.63159 115.09C5.73159 101.39 13.3316 87.1897 16.4316 75.3897Z" fill="#8F1111"/>
<path fill-rule="evenodd" clip-rule="evenodd" d="M36.0314 110.69C34.9314 110.99 34.6314 110.99 33.7314 112.59C33.7314 113.59 33.8314 115.19 33.9314 116.29L34.3314 116.69C34.9314 117.79 34.4314 119.69 34.4314 121.19C34.4314 122.29 34.7314 122.69 35.5314 123.59C36.3314 124.49 37.8314 125.09 39.5314 125.49C41.6314 125.89 43.6314 125.69 42.9314 124.29C42.5314 123.59 41.4314 122.79 41.1314 121.39C40.7314 118.29 40.4314 115.39 41.9314 112.49L36.0314 110.69Z" fill="#111214"/>
<path fill-rule="evenodd" clip-rule="evenodd" d="M36.0314 110.69C34.9314 110.99 34.6314 110.99 33.7314 112.59C33.7314 113.59 33.8314 115.19 33.9314 116.29L34.3314 116.69C34.9314 117.79 34.4314 119.69 34.4314 121.19C34.4314 122.29 34.7314 122.69 35.5314 123.59C36.3314 124.49 37.8314 125.09 39.5314 125.49C41.2314 125.79 42.8314 125.69 43.0314 124.99C41.9314 124.99 40.7314 124.49 39.0314 123.39C39.5314 122.79 39.8314 122.49 40.7314 121.99C39.7314 122.09 39.0314 122.19 38.0314 122.49C36.2314 119.49 37.7314 116.39 37.4314 113.09C37.3314 112.49 37.3314 111.79 37.3314 111.09L36.0314 110.69Z" fill="black"/>
<path fill-rule="evenodd" clip-rule="evenodd" d="M40.1316 101.79C39.2316 102.99 38.7316 103.49 38.4316 104.49C37.8316 106.39 37.9316 108.49 38.0316 111.69C38.0316 113.19 37.6316 113.89 36.2316 113.29C35.1316 112.89 34.1316 110.69 33.5316 109.29C32.3316 106.69 33.0316 104.79 32.8316 103.79L32.2316 103.29C31.8316 102.79 31.2316 100.39 31.4316 99.6897C31.7316 99.2897 32.3316 98.5897 32.9316 98.0897C34.7316 96.5897 34.7316 97.0896 36.6316 96.3896C37.7316 98.3896 38.8316 100.09 40.1316 101.79Z" fill="#111214"/>
<path fill-rule="evenodd" clip-rule="evenodd" d="M37.5316 113.29C37.2316 113.49 36.8316 113.49 36.2316 113.29C35.1316 112.89 34.1316 110.69 33.5316 109.29C32.3316 106.69 33.0316 104.79 32.8316 103.79L32.2316 103.29C31.8316 102.79 31.2316 100.39 31.4316 99.6896C31.7316 99.2896 32.3316 98.5896 32.9316 98.0896C34.7316 96.5896 34.7316 97.0896 36.6316 96.4896C37.1316 97.2896 37.6316 98.0896 38.1316 98.7896C37.0316 99.8896 34.7316 101.29 34.7316 102.89C34.7316 104.69 35.1316 105.79 35.2316 106.89C35.5316 110.49 35.6316 112.99 37.5316 113.29Z" fill="black"/>
<path fill-rule="evenodd" clip-rule="evenodd" d="M38.4316 103.89C37.9316 103.89 37.3316 103.59 36.5316 102.99C36.0316 105.29 36.3316 105.39 36.6316 107.79C36.3316 109.39 36.2316 109.59 36.3316 110.39C36.4316 111.29 36.7316 112.49 37.3316 112.69C37.5316 112.79 37.7316 112.29 37.7316 111.19C37.7316 109.89 37.6316 108.69 37.7316 107.39C37.7316 106.29 37.9316 105.09 38.4316 103.89Z" fill="#20232E"/>
<path fill-rule="evenodd" clip-rule="evenodd" d="M58.4315 89.5897C51.7315 94.3897 46.6315 97.3897 40.4315 102.39C38.5315 102.69 35.3315 99.0897 35.9315 96.3897C40.5315 91.9897 42.7315 89.9897 45.4315 87.8897C47.7315 86.0897 50.1315 84.7897 52.7315 83.8897C55.6315 81.2897 60.1314 81.8897 59.8314 84.4897C59.7314 85.9897 59.8315 88.3897 58.4315 89.5897Z" fill="#0C182E"/>
<path fill-rule="evenodd" clip-rule="evenodd" d="M60.4314 63.8896C61.2314 69.2896 60.2314 79.9897 59.7314 86.5897C59.2314 92.0897 52.8314 90.5896 51.5314 88.3896C50.4314 82.8896 48.8314 72.9896 48.7314 66.7896L53.7314 64.4896L58.2314 60.3896L60.4314 63.8896Z" fill="#0C182E"/>
<path fill-rule="evenodd" clip-rule="evenodd" d="M36.7316 99.8896C36.0316 98.7896 35.6316 97.5896 35.9316 96.3896C40.5316 91.9896 42.7316 89.9896 45.4316 87.8896C47.1316 86.5896 48.9316 85.4896 50.8316 84.6896C49.8316 79.1896 48.8316 71.7896 48.7316 66.8896L53.7316 64.5896L58.2316 60.4896L60.4316 63.9896C60.6316 65.5896 60.7316 67.6896 60.7316 69.9896C59.2316 72.1896 57.8316 73.1896 54.6316 74.9896C54.3316 77.3896 54.7316 84.2896 54.5316 86.1896C54.4316 86.9896 54.0316 87.0896 52.5316 87.9896C46.7316 91.0896 41.8316 95.4896 36.7316 99.8896Z" fill="#091224"/>
<path fill-rule="evenodd" clip-rule="evenodd" d="M52.7316 65.7897C52.6316 71.1897 48.2316 83.7897 46.7316 90.1897C45.8316 95.1897 38.5316 93.8897 38.6316 90.6897C38.8316 85.5897 37.6316 66.1897 41.6316 63.0897H47.3316L52.7316 65.7897Z" fill="#0F1E38"/>
<path fill-rule="evenodd" clip-rule="evenodd" d="M46.6314 90.3896C46.3314 92.2896 45.8314 92.3896 45.6314 93.4896C44.2314 100.39 43.4314 107.39 42.4314 114.19C39.8314 116.09 36.0314 114.29 35.2314 111.99C35.6314 105.59 35.6314 102.29 36.1314 98.7896C36.6314 95.8896 37.3314 93.2896 38.5314 90.8896C40.1314 86.4896 47.3314 86.6896 46.6314 90.3896Z" fill="#0F1E38"/>
<path fill-rule="evenodd" clip-rule="evenodd" d="M38.3314 114.69C36.8314 114.19 35.6314 113.19 35.2314 111.89C35.6314 105.49 35.6314 102.19 36.1314 98.6896C36.6314 95.7896 37.3314 93.1896 38.5314 90.7896C38.7314 85.6896 37.5314 66.2896 41.5314 63.1896H44.4314L51.5314 72.5896L51.3314 73.3896C49.3314 74.0896 45.4314 74.3896 44.0314 74.2896C43.1314 79.3896 42.4314 83.8896 42.1314 89.0896C41.9314 91.4896 41.7314 92.7896 41.0314 95.1896C39.0314 102.39 38.9314 106.89 38.3314 114.69Z" fill="#0C182E"/>
<path fill-rule="evenodd" clip-rule="evenodd" d="M50.3315 74.7897C48.2315 75.1897 46.9315 75.3897 44.8315 75.1897C43.5315 82.5897 43.8315 87.3897 42.8315 92.4897C42.4315 94.6897 41.4315 96.8897 41.1315 99.0897L39.3315 114.29C40.3315 114.39 41.0315 114.29 42.0315 113.89C43.0315 107.89 43.6315 99.1897 45.0315 93.7897C45.3315 92.8897 45.6315 92.1897 45.8315 91.2897C46.0315 90.4897 46.0315 90.0897 46.3315 89.2897C47.6315 84.5897 49.2315 79.5897 50.3315 74.7897Z" fill="#152747"/>
<path fill-rule="evenodd" clip-rule="evenodd" d="M59.9314 71.9896C58.0314 74.0896 57.1314 74.7896 55.5314 75.7896C55.5314 78.7896 55.6314 83.1896 55.6314 84.7896C55.6314 86.0896 55.4314 86.8896 54.9314 87.5896C54.5314 88.0896 49.0314 90.6896 46.0314 93.6896L45.2314 97.4896C49.2314 94.6896 53.9314 91.9896 57.6314 89.1896C58.7314 88.3896 59.0314 87.1896 59.1314 85.7896C59.3314 82.2896 59.8314 76.4896 59.9314 71.9896Z" fill="#152747"/>
<path fill-rule="evenodd" clip-rule="evenodd" d="M40.6316 115.29C40.0316 115.49 39.3316 115.69 38.5316 115.39C38.2316 116.89 38.2316 119.89 38.7316 121.49C39.4316 121.29 40.3316 121.19 40.7316 121.09C40.3316 118.69 40.3316 117.69 40.6316 115.29Z" fill="#20232E"/>
<path fill-rule="evenodd" clip-rule="evenodd" d="M41.2314 122.29C40.4314 122.49 40.1314 122.79 39.7314 123.19C41.3314 124.29 42.5314 124.79 42.7314 124.49C43.0314 124.19 41.6314 123.09 41.2314 122.29Z" fill="#20232E"/>
<path fill-rule="evenodd" clip-rule="evenodd" d="M74.9317 6.58969C75.8317 5.18969 80.6317 7.18969 79.4317 8.98969C79.1317 9.38969 78.8317 9.48969 78.4317 9.68969C78.4317 9.68969 76.5317 9.38969 76.2317 9.18969C75.9317 8.98969 74.7317 7.58969 74.7317 7.58969C74.8317 7.28969 74.7317 6.88969 74.9317 6.58969Z" fill="#1D2933"/>
<path fill-rule="evenodd" clip-rule="evenodd" d="M75.4316 6.28968C75.7316 7.18968 77.9316 9.18969 79.5316 7.98969C79.7316 7.48969 79.3316 6.98969 78.2316 6.48969C77.1316 5.98969 76.0316 5.38968 75.4316 6.28968Z" fill="#C4CFE6"/>
<path fill-rule="evenodd" clip-rule="evenodd" d="M80.4317 4.78966C80.8317 5.18966 80.9317 6.18966 80.3317 6.88966C80.2317 6.98966 79.7317 7.48966 79.3317 7.88966C79.2317 7.98966 78.9317 8.58966 78.7317 8.98966C78.4317 9.78966 77.1317 8.88966 76.9317 8.58966C76.6317 8.28966 76.7317 7.08966 76.8317 6.88966C77.2317 6.18966 77.1317 4.18966 77.2317 3.68966C77.3317 3.18966 77.7317 3.38966 77.7317 2.58966L80.4317 4.78966Z" fill="#DB9669"/>
<path fill-rule="evenodd" clip-rule="evenodd" d="M80.8316 3.08967L82.8316 1.78967C82.8316 1.78967 82.9316 1.78967 82.9316 1.88967C83.1316 2.08967 83.4316 2.28967 83.4316 2.48967C83.5316 2.98967 82.8316 4.58967 82.4316 4.88967C82.3316 4.98967 81.9316 5.48967 81.7316 5.28967C81.6316 5.58967 81.1316 5.88967 80.9316 5.68967C80.7316 5.98967 80.7316 5.88967 80.4316 6.08967C80.3316 6.18967 80.2316 6.08967 80.1316 6.08967L80.2316 3.58967L80.8316 3.08967Z" fill="#E8A476"/>
<path fill-rule="evenodd" clip-rule="evenodd" d="M80.4315 3.78967L76.5315 2.08967C76.5315 1.58967 76.9315 1.28967 77.8315 0.789674C78.2315 0.589674 79.0315 0.289673 79.3315 0.0896728C79.9315 -0.210327 81.1315 0.289674 82.0315 0.889674C82.2315 0.989674 83.2315 2.08967 83.3315 2.38967C82.1315 3.28967 81.0315 3.68967 80.4315 3.78967Z" fill="#F1B287"/>
<path fill-rule="evenodd" clip-rule="evenodd" d="M78.2317 5.38969C77.9317 5.18969 77.5317 4.78969 77.5317 4.38969C77.5317 3.58969 78.2317 4.18969 78.6317 4.48969C78.8317 4.58969 79.0317 4.68969 79.2317 4.78969C79.4317 4.88969 79.4317 4.88969 79.4317 4.58969C79.4317 4.48969 79.2317 4.28969 79.0317 4.18969C78.5317 3.88969 78.1317 3.68969 77.8317 3.58969C77.5317 3.48969 77.3317 3.68969 77.4317 4.08969C77.4317 4.88969 77.7317 5.48969 77.9317 6.08969C78.0317 6.68969 78.0317 7.18969 77.4317 7.88969C77.3317 8.08969 77.1317 8.28969 77.0317 8.48969C76.9317 8.68969 76.2317 8.28969 75.9317 7.98969C75.6317 7.68969 74.9317 7.98969 75.0317 7.68969C75.8317 6.68969 76.3317 4.68969 76.2317 3.38969C76.2317 2.98969 76.2317 1.48969 76.7317 1.38969C77.9317 1.08969 80.1317 2.98969 80.4317 3.88969C80.5317 4.08969 80.5317 4.28969 80.5317 4.38969C80.4317 4.88969 80.3317 5.08969 80.2317 5.58969C80.2317 6.48969 78.6317 5.58969 78.2317 5.38969Z" fill="#E8A476"/>
<path fill-rule="evenodd" clip-rule="evenodd" d="M78.2316 2.28967C77.9316 2.48967 77.7316 2.98967 77.6316 3.38967L77.0316 4.78967C77.0316 3.58967 76.7316 2.48967 78.2316 2.28967Z" fill="#DB9669"/>
<path fill-rule="evenodd" clip-rule="evenodd" d="M76.9315 5.48965C76.7315 5.98965 75.8315 7.58965 75.8315 7.78965C75.8315 8.08965 76.5315 8.68965 77.0315 8.58965C77.9315 8.58965 78.5315 7.28965 78.6315 6.48965C78.7315 5.88965 78.5316 4.88965 78.7316 4.28965C79.1316 3.18965 78.9316 2.68965 78.7316 2.38965C78.5316 2.08965 77.7315 1.88965 77.6315 3.38965C77.5315 3.98965 77.2315 4.98965 76.9315 5.48965Z" fill="#E8A476"/>
<path fill-rule="evenodd" clip-rule="evenodd" d="M76.3315 8.38966C76.5315 8.48966 76.8315 8.68966 77.0315 8.68966C77.9315 8.68966 78.5315 7.38966 78.6315 6.58966C78.7315 5.98966 78.5316 4.98966 78.7316 4.38966C79.1316 3.28966 78.9316 2.78966 78.7316 2.48966C78.6316 2.28966 78.2315 2.18966 77.9315 2.38966C78.2315 2.78966 78.4315 3.48966 77.9315 4.98966C77.5315 6.68966 77.2315 7.08966 76.3315 8.38966Z" fill="#F1B287"/>
<path fill-rule="evenodd" clip-rule="evenodd" d="M74.8315 7.48967C74.8315 7.38967 75.1315 6.88967 75.5315 6.28967C75.8315 7.18967 78.0315 9.18967 79.6315 7.98967L79.2316 9.28967C78.0316 10.0897 75.9315 9.38967 74.8315 7.48967Z" fill="#E6EDFF"/>
<path fill-rule="evenodd" clip-rule="evenodd" d="M69.3316 19.2897C71.5316 15.0897 72.6316 11.8897 74.9316 6.6897C75.1316 7.8897 77.7316 9.5897 79.5316 8.9897C77.7316 15.1897 77.2316 22.1897 75.4316 24.2897C73.1316 27.0897 66.2316 32.0897 63.0316 33.8897C59.0316 36.1897 56.8316 38.7897 56.0316 37.8897C54.6316 36.1897 53.8316 31.8897 54.8316 29.9897C56.9316 25.7897 64.8316 22.6897 69.3316 19.2897Z" fill="#152747"/>
<path fill-rule="evenodd" clip-rule="evenodd" d="M69.3315 19.2897C71.5315 15.0897 72.6315 11.8897 74.9315 6.6897C75.0315 7.0897 75.3315 7.5897 75.8315 7.9897C74.2315 13.3897 72.7315 17.7897 71.1315 21.4897C66.3315 24.5897 59.9315 26.3897 57.3315 26.9897C60.7315 24.1897 65.9315 21.8897 69.3315 19.2897Z" fill="#1A3059"/>
<path fill-rule="evenodd" clip-rule="evenodd" d="M72.4316 22.1897C74.1316 18.8897 76.2316 13.0897 76.8316 8.58972C77.7316 8.98972 78.6316 9.18972 79.4316 8.98972C77.6316 15.1897 77.1316 22.1897 75.3316 24.2897C73.0316 27.0897 66.1316 32.0897 62.9316 33.8897C58.9316 36.1897 56.7316 38.7897 55.9316 37.8897C55.2316 37.0897 54.7316 35.5897 54.4316 34.0897C66.3316 28.4897 71.0316 23.8897 72.4316 22.1897Z" fill="#0F1E38"/>
<path fill-rule="evenodd" clip-rule="evenodd" d="M79.9316 1.8897L81.4316 3.4897L80.8316 5.3897L81.5316 3.3897L80.1316 1.6897L79.9316 1.8897Z" fill="#DB9669"/>
<path fill-rule="evenodd" clip-rule="evenodd" d="M80.7317 1.48965L82.1317 3.08965L81.5317 4.98965L82.3317 2.98965L80.8317 1.38965L80.7317 1.48965Z" fill="#DB9669"/>
<path fill-rule="evenodd" clip-rule="evenodd" d="M81.5315 1.08966L82.9315 2.68966L82.3315 4.58966L83.0315 2.58966L81.8315 1.18966L81.5315 1.08966Z" fill="#DB9669"/>
<path fill-rule="evenodd" clip-rule="evenodd" d="M45.8317 30.5896C48.3317 29.5896 57.1317 25.5897 59.4317 26.2897C65.6317 28.0897 65.6318 33.9896 64.2318 42.5896C63.7318 45.4896 62.9317 47.8896 62.4317 51.4896C61.8317 55.7896 61.6318 63.2896 60.7318 67.7896C59.1318 70.1897 59.2317 69.9896 57.0317 71.3896C57.7317 68.4896 58.1317 65.7896 58.5317 62.6897C57.6317 65.7896 56.8318 68.7896 55.7318 71.7896C51.9318 73.7896 41.6317 73.6897 39.0317 69.2896C40.1317 61.3896 42.8317 61.6897 43.8317 56.6897C44.6317 52.5897 40.3317 40.8897 41.1317 35.1897C41.5317 32.6897 43.9317 31.3896 45.8317 30.5896Z" fill="#152747"/>
<path fill-rule="evenodd" clip-rule="evenodd" d="M45.8316 30.5896L51.2316 28.4896C50.3316 29.5896 47.5316 31.1896 45.1316 32.6896C47.2316 36.9896 49.3316 46.2896 48.9316 52.3896C48.2316 63.4896 45.1316 64.7896 44.1316 72.3896C41.9316 71.7896 39.9316 70.8896 38.9316 69.1896C40.0316 61.2896 42.7316 61.5896 43.7316 56.5896C44.5316 52.4896 40.2316 40.7896 41.0316 35.0896C41.5316 32.6896 43.9316 31.3896 45.8316 30.5896Z" fill="#0F1E38"/>
<path fill-rule="evenodd" clip-rule="evenodd" d="M59.6316 28.6896C61.3316 29.7896 61.5316 30.0896 62.5316 32.2896L61.3316 33.0896L62.6316 33.7896C62.4316 39.5896 60.9316 47.2896 59.8316 53.0896C59.9316 47.2896 61.1316 38.8896 59.9316 33.5896C59.6316 32.1896 59.1316 31.3896 58.5316 30.1896C58.4316 29.6896 59.3316 28.4896 59.6316 28.6896Z" fill="#1D386B"/>
<path fill-rule="evenodd" clip-rule="evenodd" d="M51.1317 28.1896C50.6317 30.1896 55.9317 33.6896 58.2317 32.8896C58.4317 32.7896 58.6317 32.3896 58.8317 32.1896C58.7317 31.6896 58.7317 31.2896 58.8317 30.7896C58.9317 30.1896 59.2317 29.7896 59.5317 29.2896C59.9317 28.5896 60.1317 27.1896 60.7317 25.5896L54.7317 21.8896L53.4317 20.9896C53.6317 24.2896 52.7317 25.6896 51.1317 28.1896Z" fill="#E8A476"/>
<path fill-rule="evenodd" clip-rule="evenodd" d="M51.1316 28.1897C51.1316 28.2897 51.1316 28.3897 51.1316 28.4897C54.4316 26.9897 56.1316 28.8896 59.8316 28.3896C60.0316 27.5896 60.3316 26.5897 60.7316 25.4897L54.7316 21.7896L53.4316 20.8896C53.6316 24.2896 52.7316 25.6897 51.1316 28.1897Z" fill="#DB9669"/>
<path fill-rule="evenodd" clip-rule="evenodd" d="M51.9317 29.2897C50.2317 37.6897 59.3317 38.3897 59.9317 51.2897C60.3317 44.1897 61.4317 38.9897 59.5317 31.9897L58.7317 32.7897L56.8317 32.8897L51.9317 29.2897Z" fill="#D1D7F2"/>
<path fill-rule="evenodd" clip-rule="evenodd" d="M56.9316 33.4896C57.1316 34.7896 57.1316 34.7896 58.2316 35.7896C58.0316 36.3896 57.8316 36.9896 57.6316 37.5896C59.2316 43.3896 59.5316 44.8896 60.0316 51.3896C60.1316 50.3896 60.2316 51.1896 60.2316 50.2896C60.5316 45.8896 60.6316 41.2896 60.3316 35.9896C59.8316 35.5896 59.4316 35.4896 59.2316 35.3896C59.7316 33.9896 59.7316 33.0896 59.4316 32.8896C58.2316 32.6896 57.8316 32.7896 56.9316 33.4896Z" fill="#1A3059"/>
<path fill-rule="evenodd" clip-rule="evenodd" d="M56.9316 33.4896C57.1316 34.7896 57.1316 34.7896 58.2316 35.7896C58.0316 36.3896 57.8316 36.9896 57.6316 37.5896C59.2316 43.3896 59.5316 44.8896 60.0316 51.3896C60.5316 45.4896 59.9316 42.3896 58.6316 37.5896C58.8316 36.6896 58.8316 36.0896 58.7316 35.5896C58.1316 34.4896 57.6316 33.8896 57.6316 33.0896C56.5316 32.9896 57.8316 32.7896 56.9316 33.4896Z" fill="#152747"/>
<path fill-rule="evenodd" clip-rule="evenodd" d="M58.2317 32.7896C58.5317 32.1896 58.5317 30.9896 58.9317 30.3896C59.6317 30.5896 60.1317 32.3896 60.6317 33.7896C59.7317 33.0896 59.3317 32.9897 58.2317 32.7896Z" fill="#E6EDFF"/>
<path fill-rule="evenodd" clip-rule="evenodd" d="M51.6318 27.5897C50.6318 28.2897 49.9318 28.4897 49.6318 29.0897C48.6318 30.7897 50.3318 34.0897 50.8318 37.2897L52.5317 37.0897L51.7318 38.6897C57.5318 44.4897 59.9317 47.2897 60.0317 54.4897C61.2317 36.8897 50.0318 35.0897 51.6318 27.5897Z" fill="#1D386B"/>
<path fill-rule="evenodd" clip-rule="evenodd" d="M51.7317 27.0897C51.2317 29.3897 55.8317 31.8897 58.2317 32.7897C57.5317 33.4897 56.5317 34.2897 56.4317 35.0897C54.7317 34.3897 51.4317 32.6897 50.5317 30.1897C49.9317 28.5897 50.8317 27.5897 51.7317 27.0897Z" fill="#E6EDFF"/>
<path fill-rule="evenodd" clip-rule="evenodd" d="M51.7316 40.5897C52.2316 46.6897 52.8316 50.7897 52.5316 54.4897C52.1316 59.6897 50.9316 64.2897 48.4316 72.5897L54.4316 71.9897C55.9316 66.8897 58.5316 61.2897 58.9316 55.5897C59.1316 49.8897 57.4316 43.9897 51.7316 40.5897Z" fill="#1A3059"/>
<path fill-rule="evenodd" clip-rule="evenodd" d="M61.4317 29.6896C64.3317 33.8896 62.7317 39.8896 61.8317 45.9896C60.5317 54.7896 59.5317 61.8896 57.7317 70.5896C58.8317 69.8896 59.7317 68.9896 60.5317 67.6896C61.2317 60.2896 61.7317 51.9896 63.3317 44.7896C64.6317 38.6896 65.7317 32.4896 62.5317 28.4896C62.1317 28.9896 62.0317 29.1896 61.4317 29.6896Z" fill="#1A3059"/>
<path fill-rule="evenodd" clip-rule="evenodd" d="M49.3317 60.5897C51.9317 59.7897 52.7317 59.5896 54.9317 59.3896L53.1317 65.5897C51.6317 66.5897 49.5317 66.9896 47.7317 66.7896L49.3317 60.5897Z" fill="#152747"/>
<path fill-rule="evenodd" clip-rule="evenodd" d="M49.3318 60.5897C51.9318 59.7897 52.7318 59.5896 54.9318 59.3896C54.4318 61.1896 54.5318 61.1896 52.5318 61.8896C48.9318 63.0896 50.0318 63.1896 48.3318 66.8896C48.2318 67.0896 47.9318 66.8896 47.8318 66.8896L49.3318 60.5897Z" fill="#0F1E38"/>
<path fill-rule="evenodd" clip-rule="evenodd" d="M49.6316 59.7896C52.3316 58.9897 53.5316 58.4896 55.4316 57.8896L54.6316 60.3896C53.9316 60.8896 50.3316 62.2896 48.9316 61.9896L49.6316 59.7896Z" fill="#152747"/>
<path fill-rule="evenodd" clip-rule="evenodd" d="M49.6316 59.7896C52.3316 58.9897 53.5316 58.4896 55.4316 57.8896C53.4316 59.0896 50.2316 59.7896 49.4316 61.9896C49.2316 61.9896 49.0316 61.9896 48.9316 61.9896L49.6316 59.7896Z" fill="#0F1E38"/>
<path fill-rule="evenodd" clip-rule="evenodd" d="M54.1317 61.4896L50.7318 62.8896L49.0317 66.3896C50.6317 66.1896 51.1317 66.0896 52.6317 65.5896L54.1317 61.4896Z" fill="#1A3059"/>
<path fill-rule="evenodd" clip-rule="evenodd" d="M55.0316 58.2897C53.4316 59.1897 51.2316 60.3897 50.1316 61.6897C51.8316 61.3897 52.4316 61.0897 54.2316 60.2897C54.6316 59.6897 54.8316 59.0897 55.0316 58.2897Z" fill="#1A3059"/>
<path fill-rule="evenodd" clip-rule="evenodd" d="M60.1317 58.1897C61.0317 57.3897 61.3317 57.1896 62.1317 56.8896L61.1317 63.3896C60.6317 63.8896 59.3317 64.3896 59.0317 64.2896L60.1317 58.1897Z" fill="#152747"/>
<path fill-rule="evenodd" clip-rule="evenodd" d="M60.1318 58.1897C61.0318 57.3897 61.3318 57.1896 62.1318 56.8896C61.7318 58.7896 61.8318 58.6896 61.1318 59.3896C59.8318 60.5896 60.2318 60.6896 59.3318 64.3896C59.2318 64.3896 59.1318 64.3896 59.1318 64.3896L60.1318 58.1897Z" fill="#0F1E38"/>
<path fill-rule="evenodd" clip-rule="evenodd" d="M61.6317 59.0897L60.4317 60.4897L59.7317 64.0897C60.2317 63.8897 60.5317 63.7897 61.0317 63.2897L61.6317 59.0897Z" fill="#1A3059"/>
<path fill-rule="evenodd" clip-rule="evenodd" d="M60.2318 56.6896C61.1318 56.2896 61.6317 55.9896 62.3317 55.6896L62.0317 58.1896C61.7317 58.5896 60.5317 59.4896 60.0317 58.8896L60.2318 56.6896Z" fill="#152747"/>
<path fill-rule="evenodd" clip-rule="evenodd" d="M60.2318 56.6896C61.1318 56.2896 61.6317 55.9896 62.3317 55.6896C61.6317 56.5896 60.5318 56.7896 60.2318 58.9896C60.1318 58.9896 60.1317 58.8896 60.0317 58.8896L60.2318 56.6896Z" fill="#0F1E38"/>
<path fill-rule="evenodd" clip-rule="evenodd" d="M62.1316 55.9896C61.5316 56.5896 60.7316 57.4896 60.4316 58.7896C61.0316 58.6896 61.2316 58.5896 61.8316 57.9896C62.0316 57.3896 62.0316 56.7896 62.1316 55.9896Z" fill="#1A3059"/>
<path fill-rule="evenodd" clip-rule="evenodd" d="M37.1316 80.1896C37.3316 79.7896 37.3316 79.3896 37.1316 79.0896C37.1316 79.0896 37.1316 78.9896 37.0316 78.9896L27.1316 65.7896C27.0316 65.8896 26.9316 66.1896 26.8316 66.4896L25.4316 69.7896L30.9316 83.9896L35.7316 83.4896L37.1316 80.1896Z" fill="#4F260D"/>
<path fill-rule="evenodd" clip-rule="evenodd" d="M37.2317 80.7896L32.2317 81.3896L32.6317 82.0896L37.6317 81.3896L37.2317 80.7896Z" fill="#8F4C22"/>
<path fill-rule="evenodd" clip-rule="evenodd" d="M32.3316 82.2896L33.2316 82.1896L33.3316 81.7896L23.2316 68.2896H22.4316L32.3316 82.2896Z" fill="#8F4C22"/>
<path fill-rule="evenodd" clip-rule="evenodd" d="M28.9316 91.0896L31.8316 84.1896L32.7316 81.9896L22.4316 68.2896L18.6316 77.3896C18.5316 77.5896 18.4316 77.8896 18.4316 78.0896C18.4316 78.1896 18.4316 78.3896 18.4316 78.4896C18.4316 78.5896 18.4316 78.5896 18.4316 78.6896C18.4316 78.7896 18.5316 78.8896 18.6316 78.9896L28.9316 92.6896C28.6316 92.2896 28.7316 91.7896 28.9316 91.0896Z" fill="#6E3715"/>
<path fill-rule="evenodd" clip-rule="evenodd" d="M37.6316 81.3896L32.6316 81.9896L28.8316 91.0897C28.3316 92.3897 28.9316 93.1897 30.3316 93.0897C31.7316 92.8897 33.2316 91.7896 33.7316 90.4896L37.6316 81.3896Z" fill="#783C18"/>
<path fill-rule="evenodd" clip-rule="evenodd" d="M36.1317 78.4897C37.1317 78.7897 37.6317 79.5897 37.2317 80.7897L36.8317 81.6897L36.1317 80.8897C36.3317 80.3897 36.3317 79.9897 36.1317 79.6897C35.4317 78.7897 33.8317 79.6897 33.2317 80.0897C32.8317 80.4897 32.4317 80.8897 32.2317 81.2897L31.8317 82.1897L30.7317 82.2897L31.1317 81.3897C31.5317 80.3897 32.3317 79.3897 33.3317 78.7897C34.3317 78.3897 35.1317 78.1897 36.1317 78.4897Z" fill="#85451D"/>
<path fill-rule="evenodd" clip-rule="evenodd" d="M24.7317 81.5896L25.5317 81.4896L24.5317 83.8896H23.7317L24.2317 82.5896L24.7317 81.5896Z" fill="#F2930E"/>
<path fill-rule="evenodd" clip-rule="evenodd" d="M27.3317 65.8896C27.2317 65.6896 26.9317 65.4896 26.8317 65.4896C26.2317 65.1896 25.3317 65.2896 24.7317 65.4896C24.2317 65.6896 23.6317 65.8896 23.2317 66.2896C22.5317 66.7896 21.8317 67.4896 21.4317 68.1896C21.4317 68.2896 21.3317 68.3896 21.3317 68.4896L20.2317 71.1896L23.5317 80.5896L24.4317 81.7896L30.4317 84.8896H30.5317L31.1317 83.6896C31.4317 82.9896 32.7317 80.8896 33.3317 80.2896C34.2317 79.5896 36.7317 78.5896 37.6317 79.6896L27.3317 65.8896Z" fill="#8F4C22"/>
<path fill-rule="evenodd" clip-rule="evenodd" d="M23.6317 66.5896C22.6317 67.0896 21.8317 68.0896 21.6317 68.7896L20.5317 71.3896L23.7318 80.2896L24.6317 81.4896L30.1317 84.1896H30.2318C30.8318 82.7896 31.4317 80.6896 32.8317 79.6896C33.6317 79.0896 33.4317 78.7896 33.0317 78.1896L25.3317 67.3896C24.7317 66.6896 24.4317 66.1896 23.6317 66.5896Z" fill="#A35829"/>
<path fill-rule="evenodd" clip-rule="evenodd" d="M36.8315 79.0896C37.8315 79.3896 38.1315 80.2896 37.6315 81.3896L36.2316 84.6896L35.1315 84.7896L36.5315 81.4896C36.7315 80.9896 36.7315 80.5896 36.5315 80.2896C35.8315 79.3896 34.1315 80.1896 33.5315 80.6896C33.1315 81.0896 32.7315 81.4896 32.5315 81.8896L31.4315 84.5896L30.3315 84.6896L31.4315 81.9896C31.8315 80.9896 32.6315 79.9896 33.6315 79.3896C34.6315 78.9896 35.8315 78.7896 36.8315 79.0896Z" fill="#783C18"/>
<path fill-rule="evenodd" clip-rule="evenodd" d="M24.7317 81.5897H25.0317L24.0317 83.8897H23.7317L24.2317 82.5897L24.7317 81.5897Z" fill="#F2930E"/>
<path fill-rule="evenodd" clip-rule="evenodd" d="M23.4316 79.8896L24.1316 80.9896L24.7316 81.5896H25.0316L23.7316 79.7896L23.4316 79.8896Z" fill="#FFD563"/>
<path fill-rule="evenodd" clip-rule="evenodd" d="M23.4316 79.8896L24.7316 81.5897L23.7316 83.8896L22.4316 82.1897L23.4316 79.8896Z" fill="#FFC526"/>
<path fill-rule="evenodd" clip-rule="evenodd" d="M23.4317 80.0897L23.7318 83.7897L22.5317 82.1897L23.4317 80.0897Z" fill="#FFD970"/>
<path fill-rule="evenodd" clip-rule="evenodd" d="M29.7316 68.6896C29.7316 68.6896 29.7316 68.5896 29.8316 68.5896C29.8316 68.5896 29.8316 68.4896 29.9316 68.4896C29.9316 68.4896 29.9316 68.3896 30.0316 68.3896C30.0316 68.3896 30.1316 68.3896 30.1316 68.2896L30.2316 68.1896H30.3316L28.8316 68.3896H28.7316C28.7316 68.3896 28.6316 68.3896 28.6316 68.4896C28.6316 68.4896 28.5316 68.4896 28.5316 68.5896C28.5316 68.5896 28.5316 68.5896 28.4316 68.6896C28.4316 68.6896 28.4316 68.6896 28.4316 68.7896C28.4316 68.7896 28.4316 68.7896 28.4316 68.8896C28.4316 68.8896 28.4316 68.8896 28.4316 68.9896C28.4316 68.9896 28.4316 68.9896 28.4316 69.0896L28.1316 69.6896L29.6316 69.4896L29.9316 68.8896C29.6316 68.7896 29.7316 68.7896 29.7316 68.6896Z" fill="#783C18"/>
<path fill-rule="evenodd" clip-rule="evenodd" d="M31.5316 67.7896C31.5316 67.7896 31.4316 67.7896 31.5316 67.7896C31.4316 67.6896 31.4316 67.6897 31.4316 67.6897C31.4316 67.6897 31.4316 67.6897 31.3316 67.5897C31.3316 67.5897 31.3316 67.5896 31.2316 67.4896C31.2316 67.4896 31.2316 67.4896 31.1316 67.3896H31.0316C31.0316 67.3896 31.0316 67.3896 30.9316 67.3896H30.8316H30.7316H30.6316C30.5316 67.3896 30.5316 67.3896 30.4316 67.3896L28.9316 67.5897C29.4316 67.6897 29.9316 67.9896 30.2316 68.4896L31.1316 68.2896L31.5316 67.7896C31.5316 67.8896 31.5316 67.8896 31.5316 67.7896Z" fill="#8C491F"/>
<path fill-rule="evenodd" clip-rule="evenodd" d="M32.5315 74.2896H32.6315C32.6315 74.3896 32.6315 74.4896 32.5315 74.4896C32.5315 74.5896 32.4315 74.6897 32.4315 74.6897L33.9315 74.4896V74.3896C34.0315 74.1896 34.0315 73.9897 34.1315 73.7896C34.1315 73.4897 34.2315 73.2896 34.2315 72.9896C34.2315 72.5896 34.2315 72.2896 34.1315 71.8896C34.1315 71.8896 34.1315 71.7897 34.1315 71.6897V71.5897C34.1315 71.3897 33.7315 70.5896 33.5315 70.3896H32.8315L32.0315 70.5897C32.6315 71.5897 32.8315 72.9897 32.5315 74.2896Z" fill="#8C491F"/>
<path fill-rule="evenodd" clip-rule="evenodd" d="M31.9315 70.5896L30.0315 68.0896C29.2315 66.9896 28.1315 67.1896 27.6315 68.3896L27.3315 68.9896L27.8315 69.6896L28.1315 69.0896C28.4315 68.2896 29.1316 68.1896 29.7316 68.8896L31.6315 71.3896C32.1315 72.0896 32.3315 73.2896 31.9315 74.0896L31.6315 74.6896L32.1315 75.3896L32.4315 74.7896C33.0315 73.4896 32.7315 71.6896 31.9315 70.5896Z" fill="#854219"/>
<path fill-rule="evenodd" clip-rule="evenodd" d="M32.4316 74.7897L32.1316 75.3897L33.6316 75.1897L33.9316 74.5897V74.4897V74.3897V74.2897L32.4316 74.3897C32.4316 74.4897 32.4316 74.5897 32.3316 74.5897C32.5316 74.5897 32.5316 74.6897 32.4316 74.7897Z" fill="#783C18"/>
<path fill-rule="evenodd" clip-rule="evenodd" d="M31.5315 67.8896L30.0315 68.0897L31.9315 70.5897L33.4315 70.3896L31.5315 67.8896Z" fill="#8F4C22"/>
<path fill-rule="evenodd" clip-rule="evenodd" d="M36.7316 82.0897L33.0316 82.5897L29.6316 90.5897C29.2316 91.5897 29.6316 92.2897 30.7316 92.1897C31.8316 92.0897 32.8316 91.0897 33.2316 90.0897L36.7316 82.0897Z" fill="#8F4C22"/>
<path fill-rule="evenodd" clip-rule="evenodd" d="M29.4317 64.1896C28.9317 67.3896 27.8317 68.7896 27.9317 69.5896C27.9317 70.1896 30.0317 73.3896 30.8317 74.1896C31.0317 74.3896 31.8317 74.2896 31.9317 74.0896C32.5317 73.5896 32.1317 72.4896 32.6317 71.1896C32.9317 70.3896 33.5317 70.6896 33.7317 70.8896C34.1317 71.2896 34.1317 72.0896 34.2317 72.5896C34.5317 70.6896 35.4317 69.3896 34.5317 67.7896C34.1317 67.0896 33.6317 66.3896 33.6317 65.1896L29.4317 64.1896Z" fill="#F1B287"/>
<path fill-rule="evenodd" clip-rule="evenodd" d="M29.4317 64.1896C28.9317 67.3896 27.8317 68.7896 27.9317 69.5896C27.9317 70.1896 29.7317 72.8896 30.3317 73.5896C30.3317 71.6896 31.5317 69.8896 31.7317 67.9896C32.1317 67.8896 33.7317 67.6896 34.0317 66.9896L33.8317 66.6896L29.4317 64.1896Z" fill="#E8A476"/>
<path fill-rule="evenodd" clip-rule="evenodd" d="M43.7318 31.8896C40.0318 32.5896 35.5318 42.4897 32.4318 48.5897C31.0318 54.1897 29.8318 58.6896 28.8318 64.2896C29.4318 65.6897 33.0318 68.1897 34.2318 66.2896C35.5318 61.5896 37.6318 56.0897 37.9318 51.0897C40.1318 48.9897 41.8318 46.5897 43.4318 44.1897C44.3318 42.7897 45.6318 41.1897 46.3318 39.6897C46.5318 37.1897 46.5318 33.4896 43.7318 31.8896Z" fill="#152747"/>
<path fill-rule="evenodd" clip-rule="evenodd" d="M35.7316 50.5897C35.6316 52.8897 34.0316 60.6896 32.6316 66.9896C33.0316 66.9896 33.4316 66.9897 33.8316 66.7896C34.0316 66.6896 34.1316 66.5896 34.2316 66.3896C35.5316 61.6896 37.6316 56.1897 37.9316 51.1897C40.1316 49.0897 41.8316 46.6896 43.4316 44.2896C44.3316 42.8897 45.6316 41.2896 46.3316 39.7896C46.4316 38.2896 46.5316 36.4896 46.0316 34.8896C43.8316 38.2896 36.9316 48.2897 35.7316 50.5897Z" fill="#1A3059"/>
<path fill-rule="evenodd" clip-rule="evenodd" d="M43.7318 31.8896C40.0318 32.5896 35.5318 42.4897 32.4318 48.5897C31.0318 54.1897 29.8318 58.6896 28.8318 64.2896C29.1318 64.9897 30.1318 65.9897 31.3318 66.5897L31.2318 66.0897C31.9318 60.7897 33.1318 55.1896 34.2318 49.9896C38.1318 43.1896 40.6318 39.7897 45.3318 33.6897C45.0318 32.9897 44.4318 32.2896 43.7318 31.8896Z" fill="#0F1E38"/>
<path fill-rule="evenodd" clip-rule="evenodd" d="M60.3317 27.6897C59.4317 27.5897 57.4317 27.4897 56.5317 27.3897C54.7317 27.0897 54.2317 25.7897 52.8317 23.9897C51.1317 23.7897 50.3317 23.2897 49.8317 22.4897C48.6317 20.7897 48.6317 18.1897 49.5317 16.2897C50.3317 14.6897 51.6317 13.6897 53.4317 13.1897C56.9317 12.2897 59.4317 13.9897 61.0317 16.5897C61.1317 16.7897 61.2317 17.0897 61.3317 17.2897C61.4317 17.8897 61.3317 18.2897 61.4317 18.6897C61.5317 19.4897 61.8317 19.4897 62.1317 19.8897C62.4317 20.3897 62.5317 21.4897 62.9317 22.4897C63.0317 22.6897 63.1317 23.0897 63.2317 23.6897C63.4317 24.6897 63.4317 25.9897 63.1317 26.2897C62.9317 26.5897 62.6317 26.6897 62.2317 26.9897C61.7317 27.4897 61.4317 27.6897 60.3317 27.6897Z" fill="#F1B287"/>
<path fill-rule="evenodd" clip-rule="evenodd" d="M60.3317 27.6897C59.4317 27.5897 57.4317 27.4897 56.5317 27.3897C54.7317 27.0897 54.2317 25.7897 52.8317 23.9897C51.1317 23.7897 50.3317 23.2897 49.8317 22.4897C48.6317 20.7897 48.6317 18.1897 49.5317 16.2897C50.3317 14.6897 51.6317 13.6897 53.4317 13.1897C56.4317 12.3897 58.7317 13.5897 60.3317 15.5897C60.3317 15.7897 59.0317 17.1897 57.5317 17.9897C56.7317 18.3897 55.6317 18.1897 54.5317 18.1897C54.7317 19.0897 56.3317 20.8897 56.6317 21.4897C56.7317 21.5897 56.5317 22.3897 57.1317 22.7897C57.3317 22.8897 57.6317 22.9897 57.6317 23.2897C58.1317 26.1897 60.5317 26.8897 61.6317 27.3897C61.2317 27.5897 60.8317 27.6897 60.3317 27.6897Z" fill="#E8A476"/>
<path fill-rule="evenodd" clip-rule="evenodd" d="M52.3317 17.8896C52.6317 20.2896 54.9317 22.8896 56.2317 24.7896C56.5317 25.1896 57.1317 25.4896 57.9317 25.6896C58.3317 25.7896 59.2317 25.9896 59.3317 25.9896C59.7317 25.7896 59.2317 24.7896 60.4317 23.5896C60.8317 23.1896 61.4317 22.6896 61.7317 22.6896C62.2317 22.5896 62.4317 22.7896 62.6317 22.4896C62.9317 23.2896 63.5317 25.3896 63.2317 26.1896C63.1317 26.5896 62.6317 26.9896 62.0317 27.5896C61.6317 27.8896 60.9317 27.9896 60.0317 28.0896C58.4317 28.1896 56.5317 27.6896 55.2317 27.1896C54.7317 26.9896 54.3317 26.8896 54.3317 25.9896C54.3317 24.3896 53.7317 22.8896 53.1317 21.7896C52.5317 20.7896 52.0317 20.2896 50.7317 19.5896C51.5317 18.0896 52.1317 15.6896 52.3317 17.8896ZM61.8317 25.5896C61.5317 25.1896 61.6317 25.1896 61.8317 24.9896C62.0317 24.7896 62.1317 24.7896 62.4317 25.0896C62.6317 24.8896 62.8317 24.7896 62.8317 24.6896C62.8317 24.4896 62.8317 24.3896 62.7317 24.1896C62.5317 23.7896 62.1317 23.4896 61.7317 23.7896C61.5317 23.9896 60.9317 24.4896 60.8317 24.7896C60.7317 25.0896 60.8317 25.9896 61.1317 26.1896C61.2317 26.2896 61.2317 26.3896 61.3317 26.2896C61.5317 25.9896 61.7317 25.7896 61.8317 25.5896Z" fill="#8C5B3C"/>
<path fill-rule="evenodd" clip-rule="evenodd" d="M57.8318 16.8897C56.8318 16.7897 53.7318 16.3897 52.1318 16.1897C50.5318 15.9897 48.7318 15.7897 48.0318 17.0897C47.5318 18.6897 48.2318 20.9897 48.9318 22.0897C49.9318 23.6897 51.3318 24.7897 53.5318 25.4897C54.3318 25.7897 54.1318 23.8897 54.0318 23.2897C53.8318 22.5897 53.7318 21.9897 53.6318 21.1897C53.4318 20.6897 53.8318 20.4897 53.6318 20.0897C53.1318 18.9897 52.6318 18.4897 52.5318 17.5897C53.0318 16.4897 55.9318 17.5897 57.8318 16.8897Z" fill="#8C5B3C"/>
<path fill-rule="evenodd" clip-rule="evenodd" d="M58.7317 25.8897C59.0317 25.9897 59.3317 25.9897 59.3317 25.9897C59.7317 25.7897 59.2317 24.7897 60.4317 23.5897C60.8317 23.1897 61.4317 22.6897 61.7317 22.6897C62.2317 22.5897 62.4317 22.7897 62.6317 22.4897C62.9317 23.2897 63.5317 25.3897 63.2317 26.1897C63.1317 26.5897 62.6317 26.9897 62.0317 27.5897C61.9317 27.6897 61.8317 27.6897 61.7317 27.7897C61.4317 27.6897 61.0317 27.4897 60.9317 27.4897C60.4317 27.0897 59.5317 26.6897 58.7317 25.8897ZM61.8317 25.5897C61.5317 25.1897 61.6317 25.1897 61.8317 24.9897C62.0317 24.7897 62.1317 24.7897 62.4317 25.0897C62.6317 24.8897 62.8317 24.7897 62.8317 24.6897C62.8317 24.4897 62.8317 24.3897 62.7317 24.1897C62.5317 23.7897 62.1317 23.4897 61.7317 23.7897C61.5317 23.9897 60.9317 24.4897 60.8317 24.7897C60.7317 25.0897 60.8317 25.9897 61.1317 26.1897C61.2317 26.2897 61.2317 26.3897 61.3317 26.2897C61.5317 25.9897 61.7317 25.7897 61.8317 25.5897Z" fill="#A36B48"/>
<path fill-rule="evenodd" clip-rule="evenodd" d="M52.4317 22.0897C50.9317 22.1897 51.5317 23.6897 52.1317 24.4897C52.5317 25.0897 53.0317 24.7897 53.4317 25.1897C53.8317 25.5897 54.2317 25.7897 54.6317 25.6897C54.6317 24.9897 54.4317 23.9897 54.2317 23.3897C53.8317 22.6897 53.2317 22.0897 52.4317 22.0897Z" fill="#E8A476"/>
<path fill-rule="evenodd" clip-rule="evenodd" d="M48.0317 17.0897C47.7317 17.6897 47.7317 19.1897 48.1317 19.9897C48.0317 19.3897 47.9317 18.7897 48.3317 18.0897C48.2317 19.0897 48.2317 19.4897 48.8317 20.3897C48.6317 19.5897 48.5317 18.7897 49.0317 18.1897C48.8317 19.5897 49.4317 20.8897 49.8317 21.4897C49.4317 20.3897 49.3317 19.0897 49.9317 18.1897C49.7317 19.1897 50.3317 20.0897 50.7317 20.7897C50.5317 19.6897 50.3317 19.0897 50.9317 18.1897C51.0317 19.1897 51.5317 20.1897 52.1317 20.6897C51.9317 20.3897 51.7317 18.6897 51.8317 18.0897C52.0317 18.6897 52.6317 19.1897 53.1317 19.2897C52.5317 18.2897 52.5317 17.6897 52.5317 17.3897C52.5317 16.4897 53.9317 16.7897 55.4317 16.7897C51.5317 15.8897 48.5317 16.9897 48.0317 17.0897Z" fill="#4F2B0C"/>
<path fill-rule="evenodd" clip-rule="evenodd" d="M48.0316 17.0897C48.7316 16.9897 50.5316 16.4897 52.6316 16.5897C54.6316 16.6897 57.0316 17.5897 58.8316 16.3897C60.8316 15.0897 60.8316 12.5897 58.9316 11.2897C58.3316 11.8897 57.8316 11.4897 54.8316 11.3897C51.5316 11.4897 47.5316 13.4897 48.0316 17.0897Z" fill="#361D07"/>
<path fill-rule="evenodd" clip-rule="evenodd" d="M48.0318 17.0896C48.7318 16.9896 50.5318 16.4896 52.6318 16.5896C54.6318 16.6896 57.0318 17.5896 58.8318 16.3896C60.8318 15.0896 60.8318 12.6896 58.9318 11.3896C58.8318 12.2896 58.3318 12.4896 58.1318 13.1896C57.9318 13.9896 57.9318 14.4896 57.0318 14.7896C57.3318 14.4896 57.4318 14.3896 57.6318 13.7896C57.1318 14.3896 56.4318 14.8896 55.3318 15.2896C55.8318 14.9896 56.0318 14.7896 56.3318 14.3896C55.0318 15.0896 54.3318 15.2896 52.8318 15.5896C53.4318 15.1896 53.6318 15.1896 54.3318 14.8896C52.8318 14.9896 52.0318 15.3896 50.7318 15.9896C51.0318 15.6896 51.3318 15.4896 51.6318 15.2896C50.2318 15.6896 49.2318 16.5896 48.0318 16.6896C47.9318 16.7896 47.9318 16.9896 48.0318 17.0896Z" fill="#241304"/>
<path fill-rule="evenodd" clip-rule="evenodd" d="M48.6318 14.3897C49.3318 13.0897 51.0318 12.1897 52.4318 11.7897C53.5318 11.4897 55.0318 11.3897 55.7318 11.2897C55.4318 11.4897 55.3318 11.4897 55.1318 11.5897C56.8318 11.4897 57.7318 11.9897 58.6318 11.6897C57.4318 12.6897 54.9318 12.7897 54.2318 13.0897C54.4318 13.0897 54.4318 13.1897 54.7318 13.2897C52.7318 13.6897 51.0318 12.6897 48.6318 14.3897Z" fill="#4A2B12"/>
</svg>
