<svg width="53" height="137" viewBox="0 0 53 137" fill="none" xmlns="http://www.w3.org/2000/svg">
<path fill-rule="evenodd" clip-rule="evenodd" d="M7.22194 121.568C6.63065 123.106 6.27588 123.815 6.27588 126.062C6.63065 127.245 7.45846 127.718 8.40452 128.546L8.9958 128.664C10.6514 129.492 11.2427 132.566 12.78 133.985C13.8444 134.932 15.973 135.523 17.9834 135.878C20.2303 136.351 22.2406 135.641 21.6493 133.985C20.112 129.61 13.8444 124.761 13.4896 119.913L7.22194 121.568Z" fill="#111214"/>
<path fill-rule="evenodd" clip-rule="evenodd" d="M7.22194 121.568C6.63065 123.106 6.27588 123.815 6.27588 126.062C6.63065 127.245 7.45846 127.718 8.40452 128.545L8.9958 128.664C10.6514 129.491 11.2427 132.566 12.78 133.985C13.8444 134.931 15.973 135.523 17.9834 135.877C19.8755 136.232 21.7676 135.877 21.7676 134.577C20.9398 135.05 20.112 135.05 19.5207 134.931C15.8547 133.985 13.0166 130.674 11.9522 127.008C13.0166 126.417 13.8444 125.589 14.6722 124.643C11.834 125.352 10.5331 124.761 9.8236 120.977L7.22194 121.568Z" fill="black"/>
<path fill-rule="evenodd" clip-rule="evenodd" d="M15.6183 125.471C14.6723 126.535 14.1992 126.89 13.0167 127.481C14.1992 130.083 16.9191 133.276 19.8756 134.104C20.3486 134.222 21.5312 134.222 21.0582 133.276C19.8756 130.793 17.0374 128.073 15.6183 125.471Z" fill="#20232E"/>
<path fill-rule="evenodd" clip-rule="evenodd" d="M10.5331 109.861C9.70528 111.398 9.11399 112.108 8.99573 113.29C8.64096 115.655 9.114 118.139 9.70529 121.686C9.9418 123.46 9.58703 124.288 7.93142 123.933C6.63059 123.579 5.09325 121.213 4.14719 119.794C2.37333 116.956 2.84636 114.591 2.37333 113.408L1.66378 112.935C1.19075 112.462 0.00816913 109.742 0.126427 108.915C0.481199 108.442 1.07249 107.496 1.66378 106.786C3.5559 104.776 3.67415 105.249 5.68452 104.303C7.22187 106.195 8.75922 107.969 10.5331 109.861Z" fill="#111214"/>
<path fill-rule="evenodd" clip-rule="evenodd" d="M9.35056 123.697C8.99579 124.052 8.52276 124.052 7.81321 123.933C6.51238 123.579 4.97504 121.213 4.02898 119.794C2.25512 116.956 2.72815 114.591 2.25512 113.408L1.54556 112.935C1.07253 112.462 -0.110025 109.742 0.00823209 108.915C0.363004 108.442 0.954277 107.496 1.54556 106.786C3.43768 104.776 3.55595 105.249 5.56633 104.303C6.27587 105.13 6.98542 105.958 7.69496 106.786C6.51239 108.205 4.14724 110.215 4.38375 112.108C4.62027 114.236 5.3298 115.419 5.68457 116.601C6.63063 120.74 7.10367 123.579 9.35056 123.697Z" fill="black"/>
<path fill-rule="evenodd" clip-rule="evenodd" d="M8.87759 112.58C8.2863 112.699 7.57676 112.462 6.51244 111.753C6.39418 114.591 6.63068 114.591 7.45848 117.429C7.34023 119.321 7.22197 119.676 7.45848 120.504C7.695 121.568 8.28629 122.987 8.99583 123.105C9.35061 123.105 9.46886 122.514 9.23235 121.331C8.99583 119.912 8.75932 118.375 8.64106 116.956C8.5228 115.537 8.52282 114.118 8.87759 112.58Z" fill="#20232E"/>
<path fill-rule="evenodd" clip-rule="evenodd" d="M30.0455 92.5952C22.9501 99.3359 17.5103 103.593 11.0061 110.452C8.87746 111.162 4.50195 107.496 4.73846 104.184C9.46876 98.2716 11.7156 95.6699 14.5538 92.7135C16.919 90.2301 19.5206 88.3379 22.4771 86.8006C25.4335 83.2529 30.7551 83.2529 30.8734 86.3276C30.9916 88.1014 31.5829 90.9396 30.0455 92.5952Z" fill="#0C182E"/>
<path fill-rule="evenodd" clip-rule="evenodd" d="M28.2718 62.0848C30.0457 68.2342 30.6369 80.8877 31.11 88.6927C31.3465 95.1969 23.6598 94.4873 21.7676 92.2404C19.639 85.9728 16.0913 74.6201 15.027 67.4064L20.5851 63.8587L25.1971 58.3005L28.2718 62.0848Z" fill="#0C182E"/>
<path fill-rule="evenodd" clip-rule="evenodd" d="M6.27587 108.087C5.32981 106.904 4.62028 105.485 4.73854 104.185C9.46884 98.2717 11.7157 95.67 14.5539 92.7136C16.3278 90.8215 18.2199 89.2841 20.3485 88.1016C18.3381 81.7157 15.973 73.3194 15.0269 67.5248L20.585 63.977L25.1971 58.4189L28.39 62.2032C28.8631 64.0953 29.3361 66.4605 29.6909 69.1804C28.2718 72.0186 26.8527 73.3194 23.4232 76.0393C23.4232 78.8775 25.0788 86.919 25.0788 89.1659C25.0788 90.1119 24.6058 90.3484 22.9502 91.531C16.5643 96.2613 11.5975 102.174 6.27587 108.087Z" fill="#091224"/>
<path fill-rule="evenodd" clip-rule="evenodd" d="M19.5207 65.6323C20.2303 72.0182 17.1556 87.5099 16.446 95.1966C16.2095 101.228 7.45845 100.873 7.10368 97.0887C6.51239 91.1759 1.90034 68.5887 6.03935 64.2132L12.78 63.3854L19.5207 65.6323Z" fill="#0F1E38"/>
<path fill-rule="evenodd" clip-rule="evenodd" d="M16.3277 95.3151C16.3277 97.562 15.7364 97.7985 15.6181 99.0993C15.1451 107.377 15.2634 115.774 15.2634 123.933C12.5434 126.535 7.6949 125.116 6.51233 122.514C5.92104 114.946 5.448 111.043 5.448 106.904C5.56626 103.475 5.92103 100.282 6.98535 97.2072C8.16792 91.8856 16.5642 90.9396 16.3277 95.3151Z" fill="#0F1E38"/>
<path fill-rule="evenodd" clip-rule="evenodd" d="M10.6514 125.234C8.87757 124.88 7.22196 123.934 6.51242 122.515C5.92113 114.946 5.44809 111.044 5.44809 106.905C5.56635 103.475 5.92112 100.282 6.98544 97.2075C6.39415 91.2946 1.78212 68.7074 5.92113 64.3319L9.35059 63.8589L19.2842 73.6742L19.166 74.7386C16.9191 75.9211 12.4253 76.8672 10.6514 76.9855C10.4149 83.0166 10.4149 88.5747 10.7697 94.6058C11.0062 97.444 10.8879 99.0996 10.5332 101.938C9.35059 110.689 9.94188 115.892 10.6514 125.234Z" fill="#0C182E"/>
<path fill-rule="evenodd" clip-rule="evenodd" d="M18.9294 76.2759C16.446 77.1037 14.3174 77.8132 11.834 77.9315C11.4792 86.8008 13.0166 91.8859 12.78 98.0352C12.6618 100.755 11.5975 104.658 11.5975 107.378L11.7157 124.761C12.8983 124.761 14.0809 124.643 15.2635 123.815C15.2635 118.849 15.1452 112.344 15.2635 106.55C15.2635 104.066 15.2635 101.701 15.5 99.6908C15.6182 98.5083 15.973 97.6805 16.0913 96.6162C16.2095 95.6701 16.2095 95.1971 16.3278 94.1327C17.0373 88.4564 18.4564 82.0705 18.9294 76.2759Z" fill="#152747"/>
<path fill-rule="evenodd" clip-rule="evenodd" d="M29.8091 71.0721C27.917 73.9103 26.2614 75.4477 24.4875 76.8668C25.0788 80.4145 25.7884 85.4996 26.1431 87.3917C26.3797 88.8108 26.2614 89.8751 25.7883 90.8211C25.4336 91.4124 19.639 96.1427 16.6825 100.163L16.446 105.367C20.585 101.464 26.1431 96.734 30.0456 92.9498C31.2282 91.7672 31.4647 90.4664 31.3465 88.6925C30.7552 84.317 30.4004 76.3937 29.8091 71.0721Z" fill="#152747"/>
<path fill-rule="evenodd" clip-rule="evenodd" d="M5.80296 25.4251C8.64114 23.8878 18.22 17.7384 21.0582 18.2114C28.6266 19.2757 29.5727 26.2529 29.3362 36.5413C29.2179 39.9708 28.7449 43.0455 28.6266 47.3028C28.6266 52.3878 29.5727 61.2571 29.3362 66.5787C27.9171 69.6534 27.9171 69.4169 25.552 71.4273C25.9067 67.8795 25.9067 64.6866 25.7885 61.0206C25.1972 64.6866 24.8424 68.4708 24.0146 72.1368C19.8756 75.0933 7.81333 76.6306 4.0291 71.9003C4.0291 62.4397 7.22205 62.3214 7.69508 56.2903C8.04986 51.4418 0.954402 38.3152 1.07266 31.5745C1.07266 28.6181 3.55607 26.726 5.80296 25.4251Z" fill="#152747"/>
<path fill-rule="evenodd" clip-rule="evenodd" d="M5.80296 25.4256L11.8341 22.1144C10.888 23.5335 7.93159 25.8986 5.44818 28.0273C8.64113 32.7575 12.6619 43.2825 13.1349 50.4962C14.081 63.6227 10.7698 65.6331 10.6515 74.6207C7.9316 74.2659 5.56644 73.5564 4.0291 71.7825C4.0291 62.3219 7.22205 62.2037 7.69508 56.1725C8.04986 51.324 0.954402 38.1974 1.07266 31.4567C1.07266 28.6185 3.55607 26.7264 5.80296 25.4256Z" fill="#0F1E38"/>
<path fill-rule="evenodd" clip-rule="evenodd" d="M21.5312 20.9314C23.7781 21.9957 24.0146 22.3505 25.552 24.7156L24.2511 25.7799L25.9067 26.3712C26.6163 33.2302 26.1432 42.4542 25.7884 49.4314C24.9606 42.5725 25.0789 32.6389 22.832 26.6078C22.2407 25.0704 21.6495 24.2426 20.7034 22.8235C20.3486 22.3505 21.1764 20.8131 21.5312 20.9314Z" fill="#1D386B"/>
<path fill-rule="evenodd" clip-rule="evenodd" d="M11.4793 21.7593C11.2428 24.2427 17.9835 27.4357 20.5852 26.1349C20.8217 26.0166 20.9399 25.4253 21.1764 25.1888C21.0582 24.5975 20.8217 24.2427 20.9399 23.5332C21.0582 22.8237 21.2947 22.2324 21.5312 21.6411C21.886 20.8133 21.886 19.0394 22.359 17.1473L14.6723 13.8361L13.0167 13.0083C13.8445 16.7925 12.8984 18.5664 11.4793 21.7593Z" fill="#E8A476"/>
<path fill-rule="evenodd" clip-rule="evenodd" d="M11.4793 21.7592C11.4793 21.8775 11.4793 21.9957 11.4793 22.114C15.1453 19.8671 17.3922 21.7592 21.6495 20.5766C21.7677 19.6306 21.886 18.448 22.2408 17.0289L14.554 13.7177L12.8984 12.8899C13.8445 16.7924 12.8984 18.5662 11.4793 21.7592Z" fill="#DB9669"/>
<path fill-rule="evenodd" clip-rule="evenodd" d="M12.6618 22.9418C12.0706 32.9937 22.832 32.4024 25.6701 47.4211C25.0789 39.0248 25.4336 32.7571 22.1224 24.8339L21.2946 25.8982L19.0477 26.253L12.6618 22.9418Z" fill="#D1D7F2"/>
<path fill-rule="evenodd" clip-rule="evenodd" d="M19.1661 27.0809C19.5208 28.6183 19.6391 28.6183 20.9399 29.6826C20.8217 30.5104 20.7034 31.1017 20.5852 31.9295C23.4233 38.5519 23.8964 40.0892 25.552 47.6577C25.4337 46.4751 25.6702 47.303 25.6702 46.3569C25.3154 41.1536 24.7242 35.7137 23.4233 29.5643C22.832 29.2096 22.359 29.0913 22.0043 29.0913C22.359 27.4357 22.1225 26.3714 21.7677 26.1349C20.5852 25.8984 20.1121 26.1349 19.1661 27.0809Z" fill="#1A3059"/>
<path fill-rule="evenodd" clip-rule="evenodd" d="M19.1661 27.081C19.5208 28.6184 19.6391 28.6184 20.9399 29.6827C20.8217 30.5105 20.7034 31.1018 20.5852 31.9296C23.4233 38.552 23.8964 40.0894 25.552 47.6578C25.1972 40.6806 22.832 34.886 21.6495 31.9296C21.5312 30.747 21.6495 30.0375 21.5312 29.2097C20.4669 28.0271 19.9939 27.4358 19.9939 26.3715C18.8113 26.3715 20.1121 26.135 19.1661 27.081Z" fill="#152747"/>
<path fill-rule="evenodd" clip-rule="evenodd" d="M20.5851 26.1352C20.8216 25.4256 20.7034 24.0065 20.9399 23.297C21.7677 23.4153 22.7137 25.4256 23.4233 27.0812C22.359 26.1352 21.8859 26.1352 20.5851 26.1352Z" fill="#E6EDFF"/>
<path fill-rule="evenodd" clip-rule="evenodd" d="M11.9523 21.0496C10.888 21.9956 10.0602 22.4687 9.82365 23.06C8.99585 25.1886 11.4793 28.8546 12.5436 32.5205L14.554 31.9293L13.8444 33.9396C21.5312 39.8525 24.8424 42.6907 26.0249 51.087C24.7241 30.3919 11.361 30.0371 11.9523 21.0496Z" fill="#1D386B"/>
<path fill-rule="evenodd" clip-rule="evenodd" d="M12.0705 20.4583C11.9523 23.2964 17.6286 25.4251 20.5851 26.1346C19.8755 27.0807 18.8112 28.145 18.9295 29.091C16.8008 28.4998 12.6618 27.0807 11.2427 24.3608C10.1784 22.4686 11.1245 21.1678 12.0705 20.4583Z" fill="#E6EDFF"/>
<path fill-rule="evenodd" clip-rule="evenodd" d="M14.1992 36.1869C15.7365 43.2823 17.1556 48.0126 17.3921 52.3882C17.7469 58.6558 17.0374 64.4504 15.3818 74.7388C18.5747 74.384 21.8859 73.438 24.0145 72.1372C24.9606 65.9878 26.6162 59.6019 26.1432 52.8612C25.6702 46.1205 21.5311 39.2616 14.1992 36.1869Z" fill="#1A3059"/>
<path fill-rule="evenodd" clip-rule="evenodd" d="M23.8964 21.8778C27.9171 26.6081 27.0893 33.5853 26.9711 40.9172C26.8528 51.4421 27.0893 60.3114 26.498 70.7181C27.6806 69.8903 28.6267 68.353 29.3362 66.6973C28.9814 57.9463 28.2719 50.7326 28.9815 41.6268C29.5727 34.1766 29.5727 24.3612 25.3155 20.2222C24.8424 20.9317 24.6059 21.1682 23.8964 21.8778Z" fill="#1A3059"/>
<path fill-rule="evenodd" clip-rule="evenodd" d="M14.6723 60.0745C17.6287 58.6554 18.4565 58.3006 21.0582 57.7094L19.9939 65.2778C18.3383 66.6969 15.9731 67.5247 13.8445 67.5247L14.6723 60.0745Z" fill="#152747"/>
<path fill-rule="evenodd" clip-rule="evenodd" d="M14.6723 60.0745C17.6287 58.6554 18.4565 58.3006 21.0582 57.7094C20.7034 59.9562 20.9399 59.838 18.693 61.0206C14.6723 63.0309 15.8549 62.9127 14.554 67.5247C14.554 67.7612 14.081 67.5247 13.9627 67.5247L14.6723 60.0745Z" fill="#0F1E38"/>
<path fill-rule="evenodd" clip-rule="evenodd" d="M14.7906 59.0102C17.747 57.5912 19.0479 56.8816 21.2948 55.9355L20.8217 59.0102C20.1122 59.7198 16.0914 61.8484 14.3176 61.8484L14.7906 59.0102Z" fill="#152747"/>
<path fill-rule="evenodd" clip-rule="evenodd" d="M14.7906 59.0102C17.747 57.5912 19.0479 56.8816 21.2948 55.9355C19.1661 57.5912 15.5001 59.0103 14.9089 61.7302C14.6723 61.7302 14.4358 61.7302 14.3176 61.7302L14.7906 59.0102Z" fill="#0F1E38"/>
<path fill-rule="evenodd" clip-rule="evenodd" d="M20.467 60.3113L16.801 62.5582L15.3819 66.9337C17.1558 66.4607 17.8653 66.2241 19.5209 65.3963L20.467 60.3113Z" fill="#1A3059"/>
<path fill-rule="evenodd" clip-rule="evenodd" d="M21.0581 56.4084C19.2843 57.7093 16.9191 59.4831 15.8548 61.1387C17.7469 60.4292 18.4565 60.0744 20.4669 58.8918C20.7034 58.064 20.8216 57.3545 21.0581 56.4084Z" fill="#1A3059"/>
<path fill-rule="evenodd" clip-rule="evenodd" d="M26.9711 55.4628C27.9171 54.2802 28.2719 54.0437 29.0997 53.5707L28.9814 61.3757C28.5084 62.0852 27.0893 62.913 26.7346 62.7948L26.9711 55.4628Z" fill="#152747"/>
<path fill-rule="evenodd" clip-rule="evenodd" d="M26.9711 55.4628C27.9171 54.2802 28.2719 54.0437 29.0997 53.5707C28.9814 55.8176 29.0997 55.6993 28.2719 56.6454C26.9711 58.301 27.4441 58.301 26.9711 62.7948C26.8528 62.7948 26.7346 62.7948 26.7346 62.7948L26.9711 55.4628Z" fill="#0F1E38"/>
<path fill-rule="evenodd" clip-rule="evenodd" d="M28.8632 56.2905L27.6806 58.1827L27.4441 62.5582C28.0353 62.2034 28.2719 62.0851 28.8632 61.3756V56.2905Z" fill="#1A3059"/>
<path fill-rule="evenodd" clip-rule="evenodd" d="M26.8528 53.6887C27.9171 53.0974 28.3902 52.6244 29.0997 52.1514L29.2179 55.1078C28.9814 55.6991 27.6806 56.7634 26.971 56.2904L26.8528 53.6887Z" fill="#152747"/>
<path fill-rule="evenodd" clip-rule="evenodd" d="M26.8528 53.6887C27.9171 53.0974 28.3902 52.6244 29.0997 52.1514C28.3902 53.3339 27.0893 53.807 27.2076 56.4086C27.0893 56.4086 27.0893 56.4086 26.971 56.2904L26.8528 53.6887Z" fill="#0F1E38"/>
<path fill-rule="evenodd" clip-rule="evenodd" d="M28.9815 52.624C28.3902 53.4518 27.6806 54.6344 27.4441 56.1717C28.1537 55.9352 28.3902 55.817 28.9815 55.1074C28.9815 54.2796 28.9815 53.4518 28.9815 52.624Z" fill="#1A3059"/>
<path fill-rule="evenodd" clip-rule="evenodd" d="M20.4668 20.5767C19.5208 20.222 17.1556 19.3942 16.3278 19.0394C14.3175 18.0933 14.1992 16.4377 13.1349 14.0726C11.2428 13.2448 10.5332 12.417 10.1784 11.4709C9.35064 9.10578 10.1784 6.14934 11.7158 4.37548C13.1349 2.83813 14.9088 2.01032 17.1556 2.12858C21.4129 2.24683 23.7781 4.96676 24.7241 8.39622C24.8424 8.751 24.8424 8.98751 24.8424 9.34229C24.7241 10.0518 24.4876 10.5249 24.4876 10.9979C24.3693 11.9439 24.7241 12.0622 24.9606 12.5352C25.1972 13.2448 24.9606 14.5456 24.9606 15.8464C24.9606 16.2012 24.9606 16.556 24.8424 17.3838C24.7241 18.6846 24.3693 20.1037 23.8963 20.3402C23.5415 20.5767 23.1868 20.695 22.5955 20.9315C22.2407 20.9315 21.7677 20.9315 20.4668 20.5767Z" fill="#F1B287"/>
<path fill-rule="evenodd" clip-rule="evenodd" d="M20.4668 20.5767C19.5208 20.222 17.1556 19.3942 16.3278 19.0394C14.3174 18.0933 14.1992 16.4377 13.1349 14.0726C11.2428 13.2448 10.5332 12.417 10.1784 11.4709C9.35064 9.10578 10.1784 6.14934 11.7158 4.37548C13.1349 2.83813 14.9088 2.01032 17.1556 2.12858C20.8216 2.12858 23.0685 4.25722 24.2511 7.0954C24.1328 7.33192 22.2407 8.51448 20.2303 8.98751C19.166 9.22403 17.9834 8.63275 16.6826 8.27798C16.5643 9.34229 17.8652 11.944 17.9834 12.6535C17.9834 12.7718 17.5104 13.7178 18.1017 14.3091C18.2199 14.4274 18.5747 14.6639 18.5747 15.0186C18.22 18.4481 20.7034 20.1037 21.7677 20.9315C21.5312 20.8133 21.1764 20.8133 20.4668 20.5767Z" fill="#E8A476"/>
<path fill-rule="evenodd" clip-rule="evenodd" d="M14.5539 6.97701C14.0809 9.69693 15.8547 13.4812 16.8008 16.0828C17.0373 16.6741 17.5103 17.1472 18.4564 17.7384C18.9294 17.975 19.8755 18.5662 19.9937 18.448C20.4668 18.3297 20.2302 17.0289 22.1224 16.0828C22.5954 15.8463 23.5414 15.3733 23.8962 15.3733C24.4875 15.4915 24.7241 15.7281 24.9606 15.4915C25.0788 16.4376 25.0788 19.0393 24.4875 19.9853C24.1327 20.4584 23.5414 20.8131 22.7136 21.1679C22.1224 21.4044 21.4128 21.2861 20.3485 21.0496C18.4564 20.5766 16.5643 19.5123 15.1452 18.5662C14.5539 18.2115 14.1991 17.9749 14.5539 16.9106C15.0269 15.1368 14.9087 13.1264 14.5539 11.7073C14.1991 10.4065 13.7261 9.69692 12.5435 8.39609C13.6078 6.977 14.9087 4.37534 14.5539 6.97701ZM22.9502 18.6845C22.7137 18.2115 22.8319 18.0932 23.0684 17.975C23.4232 17.7384 23.4232 17.8567 23.6597 18.2115C24.0145 18.0932 24.1328 17.9749 24.251 17.8567C24.3693 17.7384 24.251 17.5019 24.251 17.2654C24.1328 16.7924 23.778 16.2011 23.3049 16.4376C22.9502 16.5559 22.2406 16.9106 22.0041 17.2654C21.7676 17.5019 21.6494 18.5662 21.8859 19.0393C22.0041 19.1575 21.8858 19.2758 22.1224 19.1575C22.3589 19.0393 22.7137 18.921 22.9502 18.6845Z" fill="#8C5B3C"/>
<path fill-rule="evenodd" clip-rule="evenodd" d="M21.0581 7.56858C19.9938 7.21381 16.5644 5.67646 14.9087 4.96692C13.1349 4.25737 11.2428 3.42957 9.94194 4.61214C8.87762 6.26775 8.87762 9.10593 9.35065 10.525C9.94194 12.6536 11.2428 14.4275 13.4897 15.8466C14.3175 16.4379 14.6722 14.191 14.7905 13.5997C14.7905 12.7719 14.7905 11.9441 14.9087 11.1163C14.7905 10.525 15.3818 10.4068 15.2635 9.93373C15.027 8.51464 14.554 7.68684 14.9087 6.74078C15.7365 5.55821 18.693 7.80509 21.0581 7.56858Z" fill="#8C5B3C"/>
<path fill-rule="evenodd" clip-rule="evenodd" d="M19.2843 18.0933C19.639 18.2116 19.8756 18.4481 19.9938 18.3298C20.4669 18.2116 20.2303 16.9107 22.1224 15.9647C22.5955 15.7282 23.5415 15.2551 23.8963 15.2551C24.4876 15.3734 24.7241 15.6099 24.9606 15.3734C25.0789 16.3195 25.0789 18.9211 24.4876 19.8672C24.1328 20.3402 23.5415 20.695 22.7137 21.0497C22.5955 21.168 22.4772 21.168 22.359 21.168C22.1225 20.9315 21.6494 20.5767 21.6494 20.5767C20.8216 19.9854 19.8756 19.2759 19.2843 18.0933ZM22.9503 18.6846C22.7137 18.2116 22.832 18.0933 23.0685 17.9751C23.4233 17.7385 23.4233 17.8568 23.6598 18.2116C24.0146 18.0933 24.1328 17.975 24.2511 17.8568C24.3694 17.7385 24.2511 17.502 24.2511 17.2655C24.1328 16.7925 23.778 16.2012 23.305 16.4377C22.9502 16.556 22.2407 16.9107 22.0042 17.2655C21.7677 17.502 21.6494 18.5663 21.8859 19.0394C22.0042 19.1576 21.8859 19.2759 22.1224 19.1576C22.359 19.0394 22.7137 18.9211 22.9503 18.6846Z" fill="#A36B48"/>
<path fill-rule="evenodd" clip-rule="evenodd" d="M13.2531 11.8255C11.5975 11.4708 11.7158 13.3629 12.0706 14.4272C12.3071 15.1367 13.0166 15.0185 13.2531 15.6098C13.6079 16.201 14.0809 16.5558 14.4357 16.5558C14.6722 15.728 14.6722 14.5454 14.6722 13.8359C14.7905 12.8898 14.1992 12.062 13.2531 11.8255Z" fill="#E8A476"/>
<path fill-rule="evenodd" clip-rule="evenodd" d="M9.82363 4.61194C9.3506 5.20323 8.87757 6.97708 8.99583 8.0414C8.99583 7.33185 9.11408 6.62232 9.82363 5.91278C9.3506 6.97709 9.3506 7.45012 9.58711 8.75095C9.58711 7.80489 9.82363 6.85882 10.5332 6.26754C9.82363 7.80488 10.0601 9.4605 10.4149 10.2883C10.2967 8.86921 10.6514 7.33187 11.5975 6.50406C11.1245 7.56838 11.4792 8.75095 11.5975 9.69701C11.7157 8.27792 11.7158 7.56837 12.6618 6.85882C12.4253 8.0414 12.7801 9.34223 13.1348 10.17C13.0166 9.697 13.3714 7.8049 13.6079 7.09535C13.7261 7.92315 14.1992 8.6327 14.6722 8.86921C14.3174 7.56838 14.4357 6.85884 14.5539 6.50406C14.9087 5.55801 16.3278 6.26755 17.9834 6.74058C14.3174 4.49368 10.5332 4.7302 9.82363 4.61194Z" fill="#4F2B0C"/>
<path fill-rule="evenodd" clip-rule="evenodd" d="M9.82367 4.73052C10.6515 4.84878 12.8984 4.84877 15.2635 5.67657C17.5104 6.50437 19.9938 8.15997 22.359 7.45043C25.0789 6.62263 25.7884 3.78446 24.0146 1.65582C23.0685 2.12885 22.7137 1.53756 19.2843 0.473248C15.6183 -0.591069 10.5332 0.354998 9.82367 4.73052Z" fill="#361D07"/>
<path fill-rule="evenodd" clip-rule="evenodd" d="M9.82367 4.73024C10.6515 4.8485 12.8984 4.84848 15.2635 5.67628C17.5104 6.50409 19.9938 8.15969 22.359 7.45015C25.0789 6.62234 25.7884 3.78418 24.0146 1.7738C23.5415 2.83812 22.9503 2.83812 22.4772 3.54767C22.0042 4.37547 21.7677 4.96675 20.7034 4.96675C21.1764 4.73024 21.2946 4.73023 21.6494 4.02069C20.9399 4.61197 19.9938 4.96675 18.5747 4.96675C19.2843 4.73024 19.5208 4.61197 19.9938 4.2572C18.22 4.61197 17.3922 4.61197 15.6183 4.49371C16.4461 4.2572 16.6826 4.25721 17.5104 4.13895C15.7365 3.78418 14.7905 4.02068 13.0166 4.2572C13.4897 4.02068 13.8444 3.90243 14.3175 3.78418C12.6619 3.78418 11.1245 4.61198 9.82367 4.13895C9.94193 4.37547 9.82367 4.49372 9.82367 4.73024Z" fill="#241304"/>
<path fill-rule="evenodd" clip-rule="evenodd" d="M11.3609 1.77386C12.5435 0.47303 14.9087 0 16.446 0C17.8651 0 19.5207 0.354765 20.4668 0.473023C20.112 0.59128 19.8755 0.591287 19.639 0.591287C21.6493 1.06432 22.4771 1.89212 23.5414 1.77386C21.8858 2.60166 19.0477 1.77385 18.1016 1.89211C18.2199 2.01037 18.2199 2.01037 18.6929 2.24688C16.3277 2.24688 14.6721 0.591287 11.3609 1.77386Z" fill="#4A2B12"/>
<path fill-rule="evenodd" clip-rule="evenodd" d="M51.5684 36.5413L51.4502 31.338C51.3319 30.3919 47.3112 29.5641 46.0103 29.0911L43.9999 28.2633L45.6556 31.1015L47.7842 33.1119L49.2033 35.004L51.5684 36.5413Z" fill="#DB9669"/>
<path fill-rule="evenodd" clip-rule="evenodd" d="M50.6225 31.8115L51.4503 31.2202C51.4503 30.9837 51.2138 30.7471 50.9773 30.5106C49.7947 29.8011 47.0747 29.3281 46.1287 28.9733L44.8279 28.5002L46.0104 29.8011C48.1391 30.5106 50.2677 31.3384 50.6225 31.8115Z" fill="#F1B287"/>
<path fill-rule="evenodd" clip-rule="evenodd" d="M43.527 63.5041C44.2365 61.1389 44.7096 59.1286 45.4191 56.7634L29.6909 57.1182C29.3361 56.6452 28.39 57.2365 28.2718 56.7634C28.8631 59.0103 29.3361 61.2572 30.1639 63.5041C30.4004 64.3319 30.9917 65.1597 32.056 65.751C33.5934 66.697 35.3672 66.9336 37.0228 66.9336C39.388 66.8153 42.5809 66.224 43.527 63.5041Z" fill="#7F9098"/>
<path fill-rule="evenodd" clip-rule="evenodd" d="M33.1204 57.1177L29.6909 57.236C29.3361 56.763 28.39 57.3543 28.2718 56.8812C28.8631 59.1281 29.3361 61.375 30.1639 63.6219C30.4004 64.4497 30.9917 65.2775 32.056 65.8688C33.4751 66.6966 35.3672 67.0514 37.0228 67.0514C39.388 66.9331 42.4627 66.4601 43.527 63.9767C41.9896 66.3418 37.1411 66.4601 35.3672 65.8688C34.4212 62.7941 33.7116 59.9559 33.1204 57.1177Z" fill="#74858C"/>
<path fill-rule="evenodd" clip-rule="evenodd" d="M43.0539 52.5057C39.7427 50.4953 34.1846 50.4953 30.7551 52.3874C27.3256 54.2795 27.2074 57.4725 30.6368 59.4829C33.948 61.4933 39.5061 61.4933 42.9356 59.6011C46.2468 57.709 46.3651 54.5161 43.0539 52.5057Z" fill="#697A82"/>
<path fill-rule="evenodd" clip-rule="evenodd" d="M42.6991 52.6243C39.5062 50.7322 34.3028 50.7322 30.9916 52.506C27.6804 54.2799 27.6804 57.3546 30.8734 59.2467C34.0663 61.1388 39.2696 61.1388 42.5809 59.365C45.7738 57.5911 45.8921 54.5164 42.6991 52.6243Z" fill="#5F6F78"/>
<path fill-rule="evenodd" clip-rule="evenodd" d="M49.6763 31.9294C49.3216 28.7365 48.612 25.5435 47.4295 22.5871C47.0747 21.7593 46.8381 20.9315 46.3651 20.2219C39.9792 7.8049 34.5394 4.84847 27.0892 19.9854C26.7344 20.5767 26.4979 21.168 26.2613 21.8775C25.0788 24.7157 24.251 27.9087 23.778 31.2199C22.7137 38.6701 24.1327 48.722 27.5622 55.3444C27.917 56.1722 28.2717 56.7635 28.7448 57.2365C29.0995 57.7095 29.5726 58.1826 30.2821 58.5373C33.7116 60.5477 39.2697 60.5477 42.6992 58.6556C43.7635 58.0643 44.3548 57.473 44.946 56.527C45.4191 55.8174 45.7738 54.8714 46.1286 54.2801C49.2033 48.1307 50.3859 39.1431 49.6763 31.9294Z" fill="#CED2D6"/>
<path fill-rule="evenodd" clip-rule="evenodd" d="M27.0892 19.9851C26.0249 22.1137 25.0788 24.8336 24.6058 27.0805C24.1327 28.9726 23.778 30.8647 23.6597 32.7569C23.0684 39.9706 24.3693 49.0764 27.5622 55.344C27.917 56.1718 28.2718 56.7631 28.7448 57.2361C30.6369 59.6013 34.7759 60.3108 37.7324 60.0743C39.6245 59.9561 41.2801 59.483 42.6992 58.6552C43.7635 58.0639 44.1183 57.8274 44.9461 56.5266C42.2262 59.3648 36.6681 59.483 33.2386 58.3005C29.4544 47.6573 27.7987 36.8959 30.6369 27.317C31.7012 27.6718 40.9253 28.8544 44.3548 24.3606L27.2075 19.9851C27.3257 19.6303 27.5622 19.2755 27.6805 19.039C28.8631 16.6738 30.0456 14.6635 31.1099 13.2444C29.9274 14.9 28.5083 17.1469 27.0892 19.9851Z" fill="#AEB5BB"/>
<path fill-rule="evenodd" clip-rule="evenodd" d="M45.1825 55.6989L45.3008 55.4624L45.0643 55.6989H45.1825Z" fill="#838489"/>
<path fill-rule="evenodd" clip-rule="evenodd" d="M45.8921 19.1575C43.8817 15.1367 40.9253 10.5247 37.3775 7.80475C37.2593 7.80475 37.2593 7.6865 37.141 7.6865C37.0228 7.6865 36.9045 7.56824 36.7863 7.56824C36.668 7.56824 36.4315 7.68649 36.4315 7.80475C32.6472 10.5247 29.336 15.4915 27.3257 19.6305C27.2074 19.867 27.0891 20.2218 27.0891 20.4583C26.7344 21.8774 27.3257 23.1782 28.39 24.2425C29.336 25.1886 30.7551 25.8981 31.9377 26.2529C32.056 26.3712 32.2925 26.3712 32.529 26.3712C35.9584 27.3172 40.334 26.9625 43.2904 25.5434C44.3547 24.9521 45.3008 24.2425 46.0103 23.2965C46.3651 22.8235 46.4834 22.3504 46.6016 21.7591C46.6016 21.4044 46.6016 21.0496 46.6016 20.6948C46.2468 19.9853 46.1286 19.5122 45.8921 19.1575Z" fill="#C01617"/>
<path fill-rule="evenodd" clip-rule="evenodd" d="M36.7863 7.44983C36.668 7.44983 36.668 7.44983 36.7863 7.44983C36.5498 7.44983 36.4315 7.5681 36.3132 7.68636C32.529 10.4063 29.2178 15.3731 27.2074 19.5121C27.0892 19.7486 26.9709 20.1034 26.9709 20.3399C26.6161 21.759 27.2074 23.0598 28.2717 24.1241C28.2717 24.1241 28.39 24.1241 28.39 24.2424C28.39 24.2424 28.5083 24.2424 28.5083 24.3606L28.6265 24.4789L28.7448 24.5972L28.863 24.7154C28.863 24.7154 28.9813 24.7154 28.9813 24.8337C29.0996 24.9519 29.2178 24.9519 29.3361 25.0702C29.3361 25.0702 29.4543 25.0702 29.4543 25.1884H29.5726C29.9274 25.3067 30.1639 25.425 30.5186 25.5432C30.6369 25.6615 30.8734 25.6615 31.1099 25.6615C34.5394 26.6075 38.9149 26.2528 41.8714 24.8337C42.9357 24.2424 44 23.5329 44.5913 22.4685C43.4087 23.7694 38.2054 27.6719 29.8091 23.7694C32.1742 18.6843 33.9481 13.2444 36.7863 7.44983Z" fill="#A51515"/>
<path fill-rule="evenodd" clip-rule="evenodd" d="M37.2593 8.39563C36.668 9.69646 33.7116 17.9745 33.3568 24.1239C36.9045 25.6612 43.6452 25.3065 45.6556 20.6944C43.7635 16.3189 40.4522 11.1156 37.2593 8.39563Z" fill="#DE1F1F"/>
<path fill-rule="evenodd" clip-rule="evenodd" d="M37.4958 8.98694C37.8506 10.9973 37.9688 15.4911 37.9688 20.2214C37.9688 25.6612 45.6556 23.5326 43.2904 17.9745C41.7531 14.7816 39.1514 11.3521 37.4958 8.98694Z" fill="#FA3737"/>
<path fill-rule="evenodd" clip-rule="evenodd" d="M44.2365 59.1285C41.6349 61.6119 36.6681 61.8485 34.7759 61.4937C35.0125 62.7945 35.4855 63.9771 35.722 65.1597C39.1515 65.7509 41.7531 64.9231 42.8174 63.6223C43.4087 62.9128 43.8818 60.7841 44.2365 59.1285Z" fill="#92A3AB"/>
<path fill-rule="evenodd" clip-rule="evenodd" d="M43.7635 59.9561C42.2261 61.8482 37.6141 62.4395 36.0768 62.0847C36.195 62.7942 36.3133 63.2673 36.4315 63.7403C36.668 64.6863 36.7863 64.6864 37.7323 64.6864C40.0975 64.9229 41.8714 64.0951 42.5809 63.2673C43.0539 62.676 43.4087 61.2569 43.7635 59.9561Z" fill="#A9BAC2"/>
<path fill-rule="evenodd" clip-rule="evenodd" d="M46.6016 23.533C44.946 27.5537 38.2053 30.1554 32.4107 29.6823C31.4647 36.3048 32.7655 47.421 35.7219 56.7633C38.5601 57.9459 42.9356 56.7633 44.946 55.1077C50.2676 43.1637 48.9668 31.9292 46.6016 23.533Z" fill="#DDE2E6"/>
<path fill-rule="evenodd" clip-rule="evenodd" d="M46.3651 26.0165C45.3008 28.4999 42.1078 30.0372 38.5601 30.7468C39.0331 35.7136 39.6244 52.7427 39.7427 55.8173C41.8713 55.6991 43.2904 55.1078 44.473 54.1617C47.5477 44.5829 48.1389 33.1119 46.3651 26.0165Z" fill="#EDF3F7"/>
<path fill-rule="evenodd" clip-rule="evenodd" d="M36.668 30.8646C40.4522 30.8646 43.6452 33.9393 43.6452 37.6053C43.6452 41.3895 40.5705 44.346 36.668 44.346C32.8838 44.346 29.6908 41.2713 29.6908 37.6053C29.6908 33.9393 32.8838 30.8646 36.668 30.8646Z" fill="#AEB5BB"/>
<path fill-rule="evenodd" clip-rule="evenodd" d="M36.668 42.2171C34.1846 42.2171 32.1742 40.2067 32.1742 37.7233C32.1742 35.2399 34.1846 33.2295 36.668 33.2295C39.1514 33.2295 41.1618 35.2399 41.1618 37.7233C41.1618 40.2067 39.1514 42.2171 36.668 42.2171ZM36.668 31.2191C33.1203 31.2191 30.1639 34.1756 30.1639 37.7233C30.1639 41.271 33.1203 44.2274 36.668 44.2274C40.2158 44.2274 43.1722 41.271 43.1722 37.7233C43.1722 34.0573 40.2158 31.2191 36.668 31.2191Z" fill="#EDF3F7"/>
<path fill-rule="evenodd" clip-rule="evenodd" d="M36.668 42.2173C39.1514 42.2173 41.1618 40.2069 41.1618 37.7235C41.1618 35.2401 39.1514 33.2297 36.668 33.2297C34.1846 33.2297 32.1742 35.2401 32.1742 37.7235C32.1742 40.2069 34.1846 42.2173 36.668 42.2173Z" fill="#435469"/>
<path fill-rule="evenodd" clip-rule="evenodd" d="M36.668 33.2297C39.1514 33.2297 41.1618 35.2401 41.1618 37.7235C41.1618 37.96 41.1618 38.3148 41.0435 38.5513C40.6887 36.4227 38.7966 34.8854 36.668 34.8854C34.4211 34.8854 32.6472 36.4227 32.2925 38.5513C32.2925 38.3148 32.1742 37.96 32.1742 37.7235C32.1742 35.2401 34.1846 33.2297 36.668 33.2297Z" fill="#2E3D4F"/>
<path fill-rule="evenodd" clip-rule="evenodd" d="M36.668 32.8749C36.9045 32.8749 37.141 32.6384 37.141 32.4019C37.141 32.1653 36.9045 31.9288 36.668 31.9288C36.4315 31.9288 36.195 32.1653 36.195 32.4019C36.195 32.6384 36.4315 32.8749 36.668 32.8749Z" fill="#4B6380"/>
<path fill-rule="evenodd" clip-rule="evenodd" d="M36.668 43.3997C36.9045 43.3997 37.141 43.1632 37.141 42.9266C37.141 42.6901 36.9045 42.4536 36.668 42.4536C36.4315 42.4536 36.195 42.6901 36.195 42.9266C36.195 43.2814 36.4315 43.3997 36.668 43.3997Z" fill="#4B6380"/>
<path fill-rule="evenodd" clip-rule="evenodd" d="M42.4626 37.7234C42.4626 37.9599 42.2261 38.1964 41.9896 38.1964C41.753 38.1964 41.5165 37.9599 41.5165 37.7234C41.5165 37.4869 41.753 37.2504 41.9896 37.2504C42.2261 37.2504 42.4626 37.3686 42.4626 37.7234Z" fill="#4B6380"/>
<path fill-rule="evenodd" clip-rule="evenodd" d="M31.8194 37.7234C31.8194 37.9599 31.5829 38.1964 31.3464 38.1964C31.1099 38.1964 30.8734 37.9599 30.8734 37.7234C30.8734 37.4869 31.1099 37.2504 31.3464 37.2504C31.5829 37.2504 31.8194 37.3686 31.8194 37.7234Z" fill="#4B6380"/>
<path fill-rule="evenodd" clip-rule="evenodd" d="M40.6888 33.5847C40.9253 33.8212 40.9253 34.0577 40.6888 34.2942C40.4523 34.5307 40.2158 34.5307 39.9793 34.2942C39.7428 34.0577 39.7428 33.8212 39.9793 33.5847C40.2158 33.4664 40.5706 33.4664 40.6888 33.5847Z" fill="#4B6380"/>
<path fill-rule="evenodd" clip-rule="evenodd" d="M33.2385 41.0346C33.475 41.2711 33.475 41.5076 33.2385 41.7441C33.002 41.9807 32.7655 41.9807 32.529 41.7441C32.2925 41.5076 32.2925 41.2711 32.529 41.0346C32.7655 40.9164 33.1203 40.9164 33.2385 41.0346Z" fill="#4B6380"/>
<path fill-rule="evenodd" clip-rule="evenodd" d="M40.6888 41.7445C40.4523 41.981 40.2158 41.981 39.9793 41.7445C39.7428 41.5079 39.7428 41.2714 39.9793 41.0349C40.2158 40.7984 40.4523 40.7984 40.6888 41.0349C40.9253 41.2714 40.9253 41.6262 40.6888 41.7445Z" fill="#4B6380"/>
<path fill-rule="evenodd" clip-rule="evenodd" d="M33.2385 34.2939C33.002 34.5304 32.7655 34.5304 32.529 34.2939C32.2925 34.0574 32.2925 33.8209 32.529 33.5844C32.7655 33.3479 33.002 33.3479 33.2385 33.5844C33.475 33.8209 33.475 34.0574 33.2385 34.2939Z" fill="#4B6380"/>
<path fill-rule="evenodd" clip-rule="evenodd" d="M47.666 47.3033L45.4191 48.6042C49.2033 59.1291 48.8486 65.3967 48.9668 74.7391L51.2137 73.4382C51.5685 69.0627 52.6328 64.3324 52.3963 59.9569C52.278 58.0648 51.9233 56.1726 51.332 54.1623C50.5042 51.6789 49.2033 49.5502 47.666 47.3033Z" fill="#C01617"/>
<path fill-rule="evenodd" clip-rule="evenodd" d="M47.7842 48.1313L46.1286 48.9591C48.2573 52.0338 50.1494 56.0546 50.6224 59.8388C51.0954 64.3326 50.2676 69.4177 49.5581 73.6749L50.9772 72.8471C51.805 68.3534 52.5145 62.0857 52.0415 58.3015C51.5685 55.2268 50.1494 51.3243 47.7842 48.1313Z" fill="#DE1F1F"/>
<path fill-rule="evenodd" clip-rule="evenodd" d="M47.666 48.486L46.6017 49.0772C48.4938 50.6146 50.6224 54.8719 51.0955 59.1291C51.5685 62.9134 51.4503 67.1706 50.9772 71.7827C51.6868 67.6437 51.9233 61.7308 51.4502 58.1831C51.2137 55.2266 49.9129 51.5607 47.666 48.486Z" fill="#FA3737"/>
<path fill-rule="evenodd" clip-rule="evenodd" d="M45.4191 48.6042L43.054 59.2474C45.3008 63.3864 47.3112 68.4715 48.9668 74.7391C49.7946 65.2786 52.3963 58.3014 45.4191 48.6042Z" fill="#A51515"/>
<path fill-rule="evenodd" clip-rule="evenodd" d="M45.4191 48.6042L43.054 59.2474C45.3008 63.3864 47.3112 68.4715 48.9668 74.7391C49.2033 65.9881 46.0104 56.291 45.4191 48.6042Z" fill="#8F1111"/>
<path fill-rule="evenodd" clip-rule="evenodd" d="M25.6701 47.3029L27.917 48.6037C24.1328 59.1286 24.4875 65.3962 24.3693 74.7386L22.1223 73.4377C21.7676 69.0622 20.7033 64.3319 20.9398 59.9564C21.058 58.0643 21.4128 56.1721 22.0041 54.1618C22.8319 51.6784 24.1327 49.5497 25.6701 47.3029Z" fill="#C01617"/>
<path fill-rule="evenodd" clip-rule="evenodd" d="M25.5518 48.1311L27.2074 48.9589C25.0788 52.0336 23.1867 56.0543 22.7136 59.8386C22.2406 64.3324 23.0684 69.4174 23.778 73.6747L22.3589 72.8469C21.5311 68.3531 20.8215 62.0855 21.2946 58.3012C21.7676 55.2265 23.1867 51.3241 25.5518 48.1311Z" fill="#DE1F1F"/>
<path fill-rule="evenodd" clip-rule="evenodd" d="M25.5519 48.4857L26.6162 49.077C24.7241 50.6144 22.5954 54.8716 22.1224 59.1289C21.6493 62.9131 21.7676 67.1704 22.2406 71.7824C21.5311 67.6434 21.2946 61.7305 21.7676 58.1828C22.1224 55.2264 23.4232 51.5604 25.5519 48.4857Z" fill="#FA3737"/>
<path fill-rule="evenodd" clip-rule="evenodd" d="M27.917 48.604L30.2821 59.2472C28.0352 63.3862 26.0249 68.4713 24.3693 74.7389C23.5415 65.2783 20.9398 58.3011 27.917 48.604Z" fill="#A51515"/>
<path fill-rule="evenodd" clip-rule="evenodd" d="M27.9171 48.604L30.2822 59.2472C28.0353 63.3862 26.0249 68.4713 24.3693 74.7389C24.1328 65.9879 27.3258 56.2907 27.9171 48.604Z" fill="#8F1111"/>
<path fill-rule="evenodd" clip-rule="evenodd" d="M51.4502 31.2197C49.7946 33.1118 49.4398 34.2944 48.1389 34.5309L48.4937 39.4977C49.5581 40.089 49.558 39.616 51.0954 37.9604C52.0414 37.0143 51.6867 36.1865 51.5684 34.7674L51.4502 31.2197Z" fill="#F1B287"/>
<path fill-rule="evenodd" clip-rule="evenodd" d="M51.4502 31.2197C49.7946 32.9936 49.3216 33.7031 48.0208 33.8214C47.666 34.1762 47.9025 39.0247 48.3755 39.2612C48.8486 39.4978 49.2033 39.616 49.4398 39.3795C49.0851 38.0787 48.9668 35.8318 48.9668 34.6492C50.0311 33.5849 50.5042 32.5206 51.4502 31.2197Z" fill="#E8A476"/>
<path fill-rule="evenodd" clip-rule="evenodd" d="M51.4502 31.2194C50.1494 32.7567 49.5581 33.7028 48.6121 34.0576C48.3756 34.1758 47.7843 34.2941 47.9025 33.8211C48.0208 33.348 48.612 32.9933 48.8486 32.7568C49.4399 32.1655 49.9129 31.3377 50.0311 30.7464C50.0311 30.5099 50.5042 30.5099 50.5042 30.3916C51.0954 30.6281 51.332 30.8646 51.4502 31.2194Z" fill="#F1B287"/>
<path fill-rule="evenodd" clip-rule="evenodd" d="M32.8837 50.4965C34.1845 50.26 34.5393 56.5277 31.3464 56.1729C30.6368 55.2268 30.6368 54.0442 30.8734 53.2164C30.9916 51.7974 32.1742 50.733 32.8837 50.4965Z" fill="#091224"/>
<path fill-rule="evenodd" clip-rule="evenodd" d="M29.0995 55.2265C30.7551 55.463 32.529 57.1186 33.8298 57.8281C35.2489 58.6559 37.3775 59.1289 39.6244 58.3011C40.6887 57.9464 42.8174 57.0003 42.8174 56.2908L43.0539 54.2804C43.1721 53.4526 43.5269 52.5065 42.5809 52.743C41.7531 52.9796 40.4522 53.4526 39.6244 53.2161C38.5601 52.8613 37.3775 52.0335 37.141 51.9152C33.8298 49.4318 32.6472 52.27 30.7551 51.324L29.0995 55.2265Z" fill="#F1B287"/>
<path fill-rule="evenodd" clip-rule="evenodd" d="M29.0995 55.2265C30.7551 55.463 32.529 57.1186 33.8298 57.8281C35.0124 58.5377 36.9045 58.8924 38.5601 58.6559C39.9792 58.4194 41.8713 57.3551 42.8174 56.5273C42.9356 56.1725 43.1721 54.2804 43.1721 53.8074C40.5705 55.3447 37.2593 55.463 35.4854 54.8717C33.8298 54.2804 31.8194 53.4526 30.1638 52.9796V52.743L29.0995 55.2265Z" fill="#DB9669"/>
<path fill-rule="evenodd" clip-rule="evenodd" d="M36.9044 52.8615C37.2592 52.7432 38.56 52.1519 39.2696 52.3885C40.5704 52.8615 41.9895 52.625 42.1078 51.4424C41.1617 51.2059 40.0974 50.7329 39.1514 50.3781C38.2053 50.0233 37.4957 49.7868 36.0767 50.0233C34.6576 50.2598 33.1202 51.0876 31.1098 50.4963C31.7011 54.8719 36.6679 52.8615 36.9044 52.8615Z" fill="#F1B287"/>
<path fill-rule="evenodd" clip-rule="evenodd" d="M32.8838 50.4959L16.919 44.3465C15.8547 41.9814 14.3174 39.0249 12.0705 35.0042C8.64103 28.6183 6.39414 26.3714 3.55596 26.9627C1.7821 27.3174 0.481266 29.4461 1.42733 32.639C2.6099 37.1328 7.69496 44.7013 11.3609 49.3133C11.5975 49.5499 11.834 49.7864 11.9522 50.0229C12.6618 51.2054 13.6078 51.915 14.9087 52.388L31.2282 56.2905C30.0456 53.0976 31.8195 50.9689 32.8838 50.4959Z" fill="#152747"/>
<path fill-rule="evenodd" clip-rule="evenodd" d="M32.8838 50.4959L16.9191 44.3465C15.8548 41.9814 14.3174 39.0249 12.0705 35.0042C8.75932 28.973 6.63069 26.6079 4.02902 26.8444C4.73857 28.8548 14.3174 44.9378 15.7365 46.4751C16.2095 46.9481 20.7033 48.722 31.3465 52.2697C31.7013 51.3237 32.4108 50.7324 32.8838 50.4959Z" fill="#1A3059"/>
<path fill-rule="evenodd" clip-rule="evenodd" d="M3.08295 27.0807C1.54561 27.672 0.599554 29.6823 1.42736 32.6388C2.60993 37.1326 7.69499 44.701 11.361 49.3131C11.5975 49.5496 11.834 49.7861 11.9523 50.0226C12.6618 51.2052 13.6079 51.9147 14.9087 52.3878L31.2282 56.2903C30.8735 55.226 30.7552 54.2799 30.8735 53.4521C26.0249 52.033 20.9398 50.6139 16.446 48.84C15.3817 48.4853 14.9087 48.0123 13.7261 46.2384C9.23234 38.9064 3.91076 31.1014 3.08295 27.0807Z" fill="#0F1E38"/>
</svg>
