<svg width="186" height="129" viewBox="0 0 186 129" fill="none" xmlns="http://www.w3.org/2000/svg">
<path d="M122.531 103.881C122.531 103.881 146.814 72.2517 185.938 90.3896C185.938 90.3896 167.501 123.967 126.728 107.029L122.531 103.881Z" fill="url(#paint0_linear)"/>
<path d="M185.788 90.5395L122.38 104.03L128.376 106.579C128.526 106.579 163.003 121.119 185.788 90.5395Z" fill="#BDE0FF"/>
<path d="M56.1247 105.23C56.1247 105.23 14.3025 94.737 0.0620117 43.4712C0.0620117 43.4712 37.6869 33.7277 65.5683 91.739L56.1247 105.23Z" fill="url(#paint1_linear)"/>
<path d="M3.35974 46.0197L59.4223 98.7845L48.9293 100.134C48.7794 100.284 12.0539 87.542 3.35974 46.0197Z" fill="#BDE0FF"/>
<path d="M132.573 91.8888C132.573 91.8888 142.167 59.5104 170.648 62.9581C170.648 62.8082 167.2 95.7862 132.573 91.8888Z" fill="url(#paint2_radial)"/>
<path d="M170.648 62.8083L133.773 89.6404C133.923 89.6404 161.055 97.735 170.648 62.8083Z" fill="#BDE0FF"/>
<path d="M93.2995 28.6308C65.8678 28.6308 43.6826 50.816 43.6826 78.2477C43.6826 105.679 65.8678 127.865 93.2995 127.865C120.731 127.865 142.916 105.679 142.916 78.2477C143.066 50.816 120.731 28.6308 93.2995 28.6308ZM93.2995 109.727C75.9111 109.727 61.8205 95.6361 61.8205 78.2477C61.8205 60.8593 75.9111 46.7687 93.2995 46.7687C110.688 46.7687 124.779 60.8593 124.779 78.2477C124.928 95.6361 110.688 109.727 93.2995 109.727Z" fill="url(#paint3_linear)"/>
<path d="M44.8819 49.617C44.8819 49.617 35.738 71.6523 46.5308 94.587C46.5308 94.587 64.0691 127.115 93.4495 128.015C122.83 128.764 140.368 94.587 140.368 94.587C140.368 94.587 150.711 69.104 140.818 46.7689L126.278 47.0687C126.278 47.0687 134.372 113.175 93.4495 109.877C52.6767 106.579 56.2743 60.5597 56.2743 60.5597L44.8819 49.617Z" fill="url(#paint4_linear)"/>
<path d="M93.2994 15.5896C64.8184 15.5896 41.7338 38.6742 41.7338 67.1552C41.7338 95.6362 64.8184 118.721 93.2994 118.721C121.78 118.721 144.865 95.6362 144.865 67.1552C144.865 38.6742 121.78 15.5896 93.2994 15.5896ZM93.2994 101.632C74.2621 101.632 58.8224 86.1925 58.8224 67.1552C58.8224 48.1179 74.2621 32.6782 93.2994 32.6782C112.337 32.6782 127.776 48.1179 127.776 67.1552C127.776 86.1925 112.337 101.632 93.2994 101.632Z" fill="url(#paint5_radial)"/>
<path d="M143.516 55.0133C140.218 41.2225 131.224 29.5303 119.232 22.6349C111.587 18.1379 102.743 15.5896 93.2994 15.5896C64.8184 15.5896 41.7338 38.6742 41.7338 67.1552C41.7338 72.7015 42.6332 78.0979 44.2821 83.1945C48.7791 96.6855 58.5226 107.778 71.2641 113.774C78.0096 116.922 85.3547 118.721 93.2994 118.721C121.78 118.721 144.865 95.6362 144.865 67.1552C144.865 62.958 144.415 58.9107 143.516 55.0133ZM93.2994 101.632C91.0509 101.632 88.9523 101.482 86.8537 101.033C72.1635 98.3344 60.7711 86.1925 58.9723 71.2025C58.8224 69.8534 58.6725 68.5043 58.6725 67.1552C58.6725 48.1179 74.1122 32.6782 93.1495 32.6782C97.0469 32.6782 100.794 33.2778 104.242 34.477C117.883 39.1239 127.627 52.0153 127.627 67.1552C127.627 67.3051 127.627 67.455 127.627 67.7548C127.477 86.4923 112.187 101.632 93.2994 101.632Z" fill="url(#paint6_radial)"/>
<path d="M93.2997 32.678C74.2624 32.678 58.8227 48.1177 58.8227 67.155C58.8227 86.1923 74.2624 101.632 93.2997 101.632C112.337 101.632 127.777 86.1923 127.777 67.155C127.777 48.1177 112.337 32.678 93.2997 32.678ZM93.2997 99.9832C75.1618 99.9832 60.4716 85.2929 60.4716 67.155C60.4716 49.0171 75.1618 34.3269 93.2997 34.3269C111.438 34.3269 126.128 49.0171 126.128 67.155C126.128 85.2929 111.438 99.9832 93.2997 99.9832Z" fill="url(#paint7_linear)"/>
<path opacity="0.5" d="M87.0037 101.033L71.4141 113.774C58.6726 107.778 48.7792 96.6856 44.4321 83.1946L59.1224 71.2026C60.7713 86.1926 72.3135 98.3346 87.0037 101.033Z" fill="white"/>
<path opacity="0.5" d="M127.777 67.7549C127.777 67.605 127.777 67.4551 127.777 67.1553C127.777 52.0154 118.033 39.124 104.392 34.4771L119.082 22.4851C131.074 29.3805 139.918 41.0727 143.366 54.8635L127.777 67.7549Z" fill="white"/>
<path d="M76.5109 115.873C76.5109 115.873 100.795 123.068 127.927 105.38C127.777 105.529 110.089 125.616 76.5109 115.873Z" fill="url(#paint8_radial)"/>
<path opacity="0.5" d="M71.4143 113.774L74.1125 123.967C74.1125 123.967 53.876 117.522 45.0319 91.1391L44.2824 83.0446C44.2824 83.1945 50.1285 103.581 71.4143 113.774Z" fill="white"/>
<path d="M162.404 45.4196L173.197 28.7807L178.893 32.828L167.5 48.2677L162.404 45.4196Z" fill="#FF1D9C"/>
<path d="M37.8367 16.0392L54.6255 2.84796L58.6728 8.54416L43.383 20.6861L37.8367 16.0392Z" fill="#FF1D9C"/>
<path d="M28.2434 99.2339L15.9516 105.38L12.9536 99.2339L25.3953 91.8888L28.2434 99.2339Z" fill="#4F31E0"/>
<path d="M110.389 3.44769L119.083 13.0413L122.53 9.1439L114.286 0L110.389 3.44769Z" fill="#6877FF"/>
<path d="M56.5746 59.3607L67.8171 40.0236L92.101 59.3607C92.101 59.3607 119.683 31.3294 141.568 24.1342L147.714 49.0176C147.714 49.0176 120.132 55.7631 94.3495 87.392L56.5746 59.3607Z" fill="url(#paint9_linear)"/>
<path d="M56.5742 68.2045L67.8167 48.8674L92.1005 68.2045C92.1005 68.2045 119.682 40.1732 141.568 32.978L147.713 57.8614C147.713 57.8614 120.132 64.6069 94.349 96.2358L56.5742 68.2045Z" fill="url(#paint10_linear)"/>
<path d="M141.567 24.134V32.9781L147.563 58.0114V46.619L141.567 24.134Z" fill="#BF006F"/>
<path d="M67.8167 39.8735V48.8675L56.5742 68.2046V59.3605L67.8167 39.8735Z" fill="#BF006F"/>
<path d="M141.567 24.134V33.128C135.122 35.3765 128.376 39.124 122.08 43.4711C105.741 54.4138 92.1005 68.3545 92.1005 68.3545V59.3605C100.195 51.2659 107.54 44.9701 113.986 40.0234C120.282 35.3765 125.528 31.9288 129.875 29.5304C137.37 25.3332 141.567 24.134 141.567 24.134Z" fill="white"/>
<path d="M132.573 36.8757L122.08 43.3214L118.633 36.7258C125.678 31.929 125.678 31.929 130.025 29.5306L132.573 36.8757Z" fill="white"/>
<defs>
<linearGradient id="paint0_linear" x1="136.154" y1="84.6073" x2="172.073" y2="110.077" gradientUnits="userSpaceOnUse">
<stop stop-color="#1C257B"/>
<stop offset="1" stop-color="#6A2C9A"/>
</linearGradient>
<linearGradient id="paint1_linear" x1="42.8867" y1="108.529" x2="25.3989" y2="37.3534" gradientUnits="userSpaceOnUse">
<stop stop-color="#1C257B"/>
<stop offset="1" stop-color="#6A2C9A"/>
</linearGradient>
<radialGradient id="paint2_radial" cx="0" cy="0" r="1" gradientUnits="userSpaceOnUse" gradientTransform="translate(154.568 67.9006) rotate(156.935) scale(18.0948)">
<stop stop-color="#3996F7"/>
<stop offset="1" stop-color="#6840D5"/>
</radialGradient>
<linearGradient id="paint3_linear" x1="43.6822" y1="78.2194" x2="142.995" y2="78.2194" gradientUnits="userSpaceOnUse">
<stop stop-color="#1C257B"/>
<stop offset="1" stop-color="#6A2C9A"/>
</linearGradient>
<linearGradient id="paint4_linear" x1="41.214" y1="87.2807" x2="144.959" y2="87.2807" gradientUnits="userSpaceOnUse">
<stop stop-color="#1C257B"/>
<stop offset="1" stop-color="#6A2C9A"/>
</linearGradient>
<radialGradient id="paint5_radial" cx="0" cy="0" r="1" gradientUnits="userSpaceOnUse" gradientTransform="translate(115.112 20.989) scale(51.5851)">
<stop stop-color="#39AEF7"/>
<stop offset="1" stop-color="#6840D5"/>
</radialGradient>
<radialGradient id="paint6_radial" cx="0" cy="0" r="1" gradientUnits="userSpaceOnUse" gradientTransform="translate(97.1235 24.6476) scale(73.6139)">
<stop stop-color="#3996F7"/>
<stop offset="1" stop-color="#6840D5"/>
</radialGradient>
<linearGradient id="paint7_linear" x1="93.3369" y1="101.67" x2="93.3369" y2="32.6341" gradientUnits="userSpaceOnUse">
<stop stop-color="#60B3F7"/>
<stop offset="1" stop-color="#364AC2"/>
</linearGradient>
<radialGradient id="paint8_radial" cx="0" cy="0" r="1" gradientUnits="userSpaceOnUse" gradientTransform="translate(104.058 106.644) scale(18.5624)">
<stop stop-color="#3996F7"/>
<stop offset="1" stop-color="#6840D5"/>
</radialGradient>
<linearGradient id="paint9_linear" x1="102.094" y1="87.3408" x2="102.094" y2="24.0716" gradientUnits="userSpaceOnUse">
<stop stop-color="#B31A8F"/>
<stop offset="1" stop-color="#FE117E"/>
</linearGradient>
<linearGradient id="paint10_linear" x1="102.094" y1="96.2747" x2="102.094" y2="33.0053" gradientUnits="userSpaceOnUse">
<stop stop-color="#63004A"/>
<stop offset="1" stop-color="#BA0065"/>
</linearGradient>
</defs>
</svg>
