<svg width="76" height="90" viewBox="0 0 76 90" fill="none" xmlns="http://www.w3.org/2000/svg">
<path d="M55.9169 72.5455C51.2753 66.623 46.7597 60.8684 42.222 55.0765C42.3952 54.9304 42.4928 54.7812 42.6125 54.7594C50.677 53.2889 56.0617 45.4856 54.884 36.4542C53.6244 26.7949 47.2698 21.2859 37.3033 21.0838C31.0652 20.9594 24.8208 21.0341 18.5827 21.0216C18.2237 21.0216 17.8647 21.0216 17.2727 21.0216C17.5876 20.5242 17.7639 20.1791 18.0001 19.8807C22.1819 14.6328 26.3543 9.37567 30.5645 4.14961C35.0234 -1.37802 42.2472 -1.39046 46.7061 4.15582C55.7279 15.3914 64.7182 26.6518 73.6991 37.9185C76.6025 41.5621 76.8166 46.2752 74.0077 49.8629C68.1128 57.402 62.0794 64.8354 55.9169 72.5455Z" fill="#F2F2F2"/>
<path d="M55.9169 72.5455C51.2753 66.623 46.7597 60.8684 42.222 55.0765C42.3952 54.9304 42.4928 54.7812 42.6125 54.7594C50.677 53.2889 56.0617 45.4856 54.884 36.4542C53.6244 26.7949 47.2698 21.2859 37.3033 21.0838C31.0652 20.9594 24.8208 21.0341 18.5827 21.0216C18.2237 21.0216 17.8647 21.0216 17.2727 21.0216C17.5876 20.5242 17.7639 20.1791 18.0001 19.8807C22.1819 14.6328 26.3543 9.37567 30.5645 4.14961C35.0234 -1.37802 42.2472 -1.39046 46.7061 4.15582C55.7279 15.3914 64.7182 26.6518 73.6991 37.9185C76.6025 41.5621 76.8166 46.2752 74.0077 49.8629C68.1128 57.402 62.0794 64.8354 55.9169 72.5455Z" fill="url(#paint0_linear)"/>
<path d="M0.891591 34.547C2.2491 34.547 3.24354 34.547 4.238 34.547C13.5448 34.547 22.8548 34.5408 32.1616 34.5531C33.0519 34.5531 33.9485 34.6117 34.8324 34.7289C38.9081 35.2685 41.1843 37.7909 41.1464 41.6762C41.1085 45.5646 38.8134 48.09 34.7314 48.5402C32.7551 48.7592 30.7473 48.7684 28.7552 48.8054C26.3938 48.8486 24.0324 48.8147 21.3205 48.8147C21.8098 49.5239 22.1287 50.0111 22.4728 50.4829C30.3495 61.2045 38.2136 71.9323 46.1313 82.623C46.8511 83.5943 46.7722 84.1494 46.0808 85.1115C42.2324 90.4584 36.1868 90.8223 32.2595 88.3338C31.1798 87.6493 30.1885 86.7365 29.3835 85.7498C20.3545 74.6551 11.3665 63.5264 2.38169 52.3978C-0.488015 48.8455 -0.784773 44.8307 1.60191 40.93C2.94995 38.7283 2.45746 36.7455 0.891591 34.547Z" fill="url(#paint1_linear)"/>
<defs>
<linearGradient id="paint0_linear" x1="118.551" y1="134.504" x2="2.09899" y2="106.474" gradientUnits="userSpaceOnUse">
<stop/>
<stop offset="0.00612235" stop-color="#030303"/>
<stop offset="0.1261" stop-color="#3D3D3D"/>
<stop offset="0.249" stop-color="#717171"/>
<stop offset="0.3722" stop-color="#9D9D9D"/>
<stop offset="0.4958" stop-color="#C0C0C0"/>
<stop offset="0.6199" stop-color="#DCDCDC"/>
<stop offset="0.7447" stop-color="#EFEFEF"/>
<stop offset="0.8708" stop-color="#FBFBFB"/>
<stop offset="1" stop-color="white"/>
</linearGradient>
<linearGradient id="paint1_linear" x1="46.2231" y1="32.0213" x2="-19.9824" y2="71.1711" gradientUnits="userSpaceOnUse">
<stop stop-color="#26A9FF"/>
<stop offset="1" stop-color="#0E21B6"/>
</linearGradient>
</defs>
</svg>
