<svg width="492" height="89" viewBox="0 0 492 89" fill="none" xmlns="http://www.w3.org/2000/svg">
<path d="M98.3988 9.728C103.071 9.728 106.511 10.576 108.719 12.272C110.959 13.968 112.079 16.544 112.079 20C112.079 21.568 111.775 22.944 111.167 24.128C110.591 25.28 109.807 26.272 108.815 27.104C107.855 27.904 106.815 28.56 105.695 29.072L115.775 44H107.711L99.5508 30.848H95.6628V44H88.4148V9.728H98.3988ZM97.8708 15.68H95.6628V24.944H98.0148C100.415 24.944 102.127 24.544 103.151 23.744C104.207 22.944 104.735 21.76 104.735 20.192C104.735 18.56 104.175 17.408 103.055 16.736C101.967 16.032 100.239 15.68 97.8708 15.68ZM149.958 44L147.462 35.84H134.982L132.486 44H124.662L136.758 9.584H145.638L157.782 44H149.958ZM143.238 21.776C143.078 21.232 142.87 20.544 142.614 19.712C142.358 18.88 142.102 18.032 141.846 17.168C141.59 16.304 141.382 15.552 141.222 14.912C141.062 15.552 140.838 16.352 140.55 17.312C140.294 18.24 140.038 19.136 139.782 20C139.558 20.832 139.382 21.424 139.254 21.776L136.806 29.744H145.734L143.238 21.776ZM191.211 34.496C191.211 37.536 190.107 39.968 187.899 41.792C185.723 43.584 182.619 44.48 178.587 44.48C174.971 44.48 171.739 43.792 168.891 42.416V35.648C170.523 36.352 172.203 37.008 173.931 37.616C175.691 38.192 177.435 38.48 179.163 38.48C180.955 38.48 182.219 38.144 182.955 37.472C183.723 36.768 184.107 35.888 184.107 34.832C184.107 33.968 183.803 33.232 183.195 32.624C182.619 32.016 181.835 31.456 180.843 30.944C179.851 30.4 178.715 29.824 177.435 29.216C176.635 28.832 175.771 28.384 174.843 27.872C173.915 27.328 173.019 26.672 172.155 25.904C171.323 25.104 170.635 24.144 170.091 23.024C169.547 21.904 169.275 20.56 169.275 18.992C169.275 15.92 170.315 13.536 172.395 11.84C174.475 10.112 177.307 9.248 180.891 9.248C182.683 9.248 184.379 9.456 185.979 9.872C187.611 10.288 189.307 10.88 191.067 11.648L188.715 17.312C187.147 16.672 185.739 16.176 184.491 15.824C183.243 15.472 181.963 15.296 180.651 15.296C179.275 15.296 178.219 15.616 177.483 16.256C176.747 16.896 176.379 17.728 176.379 18.752C176.379 19.968 176.923 20.928 178.011 21.632C179.099 22.336 180.715 23.2 182.859 24.224C184.619 25.056 186.107 25.92 187.323 26.816C188.571 27.712 189.531 28.768 190.203 29.984C190.875 31.2 191.211 32.704 191.211 34.496ZM233.872 44H225.616L216.64 29.552L213.568 31.76V44H206.32V9.728H213.568V25.424C214.048 24.752 214.528 24.08 215.008 23.408C215.488 22.736 215.968 22.064 216.448 21.392L225.712 9.728H233.776L221.824 24.896L233.872 44ZM268.051 44L265.555 35.84H253.075L250.579 44H242.755L254.851 9.584H263.731L275.875 44H268.051ZM261.331 21.776C261.171 21.232 260.963 20.544 260.707 19.712C260.451 18.88 260.195 18.032 259.939 17.168C259.683 16.304 259.475 15.552 259.315 14.912C259.155 15.552 258.931 16.352 258.643 17.312C258.387 18.24 258.131 19.136 257.875 20C257.651 20.832 257.475 21.424 257.347 21.776L254.899 29.744H263.827L261.331 21.776ZM302.703 15.296C299.919 15.296 297.791 16.336 296.319 18.416C294.847 20.496 294.111 23.344 294.111 26.96C294.111 30.608 294.783 33.44 296.127 35.456C297.503 37.44 299.695 38.432 302.703 38.432C304.111 38.432 305.503 38.272 306.879 37.952C308.287 37.632 309.807 37.184 311.439 36.608V42.704C309.935 43.312 308.447 43.76 306.975 44.048C305.503 44.336 303.855 44.48 302.031 44.48C298.511 44.48 295.599 43.76 293.295 42.32C291.023 40.848 289.343 38.8 288.255 36.176C287.167 33.52 286.623 30.432 286.623 26.912C286.623 23.456 287.247 20.4 288.495 17.744C289.743 15.088 291.551 13.008 293.919 11.504C296.319 10 299.247 9.248 302.703 9.248C304.399 9.248 306.095 9.472 307.791 9.92C309.519 10.336 311.167 10.912 312.735 11.648L310.383 17.552C309.103 16.944 307.807 16.416 306.495 15.968C305.215 15.52 303.951 15.296 302.703 15.296ZM355.681 44H348.433V29.216H334.849V44H327.601V9.728H334.849V23.168H348.433V9.728H355.681V44ZM394.16 44L391.664 35.84H379.184L376.688 44H368.864L380.96 9.584H389.84L401.984 44H394.16ZM387.44 21.776C387.28 21.232 387.072 20.544 386.816 19.712C386.56 18.88 386.304 18.032 386.048 17.168C385.792 16.304 385.584 15.552 385.424 14.912C385.264 15.552 385.04 16.352 384.752 17.312C384.496 18.24 384.24 19.136 383.984 20C383.76 20.832 383.584 21.424 383.456 21.776L381.008 29.744H389.936L387.44 21.776ZM434.933 44H415.205V9.728H434.933V15.68H422.453V23.216H434.069V29.168H422.453V38H434.933V44ZM465.44 44L457.184 17.12H456.992C457.024 17.76 457.072 18.72 457.136 20C457.2 21.28 457.264 22.656 457.328 24.128C457.392 25.568 457.424 26.88 457.424 28.064V44H450.944V9.728H460.832L468.944 35.936H469.088L477.68 9.728H487.568V44H480.8V27.776C480.8 26.688 480.816 25.44 480.848 24.032C480.912 22.624 480.96 21.296 480.992 20.048C481.056 18.768 481.104 17.808 481.136 17.168H480.944L472.112 44H465.44Z" fill="#F2F2F2"/>
<path d="M367.847 77.584C367.847 76.96 367.999 76.52 368.303 76.264C368.623 76.008 369.015 75.88 369.479 75.88C369.927 75.88 370.311 76.008 370.631 76.264C370.967 76.52 371.135 76.96 371.135 77.584C371.135 78.208 370.967 78.656 370.631 78.928C370.311 79.2 369.927 79.336 369.479 79.336C369.015 79.336 368.623 79.2 368.303 78.928C367.999 78.656 367.847 78.208 367.847 77.584ZM386.89 63.52C385.05 63.52 383.602 64.136 382.546 65.368C381.49 66.6 380.962 68.288 380.962 70.432C380.962 72.56 381.45 74.248 382.426 75.496C383.418 76.728 384.898 77.344 386.866 77.344C387.618 77.344 388.33 77.28 389.002 77.152C389.674 77.024 390.33 76.864 390.97 76.672V78.544C390.33 78.784 389.666 78.96 388.978 79.072C388.306 79.184 387.498 79.24 386.554 79.24C384.81 79.24 383.354 78.88 382.186 78.16C381.018 77.44 380.138 76.416 379.546 75.088C378.97 73.76 378.682 72.2 378.682 70.408C378.682 68.68 378.994 67.16 379.618 65.848C380.258 64.52 381.194 63.488 382.426 62.752C383.658 62 385.154 61.624 386.914 61.624C388.722 61.624 390.298 61.96 391.642 62.632L390.778 64.456C390.25 64.216 389.658 64 389.002 63.808C388.362 63.616 387.658 63.52 386.89 63.52ZM414.102 70.408C414.102 72.184 413.798 73.736 413.19 75.064C412.598 76.376 411.718 77.4 410.55 78.136C409.382 78.872 407.934 79.24 406.206 79.24C404.43 79.24 402.95 78.872 401.766 78.136C400.598 77.4 399.726 76.368 399.15 75.04C398.574 73.712 398.286 72.16 398.286 70.384C398.286 68.624 398.574 67.088 399.15 65.776C399.726 64.464 400.598 63.44 401.766 62.704C402.95 61.968 404.438 61.6 406.23 61.6C407.942 61.6 409.382 61.968 410.55 62.704C411.718 63.424 412.598 64.448 413.19 65.776C413.798 67.088 414.102 68.632 414.102 70.408ZM400.566 70.408C400.566 72.568 401.022 74.272 401.934 75.52C402.846 76.752 404.27 77.368 406.206 77.368C408.158 77.368 409.582 76.752 410.478 75.52C411.374 74.272 411.822 72.568 411.822 70.408C411.822 68.248 411.374 66.56 410.478 65.344C409.582 64.112 408.166 63.496 406.23 63.496C404.294 63.496 402.862 64.112 401.934 65.344C401.022 66.56 400.566 68.248 400.566 70.408ZM429.9 79L424.26 63.976H424.164C424.212 64.472 424.252 65.144 424.284 65.992C424.316 66.824 424.332 67.696 424.332 68.608V79H422.34V61.864H425.532L430.812 75.904H430.908L436.284 61.864H439.452V79H437.316V68.464C437.316 67.632 437.332 66.808 437.364 65.992C437.412 65.176 437.452 64.512 437.484 64H437.388L431.676 79H429.9Z" fill="#F2F2F2"/>
<path d="M49.7131 69.6496C45.504 64.2085 41.409 58.9216 37.2941 53.6004C37.4512 53.4661 37.5397 53.329 37.6482 53.3091C44.9614 51.9581 49.8444 44.7889 48.7765 36.4915C47.6342 27.6172 41.8716 22.5559 32.8337 22.3703C27.1767 22.256 21.5141 22.3246 15.8572 22.3132C15.5316 22.3132 15.2061 22.3132 14.6693 22.3132C14.9548 21.8562 15.1147 21.5391 15.3289 21.2649C19.1211 16.4436 22.9048 11.6137 26.7227 6.81237C30.7662 1.73397 37.317 1.72255 41.3605 6.81807C49.5418 17.1405 57.6945 27.4858 65.8386 37.8368C68.4715 41.1843 68.6657 45.5144 66.1185 48.8105C60.7728 55.7369 55.3015 62.5661 49.7131 69.6496Z" fill="#F2F2F2"/>
<path d="M49.7131 69.6496C45.504 64.2085 41.409 58.9216 37.2941 53.6004C37.4512 53.4661 37.5397 53.329 37.6482 53.3091C44.9614 51.9581 49.8444 44.7889 48.7765 36.4915C47.6342 27.6172 41.8716 22.5559 32.8337 22.3703C27.1767 22.256 21.5141 22.3246 15.8572 22.3132C15.5316 22.3132 15.2061 22.3132 14.6693 22.3132C14.9548 21.8562 15.1147 21.5391 15.3289 21.2649C19.1211 16.4436 22.9048 11.6137 26.7227 6.81237C30.7662 1.73397 37.317 1.72255 41.3605 6.81807C49.5418 17.1405 57.6945 27.4858 65.8386 37.8368C68.4715 41.1843 68.6657 45.5144 66.1185 48.8105C60.7728 55.7369 55.3015 62.5661 49.7131 69.6496Z" fill="url(#paint0_linear)"/>
<path d="M0.810856 32.6589C2.04544 32.6589 2.94984 32.6589 3.85424 32.6589C12.3183 32.6589 20.7853 32.6532 29.2493 32.6646C30.059 32.6646 30.8744 32.7191 31.6783 32.8279C35.3849 33.3292 37.455 35.6722 37.4205 39.2812C37.3861 42.8931 35.2988 45.239 31.5864 45.6572C29.7891 45.8605 27.9631 45.8691 26.1514 45.9035C24.0038 45.9436 21.8562 45.9121 19.3899 45.9121C19.8349 46.5709 20.1249 47.0235 20.4379 47.4617C27.6013 57.4209 34.7533 67.3859 41.9541 77.3165C42.6087 78.2187 42.5369 78.7343 41.9081 79.628C38.4082 84.5947 32.91 84.9327 29.3383 82.6212C28.3564 81.9853 27.4549 81.1375 26.7227 80.2209C18.5113 69.9151 10.3372 59.5778 2.16603 49.2404C-0.443825 45.9407 -0.713711 42.2114 1.45686 38.588C2.68283 36.5429 2.23493 34.7012 0.810856 32.6589Z" fill="url(#paint1_linear)"/>
<defs>
<linearGradient id="paint0_linear" x1="106.512" y1="126.573" x2="0.760218" y2="101.448" gradientUnits="userSpaceOnUse">
<stop/>
<stop offset="0.00612235" stop-color="#030303"/>
<stop offset="0.1261" stop-color="#3D3D3D"/>
<stop offset="0.249" stop-color="#717171"/>
<stop offset="0.3722" stop-color="#9D9D9D"/>
<stop offset="0.4958" stop-color="#C0C0C0"/>
<stop offset="0.6199" stop-color="#DCDCDC"/>
<stop offset="0.7447" stop-color="#EFEFEF"/>
<stop offset="0.8708" stop-color="#FBFBFB"/>
<stop offset="1" stop-color="white"/>
</linearGradient>
<linearGradient id="paint1_linear" x1="42.0375" y1="30.3129" x2="-18.8263" y2="65.5504" gradientUnits="userSpaceOnUse">
<stop stop-color="#26A9FF"/>
<stop offset="1" stop-color="#0E21B6"/>
</linearGradient>
</defs>
</svg>
