<svg width="169" height="29" viewBox="0 0 169 29" fill="none" xmlns="http://www.w3.org/2000/svg">
<path d="M34.5806 8.16349C36.1841 8.16349 37.3648 8.45232 38.1227 9.02997C38.8915 9.60763 39.2759 10.485 39.2759 11.6621C39.2759 12.1962 39.1716 12.6649 38.9629 13.0681C38.7652 13.4605 38.4961 13.7984 38.1556 14.0817C37.8261 14.3542 37.4692 14.5777 37.0848 14.752L40.5445 19.8365H37.7767L34.976 15.3569H33.6415V19.8365H31.1538V8.16349H34.5806ZM34.3994 10.1907H33.6415V13.346H34.4488C35.2725 13.346 35.8601 13.2098 36.2116 12.9373C36.574 12.6649 36.7553 12.2616 36.7553 11.7275C36.7553 11.1717 36.5631 10.7793 36.1786 10.5504C35.8052 10.3106 35.2121 10.1907 34.3994 10.1907Z" fill="#F2F2F2"/>
<path d="M52.2772 19.8365L51.4205 17.0572H47.137L46.2803 19.8365H43.5949L47.7466 8.11444H50.7944L54.9626 19.8365H52.2772ZM49.9707 12.267C49.9158 12.0817 49.8444 11.8474 49.7565 11.564C49.6686 11.2807 49.5808 10.9918 49.4929 10.6975C49.405 10.4033 49.3337 10.1471 49.2787 9.92916C49.2238 10.1471 49.1469 10.4196 49.0481 10.7466C48.9602 11.0627 48.8724 11.3678 48.7845 11.6621C48.7076 11.9455 48.6472 12.1471 48.6033 12.267L47.7631 14.9809H50.8274L49.9707 12.267Z" fill="#F2F2F2"/>
<path d="M66.4362 16.5995C66.4362 17.6349 66.0572 18.4632 65.2994 19.0845C64.5525 19.6948 63.4872 20 62.1033 20C60.8622 20 59.7529 19.7657 58.7753 19.297V16.9918C59.3355 17.2316 59.9121 17.455 60.5052 17.6621C61.1093 17.8583 61.7079 17.9564 62.301 17.9564C62.916 17.9564 63.3499 17.842 63.6025 17.6131C63.8661 17.3733 63.9979 17.0736 63.9979 16.7139C63.9979 16.4196 63.8935 16.1689 63.6849 15.9619C63.4872 15.7548 63.2181 15.564 62.8776 15.3896C62.5371 15.2044 62.1472 15.0082 61.7079 14.8011C61.4333 14.6703 61.1367 14.5177 60.8182 14.3433C60.4997 14.158 60.1922 13.9346 59.8956 13.673C59.6101 13.4005 59.3739 13.0736 59.1872 12.6921C59.0005 12.3106 58.9071 11.8529 58.9071 11.3188C58.9071 10.2725 59.2641 9.46049 59.978 8.88283C60.6919 8.29428 61.6639 8 62.8941 8C63.5091 8 64.0912 8.07084 64.6404 8.21253C65.2005 8.35422 65.7827 8.55586 66.3867 8.81744L65.5795 10.7466C65.0413 10.5286 64.558 10.3597 64.1297 10.2398C63.7013 10.1199 63.262 10.0599 62.8117 10.0599C62.3394 10.0599 61.977 10.1689 61.7243 10.3869C61.4717 10.6049 61.3454 10.8883 61.3454 11.2371C61.3454 11.6512 61.5321 11.9782 61.9056 12.218C62.279 12.4578 62.8337 12.752 63.5695 13.1008C64.1736 13.3842 64.6843 13.6785 65.1017 13.9837C65.53 14.2888 65.8595 14.6485 66.0902 15.0627C66.3208 15.4768 66.4362 15.9891 66.4362 16.5995Z" fill="#F2F2F2"/>
<path d="M81.0787 19.8365H78.245L75.1642 14.9155L74.1098 15.6676V19.8365H71.6221V8.16349H74.1098V13.5095C74.2746 13.2807 74.4393 13.0518 74.6041 12.8229C74.7688 12.594 74.9336 12.3651 75.0983 12.1362L78.278 8.16349H81.0458L76.9435 13.3297L81.0787 19.8365Z" fill="#F2F2F2"/>
<path d="M92.8098 19.8365L91.9532 17.0572H87.6697L86.813 19.8365H84.1276L88.2793 8.11444H91.3271L95.4952 19.8365H92.8098ZM90.5034 12.267C90.4484 12.0817 90.3771 11.8474 90.2892 11.564C90.2013 11.2807 90.1135 10.9918 90.0256 10.6975C89.9377 10.4033 89.8663 10.1471 89.8114 9.92916C89.7565 10.1471 89.6796 10.4196 89.5808 10.7466C89.4929 11.0627 89.405 11.3678 89.3172 11.6621C89.2403 11.9455 89.1799 12.1471 89.1359 12.267L88.2957 14.9809H91.3601L90.5034 12.267Z" fill="#F2F2F2"/>
<path d="M104.703 10.0599C103.747 10.0599 103.017 10.4142 102.512 11.1226C102.007 11.8311 101.754 12.8011 101.754 14.0327C101.754 15.2752 101.985 16.2398 102.446 16.9264C102.918 17.6022 103.671 17.9401 104.703 17.9401C105.186 17.9401 105.664 17.8856 106.136 17.7766C106.62 17.6676 107.141 17.515 107.701 17.3188V19.3951C107.185 19.6022 106.675 19.7548 106.169 19.8529C105.664 19.951 105.098 20 104.472 20C103.264 20 102.265 19.7548 101.474 19.2643C100.694 18.7629 100.118 18.0654 99.7441 17.1717C99.3707 16.267 99.1839 15.2153 99.1839 14.0163C99.1839 12.8392 99.3981 11.7984 99.8265 10.8937C100.255 9.9891 100.875 9.28065 101.688 8.76839C102.512 8.25613 103.517 8 104.703 8C105.285 8 105.867 8.07629 106.449 8.22888C107.042 8.37057 107.608 8.56676 108.146 8.81744L107.339 10.8283C106.9 10.6213 106.455 10.4414 106.005 10.2888C105.565 10.1362 105.131 10.0599 104.703 10.0599Z" fill="#F2F2F2"/>
<path d="M122.887 19.8365H120.399V14.8011H115.737V19.8365H113.249V8.16349H115.737V12.7411H120.399V8.16349H122.887V19.8365Z" fill="#F2F2F2"/>
<path d="M136.094 19.8365L135.237 17.0572H130.954L130.097 19.8365H127.411L131.563 8.11444H134.611L138.779 19.8365H136.094ZM133.787 12.267C133.732 12.0817 133.661 11.8474 133.573 11.564C133.485 11.2807 133.397 10.9918 133.309 10.6975C133.222 10.4033 133.15 10.1471 133.095 9.92916C133.04 10.1471 132.963 10.4196 132.865 10.7466C132.777 11.0627 132.689 11.3678 132.601 11.6621C132.524 11.9455 132.464 12.1471 132.42 12.267L131.58 14.9809H134.644L133.787 12.267Z" fill="#F2F2F2"/>
<path d="M150.088 19.8365H143.317V8.16349H150.088V10.1907H145.804V12.7575H149.791V14.7847H145.804V17.7929H150.088V19.8365Z" fill="#F2F2F2"/>
<path d="M160.559 19.8365L157.725 10.6812H157.659C157.67 10.8992 157.687 11.2262 157.709 11.6621C157.731 12.0981 157.753 12.5668 157.775 13.0681C157.797 13.5586 157.808 14.0055 157.808 14.4087V19.8365H155.583V8.16349H158.977L161.762 17.0899H161.811L164.76 8.16349H168.154V19.8365H165.831V14.3106C165.831 13.9401 165.836 13.515 165.847 13.0354C165.869 12.5559 165.886 12.1035 165.897 11.6785C165.919 11.2425 165.935 10.9155 165.946 10.6975H165.88L162.849 19.8365H160.559Z" fill="#F2F2F2"/>
<path d="M17.5761 22.803C16.1171 20.9414 14.6977 19.1326 13.2714 17.312C13.3259 17.2661 13.3566 17.2192 13.3942 17.2124C15.9291 16.7502 17.6216 14.2973 17.2515 11.4585C16.8555 8.42235 14.8581 6.69073 11.7254 6.62721C9.76455 6.58812 7.80176 6.61157 5.84096 6.60766C5.72812 6.60766 5.61528 6.60766 5.4292 6.60766C5.52818 6.45131 5.58361 6.34284 5.65784 6.24903C6.97231 4.59949 8.2838 2.94703 9.60717 1.30433C11.0087 -0.433149 13.2794 -0.437059 14.6809 1.30629C17.5167 4.83793 20.3426 8.3774 23.1655 11.9188C24.0781 13.0641 24.1455 14.5456 23.2626 15.6733C21.4096 18.043 19.5132 20.3795 17.5761 22.803Z" fill="#F2F2F2"/>
<path d="M17.5761 22.803C16.1171 20.9414 14.6977 19.1326 13.2714 17.312C13.3259 17.2661 13.3566 17.2192 13.3942 17.2124C15.9291 16.7502 17.6216 14.2973 17.2515 11.4585C16.8555 8.42235 14.8581 6.69073 11.7254 6.62721C9.76455 6.58812 7.80176 6.61157 5.84096 6.60766C5.72812 6.60766 5.61528 6.60766 5.4292 6.60766C5.52818 6.45131 5.58361 6.34284 5.65784 6.24903C6.97231 4.59949 8.2838 2.94703 9.60717 1.30433C11.0087 -0.433149 13.2794 -0.437059 14.6809 1.30629C17.5167 4.83793 20.3426 8.3774 23.1655 11.9188C24.0781 13.0641 24.1455 14.5456 23.2626 15.6733C21.4096 18.043 19.5132 20.3795 17.5761 22.803Z" fill="url(#paint0_linear)"/>
<path d="M0.280251 10.8592C0.706953 10.8592 1.01953 10.8592 1.33212 10.8592C4.2575 10.8592 7.18388 10.8573 10.1093 10.8612C10.3891 10.8612 10.6709 10.8796 10.9488 10.9164C12.2299 11.0861 12.9453 11.8789 12.9334 13.1002C12.9215 14.3224 12.2001 15.1162 10.917 15.2577C10.2958 15.3265 9.66471 15.3294 9.03855 15.3411C8.29628 15.3546 7.55402 15.344 6.70161 15.344C6.85542 15.5669 6.95565 15.7201 7.06381 15.8683C9.53967 19.2384 12.0116 22.6105 14.5003 25.9709C14.7266 26.2762 14.7018 26.4506 14.4844 26.7531C13.2748 28.4337 11.3745 28.5481 10.14 27.7659C9.80066 27.5507 9.48907 27.2638 9.23602 26.9537C6.39796 23.4663 3.5728 19.9683 0.748631 16.4703C-0.153396 15.3537 -0.246676 14.0917 0.503525 12.8656C0.92725 12.1736 0.772446 11.5503 0.280251 10.8592Z" fill="url(#paint1_linear)"/>
<defs>
<linearGradient id="paint0_linear" x1="37.2637" y1="42.2783" x2="0.659689" y2="33.4677" gradientUnits="userSpaceOnUse">
<stop/>
<stop offset="0.00612235" stop-color="#030303"/>
<stop offset="0.1261" stop-color="#3D3D3D"/>
<stop offset="0.249" stop-color="#717171"/>
<stop offset="0.3722" stop-color="#9D9D9D"/>
<stop offset="0.4958" stop-color="#C0C0C0"/>
<stop offset="0.6199" stop-color="#DCDCDC"/>
<stop offset="0.7447" stop-color="#EFEFEF"/>
<stop offset="0.8708" stop-color="#FBFBFB"/>
<stop offset="1" stop-color="white"/>
</linearGradient>
<linearGradient id="paint1_linear" x1="14.5292" y1="10.0654" x2="-6.28103" y2="22.3712" gradientUnits="userSpaceOnUse">
<stop stop-color="#26A9FF"/>
<stop offset="1" stop-color="#0E21B6"/>
</linearGradient>
</defs>
</svg>
