<svg aria-hidden="true" style="position: absolute; width: 0; height: 0; overflow: hidden;" version="1.1"
    xmlns="http://www.w3.org/2000/svg" xmlns:xlink="http://www.w3.org/1999/xlink">
    <defs>
        <symbol id="icon-menu" viewBox="0 0 37 32">
            <path fill="#fff" style="fill: var(--color1, #fff)"
                d="M36.038 2.743h-34.286c-0.61 0-1.143-0.533-1.143-1.143s0.533-1.143 1.143-1.143h34.286c0.61 0 1.143 0.533 1.143 1.143s-0.533 1.143-1.143 1.143z">
            </path>
            <path fill="#fff" style="fill: var(--color1, #fff)"
                d="M29.943 17.981h-28.19c-0.61 0-1.143-0.533-1.143-1.143s0.533-1.143 1.143-1.143h28.19c0.61 0 1.143 0.533 1.143 1.143s-0.533 1.143-1.143 1.143z">
            </path>
            <path fill="#fff" style="fill: var(--color1, #fff)"
                d="M18.514 31.695h-16.762c-0.61 0-1.143-0.533-1.143-1.143s0.533-1.143 1.143-1.143h16.762c0.61 0 1.143 0.533 1.143 1.143s-0.533 1.143-1.143 1.143z">
            </path>
        </symbol>
    </defs>
</svg>