<svg width="185" height="158" viewBox="0 0 185 158" fill="none" xmlns="http://www.w3.org/2000/svg">
<path d="M118.068 0.80835L133.438 9.89053L130.085 15.2001L115.693 5.55903L118.068 0.80835Z" fill="#FF1D9C"/>
<path d="M0 52.3671L15.0904 40.4904L18.863 45.6602L4.89041 56.5589L0 52.3671Z" fill="#A74AFF"/>
<path d="M59.2438 11.7072L58.2657 23.1647L54.6328 22.7455L55.4712 12.1264L59.2438 11.7072Z" fill="#4F31E0"/>
<path d="M172.981 54.8824L180.805 63.5454L184.019 60.0523L176.474 51.8084L172.981 54.8824Z" fill="#6877FF"/>
<path d="M106.471 115.803C106.471 116.92 105.633 117.759 104.515 117.759C103.397 117.759 102.559 116.92 102.559 115.803C102.559 114.685 103.397 113.847 104.515 113.847C105.633 113.847 106.471 114.685 106.471 115.803Z" fill="url(#paint0_linear)"/>
<path d="M104.515 134.247C132.45 134.247 155.096 111.601 155.096 83.6661C155.096 55.7311 132.45 33.0853 104.515 33.0853C76.5799 33.0853 53.9341 55.7311 53.9341 83.6661C53.9341 111.601 76.5799 134.247 104.515 134.247Z" fill="url(#paint1_linear)"/>
<path d="M103.257 37.1374V33.0853C103.257 33.0853 125.474 30.9894 142.101 49.8524L138.887 52.2277C138.887 52.3675 125.614 36.5785 103.257 37.1374Z" fill="white"/>
<path d="M142.101 56.28L145.454 54.1841C145.454 54.1841 149.367 59.4937 151.043 63.9649L147.131 64.8032C147.131 64.943 145.315 60.6115 142.101 56.28Z" fill="white"/>
<path d="M104.515 129.915C131.061 129.915 152.581 108.396 152.581 81.8497C152.581 55.3037 131.061 33.784 104.515 33.784C77.969 33.784 56.4493 55.3037 56.4493 81.8497C56.4493 108.396 77.969 129.915 104.515 129.915Z" fill="url(#paint2_radial)"/>
<path d="M104.515 118.877C124.964 118.877 141.542 102.299 141.542 81.8494C141.542 61.3997 124.964 44.822 104.515 44.822C84.0651 44.822 67.4874 61.3997 67.4874 81.8494C67.4874 102.299 84.0651 118.877 104.515 118.877Z" fill="url(#paint3_linear)"/>
<path d="M104.515 117.34C122.881 117.34 137.77 102.451 137.77 84.0853C137.77 65.7192 122.881 50.8305 104.515 50.8305C86.1489 50.8305 71.2602 65.7192 71.2602 84.0853C71.2602 102.451 86.1489 117.34 104.515 117.34Z" fill="url(#paint4_linear)"/>
<path d="M102.14 81.8494L104.096 51.1097H105.912L107.589 81.8494H102.14Z" fill="url(#paint5_linear)"/>
<path d="M104.794 83.666L104.515 79.055L124.496 80.0331V81.8496L104.794 83.666Z" fill="url(#paint6_linear)"/>
<path d="M108.567 80.8717C108.567 82.6881 107.03 84.2251 105.214 84.2251C103.397 84.2251 101.86 82.6881 101.86 80.8717C101.86 79.0552 103.397 77.5183 105.214 77.5183C107.03 77.5183 108.567 79.0552 108.567 80.8717Z" fill="url(#paint7_linear)"/>
<path d="M75.0326 82.8276C76.113 82.8276 76.9888 81.9518 76.9888 80.8715C76.9888 79.7911 76.113 78.9153 75.0326 78.9153C73.9523 78.9153 73.0764 79.7911 73.0764 80.8715C73.0764 81.9518 73.9523 82.8276 75.0326 82.8276Z" fill="url(#paint8_linear)"/>
<path d="M133.857 82.8276C134.938 82.8276 135.814 81.9518 135.814 80.8715C135.814 79.7911 134.938 78.9153 133.857 78.9153C132.777 78.9153 131.901 79.7911 131.901 80.8715C131.901 81.9518 132.777 82.8276 133.857 82.8276Z" fill="url(#paint9_linear)"/>
<path d="M105.214 53.066C106.294 53.066 107.17 52.1902 107.17 51.1099C107.17 50.0295 106.294 49.1537 105.214 49.1537C104.133 49.1537 103.257 50.0295 103.257 51.1099C103.257 52.1902 104.133 53.066 105.214 53.066Z" fill="url(#paint10_linear)"/>
<path opacity="0.73" d="M96.1312 47.1976L100.323 58.9346C100.323 58.9346 118.068 59.214 127.011 69.9729L135.813 65.6414C133.857 58.0962 118.068 42.0277 96.1312 47.1976Z" fill="white"/>
<path d="M83.1369 109.795L87.4684 103.787C87.4684 103.787 97.2492 110.633 112.34 109.655L114.575 116.222C114.575 116.083 97.9478 121.392 83.1369 109.795Z" fill="white"/>
<path d="M114.575 34.9019C114.575 34.9019 120.444 50.5511 133.438 43.5649C133.438 43.4251 125.753 36.7183 114.575 34.9019Z" fill="white"/>
<path d="M50.5808 153.529L48.9041 126.841C48.9041 126.841 102.978 124.186 158.309 126.562L155.235 154.786L50.5808 153.529Z" fill="url(#paint11_linear)"/>
<path d="M54.2136 151.153L53.2355 129.216C53.2355 129.216 102.698 128.098 154.257 130.055L152.441 152.131L54.2136 151.153Z" fill="url(#paint12_linear)"/>
<path d="M53.2355 129.356L54.0739 150.594L102.698 151.712L101.161 129.356C101.161 129.356 84.3944 128.378 53.2355 129.356Z" fill="url(#paint13_linear)"/>
<path d="M53.7944 148.359L68.0465 128.937H72.6574L57.4273 150.594H54.0739L53.7944 148.359Z" fill="url(#paint14_linear)"/>
<path d="M68.1863 150.874L83.8356 128.937H88.1671L73.6356 151.014L68.1863 150.874Z" fill="url(#paint15_linear)"/>
<path d="M86.9093 151.293L101.161 129.356L101.441 134.386L90.9614 151.293H86.9093Z" fill="url(#paint16_linear)"/>
<path d="M50.5806 153.529L53.7943 157.022L151.742 158L155.096 154.786L50.5806 153.529Z" fill="#A181C9"/>
<path d="M96.1314 125.584C96.1314 125.584 99.2053 128.937 106.471 128.797C113.737 128.658 116.112 125.584 116.112 125.584C116.112 125.584 99.0656 125.584 96.1314 125.584Z" fill="white"/>
<path d="M57.4272 150.594C57.4272 150.594 86.2107 146.123 98.9258 151.572L57.4272 150.594Z" fill="white"/>
<defs>
<linearGradient id="paint0_linear" x1="104.487" y1="117.696" x2="104.487" y2="113.777" gradientUnits="userSpaceOnUse">
<stop stop-color="#1C257B"/>
<stop offset="1" stop-color="#482C83"/>
</linearGradient>
<linearGradient id="paint1_linear" x1="104.486" y1="134.235" x2="104.486" y2="33.1919" gradientUnits="userSpaceOnUse">
<stop stop-color="#4C25A6"/>
<stop offset="0.6015" stop-color="#457AE2"/>
<stop offset="1" stop-color="#6DD9F7"/>
</linearGradient>
<radialGradient id="paint2_radial" cx="0" cy="0" r="1" gradientUnits="userSpaceOnUse" gradientTransform="translate(108.014 42.245) scale(68.555)">
<stop stop-color="#3996F7"/>
<stop offset="1" stop-color="#6840D5"/>
</radialGradient>
<linearGradient id="paint3_linear" x1="104.486" y1="118.8" x2="104.486" y2="44.8536" gradientUnits="userSpaceOnUse">
<stop stop-color="#DDCDFF"/>
<stop offset="1" stop-color="#9F9CFF"/>
</linearGradient>
<linearGradient id="paint4_linear" x1="104.486" y1="117.344" x2="104.486" y2="50.7831" gradientUnits="userSpaceOnUse">
<stop stop-color="#EEF0FF"/>
<stop offset="1" stop-color="#DDCDFF"/>
</linearGradient>
<linearGradient id="paint5_linear" x1="104.861" y1="81.8267" x2="104.861" y2="51.1443" gradientUnits="userSpaceOnUse">
<stop stop-color="#1C257B"/>
<stop offset="1" stop-color="#482C83"/>
</linearGradient>
<linearGradient id="paint6_linear" x1="114.535" y1="83.6804" x2="114.535" y2="79.0617" gradientUnits="userSpaceOnUse">
<stop stop-color="#1C257B"/>
<stop offset="1" stop-color="#482C83"/>
</linearGradient>
<linearGradient id="paint7_linear" x1="105.225" y1="84.3053" x2="105.225" y2="77.5718" gradientUnits="userSpaceOnUse">
<stop stop-color="#1C257B"/>
<stop offset="1" stop-color="#482C83"/>
</linearGradient>
<linearGradient id="paint8_linear" x1="75.0656" y1="82.8978" x2="75.0656" y2="78.9787" gradientUnits="userSpaceOnUse">
<stop stop-color="#1C257B"/>
<stop offset="1" stop-color="#482C83"/>
</linearGradient>
<linearGradient id="paint9_linear" x1="133.803" y1="82.8978" x2="133.803" y2="78.9787" gradientUnits="userSpaceOnUse">
<stop stop-color="#1C257B"/>
<stop offset="1" stop-color="#482C83"/>
</linearGradient>
<linearGradient id="paint10_linear" x1="105.225" y1="53.104" x2="105.225" y2="49.185" gradientUnits="userSpaceOnUse">
<stop stop-color="#1C257B"/>
<stop offset="1" stop-color="#482C83"/>
</linearGradient>
<linearGradient id="paint11_linear" x1="103.568" y1="154.723" x2="103.568" y2="125.575" gradientUnits="userSpaceOnUse">
<stop stop-color="#D1BBFF"/>
<stop offset="1" stop-color="#EFEAFF"/>
</linearGradient>
<linearGradient id="paint12_linear" x1="103.748" y1="152.247" x2="103.748" y2="128.996" gradientUnits="userSpaceOnUse">
<stop stop-color="#DDCDFF"/>
<stop offset="1" stop-color="#9F9CFF"/>
</linearGradient>
<linearGradient id="paint13_linear" x1="77.914" y1="151.715" x2="77.914" y2="128.884" gradientUnits="userSpaceOnUse">
<stop stop-color="#B31A8F"/>
<stop offset="0.00896716" stop-color="#B51A8F"/>
<stop offset="0.1486" stop-color="#D01789"/>
<stop offset="0.3008" stop-color="#E41484"/>
<stop offset="0.4721" stop-color="#F31281"/>
<stop offset="0.6764" stop-color="#FB117F"/>
<stop offset="1" stop-color="#FE117E"/>
</linearGradient>
<linearGradient id="paint14_linear" x1="63.1847" y1="150.589" x2="63.1847" y2="128.885" gradientUnits="userSpaceOnUse">
<stop stop-color="#B9ACF4"/>
<stop offset="1" stop-color="#E1D1F5"/>
</linearGradient>
<linearGradient id="paint15_linear" x1="78.1231" y1="151.044" x2="78.1231" y2="128.904" gradientUnits="userSpaceOnUse">
<stop stop-color="#B9ACF4"/>
<stop offset="1" stop-color="#E1D1F5"/>
</linearGradient>
<linearGradient id="paint16_linear" x1="94.185" y1="151.329" x2="94.185" y2="129.292" gradientUnits="userSpaceOnUse">
<stop stop-color="#B9ACF4"/>
<stop offset="1" stop-color="#E1D1F5"/>
</linearGradient>
</defs>
</svg>
