<svg aria-hidden="true" style="position: absolute; width: 0; height: 0; overflow: hidden;" version="1.1"
    xmlns="http://www.w3.org/2000/svg" xmlns:xlink="http://www.w3.org/1999/xlink">
    <defs>
        <symbol id="icon-menu" viewBox="0 0 37 32">
            <path fill="#fff" style="fill: var(--color1, #fff)"
                d="M36.038 2.743h-34.286c-0.61 0-1.143-0.533-1.143-1.143s0.533-1.143 1.143-1.143h34.286c0.61 0 1.143 0.533 1.143 1.143s-0.533 1.143-1.143 1.143z">
            </path>
            <path fill="#fff" style="fill: var(--color1, #fff)"
                d="M29.943 17.981h-28.19c-0.61 0-1.143-0.533-1.143-1.143s0.533-1.143 1.143-1.143h28.19c0.61 0 1.143 0.533 1.143 1.143s-0.533 1.143-1.143 1.143z">
            </path>
            <path fill="#fff" style="fill: var(--color1, #fff)"
                d="M18.514 31.695h-16.762c-0.61 0-1.143-0.533-1.143-1.143s0.533-1.143 1.143-1.143h16.762c0.61 0 1.143 0.533 1.143 1.143s-0.533 1.143-1.143 1.143z">
            </path>
        </symbol>
        <symbol id="icon-cross" viewBox="0 0 32 32">
            <path
                d="M31.708 25.708c-0-0-0-0-0-0l-9.708-9.708 9.708-9.708c0-0 0-0 0-0 0.105-0.105 0.18-0.227 0.229-0.357 0.133-0.356 0.057-0.771-0.229-1.057l-4.586-4.586c-0.286-0.286-0.702-0.361-1.057-0.229-0.13 0.048-0.252 0.124-0.357 0.228 0 0-0 0-0 0l-9.708 9.708-9.708-9.708c-0-0-0-0-0-0-0.105-0.104-0.227-0.18-0.357-0.228-0.356-0.133-0.771-0.057-1.057 0.229l-4.586 4.586c-0.286 0.286-0.361 0.702-0.229 1.057 0.049 0.13 0.124 0.252 0.229 0.357 0 0 0 0 0 0l9.708 9.708-9.708 9.708c-0 0-0 0-0 0-0.104 0.105-0.18 0.227-0.229 0.357-0.133 0.355-0.057 0.771 0.229 1.057l4.586 4.586c0.286 0.286 0.702 0.361 1.057 0.229 0.13-0.049 0.252-0.124 0.357-0.229 0-0 0-0 0-0l9.708-9.708 9.708 9.708c0 0 0 0 0 0 0.105 0.105 0.227 0.18 0.357 0.229 0.356 0.133 0.771 0.057 1.057-0.229l4.586-4.586c0.286-0.286 0.362-0.702 0.229-1.057-0.049-0.13-0.124-0.252-0.229-0.357z">
            </path>
        </symbol>
    </defs>
</svg>