<svg width="36" height="37" viewBox="0 0 36 37" fill="none" xmlns="http://www.w3.org/2000/svg">
<path d="M4.19873 3.99695C4.19873 4.32815 3.9302 4.59668 3.599 4.59668C3.2678 4.59668 2.99927 4.32815 2.99927 3.99695C2.99927 3.66575 3.2678 3.39722 3.599 3.39722C3.9302 3.39722 4.19873 3.66575 4.19873 3.99695Z" fill="#818181"/>
<path d="M6.59741 3.99695C6.59741 4.32815 6.32888 4.59668 5.99768 4.59668C5.66648 4.59668 5.39795 4.32815 5.39795 3.99695C5.39795 3.66575 5.66648 3.39722 5.99768 3.39722C6.32888 3.39722 6.59741 3.66575 6.59741 3.99695Z" fill="#818181"/>
<path d="M8.99646 3.99695C8.99646 4.32815 8.72793 4.59668 8.39673 4.59668C8.06553 4.59668 7.797 4.32815 7.797 3.99695C7.797 3.66575 8.06553 3.39722 8.39673 3.39722C8.72793 3.39722 8.99646 3.66575 8.99646 3.99695Z" fill="#818181"/>
<path d="M12.595 3.39722C12.2638 3.39722 11.9952 3.66575 11.9952 3.99695C11.9952 4.32815 12.2638 4.59668 12.595 4.59668H27.5882C27.9194 4.59668 28.188 4.32815 28.188 3.99695C28.188 3.66575 27.9194 3.39722 27.5882 3.39722H12.595Z" fill="#818181"/>
<path d="M8.64856 30.3851H1.19995V6.9956H27.5881C27.9193 6.9956 28.1878 6.72707 28.1878 6.39587C28.1878 6.06467 27.9193 5.79614 27.5881 5.79614H1.19995V2.19775H29.3873V9.64637C29.3873 9.97757 29.6558 10.2461 29.987 10.2461C30.3182 10.2461 30.5868 9.97757 30.5868 9.64637V1.59802C30.5868 1.26682 30.3182 0.998291 29.987 0.998291H0.600219C0.26902 0.998291 0.000488281 1.26682 0.000488281 1.59802V30.9848C0.000488281 31.316 0.26902 31.5846 0.600219 31.5846H8.64856C8.97976 31.5846 9.24829 31.316 9.24829 30.9848C9.24829 30.6536 8.97976 30.3851 8.64856 30.3851Z" fill="#818181"/>
<path d="M35.8104 34.2594L32.5118 30.9849L34.4431 29.6956C34.6419 29.5655 34.7456 29.3304 34.7069 29.0958C34.6668 28.8621 34.4929 28.6741 34.263 28.6159L26.2088 26.4749C26.0026 26.4213 25.7839 26.4808 25.6334 26.6313C25.4829 26.7818 25.4234 27.0006 25.477 27.2067L27.5881 35.2609C27.6463 35.4908 27.8343 35.6647 28.0677 35.7049C28.3023 35.7435 28.5377 35.6399 28.6675 35.441L29.987 33.5098L33.2855 36.8083C33.3985 36.9204 33.552 36.9831 33.7113 36.9822C33.8706 36.9831 34.024 36.9204 34.1371 36.8083L35.8344 35.111C35.9448 34.9953 36.0045 34.8401 35.9998 34.6802C35.9954 34.5203 35.9272 34.3689 35.8104 34.2594ZM33.6873 35.5368L30.2927 32.1425C30.1811 32.0315 30.0303 31.9691 29.8731 31.9686H29.813C29.635 31.9867 29.4745 32.0833 29.3753 32.2324L28.4156 33.6658L26.8984 27.8964L32.6679 29.4135L31.2345 30.3852C31.0854 30.4845 30.9888 30.6449 30.9706 30.823C30.9542 31.0007 31.0181 31.1767 31.1446 31.3026L34.5389 34.6972L33.6873 35.5368Z" fill="#818181"/>
<path d="M24.9254 32.49C23.6744 33.0095 22.3437 33.3117 20.9911 33.3838V27.9862C21.8778 28.007 22.7628 28.077 23.6418 28.1962C23.973 28.2424 24.2794 28.0117 24.3256 27.6805C24.3719 27.349 24.1411 27.043 23.8099 26.9967C22.8749 26.8743 21.9337 26.8043 20.9911 26.7867V21.9889H26.9884C26.9579 22.9295 26.866 23.8671 26.7125 24.7957C26.6578 25.1269 26.8821 25.4397 27.2133 25.4944C27.5445 25.5489 27.8572 25.3249 27.912 24.9934C28.0713 23.9992 28.1636 22.9954 28.1879 21.9889H32.386C32.3236 23.3397 32.0316 24.6701 31.5224 25.9232C31.3982 26.2277 31.5426 26.5759 31.8463 26.7027C31.9183 26.7334 31.9956 26.7498 32.0741 26.7507C32.3198 26.751 32.5409 26.6014 32.632 26.373C33.2724 24.7899 33.5963 23.0967 33.5854 21.3892C33.5869 18.2933 32.4952 15.2964 30.5027 12.927C27.9987 9.9313 24.296 8.19858 20.3914 8.19507H19.9594C17.0471 8.29053 14.2473 9.34475 11.9951 11.1937C11.7383 11.404 11.7008 11.7826 11.9111 12.0394C12.1216 12.296 12.5 12.3337 12.7568 12.1232C13.7987 11.2661 14.9762 10.589 16.2413 10.1202C15.2409 11.2087 14.4555 12.4764 13.9264 13.8565C12.9038 13.5663 11.902 13.2079 10.9277 12.783C10.6899 12.6825 10.4144 12.7452 10.244 12.939C10.244 12.939 10.2138 12.939 10.2018 12.9751C8.26144 15.3426 7.20166 18.31 7.20313 21.3713C7.20342 24.4385 8.27696 27.4087 10.2378 29.7675L10.28 29.8153C12.7741 32.8286 16.4796 34.5759 20.3914 34.5832C22.1009 34.5844 23.7941 34.2503 25.3752 33.5996C25.5866 33.5287 25.7412 33.3463 25.7763 33.1261C25.8118 32.9059 25.7219 32.6842 25.5432 32.5507C25.3646 32.4171 25.1265 32.394 24.9254 32.49ZM19.7916 33.3299C17.8785 33.0239 16.1932 31.2308 15.1077 28.5918C16.6442 28.2304 18.2138 28.0272 19.7916 27.9862V33.3299ZM19.7916 26.7867C18.0721 26.8222 16.361 27.0412 14.6881 27.4403C14.1355 25.6742 13.8344 23.839 13.7943 21.9889H19.7916V26.7867ZM8.4266 21.9889H12.5948C12.6323 23.9506 12.9474 25.8968 13.5305 27.7704C12.6417 28.0298 11.7688 28.3402 10.9157 28.6998C9.41756 26.7709 8.54871 24.4282 8.4266 21.9889ZM25.639 14.1924C24.1139 14.5491 22.5566 14.7499 20.9911 14.7921V9.45456C22.8863 9.77229 24.5535 11.5715 25.639 14.1924ZM19.7916 20.7894H13.7943C13.8318 18.9325 14.1349 17.0909 14.6939 15.3198C16.3643 15.7248 18.0733 15.95 19.7916 15.9916V20.7894ZM20.9911 15.9916C22.6966 15.955 24.3933 15.7377 26.0528 15.3438C26.6098 17.107 26.9126 18.9407 26.9524 20.7894H20.9911V15.9916ZM32.386 20.7894H28.1879C28.1521 18.83 27.8391 16.8856 27.2584 15.0141C28.1597 14.7552 29.045 14.4428 29.9092 14.0785C31.4029 16.0089 32.2674 18.3515 32.386 20.7894ZM29.0875 13.1188C28.3557 13.4131 27.6089 13.6694 26.8505 13.8867C26.3245 12.4966 25.5345 11.2215 24.5236 10.1322C26.2422 10.7703 27.7928 11.7917 29.0576 13.1188H29.0875ZM19.7916 9.44841V14.7921C18.2138 14.7529 16.6445 14.552 15.1077 14.1924C16.1932 11.5475 17.8785 9.75443 19.7916 9.44841ZM12.5948 20.7894H8.39673C8.5206 18.3524 9.38477 16.0115 10.8736 14.0785C11.7286 14.4381 12.6039 14.7485 13.4944 15.0079C12.9225 16.883 12.6197 18.8295 12.5948 20.7894ZM11.7251 29.6595C12.4455 29.3701 13.1802 29.118 13.9264 28.9037C14.4538 30.2768 15.2351 31.5383 16.2293 32.6221C14.5217 31.9907 12.9811 30.9772 11.7251 29.6595Z" fill="#818181"/>
<path d="M34.2331 15.6197C34.325 15.8437 34.5426 15.9904 34.7848 15.9916C34.8635 15.9936 34.9414 15.9772 35.0126 15.9436C35.3163 15.8165 35.4606 15.4686 35.3365 15.164C34.7192 13.6717 33.8779 12.2825 32.8415 11.0438C32.6216 10.847 32.291 10.8397 32.0623 11.0262C31.8339 11.2131 31.775 11.5387 31.924 11.7935C32.8825 12.9449 33.6612 14.2351 34.2331 15.6197Z" fill="#818181"/>
<path d="M7.93504 11.0438C5.5206 13.9508 4.19902 17.6104 4.19873 21.3891C4.19873 21.7203 4.46726 21.9889 4.79846 21.9889C5.12966 21.9889 5.39819 21.7203 5.39819 21.3891C5.39468 17.8844 6.61903 14.4893 8.85865 11.7934C9.07067 11.5384 9.03582 11.1597 8.78076 10.9477C8.5257 10.7357 8.14706 10.7708 7.93504 11.0259V11.0438Z" fill="#818181"/>
</svg>
