<svg width="694" height="610" viewBox="0 0 694 610" fill="none" xmlns="http://www.w3.org/2000/svg">
<path d="M562.32 563.764C561.273 563.764 560.053 563.764 559.006 563.764C532.501 562.717 511.052 553.475 495.358 536.386C480.013 519.646 470.422 495.407 467.284 465.589C440.255 470.123 421.074 477.272 420.725 477.446L419.504 474.308C419.853 474.133 439.383 466.984 466.761 462.276C465.714 451.464 465.54 439.781 466.237 427.574C467.109 411.706 459.437 399.674 443.743 391.653C394.917 366.368 272.852 387.293 218.621 430.19L216.703 427.749C241.988 407.695 284.71 390.955 331.095 382.585C379.223 374.04 420.725 376.307 445.138 388.863C462.052 397.581 470.074 410.66 469.202 427.749C468.504 439.781 468.853 451.29 469.725 461.927C496.579 457.742 530.408 456.172 561.622 465.938C602.95 478.667 617.772 506.393 613.935 528.365C610.448 549.988 590.22 563.764 562.32 563.764ZM470.074 464.891C473.212 494.187 482.455 517.728 497.451 534.119C512.622 550.685 533.198 559.578 559.006 560.625C587.081 561.671 607.483 548.767 611.145 527.667C614.633 507.091 600.508 480.934 560.925 468.728C530.06 459.311 496.579 460.706 470.074 464.891Z" fill="url(#paint0_linear)"/>
<path fill-rule="evenodd" clip-rule="evenodd" d="M545.579 166.182L539.651 306.905L537.558 356.428C537.384 361.66 533.024 366.019 527.619 366.019H184.443C179.037 366.019 174.678 361.834 174.503 356.428L168.4 166.357C168.226 160.776 172.76 156.068 178.34 156.068H535.64C541.394 155.72 545.928 160.428 545.579 166.182Z" fill="url(#paint1_linear)"/>
<path fill-rule="evenodd" clip-rule="evenodd" d="M182.176 166.705L185.141 342.304L527.967 341.955L534.245 165.833L182.176 166.705Z" fill="url(#paint2_radial)"/>
<path fill-rule="evenodd" clip-rule="evenodd" d="M174.503 356.08V351.72L538.081 349.628L537.732 356.254C537.732 356.254 537.907 364.973 527.793 365.67H184.443C184.443 365.67 174.852 365.147 174.503 356.08Z" fill="url(#paint3_radial)"/>
<path d="M505.995 360.613C507.633 360.613 508.96 359.286 508.96 357.649C508.96 356.012 507.633 354.685 505.995 354.685C504.358 354.685 503.031 356.012 503.031 357.649C503.031 359.286 504.358 360.613 505.995 360.613Z" fill="#FFFB00"/>
<path fill-rule="evenodd" clip-rule="evenodd" d="M323.945 365.67L331.618 401.941H377.131L384.454 365.67H323.945Z" fill="url(#paint4_linear)"/>
<path opacity="0.5" fill-rule="evenodd" clip-rule="evenodd" d="M326.735 378.4L380.792 383.806L384.454 365.67H323.945L326.735 378.4Z" fill="#401734"/>
<path d="M408.519 401.941H297.614V408.916H408.519V401.941Z" fill="url(#paint5_radial)"/>
<path fill-rule="evenodd" clip-rule="evenodd" d="M408.519 401.941L377.828 398.279H330.92L297.614 401.941H408.519Z" fill="url(#paint6_radial)"/>
<path opacity="0.8" fill-rule="evenodd" clip-rule="evenodd" d="M382.362 408.916V401.941H406.426L405.031 408.916H382.362Z" fill="#FBF9FA"/>
<path opacity="0.8" fill-rule="evenodd" clip-rule="evenodd" d="M545.58 166.008L539.651 306.731L537.907 321.03L531.629 313.008L536.861 163.915H354.462L346.266 155.719H535.64C541.395 155.719 545.928 160.428 545.58 166.008Z" fill="#FBF9FA"/>
<path fill-rule="evenodd" clip-rule="evenodd" d="M206.938 342.304L202.753 178.04L509.483 175.947L503.206 341.955L206.938 342.304Z" fill="url(#paint7_linear)"/>
<path opacity="0.2" fill-rule="evenodd" clip-rule="evenodd" d="M202.753 178.04V193.908H508.786L509.483 175.947L202.753 178.04Z" fill="#6D1748"/>
<g opacity="0.2">
<path opacity="0.2" d="M492.918 182.399L495.01 180.132L502.16 188.677L501.113 189.723L492.918 182.399Z" fill="#401734"/>
<path opacity="0.2" d="M500.765 180.132L502.857 182.399L494.313 189.549L493.266 188.502L500.765 180.132Z" fill="#401734"/>
</g>
<path opacity="0.5" fill-rule="evenodd" clip-rule="evenodd" d="M365.447 166.182L529.886 284.934L534.245 165.833L365.447 166.182Z" fill="#FBF9FA"/>
<path opacity="0.5" fill-rule="evenodd" clip-rule="evenodd" d="M184.443 295.222L254.194 342.304H185.14L184.443 295.222Z" fill="#FBF9FA"/>
<path fill-rule="evenodd" clip-rule="evenodd" d="M279.653 198.965L282.095 286.503L433.28 286.677L438.86 198.965H279.653Z" fill="url(#paint8_radial)"/>
<path opacity="0.2" fill-rule="evenodd" clip-rule="evenodd" d="M319.063 304.813L316.621 313.357H400.846L398.405 304.464L319.063 304.813Z" fill="#6D1748"/>
<g opacity="0.2">
<path opacity="0.2" d="M433.803 315.973H282.967V321.03H433.803V315.973Z" fill="#6D1748"/>
<path opacity="0.2" d="M356.205 323.994H282.966V329.051H356.205V323.994Z" fill="#6D1748"/>
<path opacity="0.2" d="M384.629 331.492H282.966V336.549H384.629V331.492Z" fill="#6D1748"/>
<path opacity="0.2" d="M388.291 323.994H360.565V329.051H388.291V323.994Z" fill="#6D1748"/>
<path opacity="0.2" d="M433.804 323.994H406.078V329.051H433.804V323.994Z" fill="#6D1748"/>
</g>
<path fill-rule="evenodd" clip-rule="evenodd" d="M347.137 225.296L347.835 263.834L373.992 245.001L347.137 225.296Z" fill="white"/>
<path fill-rule="evenodd" clip-rule="evenodd" d="M314.703 288.247V307.603L401.369 308.998V288.247H314.703Z" fill="url(#paint9_linear)"/>
<path d="M314.703 307.603L319.935 310.218L397.359 310.741L401.369 308.998L314.703 307.603Z" fill="#8E003E"/>
<path d="M459.611 289.99L462.75 295.047L468.505 296.617L464.668 301.151L465.017 307.079L459.437 304.987L453.857 307.079L454.206 301.151L450.369 296.617L456.124 295.047L459.611 289.99ZM459.611 288.944L459.088 289.816L455.949 294.699L450.369 296.094L449.323 296.268L450.021 297.14L453.683 301.499L453.334 307.254V308.3L454.206 307.951L459.437 305.859L464.668 307.951L465.54 308.3V307.254L465.191 301.499L468.853 297.14L469.551 296.268L468.505 296.094L462.925 294.699L459.786 289.816L459.611 288.944Z" fill="#B8A9D4"/>
<path d="M440.43 289.99L443.569 295.047L449.323 296.617L445.487 301.151L445.836 307.079L440.255 304.987L434.675 307.079L435.024 301.151L431.188 296.617L436.942 295.047L440.43 289.99ZM440.43 288.944L439.907 289.816L436.768 294.699L431.188 296.094L430.142 296.268L430.839 297.14L434.501 301.499L434.152 307.254V308.3L435.024 307.951L440.255 305.859L445.487 307.951L446.359 308.3V307.254L446.01 301.499L449.672 297.14L450.369 296.268L449.323 296.094L443.743 294.699L440.604 289.816L440.43 288.944Z" fill="#B8A9D4"/>
<path d="M421.946 289.99L425.084 295.047L430.839 296.617L427.003 301.151L427.351 307.079L421.771 304.987L416.191 307.079L416.54 301.151L412.704 296.617L418.458 295.047L421.946 289.99ZM421.946 288.944L421.423 289.816L418.284 294.699L412.704 296.094L411.657 296.268L412.355 297.14L416.017 301.499L415.668 307.254V308.3L416.54 307.951L421.771 305.859L427.003 307.951L427.874 308.3V307.254L427.526 301.499L431.188 297.14L431.885 296.268L430.839 296.094L425.259 294.699L422.12 289.816L421.946 288.944Z" fill="#B8A9D4"/>
<path fill-rule="evenodd" clip-rule="evenodd" d="M440.429 289.99L443.743 295.047L449.497 296.617L445.661 301.151L446.01 307.254L440.429 304.987L434.849 307.254L435.198 301.151L431.536 296.617L437.291 295.047L440.429 289.99Z" fill="url(#paint10_linear)"/>
<path fill-rule="evenodd" clip-rule="evenodd" d="M421.946 289.99L425.259 295.047L431.013 296.617L427.177 301.151L427.526 307.254L421.946 304.987L416.366 307.254L416.714 301.151L413.053 296.617L418.807 295.047L421.946 289.99Z" fill="url(#paint11_linear)"/>
<path fill-rule="evenodd" clip-rule="evenodd" d="M460.657 291.56V305.336L459.611 304.987L454.031 307.254L454.38 301.151L450.718 296.617L456.472 295.047L459.611 289.99L460.657 291.56Z" fill="url(#paint12_linear)"/>
<path fill-rule="evenodd" clip-rule="evenodd" d="M523.782 191.118L534.419 181.527C534.419 181.527 557.786 181.353 570.167 179.609V195.652C570.167 195.652 552.206 199.663 535.466 198.791L523.782 191.118Z" fill="url(#paint13_linear)"/>
<path fill-rule="evenodd" clip-rule="evenodd" d="M523.782 221.983L533.024 214.833L566.331 216.926L563.192 232.969L532.327 229.83L523.782 221.983Z" fill="url(#paint14_linear)"/>
<path fill-rule="evenodd" clip-rule="evenodd" d="M533.548 266.624L529.886 295.047C529.886 295.047 552.555 296.617 571.911 303.243L577.84 271.506C577.665 271.506 562.146 265.926 533.548 266.624Z" fill="url(#paint15_linear)"/>
<path opacity="0.3" fill-rule="evenodd" clip-rule="evenodd" d="M541.395 266.449L540.174 296.093L529.886 295.047L533.548 266.624L541.395 266.449Z" fill="#953345"/>
<path opacity="0.3" fill-rule="evenodd" clip-rule="evenodd" d="M542.964 230.876L543.661 215.357L533.024 214.833L523.782 221.983L532.327 229.83L542.964 230.876Z" fill="#953345"/>
<path opacity="0.3" fill-rule="evenodd" clip-rule="evenodd" d="M545.056 181.178L544.359 198.965L535.291 198.791L523.782 191.118L534.419 181.353L545.056 181.178Z" fill="#953345"/>
<path fill-rule="evenodd" clip-rule="evenodd" d="M103.357 453.208L177.468 430.539L511.402 404.731L608.879 416.763L103.357 453.208Z" fill="url(#paint16_linear)"/>
<path fill-rule="evenodd" clip-rule="evenodd" d="M218.273 444.838L592.313 413.973L608.879 416.763L218.273 444.838Z" fill="url(#paint17_linear)"/>
<path fill-rule="evenodd" clip-rule="evenodd" d="M110.681 518.076L103.357 453.208L608.879 416.763L609.402 483.724L110.681 518.076Z" fill="url(#paint18_linear)"/>
<path opacity="0.5" fill-rule="evenodd" clip-rule="evenodd" d="M539.825 488.432L529.886 422.169L595.626 416.763L594.057 483.898L539.825 488.432Z" fill="#FBF9FA"/>
<path fill-rule="evenodd" clip-rule="evenodd" d="M123.237 467.681L590.046 431.585V473.785L128.817 504.649L123.237 467.681Z" fill="url(#paint19_linear)"/>
<path opacity="0.5" fill-rule="evenodd" clip-rule="evenodd" d="M590.046 473.785L515.936 437.34L590.046 431.585V473.785Z" fill="#9A2463"/>
<path opacity="0.5" fill-rule="evenodd" clip-rule="evenodd" d="M128.817 504.649L168.924 464.891L123.237 467.681L128.817 504.649Z" fill="#9A2463"/>
<path fill-rule="evenodd" clip-rule="evenodd" d="M420.9 91.897L444.092 138.805L499.718 114.741L476.352 66.7866L420.9 91.897Z" fill="url(#paint20_linear)"/>
<path fill-rule="evenodd" clip-rule="evenodd" d="M444.267 138.805L451.067 139.851L496.057 119.449L499.719 114.74L444.267 138.805Z" fill="url(#paint21_radial)"/>
<path opacity="0.3" fill-rule="evenodd" clip-rule="evenodd" d="M444.789 95.3845L458.74 123.285L476.352 95.5589L444.789 95.3845Z" fill="#5C1748"/>
<path fill-rule="evenodd" clip-rule="evenodd" d="M444.789 95.3846L456.124 118.228L472.167 91.0251L444.789 95.3846Z" fill="url(#paint22_linear)"/>
<path fill-rule="evenodd" clip-rule="evenodd" d="M472.167 91.0251L472.69 97.3028L458.217 118.751L456.124 118.228L472.167 91.0251Z" fill="url(#paint23_linear)"/>
<path fill-rule="evenodd" clip-rule="evenodd" d="M520.644 25.8079L511.925 93.2921L588.825 108.986L603.996 41.6762L520.644 25.8079Z" fill="url(#paint24_linear)"/>
<path fill-rule="evenodd" clip-rule="evenodd" d="M511.925 93.292L518.377 99.3952L581.327 111.253L588.825 108.986L511.925 93.292Z" fill="url(#paint25_radial)"/>
<path opacity="0.3" fill-rule="evenodd" clip-rule="evenodd" d="M532.676 54.929L531.629 58.0678L544.01 71.6692L535.117 82.4807L534.245 85.9682L541.395 93.9896L553.775 86.1426L563.715 97.6515L573.306 93.4664L573.48 90.1533L567.726 75.3312L583.42 63.8222L583.245 61.3809L559.704 70.0998L532.676 54.929Z" fill="#5C1748"/>
<path fill-rule="evenodd" clip-rule="evenodd" d="M535.117 82.4807L575.398 52.8364L583.245 61.3809L538.953 87.5376L535.117 82.4807Z" fill="url(#paint26_linear)"/>
<path fill-rule="evenodd" clip-rule="evenodd" d="M532.675 54.9288L567.376 92.7688L573.48 90.1532L544.707 48.3025L532.675 54.9288Z" fill="url(#paint27_linear)"/>
<path fill-rule="evenodd" clip-rule="evenodd" d="M576.619 86.1427L573.48 90.1533L567.376 92.769L554.124 78.47L538.953 87.5377L535.117 82.4807L535.465 77.9469L546.451 69.9255L532.675 54.929L532.85 48.4771L560.401 68.3561L587.081 55.2778L583.245 61.381L561.448 72.3668L576.619 86.1427Z" fill="url(#paint28_linear)"/>
<path fill-rule="evenodd" clip-rule="evenodd" d="M535.466 77.9467L578.711 46.21L587.081 55.2776L539.476 83.5268L535.466 77.9467Z" fill="url(#paint29_linear)"/>
<path fill-rule="evenodd" clip-rule="evenodd" d="M532.85 48.4769L569.992 89.1069L576.619 86.1425L545.754 41.3274L532.85 48.4769Z" fill="url(#paint30_linear)"/>
<path fill-rule="evenodd" clip-rule="evenodd" d="M126.899 513.717C128.991 520.344 131.433 526.098 134.048 530.981C151.312 563.241 178.166 563.938 178.166 563.938C178.166 563.938 189.501 562.717 196.476 559.404C196.476 559.404 166.483 553.65 149.917 520.692C148.871 518.774 147.999 516.856 147.127 514.764C131.258 476.575 149.394 446.582 158.461 438.386C158.461 438.386 143.814 441.176 135.618 448.674C135.618 448.674 112.077 466.286 126.899 513.717Z" fill="url(#paint31_radial)"/>
<path fill-rule="evenodd" clip-rule="evenodd" d="M164.39 449.895C164.39 449.895 192.814 454.254 204.323 490.525C215.657 526.795 197.173 546.326 197.173 546.326C197.173 546.326 224.202 536.909 214.785 489.827C205.543 442.571 170.668 446.756 164.39 449.895Z" fill="url(#paint32_radial)"/>
<path fill-rule="evenodd" clip-rule="evenodd" d="M158.636 438.386C175.899 432.98 195.953 445.535 208.508 467.856C211.821 473.61 214.611 479.888 216.703 486.689C227.166 520.169 218.099 552.778 196.65 559.404C178.864 564.984 157.938 551.208 145.383 527.493C142.767 522.436 140.326 517.03 138.582 511.101C127.945 477.621 137.013 445.187 158.636 438.386ZM194.732 546.5C211.995 541.094 219.145 515.112 210.775 488.432C209.031 482.852 206.764 477.795 204.148 473.261C194.034 455.649 178.166 445.71 164.39 449.895C147.127 455.301 139.977 481.283 148.347 507.963C149.742 512.322 151.312 516.333 153.23 520.169C163.344 539.699 180.259 551.034 194.732 546.5Z" fill="url(#paint33_linear)"/>
<path fill-rule="evenodd" clip-rule="evenodd" d="M204.148 473.261L197.696 475.354C197.696 475.354 187.582 455.301 164.565 450.069C164.39 449.895 184.269 439.607 204.148 473.261Z" fill="url(#paint34_linear)"/>
<path fill-rule="evenodd" clip-rule="evenodd" d="M126.899 513.717C128.991 520.344 131.433 526.098 134.048 530.981L145.209 527.493L149.917 520.692C148.871 518.774 147.999 516.856 147.127 514.764C131.258 476.575 149.394 446.582 158.461 438.386C158.461 438.386 143.814 441.176 135.618 448.674C135.618 448.674 112.077 466.286 126.899 513.717Z" fill="url(#paint35_linear)"/>
<path fill-rule="evenodd" clip-rule="evenodd" d="M138.408 511.102C140.326 517.03 142.593 522.436 145.209 527.493L153.23 520.169C151.312 516.333 149.568 512.322 148.348 507.963C139.977 481.283 147.127 455.301 164.39 449.895C177.992 445.535 194.035 455.649 204.148 473.261L208.508 467.856C195.778 445.535 175.725 432.98 158.636 438.386C137.013 445.187 127.945 477.621 138.408 511.102Z" fill="url(#paint36_radial)"/>
<path fill-rule="evenodd" clip-rule="evenodd" d="M686.477 114.741L693.103 121.89L674.27 196.524L602.601 191.293L598.59 188.503L686.477 114.741Z" fill="url(#paint37_linear)"/>
<path fill-rule="evenodd" clip-rule="evenodd" d="M598.59 188.503L608.007 114.741H686.477L667.644 190.595L598.59 188.503Z" fill="url(#paint38_radial)"/>
<path opacity="0.3" fill-rule="evenodd" clip-rule="evenodd" d="M672.527 136.887L675.84 139.677L632.594 183.271L613.064 155.72L618.818 147.698L635.21 160.079L672.527 136.887Z" fill="#5C1748"/>
<path fill-rule="evenodd" clip-rule="evenodd" d="M617.423 136.887L608.704 144.036L629.281 169.67L674.445 130.26L663.633 125.552L632.245 150.837L617.423 136.887Z" fill="url(#paint39_linear)"/>
<path fill-rule="evenodd" clip-rule="evenodd" d="M674.444 130.26L672.526 136.887L633.814 171.239L629.281 169.67L674.444 130.26Z" fill="#B8A9D4"/>
<path fill-rule="evenodd" clip-rule="evenodd" d="M172.062 552.255L168.924 543.885L582.722 578.934L580.804 585.212L172.062 552.255Z" fill="url(#paint40_linear)"/>
<path fill-rule="evenodd" clip-rule="evenodd" d="M168.924 543.884L247.917 511.625L531.978 532.724L582.722 578.934L168.924 543.884Z" fill="url(#paint41_radial)"/>
<path fill-rule="evenodd" clip-rule="evenodd" d="M186.187 541.269L569.818 573.529L571.911 564.635L526.921 530.457L253.497 510.055L186.885 531.504L186.187 541.269Z" fill="url(#paint42_linear)"/>
<path fill-rule="evenodd" clip-rule="evenodd" d="M186.885 531.504L571.911 564.635L526.921 530.457L253.497 510.055L186.885 531.504Z" fill="url(#paint43_radial)"/>
<path d="M561.274 556.44L201.881 526.621L203.974 526.098L560.053 555.568L561.274 556.44Z" fill="url(#paint44_linear)"/>
<path d="M550.462 548.244L217.749 521.564L219.667 521.041L549.241 547.372L550.462 548.244Z" fill="url(#paint45_linear)"/>
<path d="M543.313 543.013L228.561 518.077L230.479 517.553L542.267 542.141L543.313 543.013Z" fill="url(#paint46_linear)"/>
<path d="M535.989 536.386L240.07 514.415L242.163 513.717L534.943 535.514L535.989 536.386Z" fill="url(#paint47_linear)"/>
<path d="M531.978 532.724L250.184 511.101L251.579 510.753L529.886 532.201L531.978 532.724Z" fill="url(#paint48_linear)"/>
<path d="M240.593 523.482L240.244 522.785L249.486 518.948L249.312 519.472L249.486 519.82L240.593 523.482Z" fill="url(#paint49_linear)"/>
<path d="M259.077 515.81L258.903 514.938L266.401 511.799L266.575 512.671L259.077 515.81Z" fill="url(#paint50_linear)"/>
<path d="M215.657 533.945L213.739 533.771L227.515 528.016L227.864 528.714L215.657 533.945Z" fill="url(#paint51_linear)"/>
<path d="M284.013 513.891L283.664 513.194L285.757 512.148L286.106 512.845L284.013 513.891Z" fill="url(#paint52_linear)"/>
<path d="M251.056 530.806H250.881L251.056 530.283L250.881 529.934L261.693 524.354H261.867V524.877L262.041 525.226L251.056 530.806Z" fill="url(#paint53_linear)"/>
<path d="M269.54 521.39H269.366V520.867L269.191 520.518L277.387 516.333L277.736 517.205L269.54 521.39Z" fill="url(#paint54_linear)"/>
<path d="M534.943 547.198L529.188 541.792L529.712 541.094L535.466 546.5L534.943 547.198Z" fill="url(#paint55_linear)"/>
<path d="M522.039 535.166L518.551 532.027L519.249 531.504L522.562 534.642L522.039 535.166Z" fill="url(#paint56_linear)"/>
<path d="M551.508 563.24L543.313 554.87L544.01 554.347L553.601 563.24H551.508Z" fill="url(#paint57_linear)"/>
<path d="M513.494 540.571L507.74 534.119L508.437 533.596L514.192 540.048L513.494 540.571Z" fill="url(#paint58_linear)"/>
<path d="M525.178 553.475L518.203 545.803L518.551 545.454V545.105H518.726L518.9 545.28L525.875 552.778L525.178 553.475Z" fill="url(#paint59_linear)"/>
<path d="M504.95 530.98L503.032 528.888L503.555 528.365L505.473 530.457L504.95 530.98Z" fill="url(#paint60_linear)"/>
<path d="M502.509 544.582H502.334L499.195 539.351L499.893 539.002L502.857 544.059L502.509 544.233V544.582Z" fill="url(#paint61_linear)"/>
<path d="M495.533 533.073L493.615 530.109L494.313 529.585L496.231 532.724L495.533 533.073Z" fill="url(#paint62_linear)"/>
<path d="M511.053 559.404L506.693 551.732L507.391 551.383L512.273 559.579L511.053 559.404Z" fill="url(#paint63_linear)"/>
<path d="M481.583 529.062L480.886 527.144L481.583 526.795L482.455 528.714L481.583 529.062Z" fill="url(#paint64_linear)"/>
<path d="M490.302 550.336L487.338 543.187L488.209 542.838L490.999 550.162L490.302 550.336Z" fill="url(#paint65_linear)"/>
<path d="M485.768 538.479H485.419L482.804 532.201L483.676 531.852L486.117 537.956H485.768V538.479Z" fill="url(#paint66_linear)"/>
<path d="M472.341 541.966L470.597 536.909L471.469 536.735L473.039 541.617L472.341 541.966Z" fill="url(#paint67_linear)"/>
<path d="M468.68 531.155L467.808 528.016L468.505 527.667L469.551 530.806L468.68 531.155Z" fill="url(#paint68_linear)"/>
<path d="M477.049 556.44L474.608 549.116L475.305 548.767L478.27 556.614L477.049 556.44Z" fill="url(#paint69_linear)"/>
<path d="M455.775 535.863L454.729 529.934L455.427 529.76L456.647 535.689L455.775 535.863Z" fill="url(#paint70_linear)"/>
<path d="M454.032 526.795L453.857 526.272L454.729 526.098L454.904 526.621L454.032 526.795Z" fill="url(#paint71_linear)"/>
<path d="M458.217 547.721L456.821 540.571L457.693 540.397L459.088 547.546L458.217 547.721Z" fill="url(#paint72_linear)"/>
<path d="M440.43 528.888L440.256 525.749H441.128L441.302 528.888H440.43Z" fill="url(#paint73_linear)"/>
<path d="M441.651 553.475L441.302 546.151H442L442.348 553.475H441.651Z" fill="url(#paint74_linear)"/>
<path d="M440.953 539.351L440.779 534.468H441.476L441.825 539.176L440.953 539.351Z" fill="url(#paint75_linear)"/>
<path d="M295.522 518.425L295.173 517.728L302.148 513.368L302.497 514.066L295.522 518.425Z" fill="url(#paint76_linear)"/>
<path d="M263.262 538.479L262.913 537.781L272.504 531.852L272.853 532.55L263.262 538.479Z" fill="url(#paint77_linear)"/>
<path d="M282.095 526.795L281.746 526.098L288.024 522.087L288.547 522.785L282.095 526.795Z" fill="url(#paint78_linear)"/>
<path d="M307.554 524.354L307.031 523.657L313.134 519.123L313.657 519.82L307.554 524.354Z" fill="url(#paint79_linear)"/>
<path d="M317.842 516.681H317.668V516.158L317.494 515.81L317.668 515.635L318.191 516.333L317.842 516.681Z" fill="url(#paint80_linear)"/>
<path d="M294.301 534.294L293.778 533.596L301.625 527.667L302.148 528.365L294.301 534.294Z" fill="url(#paint81_linear)"/>
<path d="M328.479 520.867L327.956 520.169L331.618 517.205L332.141 517.728L328.479 520.867Z" fill="url(#paint82_linear)"/>
<path d="M304.066 541.792L303.543 541.269L309.821 534.991L310.518 535.514L304.066 541.792Z" fill="url(#paint83_linear)"/>
<path d="M317.668 529.585L317.145 528.888L322.202 524.877L322.725 525.4L317.668 529.585Z" fill="url(#paint84_linear)"/>
<path d="M337.024 526.621L336.326 525.924L341.035 521.215L341.558 521.738L337.024 526.621Z" fill="url(#paint85_linear)"/>
<path d="M326.561 537.432L325.864 536.735L326.387 536.386L332.316 530.283L332.839 530.806L326.561 537.432Z" fill="url(#paint86_linear)"/>
<path d="M349.579 532.027L348.881 531.678L352.02 527.319L352.718 527.667L349.579 532.027Z" fill="url(#paint87_linear)"/>
<path d="M356.38 522.785L355.682 522.262L358.124 519.123L358.473 519.297L358.821 519.646L356.38 522.785Z" fill="url(#paint88_linear)"/>
<path d="M373.818 520.692L373.12 520.344V520.169L373.818 520.692Z" fill="url(#paint89_linear)"/>
<path d="M363.355 539.525L362.483 539.176L365.971 533.073L366.668 533.422L363.355 539.525Z" fill="url(#paint90_linear)"/>
<path d="M369.11 529.062L368.412 528.539L371.377 523.482L372.074 524.005L369.11 529.062Z" fill="url(#paint91_linear)"/>
<path d="M382.711 534.643L382.014 534.294L383.757 529.934L384.455 530.109L382.711 534.643Z" fill="url(#paint92_linear)"/>
<path d="M386.547 524.877L385.675 524.703L387.07 521.215L387.768 521.564V521.738L386.547 524.877Z" fill="url(#paint93_linear)"/>
<path d="M398.754 531.329L398.056 530.981L399.451 525.749L400.149 525.924L398.754 531.329Z" fill="url(#paint94_linear)"/>
<path d="M401.021 522.785L400.149 522.436L400.323 522.262L401.021 522.61V522.785Z" fill="url(#paint95_linear)"/>
<path d="M395.964 542.489L395.092 542.315L396.835 535.689L397.707 535.863L395.964 542.489Z" fill="url(#paint96_linear)"/>
<path d="M414.622 526.97L413.75 526.795L414.099 523.482H414.797L414.622 526.97Z" fill="url(#paint97_linear)"/>
<path d="M413.925 537.084L413.053 536.909L413.401 532.375H414.273L413.925 537.084Z" fill="url(#paint98_linear)"/>
<path d="M428.224 524.703V524.529H429.095V524.703H428.224Z" fill="url(#paint99_linear)"/>
<path d="M427.875 544.756L428.049 538.304H428.921L428.747 544.756H427.875Z" fill="url(#paint100_linear)"/>
<path d="M428.049 533.422L428.223 528.016H428.921V533.596L428.049 533.422Z" fill="url(#paint101_linear)"/>
<path d="M190.547 541.792V544.233L563.367 575.621L565.285 573.18L190.547 541.792Z" fill="url(#paint102_linear)"/>
<path opacity="0.5" fill-rule="evenodd" clip-rule="evenodd" d="M532.327 570.39L535.466 561.497L564.238 563.938L558.658 572.482L532.327 570.39Z" fill="#FBF9FA"/>
<path opacity="0.5" fill-rule="evenodd" clip-rule="evenodd" d="M522.562 573.703L520.644 580.329L557.437 583.294L560.227 577.016L522.562 573.703Z" fill="#FBF9FA"/>
<path fill-rule="evenodd" clip-rule="evenodd" d="M288.547 454.777L277.735 462.45L281.746 477.446L279.13 482.329V492.269L428.049 481.108L430.664 470.646L436.942 467.507V448.849L425.259 444.315L288.547 454.777Z" fill="url(#paint103_radial)"/>
<path opacity="0.5" fill-rule="evenodd" clip-rule="evenodd" d="M277.735 462.45L436.942 448.849L425.259 444.315L288.547 454.777L277.735 462.45Z" fill="#9A2463"/>
<path opacity="0.5" fill-rule="evenodd" clip-rule="evenodd" d="M408.519 461.927L401.718 483.026L279.13 492.268V483.724L408.519 461.927Z" fill="#9A2463"/>
<path fill-rule="evenodd" clip-rule="evenodd" d="M408.519 461.927L401.718 470.646L235.013 488.432L279.479 468.902L281.746 473.784L408.519 461.927Z" fill="url(#paint104_linear)"/>
<path opacity="0.5" fill-rule="evenodd" clip-rule="evenodd" d="M430.665 470.646L279.13 483.724L433.804 469.076L430.665 470.646Z" fill="#9A2463"/>
<path opacity="0.3" fill-rule="evenodd" clip-rule="evenodd" d="M279.13 467.507L436.942 454.08V454.603L279.479 468.902L279.13 467.507Z" fill="#9A2463"/>
<path fill-rule="evenodd" clip-rule="evenodd" d="M429.27 476.052L465.889 488.432L329.351 495.233L334.234 488.084L428.398 479.888L429.27 476.052Z" fill="url(#paint105_linear)"/>
<path opacity="0.5" fill-rule="evenodd" clip-rule="evenodd" d="M338.942 494.71L343.825 502.034L451.067 494.536V489.13L338.942 494.71Z" fill="#9A2463"/>
<path fill-rule="evenodd" clip-rule="evenodd" d="M54.8805 152.406C15.4711 143.687 -23.2408 275.691 35.6989 313.182C35.6989 313.182 84.1759 300.627 98.3006 265.752C112.425 230.702 103.881 163.392 54.8805 152.406Z" fill="url(#paint106_radial)"/>
<path opacity="0.5" fill-rule="evenodd" clip-rule="evenodd" d="M16.343 200.883C16.343 200.883 32.2114 173.855 54.0087 182.399C81.2116 193.211 71.9696 261.915 63.7738 283.713C63.7738 283.713 81.0372 254.243 82.2579 208.207C83.4785 161.997 60.8094 152.929 51.393 152.057C42.151 151.186 21.9231 172.808 16.343 200.883Z" fill="url(#paint107_linear)"/>
<path fill-rule="evenodd" clip-rule="evenodd" d="M56.6242 208.207L47.0334 211.695L46.1615 231.225L45.8128 232.969L43.3715 254.592L50.3466 259.997L152.358 274.296L155.496 248.314L155.845 244.652L158.635 221.634L56.6242 208.207Z" fill="url(#paint108_linear)"/>
<path fill-rule="evenodd" clip-rule="evenodd" d="M55.0549 234.015C53.6599 245.698 48.4286 254.766 43.3716 254.068C38.3146 253.545 35.3502 243.431 36.7452 231.748C38.1403 220.065 43.3716 210.997 48.4285 211.695C53.4855 212.392 56.4499 222.332 55.0549 234.015Z" fill="url(#paint109_linear)"/>
<path fill-rule="evenodd" clip-rule="evenodd" d="M52.4391 233.492C51.3928 242.56 47.2078 249.535 43.3715 249.012C39.3608 248.488 37.0939 240.816 38.1401 231.748C39.1864 222.681 43.3715 215.705 47.2078 216.229C51.0441 216.752 53.4854 224.424 52.4391 233.492Z" fill="url(#paint110_radial)"/>
<path fill-rule="evenodd" clip-rule="evenodd" d="M51.7416 233.492C50.8697 240.99 47.5565 246.57 44.2433 246.221C40.9301 245.873 39.1864 239.421 40.0583 232.097C40.9301 224.599 44.2433 219.019 47.5565 219.367C50.6953 219.716 52.6134 225.994 51.7416 233.492Z" fill="url(#paint111_linear)"/>
<path fill-rule="evenodd" clip-rule="evenodd" d="M201.881 225.471L209.205 220.414C209.205 220.414 233.269 220.937 249.486 234.713C249.486 234.713 255.415 243.955 254.02 257.556L214.087 252.848L201.881 225.471Z" fill="url(#paint112_linear)"/>
<path fill-rule="evenodd" clip-rule="evenodd" d="M195.778 276.738L201.707 283.364C201.707 283.364 225.073 288.595 244.255 279.005C244.255 279.005 252.102 271.332 254.02 257.73L214.087 253.022L195.778 276.738Z" fill="url(#paint113_linear)"/>
<path fill-rule="evenodd" clip-rule="evenodd" d="M209.205 220.414C209.205 220.414 221.76 234.364 216.703 259.125C211.995 282.318 201.707 283.19 201.707 283.19L198.568 279.702L201.009 279.528L207.287 227.214L201.881 225.296L209.205 220.414Z" fill="url(#paint114_linear)"/>
<path fill-rule="evenodd" clip-rule="evenodd" d="M201.183 279.702C100.219 288.595 48.254 311.439 48.254 311.439C55.4035 305.51 61.158 297.663 65.8662 289.293C75.6313 271.681 80.3396 250.755 82.6065 235.759C84.5246 213.438 84.3502 177.168 67.0868 153.976C67.0868 153.976 79.9908 166.008 107.019 182.05C130.037 195.826 163.169 212.567 207.461 227.389C219.667 239.246 214.959 269.065 201.183 279.702Z" fill="url(#paint115_linear)"/>
<path fill-rule="evenodd" clip-rule="evenodd" d="M58.0193 148.744C36.0477 146.129 13.7273 180.83 8.32164 226.343C2.91592 271.855 16.343 310.741 38.3146 313.531C60.2862 316.147 82.6066 281.446 88.0123 235.933C93.418 190.421 79.9909 151.36 58.0193 148.744ZM37.2684 306.033C17.738 303.766 6.05472 268.193 11.1117 226.691C15.9943 185.189 35.8733 153.453 55.2293 155.719C74.7596 157.986 86.4429 193.559 81.3859 235.061C76.329 276.563 56.7987 308.3 37.2684 306.033Z" fill="url(#paint116_linear)"/>
<path fill-rule="evenodd" clip-rule="evenodd" d="M55.2292 148.396C33.2576 145.78 10.9372 180.481 5.53154 225.994C0.125823 271.506 13.5529 310.393 35.5245 313.183C57.4961 315.798 79.8165 281.097 85.2222 235.584C90.6279 190.072 77.2008 151.011 55.2292 148.396ZM34.6526 305.684C15.1223 303.417 3.439 267.844 8.49596 226.342C13.3785 184.84 33.2576 153.104 52.6135 155.371C72.1439 157.638 83.8272 193.211 78.7702 234.713C73.8876 276.214 54.0086 308.126 34.6526 305.684Z" fill="url(#paint117_radial)"/>
<path opacity="0.3" fill-rule="evenodd" clip-rule="evenodd" d="M76.329 210.823C76.329 210.823 83.1297 253.894 50.5211 259.997L72.8414 263.136C72.8414 263.136 82.781 233.841 79.9909 210.997L76.329 210.823Z" fill="url(#paint118_linear)"/>
<path fill-rule="evenodd" clip-rule="evenodd" d="M11.8092 279.353C11.8092 279.353 18.0868 305.161 34.304 307.254C48.0798 308.823 60.2863 289.467 60.2863 289.467C60.2863 289.467 48.2542 307.777 33.6065 305.161C18.9587 302.371 11.8092 279.353 11.8092 279.353Z" fill="#BFBBFF"/>
<path fill-rule="evenodd" clip-rule="evenodd" d="M85.9197 201.929C85.9197 201.929 84.8734 208.905 86.4428 216.228C86.4428 216.403 87.8379 208.033 85.9197 201.929Z" fill="#BFBBFF"/>
<path opacity="0.3" fill-rule="evenodd" clip-rule="evenodd" d="M201.183 279.702C100.219 288.595 48.254 311.439 48.254 311.439C55.4035 305.51 61.158 297.663 65.8662 289.293L76.5032 277.609C76.5032 277.609 118.877 273.599 192.639 272.029C192.639 272.029 203.799 257.73 201.358 230.179C201.358 230.179 139.628 205.243 107.019 182.05C130.037 195.826 163.169 212.566 207.461 227.389C219.667 239.246 214.959 269.065 201.183 279.702Z" fill="url(#paint119_linear)"/>
<path fill-rule="evenodd" clip-rule="evenodd" d="M172.062 273.599C172.062 273.599 168.749 296.094 162.471 305.51L211.123 306.905C211.123 306.905 224.376 302.371 235.361 282.143L208.158 278.83L205.368 275.168L172.062 273.599Z" fill="url(#paint120_linear)"/>
<path fill-rule="evenodd" clip-rule="evenodd" d="M150.963 285.631C150.963 285.631 151.66 305.684 162.646 305.51C162.646 305.51 170.144 295.222 172.237 273.599C170.144 277.958 168.924 280.923 165.436 283.538L150.963 285.631Z" fill="url(#paint121_radial)"/>
<path fill-rule="evenodd" clip-rule="evenodd" d="M199.265 358.172C199.265 358.172 199.265 358.346 199.265 358.172C195.603 386.944 189.5 408.916 189.5 408.916L159.507 404.382L152.706 392.873L152.183 392.001C152.532 391.304 152.881 390.432 153.23 389.734C154.102 387.816 154.973 385.898 155.671 383.98C169.447 351.546 173.283 327.307 174.155 314.926C174.155 314.752 174.155 314.752 174.155 314.578C174.155 313.531 174.329 312.659 174.329 311.788C174.504 308.3 174.504 306.207 174.504 305.859L201.707 306.556V306.731C202.055 314.229 202.055 322.076 201.707 329.574C201.358 339.514 200.312 349.279 199.265 358.172Z" fill="url(#paint122_linear)"/>
<path opacity="0.5" fill-rule="evenodd" clip-rule="evenodd" d="M23.1437 291.037L55.2292 274.994L61.3324 279.702L35.0014 301.848C35.0014 302.022 26.2825 299.407 23.1437 291.037Z" fill="url(#paint123_linear)"/>
<path fill-rule="evenodd" clip-rule="evenodd" d="M130.212 224.075C130.212 224.075 174.504 230.527 200.137 239.595C200.312 239.595 158.984 233.317 130.212 224.075Z" fill="#F2F1FF"/>
<path fill-rule="evenodd" clip-rule="evenodd" d="M112.948 220.588C112.948 220.588 121.667 220.414 127.073 223.727C127.073 223.727 123.237 224.424 112.948 220.588Z" fill="#F2F1FF"/>
<path opacity="0.5" fill-rule="evenodd" clip-rule="evenodd" d="M172.063 273.599C172.063 273.599 149.393 285.631 137.361 287.898L165.262 283.713C165.262 283.538 169.97 281.272 172.063 273.599Z" fill="#40176F"/>
<path opacity="0.99" fill-rule="evenodd" clip-rule="evenodd" d="M171.539 278.481L234.49 283.887L228.212 292.955C228.212 292.955 189.849 283.713 169.272 288.421L171.539 278.481Z" fill="url(#paint124_linear)"/>
<path opacity="0.2" fill-rule="evenodd" clip-rule="evenodd" d="M221.412 230.876C221.412 230.876 236.757 232.446 248.614 239.595C248.614 239.595 249.661 241.165 250.184 245.698L223.504 240.467C223.33 240.293 223.678 235.933 221.412 230.876Z" fill="#951736"/>
<path opacity="0.2" fill-rule="evenodd" clip-rule="evenodd" d="M224.027 246.047C224.027 246.047 224.55 251.976 222.458 258.428L248.091 261.567C248.091 261.567 250.707 255.987 250.184 250.93L224.027 246.047Z" fill="#951736"/>
<path opacity="0.2" fill-rule="evenodd" clip-rule="evenodd" d="M222.109 262.613C222.109 262.613 221.237 267.844 218.273 271.506L242.86 274.471C242.86 274.471 245.824 270.809 247.045 266.972L222.109 262.613Z" fill="#951736"/>
<path opacity="0.2" fill-rule="evenodd" clip-rule="evenodd" d="M214.436 279.702L217.575 276.738L237.28 279.876L234.141 281.969L214.436 279.702Z" fill="#951736"/>
<path opacity="0.2" fill-rule="evenodd" clip-rule="evenodd" d="M215.134 220.937C215.134 220.937 218.273 223.029 219.668 226.342C219.668 226.342 236.931 229.307 246.696 234.887L245.65 231.748C245.65 231.748 233.967 223.552 215.134 220.937Z" fill="#951736"/>
<path opacity="0.5" fill-rule="evenodd" clip-rule="evenodd" d="M192.988 274.645C192.988 274.645 204.322 274.122 210.077 260.172C218.447 239.77 207.461 227.389 207.461 227.389C207.461 227.389 218.447 236.108 214.959 254.417C211.472 272.727 205.543 275.343 205.543 275.343L192.988 274.645Z" fill="#40176F"/>
<path fill-rule="evenodd" clip-rule="evenodd" d="M206.764 85.445C206.764 85.445 262.739 14.822 269.191 12.3807C275.643 9.93941 345.917 55.452 345.917 55.452L287.152 112.648L206.764 85.445Z" fill="url(#paint125_linear)"/>
<path opacity="0.5" fill-rule="evenodd" clip-rule="evenodd" d="M345.917 55.6265L206.764 85.4451L286.803 110.73L345.917 55.6265Z" fill="#D9D0E2"/>
<path fill-rule="evenodd" clip-rule="evenodd" d="M228.561 92.4202L207.636 21.4485L325.689 0L334.931 65.2173L292.035 102.709L283.664 109.684L228.561 92.4202Z" fill="url(#paint126_linear)"/>
<path fill-rule="evenodd" clip-rule="evenodd" d="M224.55 152.406L206.764 85.4451L283.664 109.684L345.917 55.6265L359.17 124.68L224.55 152.406Z" fill="url(#paint127_linear)"/>
<path opacity="0.5" fill-rule="evenodd" clip-rule="evenodd" d="M231.176 145.78C231.176 145.78 254.892 113.171 274.597 106.894L231.176 145.78Z" fill="#D9D0E2"/>
<path opacity="0.5" fill-rule="evenodd" clip-rule="evenodd" d="M294.999 103.232C294.999 103.232 332.141 109.335 352.369 122.064L294.999 103.232Z" fill="#D9D0E2"/>
<path opacity="0.5" fill-rule="evenodd" clip-rule="evenodd" d="M212.518 87.1888L266.052 93.9896L292.035 88.7582L345.917 55.6265L292.035 102.708L274.597 106.894L212.518 87.1888Z" fill="#D9D0E2"/>
<path fill-rule="evenodd" clip-rule="evenodd" d="M224.55 152.406C224.55 152.406 270.76 105.847 282.443 102.185C294.127 98.5235 359.17 124.506 359.17 124.506L224.55 152.406Z" fill="url(#paint128_linear)"/>
<path d="M84.1501 517.509C87.812 520.473 91.1252 523.786 93.7409 527.448C107.342 545.758 107.517 571.74 92.5202 590.399C90.7764 592.491 88.8583 594.584 86.9401 596.327C73.513 608.708 54.5058 612.893 37.4168 608.011C31.1392 606.267 25.036 603.128 19.6303 598.769C12.4808 593.189 7.24946 586.039 4.11066 578.192C-0.597539 567.206 -1.29505 554.651 2.1925 543.142C4.11066 537.039 7.07508 531.11 11.2601 525.704L11.4345 525.53C11.6089 525.356 11.6089 525.356 11.7833 525.181C21.8972 512.8 36.3706 506.348 51.1927 506.174C55.2034 506.174 59.214 506.523 63.0504 507.395C70.5486 509.139 77.6981 512.452 84.1501 517.509Z" fill="url(#paint129_radial)"/>
<g opacity="0.43">
<path opacity="0.43" fill-rule="evenodd" clip-rule="evenodd" d="M84.15 517.509C87.812 520.473 91.1252 523.786 93.7408 527.448C92.6946 529.192 91.2995 530.587 89.7301 531.459C87.1145 532.854 84.8476 534.423 82.0575 535.644C76.6518 538.26 73.3386 534.772 68.2817 533.377C66.0148 532.679 64.0966 531.982 61.8297 531.633C59.5628 531.284 56.9471 531.808 54.6802 531.11C53.4596 534.249 58.5165 532.68 59.7372 533.028C62.3528 533.726 62.5272 536.516 63.7479 538.434C66.3635 542.445 71.2461 545.235 70.5486 550.292C70.3742 552.21 70.3742 554.128 69.8511 555.872C69.3279 557.615 67.9329 559.011 67.2354 560.754C66.3635 563.37 68.2817 571.74 64.271 571.391C61.8297 571.217 61.4809 568.078 59.7372 567.206C57.9934 566.334 56.2496 567.032 54.5058 565.811C52.762 564.765 51.1926 563.544 49.6232 562.498C48.0538 561.452 46.6588 560.754 44.915 559.708C43.1713 558.836 41.7762 557.092 40.0325 556.22C38.9862 555.697 38.2887 555.872 37.4168 555C36.5449 554.302 36.3705 553.256 35.673 552.559C33.5805 550.989 32.0111 552.559 32.3598 549.245C32.5342 548.025 33.0574 545.06 33.5805 544.014C34.278 542.619 35.8474 541.05 36.7193 539.655C37.5912 538.085 38.8118 536.516 40.2069 535.295C41.7762 533.9 44.2175 533.028 45.6126 531.459C46.6588 530.238 47.8795 528.494 48.9257 527.099C47.3563 525.181 42.8225 527.448 40.9044 528.32C45.0894 532.679 36.7193 533.551 35.3243 535.295C33.5805 531.459 32.5342 527.099 34.8011 523.786C36.5449 521.171 39.5093 516.114 42.2994 515.067C44.5663 520.647 52.9364 511.929 55.3777 510.882C57.6446 510.01 60.2603 509.313 62.5272 507.918C62.7016 507.743 62.876 507.743 63.0503 507.569C70.5486 509.138 77.6981 512.452 84.15 517.509Z" fill="url(#paint130_radial)"/>
<path opacity="0.43" fill-rule="evenodd" clip-rule="evenodd" d="M89.7302 561.626C87.6377 560.929 84.3245 561.975 82.232 562.498C79.0932 563.37 78.5701 564.939 76.3032 567.032C75.0825 568.078 75.0825 567.729 73.8619 568.427C72.6412 569.124 71.595 569.299 70.7231 570.519C68.9793 573.309 71.0718 575.228 71.9437 578.018C72.6412 580.459 73.8619 583.946 74.0362 586.388C75.0825 585.865 75.9544 584.993 76.6519 584.47C78.0469 583.598 79.2676 583.423 80.6626 582.9C83.1039 581.854 85.3708 581.854 87.8121 581.156C93.5666 579.413 94.0897 572.612 93.7409 567.555C93.9153 565.811 92.8691 559.708 89.7302 561.626Z" fill="url(#paint131_radial)"/>
<path opacity="0.43" fill-rule="evenodd" clip-rule="evenodd" d="M8.99333 545.235C9.86522 547.153 9.86522 550.989 9.86522 553.082C9.69084 555.697 10.3884 558.662 9.69085 561.277C8.12145 566.16 6.9008 578.541 4.11075 578.367C-0.597447 567.381 -1.29496 554.826 2.19259 543.317C4.63388 542.619 8.12144 543.317 8.99333 545.235Z" fill="url(#paint132_radial)"/>
</g>
<path fill-rule="evenodd" clip-rule="evenodd" d="M11.4347 525.704C11.4347 525.879 11.6091 526.053 11.6091 526.053L11.4347 525.704Z" fill="url(#paint133_linear)"/>
<path d="M35.7557 508.917L34.5999 509.31L67.901 607.39L69.0568 606.998L35.7557 508.917Z" fill="white"/>
<path d="M70.723 606.267L69.6768 605.569C69.8512 605.395 86.417 580.808 75.78 549.594C64.2711 515.939 35.3243 509.662 34.9756 509.487L35.15 508.267C35.4987 508.267 65.1429 514.719 76.8263 549.071C87.8121 580.982 70.8974 606.093 70.723 606.267Z" fill="white"/>
<path d="M70.5487 606.616L69.8512 605.57C70.1999 605.395 105.075 584.295 92.869 544.014C81.1857 505.477 35.6731 509.836 35.3244 509.836L35.15 508.615C35.6731 508.615 82.0576 504.256 94.0897 543.665C106.471 584.644 70.8974 606.267 70.5487 606.616Z" fill="white"/>
<path d="M66.3636 607.836C66.0148 607.662 37.4168 598.071 26.6054 566.334C14.9221 531.982 34.4524 508.79 34.8012 508.615L35.6731 509.487C35.4987 509.662 16.3171 532.331 27.8261 565.986C38.4631 597.199 66.5379 606.616 66.7123 606.616L66.3636 607.836Z" fill="white"/>
<path d="M66.5378 607.836C66.1891 607.836 24.6872 612.545 9.5163 572.263C-5.13144 533.726 34.4523 508.79 34.8011 508.615L35.4986 509.662C35.1498 509.836 -3.56203 534.249 10.7369 571.915C25.7334 611.324 66.1891 606.79 66.5378 606.79V607.836Z" fill="white"/>
<path d="M100.89 541.747C68.6305 545.409 30.2674 558.488 2.89005 575.053L2.19254 574.007C29.5699 557.267 68.2817 544.189 100.716 540.527L100.89 541.747Z" fill="white"/>
<path d="M94.6127 588.306C62.7016 593.189 37.9399 608.36 37.7655 608.534L37.068 607.488C37.2424 607.313 62.1784 591.968 94.4383 587.085L94.6127 588.306Z" fill="white"/>
<path d="M65.1429 508.615C27.4773 514.37 7.94699 532.156 7.59824 532.331L6.72635 531.459C6.90073 531.285 26.7798 513.324 64.7942 507.395L65.1429 508.615Z" fill="white"/>
<defs>
<linearGradient id="paint0_linear" x1="216.751" y1="470.593" x2="614.682" y2="470.593" gradientUnits="userSpaceOnUse">
<stop stop-color="#603082"/>
<stop offset="0.9944" stop-color="#2A0E51"/>
</linearGradient>
<linearGradient id="paint1_linear" x1="357.045" y1="365.74" x2="357.045" y2="155.667" gradientUnits="userSpaceOnUse">
<stop offset="0.00558659" stop-color="#2A0E45"/>
<stop offset="1" stop-color="#561F7D"/>
</linearGradient>
<radialGradient id="paint2_radial" cx="0" cy="0" r="1" gradientUnits="userSpaceOnUse" gradientTransform="translate(358.21 254.113) scale(139.239)">
<stop stop-color="#00FFFF"/>
<stop offset="0.9944" stop-color="#26A9FF"/>
</radialGradient>
<radialGradient id="paint3_radial" cx="0" cy="0" r="1" gradientUnits="userSpaceOnUse" gradientTransform="translate(410.628 358.361) scale(102.947 136.61)">
<stop stop-color="#EBD7E3"/>
<stop offset="0.9829" stop-color="#BDAFD2"/>
</radialGradient>
<linearGradient id="paint4_linear" x1="354.254" y1="401.953" x2="354.254" y2="365.732" gradientUnits="userSpaceOnUse">
<stop stop-color="#603082"/>
<stop offset="0.9944" stop-color="#2A0E51"/>
</linearGradient>
<radialGradient id="paint5_radial" cx="0" cy="0" r="1" gradientUnits="userSpaceOnUse" gradientTransform="translate(353.031 405.413) scale(39.2678)">
<stop stop-color="#B3819D"/>
<stop offset="1" stop-color="#785CA6"/>
</radialGradient>
<radialGradient id="paint6_radial" cx="0" cy="0" r="1" gradientUnits="userSpaceOnUse" gradientTransform="translate(353.031 400.107) scale(39.2132 39.2133)">
<stop stop-color="#EBD7E3"/>
<stop offset="0.9829" stop-color="#BDAFD2"/>
</radialGradient>
<linearGradient id="paint7_linear" x1="356.11" y1="342.32" x2="356.11" y2="175.959" gradientUnits="userSpaceOnUse">
<stop offset="0.0171145" stop-color="#E2DCEB"/>
<stop offset="1" stop-color="white"/>
</linearGradient>
<radialGradient id="paint8_radial" cx="0" cy="0" r="1" gradientUnits="userSpaceOnUse" gradientTransform="translate(359.262 242.886) scale(64.2282)">
<stop stop-color="#5178FE"/>
<stop offset="0.9944" stop-color="#713592"/>
</radialGradient>
<linearGradient id="paint9_linear" x1="314.617" y1="298.622" x2="401.436" y2="298.622" gradientUnits="userSpaceOnUse">
<stop stop-color="#FF6E27"/>
<stop offset="0.998" stop-color="#E03347"/>
</linearGradient>
<linearGradient id="paint10_linear" x1="440.438" y1="307.17" x2="440.438" y2="290.075" gradientUnits="userSpaceOnUse">
<stop stop-color="#FFA700"/>
<stop offset="1" stop-color="#FFD328"/>
</linearGradient>
<linearGradient id="paint11_linear" x1="422.001" y1="307.17" x2="422.001" y2="290.075" gradientUnits="userSpaceOnUse">
<stop stop-color="#FFA700"/>
<stop offset="1" stop-color="#FFD328"/>
</linearGradient>
<linearGradient id="paint12_linear" x1="455.63" y1="307.17" x2="455.63" y2="290.075" gradientUnits="userSpaceOnUse">
<stop stop-color="#FFA700"/>
<stop offset="1" stop-color="#FFD328"/>
</linearGradient>
<linearGradient id="paint13_linear" x1="523.839" y1="189.232" x2="570.074" y2="189.232" gradientUnits="userSpaceOnUse">
<stop stop-color="#FFA700"/>
<stop offset="1" stop-color="#FFD328"/>
</linearGradient>
<linearGradient id="paint14_linear" x1="566.871" y1="221.392" x2="524.484" y2="226.915" gradientUnits="userSpaceOnUse">
<stop stop-color="#FF6E27"/>
<stop offset="0.998" stop-color="#E03347"/>
</linearGradient>
<linearGradient id="paint15_linear" x1="529.861" y1="284.899" x2="577.711" y2="284.899" gradientUnits="userSpaceOnUse">
<stop stop-color="#FFA700"/>
<stop offset="1" stop-color="#FFD328"/>
</linearGradient>
<linearGradient id="paint16_linear" x1="103.379" y1="428.94" x2="608.842" y2="428.94" gradientUnits="userSpaceOnUse">
<stop stop-color="#FF8647"/>
<stop offset="1" stop-color="#FFB934"/>
</linearGradient>
<linearGradient id="paint17_linear" x1="218.275" y1="429.387" x2="608.843" y2="429.387" gradientUnits="userSpaceOnUse">
<stop stop-color="#FFA700"/>
<stop offset="1" stop-color="#FFD328"/>
</linearGradient>
<linearGradient id="paint18_linear" x1="103.379" y1="467.457" x2="609.368" y2="467.457" gradientUnits="userSpaceOnUse">
<stop offset="0.00198413" stop-color="#E03347"/>
<stop offset="1" stop-color="#FF7527"/>
</linearGradient>
<linearGradient id="paint19_linear" x1="356.566" y1="504.634" x2="356.566" y2="431.529" gradientUnits="userSpaceOnUse">
<stop stop-color="#C72A16"/>
<stop offset="0.998" stop-color="#90062C"/>
</linearGradient>
<linearGradient id="paint20_linear" x1="472.306" y1="127.955" x2="448.432" y2="78.5493" gradientUnits="userSpaceOnUse">
<stop offset="0.0171145" stop-color="#D4CBE2"/>
<stop offset="1" stop-color="#F3E6EE"/>
</linearGradient>
<radialGradient id="paint21_radial" cx="0" cy="0" r="1" gradientUnits="userSpaceOnUse" gradientTransform="translate(472.593 127.914) rotate(-25.7912) scale(21.4589)">
<stop stop-color="#B3819D"/>
<stop offset="1" stop-color="#785CA6"/>
</radialGradient>
<linearGradient id="paint22_linear" x1="467.804" y1="112.532" x2="456.708" y2="89.5691" gradientUnits="userSpaceOnUse">
<stop offset="0.00198414" stop-color="#E03347"/>
<stop offset="1" stop-color="#FF6E27"/>
</linearGradient>
<linearGradient id="paint23_linear" x1="452.685" y1="110.944" x2="476.303" y2="99.5315" gradientUnits="userSpaceOnUse">
<stop offset="0.00198414" stop-color="#BB152C"/>
<stop offset="1" stop-color="#C73E27"/>
</linearGradient>
<linearGradient id="paint24_linear" x1="551.135" y1="102.887" x2="562.49" y2="32.561" gradientUnits="userSpaceOnUse">
<stop offset="0.0171145" stop-color="#D4CBE2"/>
<stop offset="1" stop-color="#F3E6EE"/>
</linearGradient>
<radialGradient id="paint25_radial" cx="0" cy="0" r="1" gradientUnits="userSpaceOnUse" gradientTransform="translate(550.159 102.845) rotate(9.1722) scale(27.8444)">
<stop stop-color="#B3819D"/>
<stop offset="1" stop-color="#785CA6"/>
</radialGradient>
<linearGradient id="paint26_linear" x1="556.214" y1="90.3521" x2="562.605" y2="50.7708" gradientUnits="userSpaceOnUse">
<stop offset="0.00198414" stop-color="#BB152C"/>
<stop offset="1" stop-color="#C73E27"/>
</linearGradient>
<linearGradient id="paint27_linear" x1="550.278" y1="90.0932" x2="556.715" y2="50.2227" gradientUnits="userSpaceOnUse">
<stop offset="0.00198414" stop-color="#BB152C"/>
<stop offset="1" stop-color="#C73E27"/>
</linearGradient>
<linearGradient id="paint28_linear" x1="553.744" y1="90.6531" x2="560.155" y2="50.9458" gradientUnits="userSpaceOnUse">
<stop offset="0.00198414" stop-color="#BB152C"/>
<stop offset="1" stop-color="#C73E27"/>
</linearGradient>
<linearGradient id="paint29_linear" x1="558.085" y1="86.4865" x2="564.946" y2="43.9929" gradientUnits="userSpaceOnUse">
<stop offset="0.00198414" stop-color="#E03347"/>
<stop offset="1" stop-color="#FF6E27"/>
</linearGradient>
<linearGradient id="paint30_linear" x1="551.713" y1="86.2086" x2="558.624" y2="43.4044" gradientUnits="userSpaceOnUse">
<stop offset="0.00198414" stop-color="#E03347"/>
<stop offset="1" stop-color="#FF6E27"/>
</linearGradient>
<radialGradient id="paint31_radial" cx="0" cy="0" r="1" gradientUnits="userSpaceOnUse" gradientTransform="translate(131.083 469.855) rotate(162.585) scale(68.466)">
<stop stop-color="#C7BDE7"/>
<stop offset="1" stop-color="#8D75B4"/>
</radialGradient>
<radialGradient id="paint32_radial" cx="0" cy="0" r="1" gradientUnits="userSpaceOnUse" gradientTransform="translate(181.025 463.106) rotate(162.585) scale(54.524)">
<stop stop-color="#C7BDE7"/>
<stop offset="1" stop-color="#8D75B4"/>
</radialGradient>
<linearGradient id="paint33_linear" x1="181.277" y1="561.086" x2="173.895" y2="436.628" gradientUnits="userSpaceOnUse">
<stop stop-color="#B6ACE0"/>
<stop offset="0.9829" stop-color="#E2DCEB"/>
</linearGradient>
<linearGradient id="paint34_linear" x1="186.985" y1="477.142" x2="181.644" y2="446.437" gradientUnits="userSpaceOnUse">
<stop offset="0.00558659" stop-color="#530E68"/>
<stop offset="1" stop-color="#60309D"/>
</linearGradient>
<linearGradient id="paint35_linear" x1="151.286" y1="528.049" x2="136.355" y2="442.213" gradientUnits="userSpaceOnUse">
<stop offset="0.00558659" stop-color="#530E68"/>
<stop offset="1" stop-color="#60309D"/>
</linearGradient>
<radialGradient id="paint36_radial" cx="0" cy="0" r="1" gradientUnits="userSpaceOnUse" gradientTransform="translate(163.886 457.29) rotate(162.585) scale(57.1139)">
<stop stop-color="#5178FE"/>
<stop offset="0.9944" stop-color="#713592"/>
</radialGradient>
<linearGradient id="paint37_linear" x1="651.778" y1="199.564" x2="641.336" y2="120.76" gradientUnits="userSpaceOnUse">
<stop offset="0.00558659" stop-color="#530E68"/>
<stop offset="1" stop-color="#60309D"/>
</linearGradient>
<radialGradient id="paint38_radial" cx="0" cy="0" r="1" gradientUnits="userSpaceOnUse" gradientTransform="translate(642.105 133.151) scale(56.4356)">
<stop stop-color="#5178FE"/>
<stop offset="0.9944" stop-color="#713592"/>
</radialGradient>
<linearGradient id="paint39_linear" x1="636.104" y1="170.747" x2="643.9" y2="122.448" gradientUnits="userSpaceOnUse">
<stop offset="0.0171145" stop-color="#D4CBE2"/>
<stop offset="1" stop-color="#F3E6EE"/>
</linearGradient>
<linearGradient id="paint40_linear" x1="168.554" y1="549.238" x2="582.591" y2="579.959" gradientUnits="userSpaceOnUse">
<stop stop-color="#603082"/>
<stop offset="0.9944" stop-color="#2A0E51"/>
</linearGradient>
<radialGradient id="paint41_radial" cx="0" cy="0" r="1" gradientUnits="userSpaceOnUse" gradientTransform="translate(267.377 520.168) rotate(4.24359) scale(188.739)">
<stop stop-color="#6D47D3"/>
<stop offset="0.9944" stop-color="#713592"/>
</radialGradient>
<linearGradient id="paint42_linear" x1="187.346" y1="525.207" x2="572.66" y2="553.798" gradientUnits="userSpaceOnUse">
<stop stop-color="#603082"/>
<stop offset="0.9944" stop-color="#2A0E51"/>
</linearGradient>
<radialGradient id="paint43_radial" cx="0" cy="0" r="1" gradientUnits="userSpaceOnUse" gradientTransform="translate(380.34 534.965) rotate(4.24359) scale(137.037)">
<stop stop-color="#6D47D3"/>
<stop offset="0.9944" stop-color="#713592"/>
</radialGradient>
<linearGradient id="paint44_linear" x1="228.837" y1="529.67" x2="552.727" y2="554.116" gradientUnits="userSpaceOnUse">
<stop offset="0.0189189" stop-color="#FF4C06"/>
<stop offset="0.1677" stop-color="#FF0E59"/>
<stop offset="0.5378" stop-color="#FF12C3"/>
<stop offset="1" stop-color="#00B3FF"/>
</linearGradient>
<linearGradient id="paint45_linear" x1="229.349" y1="522.887" x2="553.239" y2="547.334" gradientUnits="userSpaceOnUse">
<stop offset="0.0189189" stop-color="#FF4C06"/>
<stop offset="0.1677" stop-color="#FF0E59"/>
<stop offset="0.5378" stop-color="#FF12C3"/>
<stop offset="1" stop-color="#00B3FF"/>
</linearGradient>
<linearGradient id="paint46_linear" x1="229.691" y1="518.363" x2="553.581" y2="542.809" gradientUnits="userSpaceOnUse">
<stop offset="0.0189189" stop-color="#FF4C06"/>
<stop offset="0.1677" stop-color="#FF0E59"/>
<stop offset="0.5378" stop-color="#FF12C3"/>
<stop offset="1" stop-color="#00B3FF"/>
</linearGradient>
<linearGradient id="paint47_linear" x1="230.093" y1="513.031" x2="553.983" y2="537.478" gradientUnits="userSpaceOnUse">
<stop offset="0.0189189" stop-color="#FF4C06"/>
<stop offset="0.1677" stop-color="#FF0E59"/>
<stop offset="0.5378" stop-color="#FF12C3"/>
<stop offset="1" stop-color="#00B3FF"/>
</linearGradient>
<linearGradient id="paint48_linear" x1="230.357" y1="509.537" x2="554.248" y2="533.984" gradientUnits="userSpaceOnUse">
<stop offset="0.0189189" stop-color="#FF4C06"/>
<stop offset="0.1677" stop-color="#FF0E59"/>
<stop offset="0.5378" stop-color="#FF12C3"/>
<stop offset="1" stop-color="#00B3FF"/>
</linearGradient>
<linearGradient id="paint49_linear" x1="229.563" y1="520.045" x2="553.46" y2="544.492" gradientUnits="userSpaceOnUse">
<stop offset="0.0189189" stop-color="#FF4C06"/>
<stop offset="0.1677" stop-color="#FF0E59"/>
<stop offset="0.5378" stop-color="#FF12C3"/>
<stop offset="1" stop-color="#00B3FF"/>
</linearGradient>
<linearGradient id="paint50_linear" x1="230.219" y1="511.354" x2="554.114" y2="535.801" gradientUnits="userSpaceOnUse">
<stop offset="0.0189189" stop-color="#FF4C06"/>
<stop offset="0.1677" stop-color="#FF0E59"/>
<stop offset="0.5378" stop-color="#FF12C3"/>
<stop offset="1" stop-color="#00B3FF"/>
</linearGradient>
<linearGradient id="paint51_linear" x1="228.697" y1="531.529" x2="552.589" y2="555.976" gradientUnits="userSpaceOnUse">
<stop offset="0.0189189" stop-color="#FF4C06"/>
<stop offset="0.1677" stop-color="#FF0E59"/>
<stop offset="0.5378" stop-color="#FF12C3"/>
<stop offset="1" stop-color="#00B3FF"/>
</linearGradient>
<linearGradient id="paint52_linear" x1="230.405" y1="508.932" x2="554.283" y2="533.378" gradientUnits="userSpaceOnUse">
<stop offset="0.0189189" stop-color="#FF4C06"/>
<stop offset="0.1677" stop-color="#FF0E59"/>
<stop offset="0.5378" stop-color="#FF12C3"/>
<stop offset="1" stop-color="#00B3FF"/>
</linearGradient>
<linearGradient id="paint53_linear" x1="229.15" y1="525.526" x2="553.044" y2="549.973" gradientUnits="userSpaceOnUse">
<stop offset="0.0189189" stop-color="#FF4C06"/>
<stop offset="0.1677" stop-color="#FF0E59"/>
<stop offset="0.5378" stop-color="#FF12C3"/>
<stop offset="1" stop-color="#00B3FF"/>
</linearGradient>
<linearGradient id="paint54_linear" x1="229.901" y1="515.584" x2="553.792" y2="540.031" gradientUnits="userSpaceOnUse">
<stop offset="0.0189189" stop-color="#FF4C06"/>
<stop offset="0.1677" stop-color="#FF0E59"/>
<stop offset="0.5378" stop-color="#FF12C3"/>
<stop offset="1" stop-color="#00B3FF"/>
</linearGradient>
<linearGradient id="paint55_linear" x1="229.466" y1="521.296" x2="553.36" y2="545.743" gradientUnits="userSpaceOnUse">
<stop offset="0.0189189" stop-color="#FF4C06"/>
<stop offset="0.1677" stop-color="#FF0E59"/>
<stop offset="0.5378" stop-color="#FF12C3"/>
<stop offset="1" stop-color="#00B3FF"/>
</linearGradient>
<linearGradient id="paint56_linear" x1="230.217" y1="511.418" x2="554.105" y2="535.865" gradientUnits="userSpaceOnUse">
<stop offset="0.0189189" stop-color="#FF4C06"/>
<stop offset="0.1677" stop-color="#FF0E59"/>
<stop offset="0.5378" stop-color="#FF12C3"/>
<stop offset="1" stop-color="#00B3FF"/>
</linearGradient>
<linearGradient id="paint57_linear" x1="228.462" y1="534.665" x2="552.351" y2="559.112" gradientUnits="userSpaceOnUse">
<stop offset="0.0189189" stop-color="#FF4C06"/>
<stop offset="0.1677" stop-color="#FF0E59"/>
<stop offset="0.5378" stop-color="#FF12C3"/>
<stop offset="1" stop-color="#00B3FF"/>
</linearGradient>
<linearGradient id="paint58_linear" x1="229.886" y1="515.842" x2="553.77" y2="540.288" gradientUnits="userSpaceOnUse">
<stop offset="0.0189189" stop-color="#FF4C06"/>
<stop offset="0.1677" stop-color="#FF0E59"/>
<stop offset="0.5378" stop-color="#FF12C3"/>
<stop offset="1" stop-color="#00B3FF"/>
</linearGradient>
<linearGradient id="paint59_linear" x1="229.028" y1="527.137" x2="552.919" y2="551.584" gradientUnits="userSpaceOnUse">
<stop offset="0.0189189" stop-color="#FF4C06"/>
<stop offset="0.1677" stop-color="#FF0E59"/>
<stop offset="0.5378" stop-color="#FF12C3"/>
<stop offset="1" stop-color="#00B3FF"/>
</linearGradient>
<linearGradient id="paint60_linear" x1="230.394" y1="508.994" x2="554.289" y2="533.441" gradientUnits="userSpaceOnUse">
<stop offset="0.0189189" stop-color="#FF4C06"/>
<stop offset="0.1677" stop-color="#FF0E59"/>
<stop offset="0.5378" stop-color="#FF12C3"/>
<stop offset="1" stop-color="#00B3FF"/>
</linearGradient>
<linearGradient id="paint61_linear" x1="229.478" y1="521.25" x2="553.362" y2="545.696" gradientUnits="userSpaceOnUse">
<stop offset="0.0189189" stop-color="#FF4C06"/>
<stop offset="0.1677" stop-color="#FF0E59"/>
<stop offset="0.5378" stop-color="#FF12C3"/>
<stop offset="1" stop-color="#00B3FF"/>
</linearGradient>
<linearGradient id="paint62_linear" x1="230.213" y1="511.409" x2="554.106" y2="535.856" gradientUnits="userSpaceOnUse">
<stop offset="0.0189189" stop-color="#FF4C06"/>
<stop offset="0.1677" stop-color="#FF0E59"/>
<stop offset="0.5378" stop-color="#FF12C3"/>
<stop offset="1" stop-color="#00B3FF"/>
</linearGradient>
<linearGradient id="paint63_linear" x1="228.501" y1="534.215" x2="552.383" y2="558.661" gradientUnits="userSpaceOnUse">
<stop offset="0.0189189" stop-color="#FF4C06"/>
<stop offset="0.1677" stop-color="#FF0E59"/>
<stop offset="0.5378" stop-color="#FF12C3"/>
<stop offset="1" stop-color="#00B3FF"/>
</linearGradient>
<linearGradient id="paint64_linear" x1="230.401" y1="508.99" x2="554.288" y2="533.437" gradientUnits="userSpaceOnUse">
<stop offset="0.0189189" stop-color="#FF4C06"/>
<stop offset="0.1677" stop-color="#FF0E59"/>
<stop offset="0.5378" stop-color="#FF12C3"/>
<stop offset="1" stop-color="#00B3FF"/>
</linearGradient>
<linearGradient id="paint65_linear" x1="229.055" y1="526.989" x2="552.926" y2="551.435" gradientUnits="userSpaceOnUse">
<stop offset="0.0189189" stop-color="#FF4C06"/>
<stop offset="0.1677" stop-color="#FF0E59"/>
<stop offset="0.5378" stop-color="#FF12C3"/>
<stop offset="1" stop-color="#00B3FF"/>
</linearGradient>
<linearGradient id="paint66_linear" x1="229.883" y1="515.924" x2="553.763" y2="540.37" gradientUnits="userSpaceOnUse">
<stop offset="0.0189189" stop-color="#FF4C06"/>
<stop offset="0.1677" stop-color="#FF0E59"/>
<stop offset="0.5378" stop-color="#FF12C3"/>
<stop offset="1" stop-color="#00B3FF"/>
</linearGradient>
<linearGradient id="paint67_linear" x1="229.491" y1="521.036" x2="553.378" y2="545.482" gradientUnits="userSpaceOnUse">
<stop offset="0.0189189" stop-color="#FF4C06"/>
<stop offset="0.1677" stop-color="#FF0E59"/>
<stop offset="0.5378" stop-color="#FF12C3"/>
<stop offset="1" stop-color="#00B3FF"/>
</linearGradient>
<linearGradient id="paint68_linear" x1="230.218" y1="511.409" x2="554.106" y2="535.855" gradientUnits="userSpaceOnUse">
<stop offset="0.0189189" stop-color="#FF4C06"/>
<stop offset="0.1677" stop-color="#FF0E59"/>
<stop offset="0.5378" stop-color="#FF12C3"/>
<stop offset="1" stop-color="#00B3FF"/>
</linearGradient>
<linearGradient id="paint69_linear" x1="228.524" y1="533.956" x2="552.4" y2="558.402" gradientUnits="userSpaceOnUse">
<stop offset="0.0189189" stop-color="#FF4C06"/>
<stop offset="0.1677" stop-color="#FF0E59"/>
<stop offset="0.5378" stop-color="#FF12C3"/>
<stop offset="1" stop-color="#00B3FF"/>
</linearGradient>
<linearGradient id="paint70_linear" x1="229.891" y1="515.771" x2="553.775" y2="540.216" gradientUnits="userSpaceOnUse">
<stop offset="0.0189189" stop-color="#FF4C06"/>
<stop offset="0.1677" stop-color="#FF0E59"/>
<stop offset="0.5378" stop-color="#FF12C3"/>
<stop offset="1" stop-color="#00B3FF"/>
</linearGradient>
<linearGradient id="paint71_linear" x1="230.382" y1="509.552" x2="554.235" y2="533.996" gradientUnits="userSpaceOnUse">
<stop offset="0.0189189" stop-color="#FF4C06"/>
<stop offset="0.1677" stop-color="#FF0E59"/>
<stop offset="0.5378" stop-color="#FF12C3"/>
<stop offset="1" stop-color="#00B3FF"/>
</linearGradient>
<linearGradient id="paint72_linear" x1="229.064" y1="526.79" x2="552.941" y2="551.236" gradientUnits="userSpaceOnUse">
<stop offset="0.0189189" stop-color="#FF4C06"/>
<stop offset="0.1677" stop-color="#FF0E59"/>
<stop offset="0.5378" stop-color="#FF12C3"/>
<stop offset="1" stop-color="#00B3FF"/>
</linearGradient>
<linearGradient id="paint73_linear" x1="230.228" y1="511.396" x2="554.101" y2="535.842" gradientUnits="userSpaceOnUse">
<stop offset="0.0189189" stop-color="#FF4C06"/>
<stop offset="0.1677" stop-color="#FF0E59"/>
<stop offset="0.5378" stop-color="#FF12C3"/>
<stop offset="1" stop-color="#00B3FF"/>
</linearGradient>
<linearGradient id="paint74_linear" x1="228.545" y1="533.699" x2="552.417" y2="558.144" gradientUnits="userSpaceOnUse">
<stop offset="0.0189189" stop-color="#FF4C06"/>
<stop offset="0.1677" stop-color="#FF0E59"/>
<stop offset="0.5378" stop-color="#FF12C3"/>
<stop offset="1" stop-color="#00B3FF"/>
</linearGradient>
<linearGradient id="paint75_linear" x1="229.536" y1="520.911" x2="553.369" y2="545.352" gradientUnits="userSpaceOnUse">
<stop offset="0.0189189" stop-color="#FF4C06"/>
<stop offset="0.1677" stop-color="#FF0E59"/>
<stop offset="0.5378" stop-color="#FF12C3"/>
<stop offset="1" stop-color="#00B3FF"/>
</linearGradient>
<linearGradient id="paint76_linear" x1="230.267" y1="510.716" x2="554.161" y2="535.163" gradientUnits="userSpaceOnUse">
<stop offset="0.0189189" stop-color="#FF4C06"/>
<stop offset="0.1677" stop-color="#FF0E59"/>
<stop offset="0.5378" stop-color="#FF12C3"/>
<stop offset="1" stop-color="#00B3FF"/>
</linearGradient>
<linearGradient id="paint77_linear" x1="228.648" y1="532.171" x2="552.54" y2="556.617" gradientUnits="userSpaceOnUse">
<stop offset="0.0189189" stop-color="#FF4C06"/>
<stop offset="0.1677" stop-color="#FF0E59"/>
<stop offset="0.5378" stop-color="#FF12C3"/>
<stop offset="1" stop-color="#00B3FF"/>
</linearGradient>
<linearGradient id="paint78_linear" x1="229.548" y1="520.24" x2="553.445" y2="544.687" gradientUnits="userSpaceOnUse">
<stop offset="0.0189189" stop-color="#FF4C06"/>
<stop offset="0.1677" stop-color="#FF0E59"/>
<stop offset="0.5378" stop-color="#FF12C3"/>
<stop offset="1" stop-color="#00B3FF"/>
</linearGradient>
<linearGradient id="paint79_linear" x1="229.898" y1="515.599" x2="553.796" y2="540.046" gradientUnits="userSpaceOnUse">
<stop offset="0.0189189" stop-color="#FF4C06"/>
<stop offset="0.1677" stop-color="#FF0E59"/>
<stop offset="0.5378" stop-color="#FF12C3"/>
<stop offset="1" stop-color="#00B3FF"/>
</linearGradient>
<linearGradient id="paint80_linear" x1="230.358" y1="509.558" x2="554.238" y2="534.004" gradientUnits="userSpaceOnUse">
<stop offset="0.0189189" stop-color="#FF4C06"/>
<stop offset="0.1677" stop-color="#FF0E59"/>
<stop offset="0.5378" stop-color="#FF12C3"/>
<stop offset="1" stop-color="#00B3FF"/>
</linearGradient>
<linearGradient id="paint81_linear" x1="229.131" y1="525.779" x2="553.022" y2="550.226" gradientUnits="userSpaceOnUse">
<stop offset="0.0189189" stop-color="#FF4C06"/>
<stop offset="0.1677" stop-color="#FF0E59"/>
<stop offset="0.5378" stop-color="#FF12C3"/>
<stop offset="1" stop-color="#00B3FF"/>
</linearGradient>
<linearGradient id="paint82_linear" x1="230.208" y1="511.459" x2="554.109" y2="535.906" gradientUnits="userSpaceOnUse">
<stop offset="0.0189189" stop-color="#FF4C06"/>
<stop offset="0.1677" stop-color="#FF0E59"/>
<stop offset="0.5378" stop-color="#FF12C3"/>
<stop offset="1" stop-color="#00B3FF"/>
</linearGradient>
<linearGradient id="paint83_linear" x1="228.623" y1="532.496" x2="552.517" y2="556.943" gradientUnits="userSpaceOnUse">
<stop offset="0.0189189" stop-color="#FF4C06"/>
<stop offset="0.1677" stop-color="#FF0E59"/>
<stop offset="0.5378" stop-color="#FF12C3"/>
<stop offset="1" stop-color="#00B3FF"/>
</linearGradient>
<linearGradient id="paint84_linear" x1="229.536" y1="520.393" x2="553.43" y2="544.84" gradientUnits="userSpaceOnUse">
<stop offset="0.0189189" stop-color="#FF4C06"/>
<stop offset="0.1677" stop-color="#FF0E59"/>
<stop offset="0.5378" stop-color="#FF12C3"/>
<stop offset="1" stop-color="#00B3FF"/>
</linearGradient>
<linearGradient id="paint85_linear" x1="229.896" y1="515.637" x2="553.789" y2="540.084" gradientUnits="userSpaceOnUse">
<stop offset="0.0189189" stop-color="#FF4C06"/>
<stop offset="0.1677" stop-color="#FF0E59"/>
<stop offset="0.5378" stop-color="#FF12C3"/>
<stop offset="1" stop-color="#00B3FF"/>
</linearGradient>
<linearGradient id="paint86_linear" x1="229.096" y1="526.22" x2="552.991" y2="550.667" gradientUnits="userSpaceOnUse">
<stop offset="0.0189189" stop-color="#FF4C06"/>
<stop offset="0.1677" stop-color="#FF0E59"/>
<stop offset="0.5378" stop-color="#FF12C3"/>
<stop offset="1" stop-color="#00B3FF"/>
</linearGradient>
<linearGradient id="paint87_linear" x1="229.524" y1="520.519" x2="553.424" y2="544.967" gradientUnits="userSpaceOnUse">
<stop offset="0.0189189" stop-color="#FF4C06"/>
<stop offset="0.1677" stop-color="#FF0E59"/>
<stop offset="0.5378" stop-color="#FF12C3"/>
<stop offset="1" stop-color="#00B3FF"/>
</linearGradient>
<linearGradient id="paint88_linear" x1="230.213" y1="511.375" x2="554.117" y2="535.823" gradientUnits="userSpaceOnUse">
<stop offset="0.0189189" stop-color="#FF4C06"/>
<stop offset="0.1677" stop-color="#FF0E59"/>
<stop offset="0.5378" stop-color="#FF12C3"/>
<stop offset="1" stop-color="#00B3FF"/>
</linearGradient>
<linearGradient id="paint89_linear" x1="230.352" y1="509.669" x2="554.231" y2="534.113" gradientUnits="userSpaceOnUse">
<stop offset="0.0189189" stop-color="#FF4C06"/>
<stop offset="0.1677" stop-color="#FF0E59"/>
<stop offset="0.5378" stop-color="#FF12C3"/>
<stop offset="1" stop-color="#00B3FF"/>
</linearGradient>
<linearGradient id="paint90_linear" x1="229.105" y1="526.057" x2="553.007" y2="550.505" gradientUnits="userSpaceOnUse">
<stop offset="0.0189189" stop-color="#FF4C06"/>
<stop offset="0.1677" stop-color="#FF0E59"/>
<stop offset="0.5378" stop-color="#FF12C3"/>
<stop offset="1" stop-color="#00B3FF"/>
</linearGradient>
<linearGradient id="paint91_linear" x1="229.895" y1="515.672" x2="553.782" y2="540.119" gradientUnits="userSpaceOnUse">
<stop offset="0.0189189" stop-color="#FF4C06"/>
<stop offset="0.1677" stop-color="#FF0E59"/>
<stop offset="0.5378" stop-color="#FF12C3"/>
<stop offset="1" stop-color="#00B3FF"/>
</linearGradient>
<linearGradient id="paint92_linear" x1="229.513" y1="520.66" x2="553.412" y2="545.107" gradientUnits="userSpaceOnUse">
<stop offset="0.0189189" stop-color="#FF4C06"/>
<stop offset="0.1677" stop-color="#FF0E59"/>
<stop offset="0.5378" stop-color="#FF12C3"/>
<stop offset="1" stop-color="#00B3FF"/>
</linearGradient>
<linearGradient id="paint93_linear" x1="230.213" y1="511.297" x2="554.126" y2="535.745" gradientUnits="userSpaceOnUse">
<stop offset="0.0189189" stop-color="#FF4C06"/>
<stop offset="0.1677" stop-color="#FF0E59"/>
<stop offset="0.5378" stop-color="#FF12C3"/>
<stop offset="1" stop-color="#00B3FF"/>
</linearGradient>
<linearGradient id="paint94_linear" x1="229.878" y1="515.709" x2="553.793" y2="540.157" gradientUnits="userSpaceOnUse">
<stop offset="0.0189189" stop-color="#FF4C06"/>
<stop offset="0.1677" stop-color="#FF0E59"/>
<stop offset="0.5378" stop-color="#FF12C3"/>
<stop offset="1" stop-color="#00B3FF"/>
</linearGradient>
<linearGradient id="paint95_linear" x1="230.331" y1="509.676" x2="554.251" y2="534.125" gradientUnits="userSpaceOnUse">
<stop offset="0.0189189" stop-color="#FF4C06"/>
<stop offset="0.1677" stop-color="#FF0E59"/>
<stop offset="0.5378" stop-color="#FF12C3"/>
<stop offset="1" stop-color="#00B3FF"/>
</linearGradient>
<linearGradient id="paint96_linear" x1="229.073" y1="526.396" x2="552.985" y2="550.845" gradientUnits="userSpaceOnUse">
<stop offset="0.0189189" stop-color="#FF4C06"/>
<stop offset="0.1677" stop-color="#FF0E59"/>
<stop offset="0.5378" stop-color="#FF12C3"/>
<stop offset="1" stop-color="#00B3FF"/>
</linearGradient>
<linearGradient id="paint97_linear" x1="230.274" y1="511.283" x2="554.079" y2="535.722" gradientUnits="userSpaceOnUse">
<stop offset="0.0189189" stop-color="#FF4C06"/>
<stop offset="0.1677" stop-color="#FF0E59"/>
<stop offset="0.5378" stop-color="#FF12C3"/>
<stop offset="1" stop-color="#00B3FF"/>
</linearGradient>
<linearGradient id="paint98_linear" x1="229.506" y1="520.787" x2="553.399" y2="545.234" gradientUnits="userSpaceOnUse">
<stop offset="0.0189189" stop-color="#FF4C06"/>
<stop offset="0.1677" stop-color="#FF0E59"/>
<stop offset="0.5378" stop-color="#FF12C3"/>
<stop offset="1" stop-color="#00B3FF"/>
</linearGradient>
<linearGradient id="paint99_linear" x1="230.356" y1="509.682" x2="554.23" y2="534.126" gradientUnits="userSpaceOnUse">
<stop offset="0.0189189" stop-color="#FF4C06"/>
<stop offset="0.1677" stop-color="#FF0E59"/>
<stop offset="0.5378" stop-color="#FF12C3"/>
<stop offset="1" stop-color="#00B3FF"/>
</linearGradient>
<linearGradient id="paint100_linear" x1="229.103" y1="526.466" x2="552.954" y2="550.91" gradientUnits="userSpaceOnUse">
<stop offset="0.0189189" stop-color="#FF4C06"/>
<stop offset="0.1677" stop-color="#FF0E59"/>
<stop offset="0.5378" stop-color="#FF12C3"/>
<stop offset="1" stop-color="#00B3FF"/>
</linearGradient>
<linearGradient id="paint101_linear" x1="229.917" y1="515.741" x2="553.761" y2="540.184" gradientUnits="userSpaceOnUse">
<stop offset="0.0189189" stop-color="#FF4C06"/>
<stop offset="0.1677" stop-color="#FF0E59"/>
<stop offset="0.5378" stop-color="#FF12C3"/>
<stop offset="1" stop-color="#00B3FF"/>
</linearGradient>
<linearGradient id="paint102_linear" x1="190.373" y1="544.868" x2="565.273" y2="572.686" gradientUnits="userSpaceOnUse">
<stop offset="0.0189189" stop-color="#FF4C06"/>
<stop offset="0.1677" stop-color="#FF0E59"/>
<stop offset="0.5378" stop-color="#FF12C3"/>
<stop offset="1" stop-color="#00B3FF"/>
</linearGradient>
<radialGradient id="paint103_radial" cx="0" cy="0" r="1" gradientUnits="userSpaceOnUse" gradientTransform="translate(381.173 470.531) scale(48.2606 64.0419)">
<stop stop-color="#EBD7E3"/>
<stop offset="0.9829" stop-color="#BDAFD2"/>
</radialGradient>
<linearGradient id="paint104_linear" x1="234.929" y1="475.177" x2="408.456" y2="475.177" gradientUnits="userSpaceOnUse">
<stop offset="0.0171145" stop-color="#E2DCEB"/>
<stop offset="1" stop-color="white"/>
</linearGradient>
<linearGradient id="paint105_linear" x1="329.373" y1="485.612" x2="465.933" y2="485.612" gradientUnits="userSpaceOnUse">
<stop offset="0.0171145" stop-color="#E2DCEB"/>
<stop offset="1" stop-color="white"/>
</linearGradient>
<radialGradient id="paint106_radial" cx="0" cy="0" r="1" gradientUnits="userSpaceOnUse" gradientTransform="translate(25.0987 227.968) rotate(6.81729) scale(66.995)">
<stop stop-color="#FFD328"/>
<stop offset="1" stop-color="#FF8600"/>
</radialGradient>
<linearGradient id="paint107_linear" x1="40.6882" y1="280.936" x2="56.0378" y2="152.54" gradientUnits="userSpaceOnUse">
<stop stop-color="#B6ACE0"/>
<stop offset="0.9829" stop-color="#E2DCEB"/>
</linearGradient>
<linearGradient id="paint108_linear" x1="96.7013" y1="267.562" x2="103.131" y2="213.781" gradientUnits="userSpaceOnUse">
<stop stop-color="#725FC3"/>
<stop offset="0.9829" stop-color="#BAACD0"/>
</linearGradient>
<linearGradient id="paint109_linear" x1="48.4928" y1="253.57" x2="43.2771" y2="212.303" gradientUnits="userSpaceOnUse">
<stop stop-color="#DBD6F0"/>
<stop offset="0.9829" stop-color="#E2DCEB"/>
</linearGradient>
<radialGradient id="paint110_radial" cx="0" cy="0" r="1" gradientUnits="userSpaceOnUse" gradientTransform="translate(45.2084 232.707) rotate(6.81729) scale(12.7812)">
<stop stop-color="#B3819D"/>
<stop offset="1" stop-color="#9079B6"/>
</radialGradient>
<linearGradient id="paint111_linear" x1="44.2919" y1="246.261" x2="47.5127" y2="219.319" gradientUnits="userSpaceOnUse">
<stop stop-color="#B6ACE0"/>
<stop offset="0.9829" stop-color="#E2DCEB"/>
</linearGradient>
<linearGradient id="paint112_linear" x1="254.059" y1="238.807" x2="202.066" y2="239.358" gradientUnits="userSpaceOnUse">
<stop stop-color="#FF6E27"/>
<stop offset="0.998" stop-color="#E03347"/>
</linearGradient>
<linearGradient id="paint113_linear" x1="249.614" y1="275.992" x2="199.219" y2="263.202" gradientUnits="userSpaceOnUse">
<stop stop-color="#FF6E27"/>
<stop offset="0.998" stop-color="#E03347"/>
</linearGradient>
<linearGradient id="paint114_linear" x1="204.499" y1="283.618" x2="212.013" y2="220.765" gradientUnits="userSpaceOnUse">
<stop stop-color="#C72A16"/>
<stop offset="0.998" stop-color="#90062C"/>
</linearGradient>
<linearGradient id="paint115_linear" x1="134.185" y1="300.502" x2="114.887" y2="147.82" gradientUnits="userSpaceOnUse">
<stop stop-color="#B6ACE0"/>
<stop offset="0.9829" stop-color="#E2DCEB"/>
</linearGradient>
<linearGradient id="paint116_linear" x1="38.3491" y1="313.429" x2="58.0392" y2="148.726" gradientUnits="userSpaceOnUse">
<stop offset="0.00558659" stop-color="#530E68"/>
<stop offset="1" stop-color="#6051C4"/>
</linearGradient>
<radialGradient id="paint117_radial" cx="0" cy="0" r="1" gradientUnits="userSpaceOnUse" gradientTransform="translate(50.0593 188.262) rotate(6.81729) scale(102.583)">
<stop stop-color="#5178FE"/>
<stop offset="0.9944" stop-color="#713592"/>
</radialGradient>
<linearGradient id="paint118_linear" x1="63.0738" y1="261.92" x2="69.3123" y2="209.737" gradientUnits="userSpaceOnUse">
<stop offset="0.0171145" stop-color="#866CAB"/>
<stop offset="1" stop-color="#EBD7E3"/>
</linearGradient>
<linearGradient id="paint119_linear" x1="126.614" y1="320.728" x2="142.693" y2="186.226" gradientUnits="userSpaceOnUse">
<stop offset="0.0171145" stop-color="#866CAB"/>
<stop offset="0.4919" stop-color="#EBD7E3"/>
</linearGradient>
<linearGradient id="paint120_linear" x1="200.882" y1="308.237" x2="196.122" y2="270.579" gradientUnits="userSpaceOnUse">
<stop stop-color="#B6ACE0"/>
<stop offset="0.9829" stop-color="#E2DCEB"/>
</linearGradient>
<radialGradient id="paint121_radial" cx="0" cy="0" r="1" gradientUnits="userSpaceOnUse" gradientTransform="translate(153.926 288.412) rotate(6.81729) scale(13.4769)">
<stop stop-color="#B3819D"/>
<stop offset="1" stop-color="#9079B6"/>
</radialGradient>
<linearGradient id="paint122_linear" x1="184.616" y1="409.591" x2="171.558" y2="306.277" gradientUnits="userSpaceOnUse">
<stop stop-color="#B6ACE0"/>
<stop offset="0.9829" stop-color="#E2DCEB"/>
</linearGradient>
<linearGradient id="paint123_linear" x1="23.8156" y1="285.987" x2="60.1289" y2="290.328" gradientUnits="userSpaceOnUse">
<stop stop-color="#BD9F65"/>
<stop offset="1"/>
</linearGradient>
<linearGradient id="paint124_linear" x1="170.112" y1="282.545" x2="233.782" y2="290.157" gradientUnits="userSpaceOnUse">
<stop/>
<stop offset="1" stop-color="#BD9F65"/>
</linearGradient>
<linearGradient id="paint125_linear" x1="284.034" y1="113.331" x2="266.056" y2="12.9588" gradientUnits="userSpaceOnUse">
<stop stop-color="#B6ACE0"/>
<stop offset="0.9829" stop-color="#E2DCEB"/>
</linearGradient>
<linearGradient id="paint126_linear" x1="257.266" y1="103.537" x2="283.494" y2="-9.7046" gradientUnits="userSpaceOnUse">
<stop offset="0.00198414" stop-color="#E03347"/>
<stop offset="1" stop-color="#FF6E27"/>
</linearGradient>
<linearGradient id="paint127_linear" x1="289.315" y1="140.816" x2="276.279" y2="68.0348" gradientUnits="userSpaceOnUse">
<stop stop-color="#D9D6FF"/>
<stop offset="0.9829" stop-color="#E2DCEB"/>
</linearGradient>
<linearGradient id="paint128_linear" x1="292.121" y1="140.313" x2="285.212" y2="101.738" gradientUnits="userSpaceOnUse">
<stop offset="0.0171145" stop-color="#E2DCEB"/>
<stop offset="1" stop-color="#E5F6FF"/>
</linearGradient>
<radialGradient id="paint129_radial" cx="0" cy="0" r="1" gradientUnits="userSpaceOnUse" gradientTransform="translate(35.0151 541.769) rotate(-51.5737) scale(74.5159)">
<stop offset="0.0171145" stop-color="#E2DCEB"/>
<stop offset="0.1982" stop-color="#CFC4E7"/>
<stop offset="0.4797" stop-color="#B7A4E3"/>
<stop offset="0.7175" stop-color="#A891E0"/>
<stop offset="0.8811" stop-color="#A38ADF"/>
<stop offset="0.9811" stop-color="#93D1FF"/>
</radialGradient>
<radialGradient id="paint130_radial" cx="0" cy="0" r="1" gradientUnits="userSpaceOnUse" gradientTransform="translate(33.7241 543.287) rotate(-51.5738) scale(65.2284)">
<stop stop-color="#A998FF"/>
<stop offset="0.9944" stop-color="#9845B8"/>
</radialGradient>
<radialGradient id="paint131_radial" cx="0" cy="0" r="1" gradientUnits="userSpaceOnUse" gradientTransform="translate(59.548 485.73) rotate(-25.7656) scale(65.2276)">
<stop stop-color="#A998FF"/>
<stop offset="0.9944" stop-color="#9845B8"/>
</radialGradient>
<radialGradient id="paint132_radial" cx="0" cy="0" r="1" gradientUnits="userSpaceOnUse" gradientTransform="translate(33.725 543.289) rotate(-51.5737) scale(65.2269)">
<stop stop-color="#A998FF"/>
<stop offset="0.9944" stop-color="#9845B8"/>
</radialGradient>
<linearGradient id="paint133_linear" x1="11.7626" y1="525.997" x2="11.4008" y2="525.71" gradientUnits="userSpaceOnUse">
<stop stop-color="#FDCDD3"/>
<stop offset="1" stop-color="#FFEACD"/>
</linearGradient>
</defs>
</svg>
