<svg width="176" height="188" viewBox="0 0 176 188" fill="none" xmlns="http://www.w3.org/2000/svg">
<path fill-rule="evenodd" clip-rule="evenodd" d="M28.1775 78.1484L21.5734 83.6519L6.10352e-05 140.447L10.1263 139.346L18.2714 184.474L27.0768 183.374L28.1775 78.1484Z" fill="url(#paint0_linear)"/>
<path fill-rule="evenodd" clip-rule="evenodd" d="M72.6451 35.6621L66.4813 39.8447L44.9078 97.7406L54.5938 96.6399L67.802 178.971L75.5068 178.311L72.6451 35.6621Z" fill="url(#paint1_linear)"/>
<path fill-rule="evenodd" clip-rule="evenodd" d="M27.0769 183.374L18.7117 135.164L9.90625 136.044L28.1776 78.1484L58.3363 130.981L47.7698 132.082L49.3106 180.952L27.0769 183.374Z" fill="url(#paint2_radial)"/>
<path fill-rule="evenodd" clip-rule="evenodd" d="M75.5066 178.311L63.1791 92.6774L54.3736 93.558L72.6449 35.6621L103.024 88.2747L93.9982 89.3754L97.7404 175.889L75.5066 178.311Z" fill="url(#paint3_radial)"/>
<path fill-rule="evenodd" clip-rule="evenodd" d="M125.478 0L114.03 9.02554L97.0799 63.8396L107.646 62.5188L121.295 173.247L131.421 172.147L125.478 0Z" fill="url(#paint4_linear)"/>
<path fill-rule="evenodd" clip-rule="evenodd" d="M131.421 172.147L116.012 57.0153L106.986 57.8959L125.478 0L155.636 52.6126L146.611 53.7133L153.655 169.725L131.421 172.147Z" fill="url(#paint5_radial)"/>
<path fill-rule="evenodd" clip-rule="evenodd" d="M2.42133 186.015L2.64154 187.997L175.449 169.505L175.229 167.524L2.42133 186.015Z" fill="url(#paint6_radial)"/>
<defs>
<linearGradient id="paint0_linear" x1="31.8301" y1="182.257" x2="7.69773" y2="83.1438" gradientUnits="userSpaceOnUse">
<stop offset="0.00558659" stop-color="#530E68"/>
<stop offset="1" stop-color="#60309D"/>
</linearGradient>
<linearGradient id="paint1_linear" x1="85.3789" y1="175.818" x2="52.4504" y2="40.5782" gradientUnits="userSpaceOnUse">
<stop offset="0.00558659" stop-color="#530E68"/>
<stop offset="1" stop-color="#60309D"/>
</linearGradient>
<radialGradient id="paint2_radial" cx="0" cy="0" r="1" gradientUnits="userSpaceOnUse" gradientTransform="translate(30.6004 103.381) rotate(-6.13646) scale(64.4467)">
<stop stop-color="#5178FE"/>
<stop offset="0.9944" stop-color="#713592"/>
</radialGradient>
<radialGradient id="paint3_radial" cx="0" cy="0" r="1" gradientUnits="userSpaceOnUse" gradientTransform="translate(76.1025 69.908) rotate(-6.13647) scale(85.771 85.7711)">
<stop stop-color="#5178FE"/>
<stop offset="0.9944" stop-color="#713592"/>
</radialGradient>
<linearGradient id="paint4_linear" x1="143.482" y1="169.273" x2="103.564" y2="5.32946" gradientUnits="userSpaceOnUse">
<stop offset="0.00558659" stop-color="#530E68"/>
<stop offset="1" stop-color="#60309D"/>
</linearGradient>
<radialGradient id="paint5_radial" cx="0" cy="0" r="1" gradientUnits="userSpaceOnUse" gradientTransform="translate(129.595 41.4493) rotate(-6.13645) scale(102.939 102.939)">
<stop stop-color="#5178FE"/>
<stop offset="0.9944" stop-color="#713592"/>
</radialGradient>
<radialGradient id="paint6_radial" cx="0" cy="0" r="1" gradientUnits="userSpaceOnUse" gradientTransform="translate(88.995 177.781) rotate(-6.13647) scale(61.4576)">
<stop stop-color="#B3819D"/>
<stop offset="1" stop-color="#785CA6"/>
</radialGradient>
</defs>
</svg>
