<svg width="123" height="118" viewBox="0 0 123 118" fill="none" xmlns="http://www.w3.org/2000/svg">
<path d="M19.7471 115.963L16.5959 108.82H110.5L109.03 117.538C109.03 117.538 61.3424 114.072 19.7471 115.963Z" fill="url(#paint0_linear)"/>
<path d="M16.5959 108.82L30.461 20.6928L100.837 16.8064L110.605 108.82H16.5959Z" fill="url(#paint1_linear)"/>
<path d="M52.519 13.235V8.08811C52.519 8.08811 67.3295 4.8319 82.6651 6.61756L82.1399 11.6594C82.0349 11.6594 69.6403 10.2939 52.519 13.235Z" fill="url(#paint2_linear)"/>
<path d="M52.519 13.235L54.1997 14.2854L80.1442 13.235L82.1399 11.6594C82.0349 11.6594 67.9597 9.87377 52.519 13.235Z" fill="#140047"/>
<path opacity="0.86" d="M24.2637 104.304L105.774 104.829L98.1058 21.3231L39.5993 20.2727L24.2637 104.304Z" fill="#9ABAB3"/>
<path d="M105.774 104.829C70.5856 96.9507 20.7974 104.829 20.7974 104.829L34.1373 16.8063C68.1697 6.72262 100.522 8.19314 100.522 8.19314V8.40323L105.774 104.829Z" fill="url(#paint3_linear)"/>
<path d="M61.9726 15.861C61.9726 16.0711 61.8675 16.2811 61.8675 16.4912C61.7625 16.7013 61.6575 16.9114 61.4474 17.1214C61.2373 17.3315 61.1323 17.5416 60.8172 17.7517C60.6071 17.9618 60.292 18.1718 59.9768 18.2769C60.292 18.2769 60.502 18.3819 60.6071 18.4869C60.8172 18.592 60.9222 18.697 60.9222 18.8021C61.0272 18.9071 61.0272 19.0121 61.0272 19.1172C61.0272 19.2222 61.0272 19.3273 61.0272 19.4323C61.0272 19.6424 60.9222 19.9575 60.8172 20.0625C60.7121 20.2726 60.502 20.4827 60.397 20.5877C60.1869 20.6928 59.9768 20.9028 59.7668 21.0079C59.5567 21.1129 59.3466 21.2179 59.1365 21.323C58.9265 21.428 58.7164 21.428 58.5063 21.5331C58.2962 21.5331 58.1912 21.6381 58.0862 21.6381C57.9811 21.6381 57.771 21.6381 57.666 21.6381C57.561 21.6381 57.4559 21.6381 57.2458 21.6381C57.1408 21.6381 56.9307 21.6381 56.8257 21.6381C56.9307 21.0079 56.9307 20.3776 57.0358 19.7474C57.1408 18.9071 57.1408 18.0668 57.1408 17.3315C57.1408 16.4912 57.1408 15.7559 57.0358 14.9156C57.2458 14.8106 57.4559 14.7056 57.771 14.7056C57.9811 14.6005 58.1912 14.6005 58.4013 14.4955C58.6113 14.3904 58.8214 14.3904 59.0315 14.3904C59.1365 14.3904 59.3466 14.3904 59.5567 14.2854C59.7668 14.2854 59.9768 14.2854 60.1869 14.2854C60.397 14.2854 60.6071 14.3904 60.8172 14.3904C61.0272 14.4955 61.2373 14.4955 61.3423 14.7056C61.4474 14.8106 61.6575 15.0207 61.6575 15.1257C61.9726 15.3358 61.9726 15.5459 61.9726 15.861ZM59.8718 19.6424C59.8718 19.5373 59.8718 19.3272 59.7668 19.2222L59.6617 19.1172C59.6617 19.1172 59.5567 19.0121 59.4516 19.0121C59.3466 19.0121 59.2416 18.9071 59.1365 18.9071C59.0315 18.9071 58.9265 18.9071 58.7164 18.9071C58.7164 19.2222 58.6113 19.6424 58.6113 19.9575C58.6113 20.2726 58.5063 20.5877 58.5063 21.0079C58.6113 20.9028 58.8214 20.9028 58.9265 20.7978C59.0315 20.6927 59.1365 20.6928 59.2416 20.5877C59.3466 20.4827 59.4516 20.4827 59.4516 20.3776C59.5567 20.2726 59.5567 20.2726 59.6617 20.1676C59.7668 19.9575 59.8718 19.7474 59.8718 19.6424ZM60.502 16.2811C60.502 16.1761 60.502 16.0711 60.502 15.966C60.502 15.861 60.502 15.7559 60.397 15.6509C60.397 15.5459 60.292 15.4408 60.1869 15.3358C60.0819 15.2307 59.9768 15.2308 59.7668 15.1257C59.5567 15.1257 59.3466 15.1257 59.1365 15.1257C59.0315 15.6509 59.0315 16.1761 58.9265 16.8063C58.8214 17.3315 58.8214 17.8567 58.7164 18.3819C58.9265 18.2769 59.0315 18.1718 59.2416 18.0668C59.3466 17.9618 59.5567 17.8567 59.6617 17.7517C59.7668 17.6466 59.8718 17.5416 59.9768 17.4366C60.0819 17.3315 60.0819 17.2265 60.1869 17.1214C60.397 16.9114 60.397 16.5963 60.502 16.2811Z" fill="#EF138B"/>
<path d="M67.1194 15.3358C67.1194 15.5458 67.0144 15.7559 67.0144 15.966C66.9093 16.1761 66.8043 16.3862 66.6993 16.7013C66.4892 16.9113 66.3842 17.1214 66.069 17.3315C65.859 17.5416 65.5438 17.7517 65.2287 17.8567C65.4388 18.2769 65.7539 18.697 66.069 19.1172C66.3842 19.5373 66.6993 19.8524 67.1194 20.2726C66.3842 20.3776 65.964 20.3776 65.2287 20.5877C64.8086 19.6423 64.5985 19.2222 64.0733 18.3819C64.0733 18.802 64.0733 19.2222 64.0733 19.5373C64.0733 19.9575 64.0733 20.2726 64.0733 20.6927C63.338 20.7978 62.9179 20.7978 62.1826 20.9028C62.2877 20.1675 62.3927 19.4323 62.4977 18.592C62.6028 17.8567 62.7078 17.1214 62.7078 16.2811C62.7078 15.861 62.8128 15.4408 62.8128 15.0206C62.8128 14.6005 62.8128 14.1803 62.8128 13.7602C63.128 13.6551 63.338 13.5501 63.6532 13.5501C63.9683 13.4451 64.1783 13.4451 64.3884 13.4451C64.4935 13.4451 64.7035 13.4451 64.9136 13.4451C65.1237 13.4451 65.3338 13.4451 65.5438 13.4451C65.7539 13.4451 65.964 13.5501 66.1741 13.6552C66.3842 13.7602 66.5942 13.8652 66.6993 13.9703C66.8043 14.0753 67.0144 14.2854 67.0144 14.4955C67.1194 14.7055 67.2245 15.0206 67.1194 15.3358ZM64.0733 17.5416C64.2834 17.4365 64.3884 17.4365 64.5985 17.3315C64.7035 17.2265 64.9136 17.1214 65.0187 17.0164C65.1237 16.9113 65.2287 16.8063 65.3338 16.7013C65.4388 16.5962 65.4388 16.4912 65.5438 16.3862C65.6489 16.1761 65.7539 15.966 65.7539 15.6509C65.7539 15.6509 65.7539 15.6509 65.7539 15.5458C65.7539 15.4408 65.7539 15.3358 65.7539 15.2307C65.7539 15.1257 65.7539 15.0207 65.6489 14.9156C65.6489 14.8106 65.5438 14.7055 65.4388 14.6005C65.3338 14.4955 65.2287 14.3904 65.1237 14.2854C65.0187 14.1803 64.8086 14.1804 64.5985 14.1804C64.4935 14.7055 64.3884 15.2307 64.2834 15.7559C64.1783 16.2811 64.1783 16.8063 64.0733 17.3315C64.0733 17.4365 64.0733 17.4365 64.0733 17.5416Z" fill="#EF138B"/>
<path d="M70.5856 19.9576C70.3755 19.9576 70.1654 19.9576 69.9554 19.9576C69.7453 19.9576 69.5352 19.9576 69.3251 19.9576C69.01 19.9576 68.6949 20.0627 68.2748 20.0627C67.9596 20.0627 67.6445 20.1677 67.2244 20.1677C67.2244 19.7475 67.3294 19.5375 67.3294 19.1173C67.4344 19.1173 67.5395 19.1173 67.6445 19.1173C67.7496 19.1173 67.8546 19.1173 67.9596 19.1173C68.0647 18.5921 68.0647 18.0669 68.1697 17.5417C68.2748 17.0165 68.2747 16.4914 68.3798 15.9662C68.3798 15.651 68.3798 15.2309 68.4848 14.9158C68.4848 14.6007 68.4848 14.2855 68.4848 13.8654C68.3798 13.8654 68.1697 13.8654 68.0647 13.8654C67.9596 13.8654 67.7496 13.8654 67.6445 13.9704C67.6445 13.5503 67.7496 13.3402 67.7496 12.92C68.1697 12.92 68.4848 12.815 68.905 12.815C69.3251 12.815 69.7453 12.71 70.0604 12.71C70.1654 12.71 70.3755 12.71 70.4806 12.71C70.5856 12.71 70.7957 12.71 70.9007 12.71C70.7957 13.1301 70.7957 13.3402 70.7957 13.7603C70.6906 13.7603 70.5856 13.7603 70.4806 13.7603C70.3755 13.7603 70.2705 13.7603 70.1654 13.7603C70.0604 14.3906 69.9554 15.0208 69.8503 15.546C69.7453 16.1762 69.7453 16.7014 69.6403 17.3317C69.6403 17.8569 69.5352 18.3821 69.5352 18.9072C69.7453 18.9072 69.8503 18.9072 70.0604 18.9072C70.2705 18.9072 70.3755 18.9072 70.5856 18.9072C70.6906 19.3274 70.6906 19.5375 70.5856 19.9576Z" fill="#EF138B"/>
<path d="M74.6821 17.1216C74.472 17.1216 74.367 17.1216 74.1569 17.1216C73.9468 17.1216 73.8418 17.1216 73.6317 17.1216C73.5267 17.1216 73.4216 17.1216 73.3166 17.1216C73.2116 17.1216 73.1065 17.1216 73.0015 17.1216C72.8964 17.8568 72.8964 18.172 72.7914 18.9072C73.2116 18.9072 73.6317 18.8022 74.0519 18.8022C74.472 18.8022 74.8922 18.6971 75.3123 18.6971C75.3123 19.1173 75.2073 19.3274 75.2073 19.7475C74.8922 19.7475 74.6821 19.7475 74.367 19.7475C74.0519 19.7475 73.8418 19.7475 73.5267 19.7475C73.1065 19.7475 72.6864 19.7475 72.3712 19.8526C71.9511 19.8526 71.5309 19.9576 71.2158 19.9576C71.3209 19.3274 71.4259 18.6971 71.5309 18.0669C71.636 17.4367 71.636 16.8064 71.741 16.1762C71.741 15.546 71.846 15.0208 71.846 14.3906C71.846 13.7603 71.846 13.2351 71.846 12.6049C72.4763 12.6049 73.0015 12.6049 73.5267 12.4999C73.8418 12.4999 74.2619 12.4999 74.5771 12.3948C74.8922 12.3948 75.3123 12.2898 75.7325 12.2898C75.7325 12.7099 75.6274 13.0251 75.6274 13.4452C75.3123 13.4452 74.9972 13.4452 74.6821 13.4452C74.367 13.4452 74.0519 13.4452 73.7367 13.4452C73.6317 13.4452 73.5267 13.4452 73.4216 13.4452C73.3166 13.8654 73.2116 14.2855 73.2116 14.7057C73.1065 15.1258 73.0015 15.8611 73.1065 15.9661C73.1065 15.9661 73.4216 15.9661 73.5267 15.9661C73.6317 15.9661 73.8418 15.9661 73.9468 15.9661C74.0519 15.9661 74.1569 15.9661 74.2619 15.9661C74.367 15.9661 74.472 15.9661 74.6821 15.9661C74.7871 16.4913 74.7871 16.7014 74.6821 17.1216Z" fill="#EF138B"/>
<path d="M79.4087 17.0165C79.1986 17.0165 79.0936 17.0165 78.8835 17.0165C78.6734 17.0165 78.5684 17.0165 78.3583 17.0165C78.2533 17.0165 78.1482 17.0165 78.0432 17.0165C77.9382 17.0165 77.8331 17.0165 77.7281 17.0165C77.6231 18.1719 77.6231 18.6971 77.6231 19.8525C77.518 19.8525 77.413 19.8525 77.2029 19.8525C77.0979 19.8525 76.8878 19.8525 76.7827 19.8525C76.6777 19.8525 76.5727 19.8525 76.4676 19.8525C76.3626 19.8525 76.2576 19.8525 76.1525 19.8525C76.0475 19.8525 75.9424 19.8525 75.8374 19.8525C75.9424 19.2223 76.0475 18.5921 76.1525 17.9618C76.2576 17.3316 76.2576 16.7014 76.3626 16.0711C76.4676 15.4409 76.4676 14.8107 76.4676 14.2855C76.4676 13.6552 76.4676 13.1301 76.4676 12.4998C77.0979 12.4998 77.6231 12.4998 78.2533 12.4998C78.5684 12.4998 78.9886 12.4998 79.3037 12.4998C79.6188 12.4998 80.0389 12.4998 80.4591 12.3948C80.4591 12.92 80.3541 13.1301 80.3541 13.5502C80.0389 13.5502 79.7238 13.4452 79.4087 13.4452C79.0936 13.4452 78.7785 13.4452 78.4634 13.4452C78.3583 13.4452 78.2533 13.4452 78.1482 13.4452C78.0432 13.8653 78.0432 14.1804 77.9382 14.6006C77.9382 15.0207 77.8331 15.4409 77.8331 15.756C77.8331 15.8611 77.8331 15.8611 77.8331 15.9661C77.9382 15.9661 78.0432 15.9661 78.2533 15.9661C78.3583 15.9661 78.4634 15.9661 78.6734 15.9661C78.7785 15.9661 78.8835 15.9661 78.9886 15.9661C79.0936 15.9661 79.1986 15.9661 79.4087 15.9661C79.5137 16.3862 79.5137 16.5963 79.4087 17.0165Z" fill="#EF138B"/>
<path opacity="0.62" d="M38.654 28.1505C38.654 28.1505 50.4183 24.1591 71.7412 23.0037V27.2052C71.7412 27.2052 57.561 26.785 37.8137 31.3017L38.654 28.1505Z" fill="url(#paint4_linear)"/>
<path opacity="0.62" d="M33.4019 60.9226C33.4019 60.9226 48.1073 58.9269 67.2244 58.7168V62.1831C67.2244 62.1831 53.0442 61.7629 32.3516 64.4939L33.4019 60.9226Z" fill="url(#paint5_linear)"/>
<path opacity="0.62" d="M31.6164 76.8885C31.6164 76.8885 46.6369 75.313 65.754 75.1029V78.044C65.754 78.044 52.7292 77.939 31.1963 79.9347L31.6164 76.8885Z" fill="url(#paint6_linear)"/>
<path opacity="0.62" d="M35.9231 44.2214C35.9231 44.2214 50.6285 41.4904 70.4807 40.7551L70.1656 44.6416C70.1656 44.6416 56.5106 44.3265 35.0828 47.3726L35.9231 44.2214Z" fill="url(#paint7_linear)"/>
<path d="M36.0281 41.5956L37.7087 33.0875H37.8137C38.0238 33.0875 56.3005 28.3607 78.1485 28.3607C78.4636 28.3607 78.6737 28.3607 78.9888 28.3607H79.0939V37.7091H78.9888C78.7788 37.7091 58.0862 38.2343 36.2382 41.5956H36.0281ZM37.9188 33.2975L36.3432 41.3855C57.3509 38.2343 77.3082 37.6041 78.8838 37.4991V28.5708C78.6737 28.5708 78.3586 28.5708 78.1485 28.5708C57.0358 28.6758 39.1792 32.9824 37.9188 33.2975Z" fill="url(#paint8_linear)"/>
<path d="M33.2971 59.1368V59.0318L34.9777 50.3136H35.0828C35.2928 50.3136 56.0905 47.0574 77.8334 47.0574C78.2536 47.0574 78.5687 47.0574 78.9889 47.0574H79.0939V57.036H78.9889C78.6738 57.036 56.0905 57.036 33.5072 59.1368H33.2971ZM35.1878 50.4186L33.6122 58.8217C55.4602 56.826 77.2032 56.7209 78.8838 56.7209V47.1624C57.456 47.1624 36.5533 50.2085 35.1878 50.4186Z" fill="url(#paint9_linear)"/>
<path d="M30.7759 75.2078V75.1028L32.2464 66.8048H32.3515C32.5615 66.8048 55.7751 64.2838 77.413 64.2838C77.9382 64.2838 78.3583 64.2838 78.8835 64.2838H78.9886V74.0524H78.8835C78.6735 74.0524 54.7247 73.002 30.8809 75.3129L30.7759 75.2078ZM32.4565 66.9098L31.091 74.8927C54.0944 72.7919 77.0979 73.6322 78.8835 73.7373V64.3889C78.4634 64.3889 77.9382 64.3889 77.518 64.3889C56.4053 64.3889 33.927 66.6997 32.4565 66.9098Z" fill="url(#paint10_linear)"/>
<path d="M28.6753 90.3333V90.2283L30.1458 81.9302H30.2509C30.566 81.9302 57.2458 78.569 78.9888 80.2496H79.0938V89.1779H78.9888C78.7787 89.1779 52.6241 88.2326 28.7803 90.4384L28.6753 90.3333ZM30.2509 82.1403L28.8854 90.1232C51.8888 88.0225 76.993 88.7578 78.7787 88.8628V80.3547C57.771 78.7791 31.9315 81.9302 30.2509 82.1403Z" fill="url(#paint11_linear)"/>
<path d="M102.412 102.203C91.3833 98.5262 79.0938 98.6313 78.9888 98.6313V98.4212C79.0938 98.4212 91.4883 98.2111 102.517 101.993L102.412 102.203Z" fill="url(#paint12_linear)"/>
<path opacity="0.3" d="M105.774 104.829C70.5856 96.9508 20.7974 104.829 20.7974 104.829L34.1373 16.8064C34.1373 16.8064 28.3601 75.3128 37.7086 88.9678C48.3175 104.409 83.9255 101.888 90.543 86.4469C98.736 67.3299 100.522 12.0797 100.417 8.40332L105.774 104.829Z" fill="url(#paint13_linear)"/>
<path d="M60.082 6.93266L60.8173 9.03343L76.8882 8.08809L77.3083 6.19739C77.3083 6.19739 71.8463 5.88227 60.082 6.93266Z" fill="url(#paint14_linear)"/>
<path d="M48.5276 108.82C48.5276 108.82 97.1604 106.929 110.605 108.82H48.5276Z" fill="#9A7DF8"/>
<path d="M113.336 69.7457L119.639 58.5066L123 61.5527L117.013 69.7457H113.336Z" fill="#9A7DF8"/>
<path d="M11.1341 38.0239L12.9197 33.6123L4.72673 27.8352L0 31.3015L11.1341 38.0239Z" fill="#4F31E0"/>
<path d="M23.8438 2.41587L31.7216 0L33.5073 3.5713L23.8438 4.51664V2.41587Z" fill="#FF1D9C"/>
<path d="M105.879 13.9701L117.013 7.98291L118.168 12.7096L106.719 16.5961L105.879 13.9701Z" fill="#6877FF"/>
<defs>
<linearGradient id="paint0_linear" x1="63.6033" y1="117.539" x2="63.6033" y2="108.841" gradientUnits="userSpaceOnUse">
<stop stop-color="#1C257B"/>
<stop offset="1" stop-color="#482C83"/>
</linearGradient>
<linearGradient id="paint1_linear" x1="63.6033" y1="108.841" x2="63.6033" y2="16.8364" gradientUnits="userSpaceOnUse">
<stop stop-color="#744FD8"/>
<stop offset="1" stop-color="#3996F7"/>
</linearGradient>
<linearGradient id="paint2_linear" x1="67.5656" y1="13.2804" x2="67.5656" y2="6.13344" gradientUnits="userSpaceOnUse">
<stop stop-color="#1C257B"/>
<stop offset="1" stop-color="#482C83"/>
</linearGradient>
<linearGradient id="paint3_linear" x1="63.3257" y1="104.816" x2="63.3257" y2="8.15113" gradientUnits="userSpaceOnUse">
<stop stop-color="#D1BBFF"/>
<stop offset="1" stop-color="white"/>
</linearGradient>
<linearGradient id="paint4_linear" x1="37.8616" y1="27.1367" x2="71.774" y2="27.1367" gradientUnits="userSpaceOnUse">
<stop stop-color="#8B8BE0"/>
<stop offset="1" stop-color="#A177B7"/>
</linearGradient>
<linearGradient id="paint5_linear" x1="32.4495" y1="61.6184" x2="67.2805" y2="61.6184" gradientUnits="userSpaceOnUse">
<stop stop-color="#8B8BE0"/>
<stop offset="1" stop-color="#A177B7"/>
</linearGradient>
<linearGradient id="paint6_linear" x1="31.2181" y1="77.4669" x2="65.7815" y2="77.4669" gradientUnits="userSpaceOnUse">
<stop stop-color="#8B8BE0"/>
<stop offset="1" stop-color="#A177B7"/>
</linearGradient>
<linearGradient id="paint7_linear" x1="35.0862" y1="44.0202" x2="70.4839" y2="44.0202" gradientUnits="userSpaceOnUse">
<stop stop-color="#8B8BE0"/>
<stop offset="1" stop-color="#A177B7"/>
</linearGradient>
<linearGradient id="paint8_linear" x1="36.0741" y1="35.0275" x2="79.0594" y2="35.0275" gradientUnits="userSpaceOnUse">
<stop stop-color="#8B8BE0"/>
<stop offset="1" stop-color="#A177B7"/>
</linearGradient>
<linearGradient id="paint9_linear" x1="33.3143" y1="53.0649" x2="79.0595" y2="53.0649" gradientUnits="userSpaceOnUse">
<stop stop-color="#8B8BE0"/>
<stop offset="1" stop-color="#A177B7"/>
</linearGradient>
<linearGradient id="paint10_linear" x1="30.8241" y1="69.6625" x2="79.0592" y2="69.6625" gradientUnits="userSpaceOnUse">
<stop stop-color="#8B8BE0"/>
<stop offset="1" stop-color="#A177B7"/>
</linearGradient>
<linearGradient id="paint11_linear" x1="28.6565" y1="85.0348" x2="79.0593" y2="85.0348" gradientUnits="userSpaceOnUse">
<stop stop-color="#8B8BE0"/>
<stop offset="1" stop-color="#A177B7"/>
</linearGradient>
<linearGradient id="paint12_linear" x1="78.9535" y1="100.337" x2="102.492" y2="100.337" gradientUnits="userSpaceOnUse">
<stop stop-color="#8B8BE0"/>
<stop offset="1" stop-color="#A177B7"/>
</linearGradient>
<linearGradient id="paint13_linear" x1="63.3257" y1="104.816" x2="63.3257" y2="8.42422" gradientUnits="userSpaceOnUse">
<stop stop-color="#8B8BE0"/>
<stop offset="1" stop-color="white"/>
</linearGradient>
<linearGradient id="paint14_linear" x1="60.1203" y1="7.61604" x2="77.3476" y2="7.61604" gradientUnits="userSpaceOnUse">
<stop stop-color="#B9ACF4"/>
<stop offset="1" stop-color="#E1D1F5"/>
</linearGradient>
</defs>
</svg>
