<svg width="137" height="162" viewBox="0 0 137 162" fill="none" xmlns="http://www.w3.org/2000/svg">
<path d="M5.44639 159.037L0.912323 148.76H136.027L133.911 161.304C133.911 161.304 65.296 156.317 5.44639 159.037Z" fill="url(#paint0_linear)"/>
<path d="M0.912323 148.76L20.8622 21.9575L122.123 16.3655L136.179 148.76H0.912323Z" fill="url(#paint1_linear)"/>
<path d="M52.6006 11.2269V3.8213C52.6006 3.8213 73.9107 -0.863913 95.9764 1.70539L95.2207 8.95989C95.0696 8.95989 77.2356 6.99513 52.6006 11.2269Z" fill="url(#paint2_linear)"/>
<path d="M52.6006 11.227L55.0187 12.7383L92.3492 11.227L95.2207 8.95992C95.0696 8.95992 74.8175 6.39062 52.6006 11.227Z" fill="#140047"/>
<path opacity="0.86" d="M11.9452 142.261L129.226 143.017L118.193 22.8644L34.011 21.353L11.9452 142.261Z" fill="#9ABAB3"/>
<path d="M129.226 143.017C78.5959 131.682 6.95767 143.017 6.95767 143.017L26.1519 16.3655C75.1197 1.85651 121.669 3.97239 121.669 3.97239V4.27468L129.226 143.017Z" fill="url(#paint3_linear)"/>
<path d="M66.2028 15.0053C66.2028 15.3076 66.0517 15.6099 66.0517 15.9121C65.9006 16.2144 65.7494 16.5167 65.4472 16.8189C65.1449 17.1212 64.9938 17.4235 64.5404 17.7258C64.2381 18.028 63.7847 18.3303 63.3313 18.4814C63.7847 18.4814 64.087 18.6326 64.2381 18.7837C64.5404 18.9348 64.6915 19.086 64.6915 19.2371C64.8426 19.3882 64.8426 19.5394 64.8426 19.6905C64.8426 19.8417 64.8426 19.9928 64.8426 20.1439C64.8426 20.4462 64.6915 20.8996 64.5404 21.0507C64.3892 21.353 64.087 21.6553 63.9358 21.8064C63.6335 21.9575 63.3313 22.2598 63.029 22.411C62.7267 22.5621 62.4245 22.7132 62.1222 22.8643C61.8199 23.0155 61.5177 23.0155 61.2154 23.1666C60.9131 23.1666 60.762 23.3178 60.6108 23.3178C60.4597 23.3178 60.1574 23.3178 60.0063 23.3178C59.8552 23.3178 59.704 23.3178 59.4018 23.3178C59.2506 23.3178 58.9483 23.3178 58.7972 23.3178C58.9483 22.4109 58.9484 21.5041 59.0995 20.5973C59.2506 19.3882 59.2506 18.1792 59.2506 17.1212C59.2506 15.9121 59.2506 14.8542 59.0995 13.6451C59.4018 13.494 59.704 13.3428 60.1574 13.3428C60.4597 13.1917 60.762 13.1917 61.0642 13.0405C61.3665 12.8894 61.6688 12.8894 61.9711 12.8894C62.1222 12.8894 62.4245 12.8894 62.7267 12.7383C63.029 12.7383 63.3313 12.7383 63.6336 12.7383C63.9358 12.7383 64.2381 12.8894 64.5404 12.8894C64.8426 13.0406 65.1449 13.0406 65.296 13.3428C65.4472 13.494 65.7494 13.7962 65.7494 13.9474C66.2029 14.2496 66.2028 14.5519 66.2028 15.0053ZM63.1801 20.4462C63.1801 20.2951 63.1801 19.9928 63.029 19.8416L62.8779 19.6905C62.8779 19.6905 62.7267 19.5394 62.5756 19.5394C62.4245 19.5394 62.2733 19.3883 62.1222 19.3883C61.9711 19.3883 61.8199 19.3883 61.5177 19.3883C61.5177 19.8417 61.3665 20.4462 61.3665 20.8996C61.3665 21.353 61.2154 21.8064 61.2154 22.411C61.3665 22.2598 61.6688 22.2598 61.8199 22.1087C61.9711 21.9575 62.1222 21.9575 62.2733 21.8064C62.4245 21.6553 62.5756 21.6553 62.5756 21.5041C62.7267 21.353 62.7267 21.353 62.8779 21.2019C63.029 20.8996 63.1801 20.5973 63.1801 20.4462ZM64.087 15.6099C64.087 15.4587 64.087 15.3076 64.087 15.1565C64.087 15.0053 64.087 14.8542 63.9358 14.703C63.9358 14.5519 63.7847 14.4008 63.6336 14.2496C63.4824 14.0985 63.3313 14.0985 63.029 13.9474C62.7267 13.9474 62.4245 13.9474 62.1222 13.9474C61.9711 14.703 61.9711 15.4587 61.8199 16.3655C61.6688 17.1212 61.6688 17.8769 61.5177 18.6326C61.8199 18.4814 61.9711 18.3303 62.2733 18.1792C62.4245 18.028 62.7267 17.8769 62.8779 17.7258C63.029 17.5746 63.1801 17.4235 63.3313 17.2723C63.4824 17.1212 63.4824 16.9701 63.6336 16.8189C63.9358 16.5167 63.9358 16.0633 64.087 15.6099Z" fill="#EF138B"/>
<path d="M73.6085 14.2496C73.6085 14.5519 73.4573 14.8542 73.4573 15.1564C73.3062 15.4587 73.155 15.761 73.0039 16.2144C72.7016 16.5167 72.5505 16.8189 72.0971 17.1212C71.7948 17.4235 71.3414 17.7257 70.888 17.8769C71.1903 18.4814 71.6437 19.086 72.0971 19.6905C72.5505 20.295 73.0039 20.7484 73.6085 21.353C72.5505 21.5041 71.946 21.5041 70.888 21.8064C70.2835 20.4462 69.9812 19.8416 69.2255 18.6326C69.2255 19.2371 69.2255 19.8416 69.2255 20.295C69.2255 20.8996 69.2255 21.353 69.2255 21.9575C68.1676 22.1087 67.563 22.1087 66.5051 22.2598C66.6562 21.2018 66.8074 20.1439 66.9585 18.9348C67.1096 17.8769 67.2608 16.8189 67.2608 15.6098C67.2608 15.0053 67.4119 14.4007 67.4119 13.7962C67.4119 13.1917 67.4119 12.5871 67.4119 11.9826C67.8653 11.8315 68.1676 11.6803 68.621 11.6803C69.0744 11.5292 69.3767 11.5292 69.6789 11.5292C69.8301 11.5292 70.1323 11.5292 70.4346 11.5292C70.7369 11.5292 71.0392 11.5292 71.3414 11.5292C71.6437 11.5292 71.946 11.6803 72.2482 11.8315C72.5505 11.9826 72.8528 12.1337 73.0039 12.2849C73.155 12.436 73.4573 12.7383 73.4573 13.0405C73.6085 13.3428 73.7596 13.7962 73.6085 14.2496ZM69.2255 17.4235C69.5278 17.2723 69.6789 17.2723 69.9812 17.1212C70.1323 16.9701 70.4346 16.8189 70.5857 16.6678C70.7369 16.5167 70.888 16.3655 71.0392 16.2144C71.1903 16.0632 71.1903 15.9121 71.3414 15.761C71.4926 15.4587 71.6437 15.1564 71.6437 14.703C71.6437 14.703 71.6437 14.703 71.6437 14.5519C71.6437 14.4007 71.6437 14.2496 71.6437 14.0985C71.6437 13.9474 71.6437 13.7962 71.4926 13.6451C71.4926 13.4939 71.3414 13.3428 71.1903 13.1917C71.0392 13.0405 70.888 12.8894 70.7369 12.7383C70.5857 12.5871 70.2835 12.5871 69.9812 12.5871C69.8301 13.3428 69.6789 14.0985 69.5278 14.8542C69.3767 15.6098 69.3767 16.3655 69.2255 17.1212C69.2255 17.2723 69.2255 17.2723 69.2255 17.4235Z" fill="#EF138B"/>
<path d="M78.5959 20.8997C78.2937 20.8997 77.9914 20.8997 77.6891 20.8997C77.3868 20.8997 77.0846 20.8997 76.7823 20.8997C76.3289 20.8997 75.8755 21.0508 75.2709 21.0508C74.8175 21.0508 74.3641 21.2019 73.7596 21.2019C73.7596 20.5974 73.9107 20.2951 73.9107 19.6906C74.0619 19.6906 74.213 19.6906 74.3641 19.6906C74.5153 19.6906 74.6664 19.6906 74.8175 19.6906C74.9687 18.9349 74.9687 18.1792 75.1198 17.4236C75.2709 16.6679 75.2709 15.9122 75.4221 15.1565C75.4221 14.7031 75.4221 14.0986 75.5732 13.6452C75.5732 13.1918 75.5732 12.7384 75.5732 12.1338C75.4221 12.1338 75.1198 12.1338 74.9687 12.1338C74.8175 12.1338 74.5153 12.1338 74.3641 12.2849C74.3641 11.6804 74.5153 11.3781 74.5153 10.7736C75.1198 10.7736 75.5732 10.6225 76.1777 10.6225C76.7823 10.6225 77.3868 10.4713 77.8402 10.4713C77.9914 10.4713 78.2936 10.4713 78.4448 10.4713C78.5959 10.4713 78.8982 10.4713 79.0493 10.4713C78.8982 11.0759 78.8982 11.3781 78.8982 11.9827C78.7471 11.9827 78.5959 11.9827 78.4448 11.9827C78.2936 11.9827 78.1425 11.9827 77.9914 11.9827C77.8402 12.8895 77.6891 13.7963 77.538 14.552C77.3868 15.4588 77.3868 16.2145 77.2357 17.1213C77.2357 17.877 77.0846 18.6326 77.0846 19.3883C77.3868 19.3883 77.538 19.3883 77.8402 19.3883C78.1425 19.3883 78.2937 19.3883 78.5959 19.3883C78.7471 19.9929 78.7471 20.2951 78.5959 20.8997Z" fill="#EF138B"/>
<path d="M84.4901 16.8189C84.1878 16.8189 84.0367 16.8189 83.7344 16.8189C83.4322 16.8189 83.281 16.8189 82.9788 16.8189C82.8276 16.8189 82.6765 16.8189 82.5254 16.8189C82.3742 16.8189 82.2231 16.8189 82.072 16.8189C81.9208 17.8769 81.9208 18.3303 81.7697 19.3882C82.3742 19.3882 82.9788 19.2371 83.5833 19.2371C84.1878 19.2371 84.7924 19.0859 85.3969 19.0859C85.3969 19.6905 85.2458 19.9928 85.2458 20.5973C84.7924 20.5973 84.4901 20.5973 84.0367 20.5973C83.5833 20.5973 83.281 20.5973 82.8276 20.5973C82.2231 20.5973 81.6185 20.5973 81.1651 20.7484C80.5606 20.7484 79.9561 20.8996 79.5027 20.8996C79.6538 19.9928 79.8049 19.086 79.9561 18.1791C80.1072 17.2723 80.1072 16.3655 80.2583 15.4587C80.2583 14.5519 80.4095 13.7962 80.4095 12.8894C80.4095 11.9826 80.4095 11.2269 80.4095 10.3201C81.3163 10.3201 82.072 10.3201 82.8276 10.169C83.281 10.169 83.8856 10.169 84.339 10.0178C84.7924 10.0178 85.3969 9.8667 86.0015 9.8667C86.0015 10.4712 85.8503 10.9246 85.8503 11.5292C85.3969 11.5292 84.9435 11.5292 84.4901 11.5292C84.0367 11.5292 83.5833 11.5292 83.1299 11.5292C82.9788 11.5292 82.8276 11.5292 82.6765 11.5292C82.5254 12.1337 82.3742 12.7383 82.3742 13.3428C82.2231 13.9474 82.072 15.0053 82.2231 15.1564C82.2231 15.1564 82.6765 15.1564 82.8276 15.1564C82.9788 15.1564 83.281 15.1564 83.4322 15.1564C83.5833 15.1564 83.7344 15.1564 83.8856 15.1564C84.0367 15.1564 84.1878 15.1564 84.4901 15.1564C84.6413 15.9121 84.6413 16.2144 84.4901 16.8189Z" fill="#EF138B"/>
<path d="M91.2912 16.6678C90.9889 16.6678 90.8378 16.6678 90.5355 16.6678C90.2333 16.6678 90.0821 16.6678 89.7799 16.6678C89.6287 16.6678 89.4776 16.6678 89.3265 16.6678C89.1753 16.6678 89.0242 16.6678 88.873 16.6678C88.7219 18.3303 88.7219 19.086 88.7219 20.7484C88.5708 20.7484 88.4196 20.7484 88.1174 20.7484C87.9662 20.7484 87.664 20.7484 87.5128 20.7484C87.3617 20.7484 87.2106 20.7484 87.0594 20.7484C86.9083 20.7484 86.7572 20.7484 86.606 20.7484C86.4549 20.7484 86.3038 20.7484 86.1526 20.7484C86.3038 19.8416 86.4549 18.9348 86.606 18.028C86.7572 17.1212 86.7572 16.2144 86.9083 15.3076C87.0594 14.4007 87.0594 13.4939 87.0594 12.7383C87.0594 11.8315 87.0594 11.0758 87.0594 10.169C87.9662 10.169 88.7219 10.169 89.6287 10.169C90.0821 10.169 90.6867 10.169 91.1401 10.169C91.5935 10.169 92.198 10.169 92.8026 10.0178C92.8026 10.7735 92.6514 11.0758 92.6514 11.6803C92.198 11.6803 91.7446 11.5292 91.2912 11.5292C90.8378 11.5292 90.3844 11.5292 89.931 11.5292C89.7799 11.5292 89.6287 11.5292 89.4776 11.5292C89.3265 12.1337 89.3265 12.5871 89.1753 13.1917C89.1753 13.7962 89.0242 14.4008 89.0242 14.8542C89.0242 15.0053 89.0242 15.0053 89.0242 15.1564C89.1753 15.1564 89.3265 15.1564 89.6287 15.1564C89.7799 15.1564 89.931 15.1564 90.2333 15.1564C90.3844 15.1564 90.5355 15.1564 90.6867 15.1564C90.8378 15.1564 90.9889 15.1564 91.2912 15.1564C91.4423 15.761 91.4423 16.0633 91.2912 16.6678Z" fill="#EF138B"/>
<path opacity="0.62" d="M32.6507 32.6882C32.6507 32.6882 49.5778 26.945 80.2583 25.2825V31.3279C80.2583 31.3279 59.855 30.7234 31.4416 37.2222L32.6507 32.6882Z" fill="url(#paint4_linear)"/>
<path opacity="0.62" d="M25.0939 79.8425C25.0939 79.8425 46.2529 76.9709 73.7595 76.6686V81.6561C73.7595 81.6561 53.3563 81.0516 23.5826 84.9811L25.0939 79.8425Z" fill="url(#paint5_linear)"/>
<path opacity="0.62" d="M22.5247 102.815C22.5247 102.815 44.137 100.548 71.6437 100.246V104.478C71.6437 104.478 52.9029 104.327 21.9201 107.198L22.5247 102.815Z" fill="url(#paint6_linear)"/>
<path opacity="0.62" d="M28.7212 55.8118C28.7212 55.8118 49.8801 51.8822 78.4447 50.8243L77.9913 56.4163C77.9913 56.4163 58.3437 55.9629 27.5121 60.3458L28.7212 55.8118Z" fill="url(#paint7_linear)"/>
<path d="M28.8724 52.0335L31.2905 39.7915H31.4417C31.7439 39.7915 58.0415 32.9904 89.4777 32.9904C89.9311 32.9904 90.2334 32.9904 90.6868 32.9904H90.8379V46.4415H90.6868C90.3845 46.4415 60.6108 47.1972 29.1746 52.0335H28.8724ZM31.5928 40.0938L29.3258 51.7312C59.5529 47.1971 88.2686 46.2903 90.5356 46.1392V33.2927C90.2333 33.2927 89.7799 33.2927 89.4777 33.2927C59.0995 33.4438 33.4064 39.6403 31.5928 40.0938Z" fill="url(#paint8_linear)"/>
<path d="M24.9429 77.2729V77.1218L27.361 64.5775H27.5122C27.8144 64.5775 57.7392 59.8923 89.0243 59.8923C89.6288 59.8923 90.0822 59.8923 90.6868 59.8923H90.8379V74.2502H90.6868C90.2334 74.2502 57.7393 74.2502 25.2451 77.2729H24.9429ZM27.6633 64.7287L25.3963 76.8195C56.8324 73.9479 88.1175 73.7968 90.5356 73.7968V60.0435C59.704 60.0435 29.6281 64.4264 27.6633 64.7287Z" fill="url(#paint9_linear)"/>
<path d="M21.3155 100.397V100.246L23.4314 88.3061H23.5826C23.8848 88.3061 57.2858 84.6788 88.4196 84.6788C89.1753 84.6788 89.7799 84.6788 90.5355 84.6788H90.6867V98.7345H90.5355C90.2333 98.7345 55.7744 97.2231 21.4667 100.548L21.3155 100.397ZM23.7337 88.4572L21.7689 99.9435C54.8676 96.9208 87.9662 98.1299 90.5355 98.281V84.83C89.931 84.83 89.1753 84.83 88.5708 84.83C58.1926 84.83 25.8496 88.1549 23.7337 88.4572Z" fill="url(#paint10_linear)"/>
<path d="M18.2929 122.16V122.009L20.4088 110.07H20.5599C21.0133 110.07 59.4017 105.233 90.6868 107.651H90.8379V120.498H90.6868C90.3845 120.498 52.7518 119.138 18.444 122.311L18.2929 122.16ZM20.5599 110.372L18.5952 121.858C51.6938 118.835 87.8152 119.893 90.3845 120.044V107.802C60.1574 105.535 22.9781 110.069 20.5599 110.372Z" fill="url(#paint11_linear)"/>
<path d="M124.39 139.238C108.521 133.949 90.8379 134.1 90.6868 134.1V133.798C90.8379 133.798 108.672 133.495 124.541 138.936L124.39 139.238Z" fill="url(#paint12_linear)"/>
<path opacity="0.3" d="M129.226 143.017C78.5959 131.682 6.95767 143.017 6.95767 143.017L26.1519 16.3656C26.1519 16.3656 17.8394 100.548 31.2905 120.196C46.5551 142.412 97.7901 138.785 107.312 116.568C119.1 89.0617 121.669 9.56446 121.518 4.27472L129.226 143.017Z" fill="url(#paint13_linear)"/>
<path d="M63.4824 2.15869L64.5403 5.1814L87.6641 3.82119L88.2686 1.10075C88.2686 1.10075 80.4096 0.647338 63.4824 2.15869Z" fill="url(#paint14_linear)"/>
<path d="M46.8575 148.76C46.8575 148.76 116.833 146.04 136.178 148.76H46.8575Z" fill="#9A7DF8"/>
<defs>
<linearGradient id="paint0_linear" x1="68.5492" y1="161.306" x2="68.5492" y2="148.79" gradientUnits="userSpaceOnUse">
<stop stop-color="#1C257B"/>
<stop offset="1" stop-color="#482C83"/>
</linearGradient>
<linearGradient id="paint1_linear" x1="68.5492" y1="148.79" x2="68.5492" y2="16.4087" gradientUnits="userSpaceOnUse">
<stop stop-color="#744FD8"/>
<stop offset="1" stop-color="#3996F7"/>
</linearGradient>
<linearGradient id="paint2_linear" x1="74.2504" y1="11.2922" x2="74.2504" y2="1.00881" gradientUnits="userSpaceOnUse">
<stop stop-color="#1C257B"/>
<stop offset="1" stop-color="#482C83"/>
</linearGradient>
<linearGradient id="paint3_linear" x1="68.1498" y1="142.999" x2="68.1498" y2="3.91194" gradientUnits="userSpaceOnUse">
<stop stop-color="#D1BBFF"/>
<stop offset="1" stop-color="white"/>
</linearGradient>
<linearGradient id="paint4_linear" x1="31.5105" y1="31.2294" x2="80.3056" y2="31.2294" gradientUnits="userSpaceOnUse">
<stop stop-color="#8B8BE0"/>
<stop offset="1" stop-color="#A177B7"/>
</linearGradient>
<linearGradient id="paint5_linear" x1="23.7234" y1="80.8436" x2="73.8404" y2="80.8436" gradientUnits="userSpaceOnUse">
<stop stop-color="#8B8BE0"/>
<stop offset="1" stop-color="#A177B7"/>
</linearGradient>
<linearGradient id="paint6_linear" x1="21.9516" y1="103.647" x2="71.6833" y2="103.647" gradientUnits="userSpaceOnUse">
<stop stop-color="#8B8BE0"/>
<stop offset="1" stop-color="#A177B7"/>
</linearGradient>
<linearGradient id="paint7_linear" x1="27.5171" y1="55.5222" x2="78.4492" y2="55.5222" gradientUnits="userSpaceOnUse">
<stop stop-color="#8B8BE0"/>
<stop offset="1" stop-color="#A177B7"/>
</linearGradient>
<linearGradient id="paint8_linear" x1="28.9386" y1="42.583" x2="90.7883" y2="42.583" gradientUnits="userSpaceOnUse">
<stop stop-color="#8B8BE0"/>
<stop offset="1" stop-color="#A177B7"/>
</linearGradient>
<linearGradient id="paint9_linear" x1="24.9677" y1="68.5364" x2="90.7883" y2="68.5364" gradientUnits="userSpaceOnUse">
<stop stop-color="#8B8BE0"/>
<stop offset="1" stop-color="#A177B7"/>
</linearGradient>
<linearGradient id="paint10_linear" x1="21.3849" y1="92.418" x2="90.7882" y2="92.418" gradientUnits="userSpaceOnUse">
<stop stop-color="#8B8BE0"/>
<stop offset="1" stop-color="#A177B7"/>
</linearGradient>
<linearGradient id="paint11_linear" x1="18.2659" y1="114.536" x2="90.7883" y2="114.536" gradientUnits="userSpaceOnUse">
<stop stop-color="#8B8BE0"/>
<stop offset="1" stop-color="#A177B7"/>
</linearGradient>
<linearGradient id="paint12_linear" x1="90.636" y1="136.555" x2="124.505" y2="136.555" gradientUnits="userSpaceOnUse">
<stop stop-color="#8B8BE0"/>
<stop offset="1" stop-color="#A177B7"/>
</linearGradient>
<linearGradient id="paint13_linear" x1="68.1498" y1="142.999" x2="68.1498" y2="4.30479" gradientUnits="userSpaceOnUse">
<stop stop-color="#8B8BE0"/>
<stop offset="1" stop-color="white"/>
</linearGradient>
<linearGradient id="paint14_linear" x1="63.5374" y1="3.14198" x2="88.3251" y2="3.14198" gradientUnits="userSpaceOnUse">
<stop stop-color="#B9ACF4"/>
<stop offset="1" stop-color="#E1D1F5"/>
</linearGradient>
</defs>
</svg>
