<svg width="125" height="126" viewBox="0 0 125 126" fill="none" xmlns="http://www.w3.org/2000/svg">
<path fill-rule="evenodd" clip-rule="evenodd" d="M80.1302 116.232L124.378 37.4232L36.9835 0L0.000488281 75.0665L80.1302 116.232Z" fill="url(#paint0_radial)"/>
<path fill-rule="evenodd" clip-rule="evenodd" d="M124.377 37.4232L124.817 45.5683L80.57 125.698L80.1297 116.232L124.377 37.4232Z" fill="url(#paint1_linear)"/>
<path fill-rule="evenodd" clip-rule="evenodd" d="M69.5633 48.2099C69.5633 48.2099 69.123 35.6621 58.3363 29.4983C56.5752 28.6177 53.9337 27.0768 53.4934 26.8566C40.7255 22.8942 36.5428 40.0648 40.5053 52.8328C44.4677 66.041 52.1725 71.7645 54.1538 77.488L69.5633 48.2099Z" fill="url(#paint2_linear)"/>
<path fill-rule="evenodd" clip-rule="evenodd" d="M69.5637 48.2099C69.5637 48.2099 74.1865 38.0836 83.6524 42.2662C86.5142 43.587 90.2565 46.0085 91.1371 46.4488C103.245 54.3737 95.5398 70.0034 82.3316 74.4061C69.3436 78.8088 60.0979 75.9471 54.1542 77.488L48.6508 74.6262L69.5637 48.2099Z" fill="url(#paint3_linear)"/>
<path fill-rule="evenodd" clip-rule="evenodd" d="M64.0595 45.3481C64.0595 45.3481 64.2796 31.2594 52.8325 26.6365C39.4041 21.3532 31.0389 36.7628 35.2215 49.971C39.184 63.1792 46.8888 68.9027 48.87 74.6263L64.0595 45.3481Z" fill="url(#paint4_linear)"/>
<path fill-rule="evenodd" clip-rule="evenodd" d="M64.0595 45.3481C64.0595 45.3481 75.2865 36.9829 85.6329 43.587C97.7404 51.5119 90.0356 67.1416 76.8274 71.5443C63.8394 75.9471 54.5936 73.0853 48.65 74.6262L64.0595 45.3481Z" fill="url(#paint5_linear)"/>
<path fill-rule="evenodd" clip-rule="evenodd" d="M6.10352e-05 75.0665L4.84309 84.5324L80.5701 125.698L80.1298 116.232L6.10352e-05 75.0665Z" fill="url(#paint6_linear)"/>
<defs>
<radialGradient id="paint0_radial" cx="0" cy="0" r="1" gradientUnits="userSpaceOnUse" gradientTransform="translate(72.5739 35.4559) rotate(-152.787) scale(64.9561)">
<stop stop-color="#5178FE"/>
<stop offset="0.9944" stop-color="#713592"/>
</radialGradient>
<linearGradient id="paint1_linear" x1="74.5885" y1="121.627" x2="130.192" y2="41.5077" gradientUnits="userSpaceOnUse">
<stop offset="0.00558659" stop-color="#530E68"/>
<stop offset="1" stop-color="#60309D"/>
</linearGradient>
<linearGradient id="paint2_linear" x1="49.7228" y1="76.8745" x2="57.0307" y2="27.2903" gradientUnits="userSpaceOnUse">
<stop offset="0.00558659" stop-color="#530E68"/>
<stop offset="1" stop-color="#60309D"/>
</linearGradient>
<linearGradient id="paint3_linear" x1="55.8205" y1="81.8023" x2="92.1771" y2="46.7454" gradientUnits="userSpaceOnUse">
<stop offset="0.00558659" stop-color="#530E68"/>
<stop offset="1" stop-color="#60309D"/>
</linearGradient>
<linearGradient id="paint4_linear" x1="44.6925" y1="74.1219" x2="51.7666" y2="26.1245" gradientUnits="userSpaceOnUse">
<stop offset="0.0171145" stop-color="#D4CBE2"/>
<stop offset="1" stop-color="#F3E6EE"/>
</linearGradient>
<linearGradient id="paint5_linear" x1="52.0736" y1="77.9175" x2="86.9981" y2="44.2418" gradientUnits="userSpaceOnUse">
<stop offset="0.0171145" stop-color="#D4CBE2"/>
<stop offset="1" stop-color="#F3E6EE"/>
</linearGradient>
<linearGradient id="paint6_linear" x1="78.1028" y1="128.742" x2="3.99443" y2="70.0862" gradientUnits="userSpaceOnUse">
<stop offset="0.00558659" stop-color="#530E68"/>
<stop offset="1" stop-color="#60309D"/>
</linearGradient>
</defs>
</svg>
