<svg width="36" height="36" viewBox="0 0 36 36" fill="none" xmlns="http://www.w3.org/2000/svg">
<path d="M34.4519 14.6704L33.288 14.0343C32.9979 13.8683 32.6287 13.9691 32.463 14.2593C32.2973 14.549 32.3979 14.9183 32.688 15.0843L33.8461 15.7204C34.4297 16.0311 34.7957 16.637 34.8 17.2982V17.4001L24.0719 26.4901L20.1658 22.416C19.6001 21.8258 18.8177 21.4918 18 21.4918C17.1823 21.4918 16.3997 21.8258 15.8341 22.416L11.928 26.4901L1.2 17.4001V17.2921C1.20141 16.6382 1.55742 16.0363 2.13 15.7204L3.28804 15.0843C3.57797 14.9183 3.67875 14.549 3.51304 14.2593C3.34758 13.9691 2.97797 13.8683 2.68805 14.0343L1.54805 14.6704C0.592032 15.1991 -0.000936389 16.2058 1.11002e-06 17.2982V33.0001C1.11002e-06 34.6569 1.3432 36.0001 3 36.0001H33C34.6568 36.0001 36 34.6569 36 33.0001V17.2982C36.0009 16.2058 35.4079 15.1991 34.4519 14.6704ZM1.2 33.0001V18.9782L11.0941 27.3779L5.4 33.2943L3.94195 34.8001H3C2.00601 34.8001 1.2 33.9941 1.2 33.0001ZM5.6039 34.8001L16.698 23.2201C17.4185 22.5048 18.5815 22.5048 19.3019 23.2201L30.3961 34.8001H5.6039ZM34.8 33.0001C34.8 33.9941 33.994 34.8001 33 34.8001H32.058L30.5158 33.1921L24.9058 27.3601L34.8 18.9782V33.0001Z" fill="#818181"/>
<path d="M0.599999 5.99999H4.79999V18.6C4.79999 18.9314 5.06859 19.2 5.39999 19.2C5.7314 19.2 5.99999 18.9314 5.99999 18.6V5.99999H21.6C21.9314 5.99999 22.2 5.7314 22.2 5.39999C22.2133 3.29484 23.7834 1.52461 25.8719 1.26C25.9064 1.24406 25.9385 1.22414 25.9678 1.2C28.2215 1.29023 30.0016 3.14437 30 5.39999V18.6C30 18.9314 30.2686 19.2 30.6 19.2C30.9314 19.2 31.2 18.9314 31.2 18.6V5.39999C31.2 2.41758 28.7824 0 25.8 0H5.39999C2.41758 0 0 2.41758 0 5.39999C0 5.7314 0.268593 5.99999 0.599999 5.99999ZM5.39999 1.2H23.01C21.9037 2.0932 21.1943 3.38695 21.0361 4.8H1.23609C1.53469 2.73117 3.30937 1.19648 5.39999 1.2Z" fill="#818181"/>
<path d="M25.2001 9H13.8001C13.4687 9 13.2001 9.26859 13.2001 9.6C13.2001 9.93141 13.4687 10.2 13.8001 10.2H25.2001C25.5315 10.2 25.8001 9.93141 25.8001 9.6C25.8001 9.26859 25.5315 9 25.2001 9Z" fill="#818181"/>
<path d="M25.7999 13.8002C25.7999 13.4688 25.5313 13.2002 25.1999 13.2002H10.8C10.4685 13.2002 10.2 13.4688 10.2 13.8002C10.2 14.1316 10.4685 14.4002 10.8 14.4002H25.1999C25.5313 14.4002 25.7999 14.1316 25.7999 13.8002Z" fill="#818181"/>
<path d="M10.8 18C10.4685 18 10.2 18.2686 10.2 18.6C10.2 18.9314 10.4685 19.2 10.8 19.2H23.3999C23.7313 19.2 23.9999 18.9314 23.9999 18.6C23.9999 18.2686 23.7313 18 23.3999 18H10.8Z" fill="#818181"/>
</svg>
