<svg width="133" height="308" viewBox="0 0 133 308" fill="none" xmlns="http://www.w3.org/2000/svg">
<path fill-rule="evenodd" clip-rule="evenodd" d="M58.4315 245.99C64.1315 236.29 82.8315 240.19 84.4315 247.79C101.432 246.99 110.232 269.89 89.3315 277.49C100.632 290.19 70.6315 308.39 60.6315 298.89C57.0315 310.59 35.9315 310.99 33.9315 299.29C23.1315 305.09 10.3315 293.59 13.7315 287.99C2.83154 290.89 -10.6685 268.59 13.5315 262.39C14.6315 253.19 25.8315 246.09 37.0315 254.29C39.3315 247.79 53.6315 240.79 58.4315 245.99Z" fill="#F4FAFC"/>
<path fill-rule="evenodd" clip-rule="evenodd" d="M98.0315 253.59C103.932 260.69 103.132 272.49 89.3316 277.49C100.632 290.19 70.6316 308.39 60.6316 298.89C57.0316 310.59 35.9316 310.99 33.9316 299.29C23.1316 305.09 10.3316 293.59 13.7316 287.99C4.63156 290.39 -6.06845 275.49 4.23155 266.79C-5.26845 277.49 8.73155 287.79 16.3316 283.79C13.1316 288.99 24.0316 304.59 36.2316 295.49C38.1316 306.49 57.9315 307.39 61.3316 294.19C70.6316 302.99 96.1316 286.39 85.6316 274.49C102.032 269.79 100.732 260.49 98.0315 253.59Z" fill="#DDE5E8"/>
<path fill-rule="evenodd" clip-rule="evenodd" d="M55.3316 242.29C60.0316 232.99 77.6315 233.49 79.5315 240.49C90.6315 239.59 98.7316 251.89 79.8316 260.19C87.4315 267.79 77.4315 274.19 69.0316 274.39C68.4316 278.49 62.3316 282.39 57.8316 280.79C54.9316 287.79 35.4316 293.29 35.0316 282.29C25.4316 286.89 20.6316 280.19 23.4316 274.79C14.1316 278.19 0.131562 264.19 22.2316 254.59C22.7316 245.99 33.0316 241.09 40.7316 245.29C42.6316 239.29 50.4316 237.69 55.3316 242.29Z" fill="#F4FAFC"/>
<path fill-rule="evenodd" clip-rule="evenodd" d="M88.0316 242.79C93.8316 246.89 92.5316 255.49 79.8316 260.19C87.4316 267.79 77.4316 274.19 69.0316 274.39C68.4316 278.49 62.3316 282.39 57.8316 280.79C54.9316 287.79 35.4316 293.29 35.0316 282.29C25.4316 286.89 20.6316 280.19 23.4316 274.79C15.3316 277.79 3.73157 267.59 15.3316 258.49C7.23157 266.29 13.8316 273.19 26.0316 272.69C22.8316 279.79 34.9316 282.49 36.9316 276.99C36.7316 288.29 53.9316 283.49 54.9316 275.89C61.5316 278.89 69.4316 275.19 67.1316 269.49C77.8316 269.79 81.8316 263.99 76.7316 258.09C86.2316 254.49 93.5316 250.29 88.0316 242.79Z" fill="#DDE5E8"/>
<path fill-rule="evenodd" clip-rule="evenodd" d="M55.3315 227.09C59.3315 219.19 74.3315 219.59 75.9315 225.59C85.4315 224.79 92.3315 235.29 76.2315 242.39C82.7315 248.79 74.2315 254.29 67.1315 254.49C66.6315 257.99 61.4315 261.29 57.6315 259.89C55.1315 265.89 38.5315 270.49 38.2315 261.19C30.1315 265.09 25.9315 259.39 28.4315 254.89C20.5315 257.79 8.63154 245.89 27.3315 237.69C27.7315 230.39 36.5315 226.19 43.1315 229.79C44.5315 224.59 51.2315 223.29 55.3315 227.09Z" fill="#F4FAFC"/>
<path fill-rule="evenodd" clip-rule="evenodd" d="M83.1315 227.59C88.0315 231.09 86.9315 238.39 76.2315 242.39C82.7315 248.79 74.2315 254.29 67.1315 254.49C66.6315 257.99 61.4315 261.29 57.6315 259.89C55.1315 265.89 38.5315 270.49 38.2315 261.19C30.1315 265.09 25.9315 259.39 28.4315 254.89C21.5315 257.39 11.6315 248.69 21.5315 241.09C14.6315 247.69 20.3315 253.59 30.6315 253.19C27.9315 259.19 38.2315 261.49 39.9315 256.89C39.7315 266.49 54.3315 262.39 55.2315 255.99C60.8315 258.59 67.5315 255.39 65.6315 250.59C74.7315 250.89 78.1315 245.89 73.7315 240.89C81.6315 237.49 87.8315 233.99 83.1315 227.59Z" fill="#DDE5E8"/>
<path fill-rule="evenodd" clip-rule="evenodd" d="M71.2315 123.79C71.6315 136.09 57.2315 211.09 70.1315 214.39C77.0315 216.19 78.3315 223.29 64.4315 229.39C62.0315 234.69 46.1315 244.99 43.2315 233.69C30.3315 234.99 34.0315 227.19 39.5315 222.19C41.1315 220.79 43.2315 219.49 44.6315 217.29C52.3315 205.39 66.2315 138.69 71.2315 123.79Z" fill="#F4FAFC"/>
<path fill-rule="evenodd" clip-rule="evenodd" d="M69.8315 130.99C68.7315 128.49 65.6316 119.29 65.4316 116.79L64.3315 119.59C61.5315 109.49 63.0316 106.19 67.7316 97.8896L83.0315 100.19C84.0315 109.89 84.6315 113.39 78.3315 122.09L78.2316 119.09C77.1316 121.39 72.0315 128.59 69.8315 130.99Z" fill="#F57113"/>
<path fill-rule="evenodd" clip-rule="evenodd" d="M71.2316 122.59C70.4316 120.89 68.3316 114.39 68.1316 112.59L67.3315 114.59C65.4315 107.49 66.3316 105.09 69.7316 99.2897L80.5315 100.89C81.2315 107.69 81.6316 110.19 77.2316 116.39L77.1316 114.29C76.4316 115.79 72.8316 120.89 71.2316 122.59Z" fill="#FA9A2C"/>
<path fill-rule="evenodd" clip-rule="evenodd" d="M72.3315 116.49C71.7315 115.19 70.1315 110.49 70.0315 109.19L69.4315 110.59C68.0315 105.39 68.7315 103.69 71.1315 99.3896L79.0315 100.59C79.5315 105.59 79.8315 107.39 76.6315 111.89V110.29C76.0315 111.49 73.4315 115.19 72.3315 116.49Z" fill="#FAC545"/>
<path fill-rule="evenodd" clip-rule="evenodd" d="M73.2316 111.19C72.8316 110.29 71.7316 106.89 71.6316 105.99L71.2316 106.99C70.2316 103.29 70.7316 102.09 72.4316 98.9897L78.0315 99.7897C78.4315 103.39 78.6315 104.59 76.3315 107.89V106.79C75.9315 107.69 74.0316 110.29 73.2316 111.19Z" fill="#FFDF94"/>
<path opacity="0.3" fill-rule="evenodd" clip-rule="evenodd" d="M82.9316 103.39C80.8316 106.29 75.8316 106.59 71.7316 105.09C71.9316 106.59 74.2316 121.59 74.0316 123.79C75.0316 121.79 78.5316 116.79 79.1316 114.49L79.3316 117.29C81.8316 113.39 83.6316 108.09 82.9316 103.39Z" fill="#FFFFD1"/>
<path opacity="0.5" fill-rule="evenodd" clip-rule="evenodd" d="M69.8315 130.99C68.7315 128.49 65.6316 119.29 65.4316 116.79L64.3315 119.59C61.5315 109.49 63.0316 106.19 67.7316 97.8896L71.1315 98.3896C67.2315 102.39 66.6316 107.69 66.4316 111.99C66.8316 111.49 67.2315 111.09 68.3315 110.39C67.6315 117.99 68.3315 123.99 69.8315 130.99Z" fill="#B3510B"/>
<path opacity="0.32" fill-rule="evenodd" clip-rule="evenodd" d="M82.3316 105.59C80.6316 107.29 77.1316 107.89 74.0316 107.39C75.0316 111.29 75.4316 117.49 75.3316 119.69C76.0316 118.29 79.4316 112.19 79.8316 110.59L80.1316 113.39C81.6316 110.59 82.1316 107.99 82.3316 105.59Z" fill="#FFFFD1"/>
<path fill-rule="evenodd" clip-rule="evenodd" d="M76.0316 95.5897C80.4316 96.3897 83.6316 98.9897 83.1316 101.49C82.7316 103.99 78.8316 105.29 74.4316 104.49C70.0316 103.69 66.8316 101.09 67.3316 98.5897C67.7316 96.0897 71.6316 94.7897 76.0316 95.5897Z" fill="#FF9B54"/>
<path fill-rule="evenodd" clip-rule="evenodd" d="M85.5316 102.99C87.2316 99.5897 88.6316 96.4897 90.3316 93.0897L65.6316 89.1897C65.1316 88.3897 63.6316 88.9897 63.5316 88.1897C63.8316 91.8897 64.0316 95.3897 64.5316 99.1897C64.5316 100.49 65.3316 101.89 66.8316 103.19C68.9316 104.99 71.6316 105.99 74.2316 106.39C78.2316 106.89 83.3316 106.99 85.5316 102.99Z" fill="#7F9098"/>
<path fill-rule="evenodd" clip-rule="evenodd" d="M71.1315 90.0897L65.7315 89.2897C65.2315 88.4897 63.7315 89.0897 63.6315 88.2897C63.9315 91.9897 64.1315 95.4897 64.6315 99.2897C64.6315 100.59 65.4315 101.99 66.9315 103.29C68.9315 105.09 71.7315 106.09 74.3315 106.49C78.1315 107.09 83.0315 107.09 85.4315 103.49C82.3315 106.69 74.7315 105.49 72.2315 104.09C71.7315 99.2897 71.3315 94.6897 71.1315 90.0897Z" fill="#74858C"/>
<path fill-rule="evenodd" clip-rule="evenodd" d="M87.9315 85.5897C83.2315 81.4897 74.7315 79.8897 68.7315 81.8897C62.8315 83.8897 61.8315 88.8897 66.4315 92.9897C71.1315 97.0897 79.6315 98.6897 85.6315 96.6897C91.5315 94.5897 92.6315 89.6897 87.9315 85.5897Z" fill="#697A82"/>
<path fill-rule="evenodd" clip-rule="evenodd" d="M87.3316 85.7897C82.9316 81.9897 74.8316 80.3897 69.1316 82.2897C63.5316 84.1897 62.5316 88.8897 66.9316 92.7897C71.3316 96.6897 79.4316 98.1897 85.1316 96.2897C90.8316 94.2897 91.7316 89.6897 87.3316 85.7897Z" fill="#5F6F78"/>
<path fill-rule="evenodd" clip-rule="evenodd" d="M104.032 55.4897C104.432 50.4897 104.132 45.2897 103.232 40.3897C102.932 38.9897 102.632 37.6897 102.332 36.2897C95.8315 15.0897 88.2316 9.08967 72.2316 30.4897C71.6316 31.3897 71.0315 32.2897 70.4315 33.1897C67.8315 37.2897 65.6315 42.0897 63.9315 46.9897C60.2315 58.3897 59.5315 74.2897 63.0315 85.7897C63.4315 87.0897 63.8315 88.1897 64.3315 89.1897C64.8315 90.0897 65.4315 90.8897 66.4315 91.7897C71.2315 95.9897 79.8316 97.4897 85.7316 95.4897C87.5316 94.8897 88.7315 94.0897 89.8315 92.7897C90.7315 91.7897 91.6316 90.4897 92.2316 89.5897C98.7316 80.5897 103.132 66.8897 104.032 55.4897Z" fill="#CED2D6"/>
<path fill-rule="evenodd" clip-rule="evenodd" d="M72.1315 30.5897C69.8315 33.5897 67.7315 37.5897 66.2315 40.9897C65.0315 43.7897 63.9315 46.5897 63.1315 49.4897C60.1315 60.6897 59.7315 75.1897 62.9315 85.8897C63.3315 87.1897 63.7315 88.2897 64.2315 89.2897C66.6315 93.5897 72.8315 95.7897 77.4315 96.2897C80.3315 96.5897 83.2315 96.3897 85.6315 95.4897C87.4315 94.8897 88.1315 94.5897 89.7315 92.8897C84.7315 96.5897 75.9315 95.0897 70.9315 92.2897C68.0315 74.5897 68.4315 57.2897 75.6315 43.2897C77.2315 44.0897 91.1315 48.5897 97.9315 42.4897L72.4315 30.8897C72.7315 30.3897 73.1315 29.8897 73.4315 29.4897C75.9315 26.0897 78.2315 23.3897 80.4315 21.2897C78.0315 23.2897 75.2315 26.3897 72.1315 30.5897Z" fill="#AEB5BB"/>
<path fill-rule="evenodd" clip-rule="evenodd" d="M90.3316 91.2896L90.5316 90.8896L90.2316 91.2896H90.3316Z" fill="#838489"/>
<path fill-rule="evenodd" clip-rule="evenodd" d="M101.732 34.3896C99.7315 27.5896 96.4315 19.4896 91.5315 14.2896C91.4315 14.1896 91.3315 14.0896 91.2315 13.9896C91.1315 13.8896 90.9315 13.6896 90.6315 13.5896C90.4315 13.5896 90.1315 13.6896 90.0315 13.7896C83.3315 16.9896 76.7315 23.7896 72.5315 29.7896C72.2315 30.1896 72.0315 30.5896 71.8315 30.8896C70.8315 32.9896 71.4315 35.2896 72.8315 37.0896C74.1315 38.8896 76.0315 40.2896 77.8315 41.2896C78.1315 41.3896 78.3315 41.5896 78.6315 41.6896C83.6315 44.1896 90.7315 44.8896 95.7315 43.3896C97.5315 42.7896 99.3315 41.9896 100.532 40.5896C101.132 39.9896 101.632 39.1896 101.932 38.2896C102.132 37.6896 102.232 37.0896 102.232 36.5896C102.132 35.8896 101.932 35.0896 101.732 34.3896Z" fill="#C01617"/>
<path fill-rule="evenodd" clip-rule="evenodd" d="M90.7315 13.5896C90.4315 13.4896 90.1315 13.6896 90.0315 13.7896C83.3315 16.9896 76.7315 23.7896 72.5315 29.7896C72.2315 30.1896 72.0315 30.5896 71.8315 30.8896C70.8315 32.9896 71.4315 35.2896 72.8315 37.0896C72.8315 37.0896 72.8315 37.1896 72.9315 37.1896V37.2896C72.9315 37.3896 73.0315 37.3896 73.0315 37.4896C73.0315 37.4896 73.0315 37.4896 73.1315 37.5896C73.1315 37.5896 73.1315 37.6896 73.2315 37.6896C73.2315 37.7896 73.3315 37.7896 73.3315 37.8896C73.4315 37.9896 73.4315 37.9896 73.5315 38.0896C73.5315 38.0896 73.5315 38.0896 73.6315 38.1896C73.7315 38.2896 73.7315 38.3896 73.8315 38.3896C73.9315 38.4896 73.9315 38.4896 74.0315 38.5896L74.1315 38.6896L74.2315 38.7896C74.4315 38.8896 74.5315 39.0896 74.7315 39.1896L74.8315 39.2896L74.9315 39.3896H75.0315C75.1315 39.3896 75.1315 39.4896 75.2315 39.4896L75.3315 39.5896H75.4315L75.5315 39.6896H75.6315H75.7315L75.8315 39.7896H75.9315H76.0315H76.1315H76.2315H76.3315H76.4315C76.8315 40.0896 77.3315 40.2896 77.7315 40.5896C78.0315 40.6896 78.2315 40.8896 78.5315 40.9896C83.5315 43.4896 90.6315 44.1896 95.6315 42.6896C97.4315 42.1896 99.3315 41.1896 100.632 39.7896C98.3315 41.3896 89.1315 46.1896 77.2315 37.5896C80.4315 29.7896 84.7315 21.7896 90.7315 13.5896Z" fill="#A51515"/>
<path fill-rule="evenodd" clip-rule="evenodd" d="M91.2316 15.2897C89.9316 17.1897 82.9315 29.1897 80.8315 38.7897C85.9315 42.0897 96.6315 43.5897 101.032 36.9897C99.1315 29.3897 95.4316 20.3897 91.2316 15.2897Z" fill="#DE1F1F"/>
<path fill-rule="evenodd" clip-rule="evenodd" d="M91.4315 16.2897C91.3315 19.4897 90.3315 26.5897 89.0315 33.8897C87.5315 42.3897 100.132 41.2897 97.9315 31.8897C96.5315 26.4897 93.5315 20.3897 91.4315 16.2897Z" fill="#FA3737"/>
<path fill-rule="evenodd" clip-rule="evenodd" d="M87.9316 96.3896C83.2316 99.5896 75.2316 98.4896 72.5316 97.3896C72.5316 99.3896 72.8316 101.39 73.0316 103.49C78.2316 105.29 82.5316 104.89 84.5316 103.09C85.6316 101.99 86.8316 98.8896 87.9316 96.3896Z" fill="#92A3AB"/>
<path fill-rule="evenodd" clip-rule="evenodd" d="M86.9315 97.3896C83.9315 99.8896 76.7315 99.4897 74.4315 98.6897C74.4315 99.7897 74.4315 100.49 74.5315 101.39C74.6315 102.89 74.8316 102.99 76.2316 103.29C79.8316 104.19 82.8316 103.59 84.2316 102.39C85.0316 101.49 86.0315 99.4896 86.9315 97.3896Z" fill="#A9BAC2"/>
<path fill-rule="evenodd" clip-rule="evenodd" d="M101.732 41.4896C97.9316 47.3896 86.7316 49.3896 77.9316 47.0896C74.6316 57.1896 73.5315 74.8896 75.5315 90.2896C79.7315 92.8896 86.8316 92.2896 90.4316 90.2896C101.832 73.0896 102.932 55.1896 101.732 41.4896Z" fill="#DDE2E6"/>
<path fill-rule="evenodd" clip-rule="evenodd" d="M100.532 45.3896C98.2315 48.8896 92.7315 50.4897 87.1315 50.5897C86.5315 58.3897 82.5315 85.2897 81.9315 90.0897C85.2315 90.4897 87.7316 89.9897 89.7316 88.7896C97.3316 74.5896 101.332 56.8896 100.532 45.3896Z" fill="#EDF3F7"/>
<path fill-rule="evenodd" clip-rule="evenodd" d="M84.0315 50.1896C90.0315 51.2896 94.0315 56.8896 92.9315 62.6896C91.8315 68.5896 86.1315 72.3896 80.2315 71.2896C74.2315 70.1896 70.2315 64.5896 71.3315 58.7896C72.3315 52.9896 78.0315 49.0896 84.0315 50.1896Z" fill="#AEB5BB"/>
<path fill-rule="evenodd" clip-rule="evenodd" d="M80.9315 67.7896C77.0315 67.0896 74.4315 63.3896 75.1315 59.4896C75.8315 55.5896 79.5315 53.0896 83.4315 53.6896C87.3315 54.3896 89.9316 58.0896 89.2316 61.9896C88.4316 65.8896 84.7315 68.4896 80.9315 67.7896ZM83.9315 50.5896C78.3315 49.5896 72.9315 53.2896 71.9315 58.8896C70.9315 64.4896 74.6316 69.8896 80.2316 70.8896C85.8316 71.8896 91.2316 68.1896 92.2316 62.5896C93.3316 56.9896 89.6315 51.5896 83.9315 50.5896Z" fill="#EDF3F7"/>
<path fill-rule="evenodd" clip-rule="evenodd" d="M80.9315 67.7897C84.8315 68.4897 88.5315 65.8897 89.2315 62.0897C89.9315 58.1897 87.3315 54.4897 83.4315 53.7897C79.5315 53.0897 75.8315 55.6897 75.1315 59.5897C74.4315 63.3897 77.0315 67.0897 80.9315 67.7897Z" fill="#435469"/>
<path fill-rule="evenodd" clip-rule="evenodd" d="M83.4316 53.7897C87.3316 54.4897 89.9316 58.1897 89.2316 62.0897C89.1316 62.4897 89.0316 62.9897 88.8316 63.3897C88.8316 59.9897 86.4316 57.0897 82.9316 56.3897C79.5316 55.7897 76.2316 57.6897 75.0316 60.8897C75.0316 60.4897 75.0316 59.9897 75.1316 59.5897C75.8316 55.5897 79.5316 53.0897 83.4316 53.7897Z" fill="#2E3D4F"/>
<path fill-rule="evenodd" clip-rule="evenodd" d="M83.5315 53.2896C83.9315 53.3896 84.3316 53.0896 84.4316 52.6896C84.5316 52.2896 84.2315 51.8896 83.8315 51.7896C83.4315 51.6896 83.0316 51.9896 82.9316 52.3896C82.8316 52.7896 83.1315 53.1896 83.5315 53.2896Z" fill="#4B6380"/>
<path fill-rule="evenodd" clip-rule="evenodd" d="M80.5315 69.7896C80.9315 69.8896 81.3316 69.5896 81.4316 69.1896C81.5316 68.7896 81.2315 68.3896 80.8315 68.2896C80.4315 68.1896 80.0316 68.4896 79.9316 68.8896C79.8316 69.2896 80.1315 69.6896 80.5315 69.7896Z" fill="#4B6380"/>
<path fill-rule="evenodd" clip-rule="evenodd" d="M91.1316 62.3896C91.0316 62.7896 90.6316 63.0896 90.2316 62.9896C89.8316 62.8896 89.5316 62.4896 89.6316 62.0896C89.7316 61.6896 90.1316 61.3896 90.5316 61.4896C90.9316 61.5896 91.2316 61.9896 91.1316 62.3896Z" fill="#4B6380"/>
<path fill-rule="evenodd" clip-rule="evenodd" d="M74.6316 59.3896C74.5316 59.7896 74.1316 60.0896 73.7316 59.9896C73.3316 59.8896 73.0316 59.4896 73.1316 59.0896C73.2316 58.6896 73.6316 58.3896 74.0316 58.4896C74.4316 58.5896 74.7316 58.9896 74.6316 59.3896Z" fill="#4B6380"/>
<path fill-rule="evenodd" clip-rule="evenodd" d="M89.6315 55.4896C89.8315 55.7896 89.8315 56.2896 89.4315 56.5896C89.1315 56.7896 88.6315 56.7896 88.3315 56.3896C88.1315 56.0896 88.1315 55.5896 88.5315 55.2896C88.9315 55.0896 89.4315 55.1896 89.6315 55.4896Z" fill="#4B6380"/>
<path fill-rule="evenodd" clip-rule="evenodd" d="M75.9316 65.0897C76.1316 65.3897 76.1316 65.8897 75.7316 66.1897C75.4316 66.3897 74.9316 66.3897 74.6316 65.9897C74.4316 65.6897 74.4316 65.1897 74.8316 64.8897C75.1316 64.6897 75.6316 64.7897 75.9316 65.0897Z" fill="#4B6380"/>
<path fill-rule="evenodd" clip-rule="evenodd" d="M87.3315 68.2896C87.0315 68.4896 86.5315 68.4897 86.2315 68.0897C86.0315 67.7897 86.0315 67.2896 86.4315 66.9896C86.7315 66.7896 87.2315 66.7897 87.5315 67.1897C87.8315 67.5897 87.7315 67.9896 87.3315 68.2896Z" fill="#4B6380"/>
<path fill-rule="evenodd" clip-rule="evenodd" d="M77.8315 54.4896C77.5315 54.6896 77.0315 54.6896 76.7315 54.2896C76.5315 53.9896 76.5315 53.4896 76.9315 53.1896C77.2315 52.9896 77.7315 52.9896 78.0315 53.3896C78.2315 53.7896 78.1315 54.2896 77.8315 54.4896Z" fill="#4B6380"/>
<path fill-rule="evenodd" clip-rule="evenodd" d="M96.5315 78.8896L92.6315 80.2896C95.5315 97.8897 93.2315 107.39 90.8315 121.99L94.7316 120.59C96.6316 113.79 99.4315 106.79 100.332 99.8896C100.732 96.7896 100.732 93.7897 100.332 90.5897C99.7315 86.4897 98.4315 82.7896 96.5315 78.8896Z" fill="#C01617"/>
<path fill-rule="evenodd" clip-rule="evenodd" d="M96.5316 80.0896L93.7316 80.9896C96.2316 86.3896 98.1316 93.1896 97.6316 99.2896C97.1316 106.49 94.3316 114.19 92.0316 120.59L94.5316 119.69C97.0316 112.89 99.8316 103.29 100.232 97.3896C100.532 92.3896 99.3316 85.8896 96.5316 80.0896Z" fill="#DE1F1F"/>
<path fill-rule="evenodd" clip-rule="evenodd" d="M96.3316 80.6897L94.5316 81.2897C97.1316 84.1897 99.1316 91.3897 98.6316 98.1897C98.2316 104.29 96.9316 110.79 94.9316 117.99C97.2316 111.69 99.2316 102.49 99.5316 96.8897C99.9316 92.1897 99.0316 86.0897 96.3316 80.6897Z" fill="#FA3737"/>
<path fill-rule="evenodd" clip-rule="evenodd" d="M92.6316 80.2897L86.0316 96.1897C88.4316 103.39 90.1316 111.79 90.8316 121.99C94.9316 107.49 100.932 97.2897 92.6316 80.2897Z" fill="#A51515"/>
<path fill-rule="evenodd" clip-rule="evenodd" d="M92.6316 80.2897L86.0316 96.1897C88.4316 103.39 90.1316 111.79 90.8316 121.99C93.7316 108.39 91.5316 92.4897 92.6316 80.2897Z" fill="#8F1111"/>
<path fill-rule="evenodd" clip-rule="evenodd" d="M62.3315 72.6897L65.5315 75.3897C56.6315 90.7897 55.5315 100.59 52.6315 115.09L49.4315 112.39C50.0315 105.39 49.8315 97.7897 51.4315 91.0897C52.1315 88.0897 53.1316 85.1897 54.7316 82.3897C56.6316 78.7897 59.2315 75.6897 62.3315 72.6897Z" fill="#C01617"/>
<path fill-rule="evenodd" clip-rule="evenodd" d="M61.9315 73.8896L64.2316 75.6897C60.0316 79.8897 55.8315 85.5896 54.1315 91.3896C52.1315 98.2896 52.0315 106.49 51.9315 113.29L49.9315 111.59C49.9315 104.39 50.6315 94.3897 52.4315 88.6897C53.9315 83.9897 57.3315 78.2896 61.9315 73.8896Z" fill="#DE1F1F"/>
<path fill-rule="evenodd" clip-rule="evenodd" d="M61.8315 74.4897L63.3315 75.6898C59.9315 77.5898 55.5315 83.5898 53.6315 90.0898C51.9315 95.8898 50.8315 102.49 50.1315 109.89C50.1315 103.09 51.5315 93.8897 53.1315 88.4897C54.5315 83.9897 57.5315 78.5897 61.8315 74.4897Z" fill="#FA3737"/>
<path fill-rule="evenodd" clip-rule="evenodd" d="M65.4315 75.3896L66.1315 92.5897C61.4315 98.4897 56.8315 105.79 52.6315 115.09C53.8315 100.09 51.8315 88.3896 65.4315 75.3896Z" fill="#A51515"/>
<path fill-rule="evenodd" clip-rule="evenodd" d="M65.4315 75.3896L66.1315 92.5897C61.4315 98.4897 56.8315 105.79 52.6315 115.09C54.7315 101.39 62.3315 87.1896 65.4315 75.3896Z" fill="#8F1111"/>
<path fill-rule="evenodd" clip-rule="evenodd" d="M85.0316 110.69C83.9316 110.99 83.6316 110.99 82.7316 112.59C82.7316 113.59 82.8316 115.19 82.9316 116.29L83.3316 116.69C83.9316 117.79 83.4316 119.69 83.4316 121.19C83.4316 122.29 83.7316 122.69 84.5316 123.59C85.3316 124.49 86.8316 125.09 88.5316 125.49C90.6316 125.89 92.6316 125.69 91.9316 124.29C91.5316 123.59 90.4316 122.79 90.1316 121.39C89.7316 118.29 89.4316 115.39 90.9316 112.49L85.0316 110.69Z" fill="#111214"/>
<path fill-rule="evenodd" clip-rule="evenodd" d="M85.0316 110.69C83.9316 110.99 83.6316 110.99 82.7316 112.59C82.7316 113.59 82.8316 115.19 82.9316 116.29L83.3316 116.69C83.9316 117.79 83.4316 119.69 83.4316 121.19C83.4316 122.29 83.7316 122.69 84.5316 123.59C85.3316 124.49 86.8316 125.09 88.5316 125.49C90.2316 125.79 91.8316 125.69 92.0316 124.99C90.9316 124.99 89.7316 124.49 88.0316 123.39C88.5316 122.79 88.8316 122.49 89.7316 121.99C88.7316 122.09 88.0316 122.19 87.0316 122.49C85.2316 119.49 86.7316 116.39 86.4316 113.09C86.3316 112.49 86.3316 111.79 86.3316 111.09L85.0316 110.69Z" fill="black"/>
<path fill-rule="evenodd" clip-rule="evenodd" d="M89.1316 101.79C88.2316 102.99 87.7316 103.49 87.4316 104.49C86.8316 106.39 86.9316 108.49 87.0316 111.69C87.0316 113.19 86.6316 113.89 85.2316 113.29C84.1316 112.89 83.1316 110.69 82.5316 109.29C81.3316 106.69 82.0316 104.79 81.8316 103.79L81.2316 103.29C80.8316 102.79 80.2316 100.39 80.4316 99.6897C80.7316 99.2897 81.3316 98.5897 81.9316 98.0897C83.7316 96.5897 83.7316 97.0896 85.6316 96.3896C86.7316 98.3896 87.8316 100.09 89.1316 101.79Z" fill="#111214"/>
<path fill-rule="evenodd" clip-rule="evenodd" d="M86.5316 113.29C86.2316 113.49 85.8316 113.49 85.2316 113.29C84.1316 112.89 83.1316 110.69 82.5316 109.29C81.3316 106.69 82.0316 104.79 81.8316 103.79L81.2316 103.29C80.8316 102.79 80.2316 100.39 80.4316 99.6896C80.7316 99.2896 81.3316 98.5896 81.9316 98.0896C83.7316 96.5896 83.7316 97.0896 85.6316 96.4896C86.1316 97.2896 86.6316 98.0896 87.1316 98.7896C86.0316 99.8896 83.7316 101.29 83.7316 102.89C83.7316 104.69 84.1316 105.79 84.2316 106.89C84.5316 110.49 84.6316 112.99 86.5316 113.29Z" fill="black"/>
<path fill-rule="evenodd" clip-rule="evenodd" d="M87.4316 103.89C86.9316 103.89 86.3316 103.59 85.5316 102.99C85.0316 105.29 85.3316 105.39 85.6316 107.79C85.3316 109.39 85.2316 109.59 85.3316 110.39C85.4316 111.29 85.7316 112.49 86.3316 112.69C86.5316 112.79 86.7316 112.29 86.7316 111.19C86.7316 109.89 86.6316 108.69 86.7316 107.39C86.7316 106.29 86.9316 105.09 87.4316 103.89Z" fill="#20232E"/>
<path fill-rule="evenodd" clip-rule="evenodd" d="M107.432 89.5896C100.732 94.3896 95.6316 97.3896 89.4316 102.39C87.5316 102.69 84.3316 99.0896 84.9316 96.3896C89.5316 91.9896 91.7316 89.9896 94.4316 87.8896C96.7316 86.0896 99.1316 84.7896 101.732 83.8896C104.632 81.2896 109.132 81.8896 108.832 84.4896C108.732 85.9896 108.832 88.3896 107.432 89.5896Z" fill="#0C182E"/>
<path fill-rule="evenodd" clip-rule="evenodd" d="M109.432 63.8896C110.232 69.2896 109.232 79.9897 108.732 86.5897C108.232 92.0897 101.832 90.5896 100.532 88.3896C99.4316 82.8896 97.8316 72.9896 97.7316 66.7896L102.732 64.4896L107.232 60.3896L109.432 63.8896Z" fill="#0C182E"/>
<path fill-rule="evenodd" clip-rule="evenodd" d="M85.7316 99.8896C85.0316 98.7896 84.6316 97.5896 84.9316 96.3896C89.5316 91.9896 91.7316 89.9896 94.4316 87.8896C96.1316 86.5896 97.9316 85.4896 99.8316 84.6896C98.8316 79.1896 97.8316 71.7896 97.7316 66.8896L102.732 64.5896L107.232 60.4896L109.432 63.9896C109.632 65.5896 109.732 67.6896 109.732 69.9896C108.232 72.1896 106.832 73.1896 103.632 74.9896C103.332 77.3896 103.732 84.2896 103.532 86.1896C103.432 86.9896 103.032 87.0896 101.532 87.9896C95.7315 91.0896 90.8316 95.4896 85.7316 99.8896Z" fill="#091224"/>
<path fill-rule="evenodd" clip-rule="evenodd" d="M101.732 65.7896C101.632 71.1896 97.2316 83.7896 95.7316 90.1896C94.8316 95.1896 87.5316 93.8896 87.6316 90.6896C87.8316 85.5896 86.6316 66.1896 90.6316 63.0896H96.3316L101.732 65.7896Z" fill="#0F1E38"/>
<path fill-rule="evenodd" clip-rule="evenodd" d="M95.6316 90.3896C95.3316 92.2896 94.8316 92.3896 94.6316 93.4896C93.2316 100.39 92.4316 107.39 91.4316 114.19C88.8316 116.09 85.0316 114.29 84.2316 111.99C84.6316 105.59 84.6316 102.29 85.1316 98.7896C85.6316 95.8896 86.3316 93.2896 87.5316 90.8896C89.1316 86.4896 96.3316 86.6896 95.6316 90.3896Z" fill="#0F1E38"/>
<path fill-rule="evenodd" clip-rule="evenodd" d="M87.3316 114.69C85.8316 114.19 84.6316 113.19 84.2316 111.89C84.6316 105.49 84.6316 102.19 85.1316 98.6897C85.6316 95.7897 86.3316 93.1897 87.5316 90.7897C87.7316 85.6897 86.5316 66.2897 90.5316 63.1897H93.4316L100.532 72.5897L100.332 73.3897C98.3316 74.0897 94.4316 74.3897 93.0316 74.2897C92.1316 79.3897 91.4316 83.8897 91.1316 89.0897C90.9316 91.4897 90.7316 92.7897 90.0316 95.1897C88.0316 102.39 87.9316 106.89 87.3316 114.69Z" fill="#0C182E"/>
<path fill-rule="evenodd" clip-rule="evenodd" d="M99.3315 74.7897C97.2315 75.1897 95.9315 75.3897 93.8315 75.1897C92.5315 82.5897 92.8315 87.3897 91.8315 92.4897C91.4315 94.6897 90.4315 96.8897 90.1315 99.0897L88.3315 114.29C89.3315 114.39 90.0315 114.29 91.0315 113.89C92.0315 107.89 92.6315 99.1897 94.0315 93.7897C94.3315 92.8897 94.6315 92.1897 94.8315 91.2897C95.0315 90.4897 95.0315 90.0897 95.3315 89.2897C96.6315 84.5897 98.2315 79.5897 99.3315 74.7897Z" fill="#152747"/>
<path fill-rule="evenodd" clip-rule="evenodd" d="M108.932 71.9896C107.032 74.0896 106.132 74.7896 104.532 75.7896C104.532 78.7896 104.632 83.1896 104.632 84.7896C104.632 86.0896 104.432 86.8896 103.932 87.5896C103.532 88.0896 98.0316 90.6896 95.0316 93.6896L94.2316 97.4896C98.2316 94.6896 102.932 91.9896 106.632 89.1896C107.732 88.3896 108.032 87.1896 108.132 85.7896C108.332 82.2896 108.832 76.4896 108.932 71.9896Z" fill="#152747"/>
<path fill-rule="evenodd" clip-rule="evenodd" d="M89.6316 115.29C89.0316 115.49 88.3316 115.69 87.5316 115.39C87.2316 116.89 87.2316 119.89 87.7316 121.49C88.4316 121.29 89.3316 121.19 89.7316 121.09C89.3316 118.69 89.3316 117.69 89.6316 115.29Z" fill="#20232E"/>
<path fill-rule="evenodd" clip-rule="evenodd" d="M90.2316 122.29C89.4316 122.49 89.1316 122.79 88.7316 123.19C90.3316 124.29 91.5316 124.79 91.7316 124.49C92.0316 124.19 90.6316 123.09 90.2316 122.29Z" fill="#20232E"/>
<path fill-rule="evenodd" clip-rule="evenodd" d="M123.932 6.58969C124.832 5.18969 129.632 7.18969 128.432 8.98969C128.132 9.38969 127.832 9.48969 127.432 9.68969C127.432 9.68969 125.532 9.38969 125.232 9.18969C124.932 8.98969 123.732 7.58969 123.732 7.58969C123.832 7.28969 123.732 6.88969 123.932 6.58969Z" fill="#1D2933"/>
<path fill-rule="evenodd" clip-rule="evenodd" d="M124.432 6.28962C124.732 7.18962 126.932 9.18962 128.532 7.98962C128.732 7.48962 128.332 6.98962 127.232 6.48962C126.132 5.98962 125.032 5.38962 124.432 6.28962Z" fill="#C4CFE6"/>
<path fill-rule="evenodd" clip-rule="evenodd" d="M129.432 4.78972C129.832 5.18972 129.932 6.18972 129.332 6.88972C129.232 6.98972 128.732 7.48972 128.332 7.88972C128.232 7.98972 127.932 8.58972 127.732 8.98972C127.432 9.78972 126.132 8.88972 125.932 8.58972C125.632 8.28972 125.732 7.08972 125.832 6.88972C126.232 6.18972 126.132 4.18972 126.232 3.68972C126.332 3.18972 126.732 3.38972 126.732 2.58972L129.432 4.78972Z" fill="#DB9669"/>
<path fill-rule="evenodd" clip-rule="evenodd" d="M129.832 3.08967L131.832 1.78967C131.832 1.78967 131.932 1.78967 131.932 1.88967C132.132 2.08967 132.432 2.28967 132.432 2.48967C132.532 2.98967 131.832 4.58967 131.432 4.88967C131.332 4.98967 130.932 5.48967 130.732 5.28967C130.632 5.58967 130.132 5.88967 129.932 5.68967C129.732 5.98967 129.732 5.88967 129.432 6.08967C129.332 6.18967 129.232 6.08967 129.132 6.08967L129.232 3.58967L129.832 3.08967Z" fill="#E8A476"/>
<path fill-rule="evenodd" clip-rule="evenodd" d="M129.432 3.78967L125.532 2.08967C125.532 1.58967 125.932 1.28967 126.832 0.789674C127.232 0.589674 128.032 0.289673 128.332 0.0896728C128.932 -0.210327 130.132 0.289674 131.032 0.889674C131.232 0.989674 132.232 2.08967 132.332 2.38967C131.132 3.28967 130.032 3.68967 129.432 3.78967Z" fill="#F1B287"/>
<path fill-rule="evenodd" clip-rule="evenodd" d="M127.232 5.38969C126.932 5.18969 126.532 4.78969 126.532 4.38969C126.532 3.58969 127.232 4.18969 127.632 4.48969C127.832 4.58969 128.032 4.68969 128.232 4.78969C128.432 4.88969 128.432 4.88969 128.432 4.58969C128.432 4.48969 128.232 4.28969 128.032 4.18969C127.532 3.88969 127.132 3.68969 126.832 3.58969C126.532 3.48969 126.332 3.68969 126.432 4.08969C126.432 4.88969 126.732 5.48969 126.932 6.08969C127.032 6.68969 127.032 7.18969 126.432 7.88969C126.332 8.08969 126.132 8.28969 126.032 8.48969C125.932 8.68969 125.232 8.28969 124.932 7.98969C124.632 7.68969 123.932 7.98969 124.032 7.68969C124.832 6.68969 125.332 4.68969 125.232 3.38969C125.232 2.98969 125.232 1.48969 125.732 1.38969C126.932 1.08969 129.132 2.98969 129.432 3.88969C129.532 4.08969 129.532 4.28969 129.532 4.38969C129.432 4.88969 129.332 5.08969 129.232 5.58969C129.232 6.48969 127.632 5.58969 127.232 5.38969Z" fill="#E8A476"/>
<path fill-rule="evenodd" clip-rule="evenodd" d="M127.232 2.28967C126.932 2.48967 126.732 2.98967 126.632 3.38967L126.032 4.78967C126.032 3.58967 125.732 2.48967 127.232 2.28967Z" fill="#DB9669"/>
<path fill-rule="evenodd" clip-rule="evenodd" d="M125.932 5.48965C125.732 5.98965 124.832 7.58965 124.832 7.78965C124.832 8.08965 125.532 8.68965 126.032 8.58965C126.932 8.58965 127.532 7.28965 127.632 6.48965C127.732 5.88965 127.532 4.88965 127.732 4.28965C128.132 3.18965 127.932 2.68965 127.732 2.38965C127.532 2.08965 126.732 1.88965 126.632 3.38965C126.532 3.98965 126.232 4.98965 125.932 5.48965Z" fill="#E8A476"/>
<path fill-rule="evenodd" clip-rule="evenodd" d="M125.332 8.38966C125.532 8.48966 125.832 8.68966 126.032 8.68966C126.932 8.68966 127.532 7.38966 127.632 6.58966C127.732 5.98966 127.532 4.98966 127.732 4.38966C128.132 3.28966 127.932 2.78966 127.732 2.48966C127.632 2.28966 127.232 2.18966 126.932 2.38966C127.232 2.78966 127.432 3.48966 126.932 4.98966C126.532 6.68966 126.232 7.08966 125.332 8.38966Z" fill="#F1B287"/>
<path fill-rule="evenodd" clip-rule="evenodd" d="M123.832 7.48967C123.832 7.38967 124.132 6.88967 124.532 6.28967C124.832 7.18967 127.032 9.18967 128.632 7.98967L128.232 9.28967C127.032 10.0897 124.932 9.38967 123.832 7.48967Z" fill="#E6EDFF"/>
<path fill-rule="evenodd" clip-rule="evenodd" d="M118.332 19.2897C120.532 15.0897 121.632 11.8897 123.932 6.6897C124.132 7.8897 126.732 9.5897 128.532 8.9897C126.732 15.1897 126.232 22.1897 124.432 24.2897C122.132 27.0897 115.232 32.0897 112.032 33.8897C108.032 36.1897 105.832 38.7897 105.032 37.8897C103.632 36.1897 102.832 31.8897 103.832 29.9897C105.932 25.7897 113.832 22.6897 118.332 19.2897Z" fill="#152747"/>
<path fill-rule="evenodd" clip-rule="evenodd" d="M118.332 19.2897C120.532 15.0897 121.632 11.8897 123.932 6.6897C124.032 7.0897 124.332 7.5897 124.832 7.9897C123.232 13.3897 121.732 17.7897 120.132 21.4897C115.332 24.5897 108.932 26.3897 106.332 26.9897C109.732 24.1897 114.932 21.8897 118.332 19.2897Z" fill="#1A3059"/>
<path fill-rule="evenodd" clip-rule="evenodd" d="M121.432 22.1897C123.132 18.8897 125.232 13.0897 125.832 8.58972C126.732 8.98972 127.632 9.18972 128.432 8.98972C126.632 15.1897 126.132 22.1897 124.332 24.2897C122.032 27.0897 115.132 32.0897 111.932 33.8897C107.932 36.1897 105.732 38.7897 104.932 37.8897C104.232 37.0897 103.732 35.5897 103.432 34.0897C115.332 28.4897 120.032 23.8897 121.432 22.1897Z" fill="#0F1E38"/>
<path fill-rule="evenodd" clip-rule="evenodd" d="M128.932 1.8897L130.432 3.4897L129.832 5.3897L130.532 3.3897L129.132 1.6897L128.932 1.8897Z" fill="#DB9669"/>
<path fill-rule="evenodd" clip-rule="evenodd" d="M129.732 1.48965L131.132 3.08965L130.532 4.98965L131.332 2.98965L129.832 1.38965L129.732 1.48965Z" fill="#DB9669"/>
<path fill-rule="evenodd" clip-rule="evenodd" d="M130.532 1.08972L131.932 2.68972L131.332 4.58972L132.032 2.58972L130.832 1.18972L130.532 1.08972Z" fill="#DB9669"/>
<path fill-rule="evenodd" clip-rule="evenodd" d="M94.8316 30.5897C97.3316 29.5897 106.132 25.5897 108.432 26.2897C114.632 28.0897 114.632 33.9897 113.232 42.5897C112.732 45.4897 111.932 47.8897 111.432 51.4897C110.832 55.7897 110.632 63.2897 109.732 67.7897C108.132 70.1897 108.232 69.9897 106.032 71.3897C106.732 68.4897 107.132 65.7897 107.532 62.6897C106.632 65.7897 105.832 68.7897 104.732 71.7897C100.932 73.7897 90.6316 73.6897 88.0316 69.2897C89.1316 61.3897 91.8316 61.6897 92.8316 56.6897C93.6316 52.5897 89.3316 40.8897 90.1316 35.1897C90.5316 32.6897 92.9316 31.3897 94.8316 30.5897Z" fill="#152747"/>
<path fill-rule="evenodd" clip-rule="evenodd" d="M94.8315 30.5896L100.232 28.4896C99.3316 29.5896 96.5315 31.1896 94.1315 32.6896C96.2315 36.9896 98.3315 46.2896 97.9315 52.3896C97.2315 63.4896 94.1315 64.7896 93.1315 72.3896C90.9315 71.7896 88.9315 70.8896 87.9315 69.1896C89.0315 61.2896 91.7316 61.5896 92.7316 56.5896C93.5316 52.4896 89.2315 40.7896 90.0315 35.0896C90.5315 32.6896 92.9315 31.3896 94.8315 30.5896Z" fill="#0F1E38"/>
<path fill-rule="evenodd" clip-rule="evenodd" d="M108.632 28.6896C110.332 29.7896 110.532 30.0896 111.532 32.2896L110.332 33.0896L111.632 33.7896C111.432 39.5896 109.932 47.2896 108.832 53.0896C108.932 47.2896 110.132 38.8896 108.932 33.5896C108.632 32.1896 108.132 31.3896 107.532 30.1896C107.432 29.6896 108.332 28.4896 108.632 28.6896Z" fill="#1D386B"/>
<path fill-rule="evenodd" clip-rule="evenodd" d="M100.132 28.1896C99.6315 30.1896 104.932 33.6896 107.232 32.8896C107.432 32.7896 107.632 32.3896 107.832 32.1896C107.732 31.6896 107.732 31.2896 107.832 30.7896C107.932 30.1896 108.232 29.7896 108.532 29.2896C108.932 28.5896 109.132 27.1896 109.732 25.5896L103.732 21.8896L102.432 20.9896C102.632 24.2896 101.732 25.6896 100.132 28.1896Z" fill="#E8A476"/>
<path fill-rule="evenodd" clip-rule="evenodd" d="M100.132 28.1897C100.132 28.2897 100.132 28.3897 100.132 28.4897C103.432 26.9897 105.132 28.8896 108.832 28.3896C109.032 27.5896 109.332 26.5897 109.732 25.4897L103.732 21.7896L102.432 20.8896C102.632 24.2896 101.732 25.6897 100.132 28.1897Z" fill="#DB9669"/>
<path fill-rule="evenodd" clip-rule="evenodd" d="M100.932 29.2897C99.2315 37.6897 108.332 38.3897 108.932 51.2897C109.332 44.1897 110.432 38.9897 108.532 31.9897L107.732 32.7897L105.832 32.8897L100.932 29.2897Z" fill="#D1D7F2"/>
<path fill-rule="evenodd" clip-rule="evenodd" d="M105.932 33.4897C106.132 34.7897 106.132 34.7897 107.232 35.7897C107.032 36.3897 106.832 36.9897 106.632 37.5897C108.232 43.3897 108.532 44.8897 109.032 51.3897C109.132 50.3897 109.232 51.1897 109.232 50.2897C109.532 45.8897 109.632 41.2897 109.332 35.9897C108.832 35.5897 108.432 35.4897 108.232 35.3897C108.732 33.9897 108.732 33.0897 108.432 32.8897C107.232 32.6897 106.832 32.7897 105.932 33.4897Z" fill="#1A3059"/>
<path fill-rule="evenodd" clip-rule="evenodd" d="M105.932 33.4897C106.132 34.7897 106.132 34.7897 107.232 35.7897C107.032 36.3897 106.832 36.9897 106.632 37.5897C108.232 43.3897 108.532 44.8897 109.032 51.3897C109.532 45.4897 108.932 42.3897 107.632 37.5897C107.832 36.6897 107.832 36.0897 107.732 35.5897C107.132 34.4897 106.632 33.8897 106.632 33.0897C105.532 32.9897 106.832 32.7897 105.932 33.4897Z" fill="#152747"/>
<path fill-rule="evenodd" clip-rule="evenodd" d="M107.232 32.7896C107.532 32.1896 107.532 30.9896 107.932 30.3896C108.632 30.5896 109.132 32.3896 109.632 33.7896C108.732 33.0896 108.332 32.9897 107.232 32.7896Z" fill="#E6EDFF"/>
<path fill-rule="evenodd" clip-rule="evenodd" d="M100.632 27.5896C99.6315 28.2896 98.9315 28.4896 98.6315 29.0896C97.6315 30.7896 99.3315 34.0896 99.8315 37.2896L101.532 37.0896L100.732 38.6896C106.532 44.4896 108.932 47.2896 109.032 54.4896C110.232 36.8896 99.0315 35.0896 100.632 27.5896Z" fill="#1D386B"/>
<path fill-rule="evenodd" clip-rule="evenodd" d="M100.732 27.0896C100.232 29.3896 104.832 31.8896 107.232 32.7896C106.532 33.4896 105.532 34.2896 105.432 35.0896C103.732 34.3896 100.432 32.6896 99.5316 30.1896C98.9316 28.5896 99.8316 27.5896 100.732 27.0896Z" fill="#E6EDFF"/>
<path fill-rule="evenodd" clip-rule="evenodd" d="M100.732 40.5896C101.232 46.6896 101.832 50.7896 101.532 54.4896C101.132 59.6896 99.9315 64.2896 97.4315 72.5896L103.432 71.9896C104.932 66.8896 107.532 61.2896 107.932 55.5896C108.132 49.8896 106.432 43.9896 100.732 40.5896Z" fill="#1A3059"/>
<path fill-rule="evenodd" clip-rule="evenodd" d="M110.432 29.6896C113.332 33.8896 111.732 39.8896 110.832 45.9896C109.532 54.7896 108.532 61.8896 106.732 70.5896C107.832 69.8896 108.732 68.9896 109.532 67.6896C110.232 60.2896 110.732 51.9896 112.332 44.7896C113.632 38.6896 114.732 32.4896 111.532 28.4896C111.132 28.9896 111.032 29.1896 110.432 29.6896Z" fill="#1A3059"/>
<path fill-rule="evenodd" clip-rule="evenodd" d="M98.3316 60.5897C100.932 59.7897 101.732 59.5896 103.932 59.3896L102.132 65.5897C100.632 66.5897 98.5316 66.9896 96.7316 66.7896L98.3316 60.5897Z" fill="#152747"/>
<path fill-rule="evenodd" clip-rule="evenodd" d="M98.3315 60.5897C100.932 59.7897 101.732 59.5896 103.932 59.3896C103.432 61.1896 103.532 61.1896 101.532 61.8896C97.9315 63.0896 99.0315 63.1896 97.3315 66.8896C97.2315 67.0896 96.9315 66.8896 96.8315 66.8896L98.3315 60.5897Z" fill="#0F1E38"/>
<path fill-rule="evenodd" clip-rule="evenodd" d="M98.6316 59.7896C101.332 58.9897 102.532 58.4896 104.432 57.8896L103.632 60.3896C102.932 60.8896 99.3316 62.2896 97.9316 61.9896L98.6316 59.7896Z" fill="#152747"/>
<path fill-rule="evenodd" clip-rule="evenodd" d="M98.6316 59.7896C101.332 58.9897 102.532 58.4896 104.432 57.8896C102.432 59.0896 99.2316 59.7896 98.4316 61.9896C98.2316 61.9896 98.0316 61.9896 97.9316 61.9896L98.6316 59.7896Z" fill="#0F1E38"/>
<path fill-rule="evenodd" clip-rule="evenodd" d="M103.132 61.4896L99.7316 62.8896L98.0316 66.3896C99.6316 66.1896 100.132 66.0896 101.632 65.5896L103.132 61.4896Z" fill="#1A3059"/>
<path fill-rule="evenodd" clip-rule="evenodd" d="M104.032 58.2897C102.432 59.1897 100.232 60.3897 99.1316 61.6897C100.832 61.3897 101.432 61.0897 103.232 60.2897C103.632 59.6897 103.832 59.0897 104.032 58.2897Z" fill="#1A3059"/>
<path fill-rule="evenodd" clip-rule="evenodd" d="M109.132 58.1897C110.032 57.3897 110.332 57.1896 111.132 56.8896L110.132 63.3896C109.632 63.8896 108.332 64.3896 108.032 64.2896L109.132 58.1897Z" fill="#152747"/>
<path fill-rule="evenodd" clip-rule="evenodd" d="M109.132 58.1897C110.032 57.3897 110.332 57.1896 111.132 56.8896C110.732 58.7896 110.832 58.6896 110.132 59.3896C108.832 60.5896 109.232 60.6896 108.332 64.3896C108.232 64.3896 108.132 64.3896 108.132 64.3896L109.132 58.1897Z" fill="#0F1E38"/>
<path fill-rule="evenodd" clip-rule="evenodd" d="M110.632 59.0896L109.432 60.4896L108.732 64.0896C109.232 63.8896 109.532 63.7896 110.032 63.2896L110.632 59.0896Z" fill="#1A3059"/>
<path fill-rule="evenodd" clip-rule="evenodd" d="M109.232 56.6897C110.132 56.2897 110.632 55.9897 111.332 55.6897L111.032 58.1897C110.732 58.5897 109.532 59.4897 109.032 58.8897L109.232 56.6897Z" fill="#152747"/>
<path fill-rule="evenodd" clip-rule="evenodd" d="M109.232 56.6897C110.132 56.2897 110.632 55.9897 111.332 55.6897C110.632 56.5897 109.532 56.7897 109.232 58.9897C109.132 58.9897 109.132 58.8897 109.032 58.8897L109.232 56.6897Z" fill="#0F1E38"/>
<path fill-rule="evenodd" clip-rule="evenodd" d="M111.132 55.9897C110.532 56.5897 109.732 57.4897 109.432 58.7897C110.032 58.6897 110.232 58.5897 110.832 57.9897C111.032 57.3897 111.032 56.7897 111.132 55.9897Z" fill="#1A3059"/>
<path fill-rule="evenodd" clip-rule="evenodd" d="M86.1315 80.1897C86.3315 79.7897 86.3315 79.3897 86.1315 79.0897C86.1315 79.0897 86.1315 78.9897 86.0315 78.9897L76.1315 65.7897C76.0315 65.8897 75.9315 66.1897 75.8315 66.4897L74.4315 69.7897L79.9315 83.9897L84.7316 83.4897L86.1315 80.1897Z" fill="#4F260D"/>
<path fill-rule="evenodd" clip-rule="evenodd" d="M86.2316 80.7897L81.2316 81.3897L81.6316 82.0897L86.6316 81.3897L86.2316 80.7897Z" fill="#8F4C22"/>
<path fill-rule="evenodd" clip-rule="evenodd" d="M81.3315 82.2897L82.2316 82.1897L82.3315 81.7897L72.2316 68.2897H71.4315L81.3315 82.2897Z" fill="#8F4C22"/>
<path fill-rule="evenodd" clip-rule="evenodd" d="M77.9315 91.0897L80.8315 84.1897L81.7316 81.9897L71.4315 68.2897L67.6315 77.3897C67.5315 77.5897 67.4315 77.8897 67.4315 78.0897C67.4315 78.1897 67.4315 78.3897 67.4315 78.4897C67.4315 78.5897 67.4315 78.5897 67.4315 78.6897C67.4315 78.7897 67.5315 78.8897 67.6315 78.9897L77.9315 92.6897C77.6315 92.2897 77.7315 91.7897 77.9315 91.0897Z" fill="#6E3715"/>
<path fill-rule="evenodd" clip-rule="evenodd" d="M86.6316 81.3896L81.6316 81.9896L77.8316 91.0897C77.3316 92.3897 77.9316 93.1897 79.3316 93.0897C80.7316 92.8897 82.2316 91.7896 82.7316 90.4896L86.6316 81.3896Z" fill="#783C18"/>
<path fill-rule="evenodd" clip-rule="evenodd" d="M85.1316 78.4897C86.1316 78.7897 86.6316 79.5897 86.2316 80.7897L85.8316 81.6897L85.1316 80.8897C85.3316 80.3897 85.3316 79.9897 85.1316 79.6897C84.4316 78.7897 82.8316 79.6897 82.2316 80.0897C81.8316 80.4897 81.4316 80.8897 81.2316 81.2897L80.8316 82.1897L79.7316 82.2897L80.1316 81.3897C80.5316 80.3897 81.3316 79.3897 82.3316 78.7897C83.3316 78.3897 84.1316 78.1897 85.1316 78.4897Z" fill="#85451D"/>
<path fill-rule="evenodd" clip-rule="evenodd" d="M73.7316 81.5896L74.5316 81.4896L73.5316 83.8896H72.7316L73.2316 82.5896L73.7316 81.5896Z" fill="#F2930E"/>
<path fill-rule="evenodd" clip-rule="evenodd" d="M76.3316 65.8896C76.2316 65.6896 75.9316 65.4896 75.8316 65.4896C75.2316 65.1896 74.3316 65.2896 73.7316 65.4896C73.2316 65.6896 72.6316 65.8896 72.2316 66.2896C71.5316 66.7896 70.8316 67.4896 70.4316 68.1896C70.4316 68.2896 70.3316 68.3896 70.3316 68.4896L69.2316 71.1896L72.5316 80.5896L73.4316 81.7896L79.4316 84.8896H79.5316L80.1316 83.6896C80.4316 82.9896 81.7316 80.8896 82.3316 80.2896C83.2316 79.5896 85.7316 78.5896 86.6316 79.6896L76.3316 65.8896Z" fill="#8F4C22"/>
<path fill-rule="evenodd" clip-rule="evenodd" d="M72.6316 66.5896C71.6316 67.0896 70.8316 68.0896 70.6316 68.7896L69.5316 71.3896L72.7316 80.2896L73.6316 81.4896L79.1316 84.1896H79.2316C79.8316 82.7896 80.4316 80.6896 81.8316 79.6896C82.6316 79.0896 82.4316 78.7896 82.0316 78.1896L74.3316 67.3896C73.7316 66.6896 73.4316 66.1896 72.6316 66.5896Z" fill="#A35829"/>
<path fill-rule="evenodd" clip-rule="evenodd" d="M85.8315 79.0896C86.8315 79.3896 87.1315 80.2896 86.6315 81.3896L85.2316 84.6896L84.1315 84.7896L85.5315 81.4896C85.7315 80.9896 85.7315 80.5896 85.5315 80.2896C84.8315 79.3896 83.1315 80.1896 82.5315 80.6896C82.1315 81.0896 81.7315 81.4896 81.5315 81.8896L80.4315 84.5896L79.3315 84.6896L80.4315 81.9896C80.8315 80.9896 81.6315 79.9896 82.6315 79.3896C83.6315 78.9896 84.8315 78.7896 85.8315 79.0896Z" fill="#783C18"/>
<path fill-rule="evenodd" clip-rule="evenodd" d="M73.7316 81.5896H74.0316L73.0316 83.8896H72.7316L73.2316 82.5896L73.7316 81.5896Z" fill="#F2930E"/>
<path fill-rule="evenodd" clip-rule="evenodd" d="M72.4315 79.8897L73.1315 80.9897L73.7316 81.5897H74.0315L72.7316 79.7897L72.4315 79.8897Z" fill="#FFD563"/>
<path fill-rule="evenodd" clip-rule="evenodd" d="M72.4315 79.8896L73.7316 81.5897L72.7316 83.8896L71.4315 82.1897L72.4315 79.8896Z" fill="#FFC526"/>
<path fill-rule="evenodd" clip-rule="evenodd" d="M72.4316 80.0896L72.7316 83.7896L71.5316 82.1896L72.4316 80.0896Z" fill="#FFD970"/>
<path fill-rule="evenodd" clip-rule="evenodd" d="M78.7315 68.6896C78.7315 68.6896 78.7315 68.5896 78.8315 68.5896C78.8315 68.5896 78.8315 68.4896 78.9315 68.4896C78.9315 68.4896 78.9315 68.3896 79.0315 68.3896C79.0315 68.3896 79.1315 68.3896 79.1315 68.2896L79.2315 68.1896H79.3315L77.8315 68.3896H77.7315C77.7315 68.3896 77.6315 68.3896 77.6315 68.4896C77.6315 68.4896 77.5315 68.4896 77.5315 68.5896C77.5315 68.5896 77.5315 68.5896 77.4315 68.6896C77.4315 68.6896 77.4315 68.6896 77.4315 68.7896C77.4315 68.7896 77.4315 68.7896 77.4315 68.8896C77.4315 68.8896 77.4315 68.8896 77.4315 68.9896C77.4315 68.9896 77.4315 68.9896 77.4315 69.0896L77.1315 69.6896L78.6315 69.4896L78.9315 68.8896C78.6315 68.7896 78.7315 68.7896 78.7315 68.6896Z" fill="#783C18"/>
<path fill-rule="evenodd" clip-rule="evenodd" d="M80.5315 67.7895C80.5315 67.7895 80.4315 67.7895 80.5315 67.7895C80.4315 67.6895 80.4315 67.6895 80.4315 67.6895C80.4315 67.6895 80.4315 67.6895 80.3315 67.5895C80.3315 67.5895 80.3316 67.5895 80.2316 67.4895C80.2316 67.4895 80.2315 67.4895 80.1315 67.3895H80.0315C80.0315 67.3895 80.0315 67.3895 79.9315 67.3895H79.8315H79.7316H79.6315C79.5315 67.3895 79.5315 67.3895 79.4315 67.3895L77.9315 67.5895C78.4315 67.6895 78.9316 67.9895 79.2316 68.4895L80.1315 68.2895L80.5315 67.7895C80.5315 67.8895 80.5315 67.8895 80.5315 67.7895Z" fill="#8C491F"/>
<path fill-rule="evenodd" clip-rule="evenodd" d="M81.5316 74.2895H81.6316C81.6316 74.3895 81.6316 74.4895 81.5316 74.4895C81.5316 74.5895 81.4316 74.6895 81.4316 74.6895L82.9316 74.4895V74.3895C83.0316 74.1895 83.0316 73.9895 83.1316 73.7895C83.1316 73.4895 83.2316 73.2895 83.2316 72.9895C83.2316 72.5895 83.2316 72.2895 83.1316 71.8895C83.1316 71.8895 83.1316 71.7895 83.1316 71.6895V71.5895C83.1316 71.3895 82.7316 70.5895 82.5316 70.3895H81.8316L81.0316 70.5895C81.6316 71.5895 81.8316 72.9895 81.5316 74.2895Z" fill="#8C491F"/>
<path fill-rule="evenodd" clip-rule="evenodd" d="M80.9315 70.5896L79.0315 68.0896C78.2315 66.9896 77.1315 67.1896 76.6315 68.3896L76.3315 68.9896L76.8315 69.6896L77.1315 69.0896C77.4315 68.2896 78.1316 68.1896 78.7316 68.8896L80.6315 71.3896C81.1315 72.0896 81.3315 73.2896 80.9315 74.0896L80.6315 74.6896L81.1315 75.3896L81.4315 74.7896C82.0315 73.4896 81.7315 71.6896 80.9315 70.5896Z" fill="#854219"/>
<path fill-rule="evenodd" clip-rule="evenodd" d="M81.4315 74.7896L81.1315 75.3895L82.6315 75.1896L82.9315 74.5896V74.4895V74.3895V74.2896L81.4315 74.3895C81.4315 74.4895 81.4315 74.5896 81.3315 74.5896C81.5315 74.5896 81.5315 74.6896 81.4315 74.7896Z" fill="#783C18"/>
<path fill-rule="evenodd" clip-rule="evenodd" d="M80.5316 67.8895L79.0316 68.0895L80.9316 70.5895L82.4316 70.3895L80.5316 67.8895Z" fill="#8F4C22"/>
<path fill-rule="evenodd" clip-rule="evenodd" d="M85.7316 82.0896L82.0315 82.5896L78.6315 90.5896C78.2315 91.5896 78.6316 92.2896 79.7316 92.1896C80.8316 92.0896 81.8316 91.0896 82.2316 90.0896L85.7316 82.0896Z" fill="#8F4C22"/>
<path fill-rule="evenodd" clip-rule="evenodd" d="M78.4316 64.1897C77.9316 67.3897 76.8316 68.7897 76.9316 69.5897C76.9316 70.1897 79.0316 73.3897 79.8316 74.1897C80.0316 74.3897 80.8316 74.2897 80.9316 74.0897C81.5316 73.5897 81.1316 72.4897 81.6316 71.1897C81.9316 70.3897 82.5316 70.6897 82.7316 70.8897C83.1316 71.2897 83.1316 72.0897 83.2316 72.5897C83.5316 70.6897 84.4315 69.3897 83.5315 67.7897C83.1315 67.0897 82.6316 66.3897 82.6316 65.1897L78.4316 64.1897Z" fill="#F1B287"/>
<path fill-rule="evenodd" clip-rule="evenodd" d="M78.4316 64.1897C77.9316 67.3897 76.8316 68.7897 76.9316 69.5897C76.9316 70.1897 78.7316 72.8897 79.3316 73.5897C79.3316 71.6897 80.5316 69.8897 80.7316 67.9897C81.1316 67.8897 82.7315 67.6897 83.0315 66.9897L82.8316 66.6897L78.4316 64.1897Z" fill="#E8A476"/>
<path fill-rule="evenodd" clip-rule="evenodd" d="M92.7316 31.8896C89.0316 32.5896 84.5315 42.4897 81.4315 48.5897C80.0315 54.1897 78.8315 58.6896 77.8315 64.2896C78.4315 65.6897 82.0316 68.1897 83.2316 66.2896C84.5316 61.5896 86.6315 56.0897 86.9315 51.0897C89.1315 48.9897 90.8315 46.5897 92.4315 44.1897C93.3315 42.7897 94.6315 41.1897 95.3315 39.6897C95.5315 37.1897 95.5316 33.4896 92.7316 31.8896Z" fill="#152747"/>
<path fill-rule="evenodd" clip-rule="evenodd" d="M84.7316 50.5897C84.6316 52.8897 83.0316 60.6896 81.6316 66.9896C82.0316 66.9896 82.4316 66.9897 82.8316 66.7896C83.0316 66.6896 83.1316 66.5896 83.2316 66.3896C84.5316 61.6896 86.6316 56.1897 86.9316 51.1897C89.1316 49.0897 90.8316 46.6896 92.4316 44.2896C93.3316 42.8897 94.6316 41.2896 95.3316 39.7896C95.4316 38.2896 95.5316 36.4896 95.0316 34.8896C92.8316 38.2896 85.9316 48.2897 84.7316 50.5897Z" fill="#1A3059"/>
<path fill-rule="evenodd" clip-rule="evenodd" d="M92.7316 31.8896C89.0316 32.5896 84.5315 42.4897 81.4315 48.5897C80.0315 54.1897 78.8315 58.6896 77.8315 64.2896C78.1315 64.9897 79.1315 65.9897 80.3315 66.5897L80.2316 66.0897C80.9316 60.7897 82.1316 55.1896 83.2316 49.9896C87.1316 43.1896 89.6315 39.7897 94.3315 33.6897C94.0315 32.9897 93.4316 32.2896 92.7316 31.8896Z" fill="#0F1E38"/>
<path fill-rule="evenodd" clip-rule="evenodd" d="M109.332 27.6897C108.432 27.5897 106.432 27.4897 105.532 27.3897C103.732 27.0897 103.232 25.7897 101.832 23.9897C100.132 23.7897 99.3315 23.2897 98.8315 22.4897C97.6315 20.7897 97.6315 18.1897 98.5315 16.2897C99.3315 14.6897 100.632 13.6897 102.432 13.1897C105.932 12.2897 108.432 13.9897 110.032 16.5897C110.132 16.7897 110.232 17.0897 110.332 17.2897C110.432 17.8897 110.332 18.2897 110.432 18.6897C110.532 19.4897 110.832 19.4897 111.132 19.8897C111.432 20.3897 111.532 21.4897 111.932 22.4897C112.032 22.6897 112.132 23.0897 112.232 23.6897C112.432 24.6897 112.432 25.9897 112.132 26.2897C111.932 26.5897 111.632 26.6897 111.232 26.9897C110.732 27.4897 110.432 27.6897 109.332 27.6897Z" fill="#F1B287"/>
<path fill-rule="evenodd" clip-rule="evenodd" d="M109.332 27.6897C108.432 27.5897 106.432 27.4897 105.532 27.3897C103.732 27.0897 103.232 25.7897 101.832 23.9897C100.132 23.7897 99.3315 23.2897 98.8315 22.4897C97.6315 20.7897 97.6315 18.1897 98.5315 16.2897C99.3315 14.6897 100.632 13.6897 102.432 13.1897C105.432 12.3897 107.732 13.5897 109.332 15.5897C109.332 15.7897 108.032 17.1897 106.532 17.9897C105.732 18.3897 104.632 18.1897 103.532 18.1897C103.732 19.0897 105.332 20.8897 105.632 21.4897C105.732 21.5897 105.532 22.3897 106.132 22.7897C106.332 22.8897 106.632 22.9897 106.632 23.2897C107.132 26.1897 109.532 26.8897 110.632 27.3897C110.232 27.5897 109.832 27.6897 109.332 27.6897Z" fill="#E8A476"/>
<path fill-rule="evenodd" clip-rule="evenodd" d="M101.332 17.8896C101.632 20.2896 103.932 22.8896 105.232 24.7896C105.532 25.1896 106.132 25.4896 106.932 25.6896C107.332 25.7896 108.232 25.9896 108.332 25.9896C108.732 25.7896 108.232 24.7896 109.432 23.5896C109.832 23.1896 110.432 22.6896 110.732 22.6896C111.232 22.5896 111.432 22.7896 111.632 22.4896C111.932 23.2896 112.532 25.3896 112.232 26.1896C112.132 26.5896 111.632 26.9896 111.032 27.5896C110.632 27.8896 109.932 27.9896 109.032 28.0896C107.432 28.1896 105.532 27.6896 104.232 27.1896C103.732 26.9896 103.332 26.8896 103.332 25.9896C103.332 24.3896 102.732 22.8896 102.132 21.7896C101.532 20.7896 101.032 20.2896 99.7315 19.5896C100.532 18.0896 101.132 15.6896 101.332 17.8896ZM110.832 25.5896C110.532 25.1896 110.632 25.1896 110.832 24.9896C111.032 24.7896 111.132 24.7896 111.432 25.0896C111.632 24.8896 111.832 24.7896 111.832 24.6896C111.832 24.4896 111.832 24.3896 111.732 24.1896C111.532 23.7896 111.132 23.4896 110.732 23.7896C110.532 23.9896 109.932 24.4896 109.832 24.7896C109.732 25.0896 109.832 25.9896 110.132 26.1896C110.232 26.2896 110.232 26.3896 110.332 26.2896C110.532 25.9896 110.732 25.7896 110.832 25.5896Z" fill="#8C5B3C"/>
<path fill-rule="evenodd" clip-rule="evenodd" d="M106.832 16.8896C105.832 16.7896 102.732 16.3896 101.132 16.1896C99.5315 15.9896 97.7315 15.7896 97.0315 17.0896C96.5315 18.6896 97.2315 20.9896 97.9315 22.0896C98.9315 23.6896 100.332 24.7896 102.532 25.4896C103.332 25.7896 103.132 23.8896 103.032 23.2896C102.832 22.5896 102.732 21.9896 102.632 21.1896C102.432 20.6896 102.832 20.4896 102.632 20.0896C102.132 18.9896 101.632 18.4896 101.532 17.5896C102.032 16.4896 104.932 17.5896 106.832 16.8896Z" fill="#8C5B3C"/>
<path fill-rule="evenodd" clip-rule="evenodd" d="M107.732 25.8896C108.032 25.9896 108.332 25.9896 108.332 25.9896C108.732 25.7896 108.232 24.7896 109.432 23.5896C109.832 23.1896 110.432 22.6896 110.732 22.6896C111.232 22.5896 111.432 22.7896 111.632 22.4896C111.932 23.2896 112.532 25.3896 112.232 26.1896C112.132 26.5896 111.632 26.9896 111.032 27.5896C110.932 27.6896 110.832 27.6896 110.732 27.7896C110.432 27.6896 110.032 27.4896 109.932 27.4896C109.432 27.0896 108.532 26.6896 107.732 25.8896ZM110.832 25.5896C110.532 25.1896 110.632 25.1896 110.832 24.9896C111.032 24.7896 111.132 24.7896 111.432 25.0896C111.632 24.8896 111.832 24.7896 111.832 24.6896C111.832 24.4896 111.832 24.3896 111.732 24.1896C111.532 23.7896 111.132 23.4896 110.732 23.7896C110.532 23.9896 109.932 24.4896 109.832 24.7896C109.732 25.0896 109.832 25.9896 110.132 26.1896C110.232 26.2896 110.232 26.3896 110.332 26.2896C110.532 25.9896 110.732 25.7896 110.832 25.5896Z" fill="#A36B48"/>
<path fill-rule="evenodd" clip-rule="evenodd" d="M101.432 22.0897C99.9315 22.1897 100.532 23.6897 101.132 24.4897C101.532 25.0897 102.032 24.7897 102.432 25.1897C102.832 25.5897 103.232 25.7897 103.632 25.6897C103.632 24.9897 103.432 23.9897 103.232 23.3897C102.832 22.6897 102.232 22.0897 101.432 22.0897Z" fill="#E8A476"/>
<path fill-rule="evenodd" clip-rule="evenodd" d="M97.0315 17.0897C96.7315 17.6897 96.7315 19.1897 97.1315 19.9897C97.0315 19.3897 96.9315 18.7897 97.3315 18.0897C97.2315 19.0897 97.2315 19.4897 97.8315 20.3897C97.6315 19.5897 97.5315 18.7897 98.0315 18.1897C97.8315 19.5897 98.4315 20.8897 98.8315 21.4897C98.4315 20.3897 98.3315 19.0897 98.9315 18.1897C98.7315 19.1897 99.3315 20.0897 99.7315 20.7897C99.5315 19.6897 99.3315 19.0897 99.9315 18.1897C100.032 19.1897 100.532 20.1897 101.132 20.6897C100.932 20.3897 100.732 18.6897 100.832 18.0897C101.032 18.6897 101.632 19.1897 102.132 19.2897C101.532 18.2897 101.532 17.6897 101.532 17.3897C101.532 16.4897 102.932 16.7897 104.432 16.7897C100.532 15.8897 97.5315 16.9897 97.0315 17.0897Z" fill="#4F2B0C"/>
<path fill-rule="evenodd" clip-rule="evenodd" d="M97.0315 17.0897C97.7315 16.9897 99.5315 16.4897 101.632 16.5897C103.632 16.6897 106.032 17.5897 107.832 16.3897C109.832 15.0897 109.832 12.5897 107.932 11.2897C107.332 11.8897 106.832 11.4897 103.832 11.3897C100.532 11.4897 96.5315 13.4897 97.0315 17.0897Z" fill="#361D07"/>
<path fill-rule="evenodd" clip-rule="evenodd" d="M97.0315 17.0896C97.7315 16.9896 99.5315 16.4896 101.632 16.5896C103.632 16.6896 106.032 17.5896 107.832 16.3896C109.832 15.0896 109.832 12.6896 107.932 11.3896C107.832 12.2896 107.332 12.4896 107.132 13.1896C106.932 13.9896 106.932 14.4896 106.032 14.7896C106.332 14.4896 106.432 14.3896 106.632 13.7896C106.132 14.3896 105.432 14.8896 104.332 15.2896C104.832 14.9896 105.032 14.7896 105.332 14.3896C104.032 15.0896 103.332 15.2896 101.832 15.5896C102.432 15.1896 102.632 15.1896 103.332 14.8896C101.832 14.9896 101.032 15.3896 99.7316 15.9896C100.032 15.6896 100.332 15.4896 100.632 15.2896C99.2315 15.6896 98.2315 16.5896 97.0315 16.6896C96.9315 16.7896 96.9315 16.9896 97.0315 17.0896Z" fill="#241304"/>
<path fill-rule="evenodd" clip-rule="evenodd" d="M97.6315 14.3897C98.3315 13.0897 100.032 12.1897 101.432 11.7897C102.532 11.4897 104.032 11.3897 104.732 11.2897C104.432 11.4897 104.332 11.4897 104.132 11.5897C105.832 11.4897 106.732 11.9897 107.632 11.6897C106.432 12.6897 103.932 12.7897 103.232 13.0897C103.432 13.0897 103.432 13.1897 103.732 13.2897C101.732 13.6897 100.032 12.6897 97.6315 14.3897Z" fill="#4A2B12"/>
</svg>
