<svg width="111" height="212" viewBox="0 0 111 212" fill="none" xmlns="http://www.w3.org/2000/svg">
<path fill-rule="evenodd" clip-rule="evenodd" d="M55.2068 152.42C60.6068 143.22 78.3068 146.92 79.8068 154.12C95.9068 153.32 104.207 175.02 84.4068 182.22C95.0068 194.22 66.7068 211.42 57.3068 202.52C53.9068 213.52 33.9068 214.02 32.1068 202.92C21.9068 208.42 9.80682 197.52 13.0068 192.22C2.70682 194.92 -9.99318 173.82 12.8068 168.02C13.9068 159.32 24.4068 152.52 35.0068 160.42C37.2068 154.12 50.6068 147.52 55.2068 152.42Z" fill="#F4FAFC"/>
<path fill-rule="evenodd" clip-rule="evenodd" d="M92.6068 159.62C98.2068 166.32 97.4068 177.42 84.4068 182.22C95.0068 194.22 66.7068 211.42 57.3068 202.52C53.9068 213.52 33.9068 214.02 32.1068 202.92C21.9068 208.42 9.80682 197.52 13.0068 192.22C4.40682 194.42 -5.79318 180.32 4.00682 172.12C-4.99318 182.22 8.20682 192.02 15.4068 188.22C12.3068 193.12 22.7068 207.92 34.2068 199.32C36.0068 209.72 54.8068 210.62 57.9068 198.12C66.7068 206.42 90.8068 190.72 80.9068 179.52C96.4068 175.02 95.2068 166.12 92.6068 159.62Z" fill="#DDE5E8"/>
<path fill-rule="evenodd" clip-rule="evenodd" d="M51.9068 146.72C56.0068 138.52 71.5068 139.02 73.2068 145.12C83.0068 144.32 90.1068 155.12 73.5068 162.52C80.2068 169.22 71.4068 174.92 64.0068 175.02C63.5068 178.62 58.1068 182.02 54.2068 180.62C51.7068 186.82 34.4068 191.62 34.1068 181.92C25.7068 186.02 21.4068 180.12 23.9068 175.32C15.7068 178.32 3.40682 166.02 22.8068 157.52C23.2068 149.92 32.3068 145.62 39.1068 149.42C40.8068 144.02 47.7068 142.72 51.9068 146.72Z" fill="#F4FAFC"/>
<path fill-rule="evenodd" clip-rule="evenodd" d="M80.7068 147.12C85.8068 150.72 84.7068 158.32 73.5068 162.52C80.2068 169.22 71.4068 174.92 64.0068 175.02C63.5068 178.62 58.1068 182.02 54.2068 180.62C51.7068 186.82 34.4068 191.62 34.1068 181.92C25.7068 186.02 21.4068 180.12 23.9068 175.32C16.8068 177.92 6.50682 168.92 16.7068 161.02C9.50682 167.92 15.4068 173.92 26.1068 173.52C23.3068 179.72 34.0068 182.12 35.7068 177.32C35.5068 187.32 50.7068 183.02 51.6068 176.32C57.4068 179.02 64.3068 175.72 62.3068 170.72C71.7068 171.02 75.2068 165.92 70.7068 160.62C79.2068 157.42 85.6068 153.82 80.7068 147.12Z" fill="#DDE5E8"/>
<path fill-rule="evenodd" clip-rule="evenodd" d="M54.4068 108.82C54.7068 118.72 50.1068 143.32 60.5068 145.92C66.1068 147.32 67.1068 153.12 55.9068 158.02C54.0068 162.32 41.2068 170.62 38.8068 161.52C28.4068 162.62 31.4068 156.22 35.8068 152.22C37.1068 151.02 38.8068 150.02 39.9068 148.22C46.1068 138.72 50.3068 120.82 54.4068 108.82Z" fill="#F4FAFC"/>
<path fill-rule="evenodd" clip-rule="evenodd" d="M54.4068 108.82C52.5068 117.42 46.6068 136.42 40.9068 148.52C40.0068 150.42 39.1068 151.92 37.6068 153.22C31.5068 158.42 37.0068 160.92 41.1068 158.32C40.9068 164.32 52.4068 163.22 56.3068 157.02C64.6068 155.82 64.7068 150.72 63.0068 147.02C68.8068 150.02 68.2068 157.32 57.8068 158.42C55.9068 162.72 41.2068 170.62 38.9068 161.52C28.5068 162.62 29.7068 153.02 35.0068 152.02C37.0068 151.62 39.1068 149.22 40.4068 147.02C46.3068 137.42 50.4068 120.52 54.4068 108.82Z" fill="#DDE5E8"/>
<path fill-rule="evenodd" clip-rule="evenodd" d="M51.3068 123.82C50.3068 121.52 47.4068 112.82 47.2068 110.42L46.1068 113.02C43.5068 103.42 44.8068 100.32 49.3068 92.5198L63.8068 94.6198C64.7068 103.72 65.3068 107.12 59.3068 115.32L59.2068 112.42C58.2068 114.72 53.4068 121.52 51.3068 123.82Z" fill="#F57113"/>
<path fill-rule="evenodd" clip-rule="evenodd" d="M52.7068 115.82C52.0068 114.22 49.9068 108.02 49.8068 106.32L49.0068 108.22C47.2068 101.42 48.1068 99.3197 51.2068 93.7197L61.4068 95.2197C62.1068 101.72 62.4068 104.02 58.3068 109.82L58.2068 107.82C57.6068 109.42 54.1068 114.22 52.7068 115.82Z" fill="#FA9A2C"/>
<path fill-rule="evenodd" clip-rule="evenodd" d="M53.7068 110.12C53.2068 108.92 51.7068 104.42 51.6068 103.22L51.0068 104.62C49.7068 99.7198 50.3068 98.1198 52.6068 94.0198L60.1068 95.1198C60.6068 99.8198 60.9068 101.52 57.8068 105.82V104.32C57.2068 105.42 54.7068 108.92 53.7068 110.12Z" fill="#FAC545"/>
<path fill-rule="evenodd" clip-rule="evenodd" d="M54.5068 105.12C54.1068 104.22 53.1068 101.02 53.0068 100.22L52.6068 101.22C51.6068 97.7197 52.1068 96.5197 53.8068 93.7197L59.1068 94.5197C59.4068 97.9197 59.6068 99.1197 57.5068 102.12V101.12C57.0068 101.72 55.3068 104.22 54.5068 105.12Z" fill="#FFDF94"/>
<path opacity="0.3" fill-rule="evenodd" clip-rule="evenodd" d="M63.7068 97.7197C61.7068 100.52 57.0068 100.72 53.1068 99.3197C53.3068 100.72 55.5068 114.92 55.3068 117.02C56.2068 115.12 59.6068 110.32 60.2068 108.22L60.4068 110.92C62.6068 107.12 64.3068 102.22 63.7068 97.7197Z" fill="#FFFFD1"/>
<path opacity="0.5" fill-rule="evenodd" clip-rule="evenodd" d="M51.3068 123.82C50.3068 121.52 47.4068 112.82 47.2068 110.42L46.1068 113.02C43.5068 103.42 44.8068 100.32 49.3068 92.5198L52.5068 93.0198C48.9068 96.7198 48.2068 101.82 48.0068 105.92C48.3068 105.42 48.8068 105.12 49.8068 104.42C49.2068 111.52 49.9068 117.22 51.3068 123.82Z" fill="#B3510B"/>
<path opacity="0.32" fill-rule="evenodd" clip-rule="evenodd" d="M63.2068 99.8197C61.6068 101.42 58.3068 102.02 55.3068 101.52C56.3068 105.22 56.7068 111.02 56.5068 113.22C57.2068 111.82 60.4068 106.12 60.8068 104.62L61.1068 107.32C62.5068 104.52 63.0068 102.12 63.2068 99.8197Z" fill="#FFFFD1"/>
<path fill-rule="evenodd" clip-rule="evenodd" d="M57.2068 90.3197C61.3068 91.0197 64.4068 93.5197 63.9068 95.9197C63.5068 98.2197 59.8068 99.5198 55.7068 98.8198C51.6068 98.1198 48.5068 95.6197 49.0068 93.2197C49.4068 90.8197 53.0068 89.6197 57.2068 90.3197Z" fill="#FF9B54"/>
<path fill-rule="evenodd" clip-rule="evenodd" d="M66.2068 97.4198C67.8068 94.2198 69.1068 91.2198 70.7068 88.0198L47.4068 84.4198C46.9068 83.6198 45.5068 84.2198 45.4068 83.4198C45.7068 86.9198 45.8068 90.2198 46.3068 93.8198C46.3068 95.0198 47.1068 96.4198 48.5068 97.6198C50.5068 99.3198 53.1068 100.22 55.5068 100.62C59.2068 101.12 64.1068 101.12 66.2068 97.4198Z" fill="#7F9098"/>
<path fill-rule="evenodd" clip-rule="evenodd" d="M52.5068 85.1197L47.4068 84.3197C46.9068 83.5197 45.5068 84.1197 45.4068 83.3197C45.7068 86.8197 45.8068 90.1197 46.3068 93.7197C46.3068 94.9197 47.1068 96.3197 48.5068 97.5197C50.4068 99.2197 53.0068 100.12 55.5068 100.52C59.1068 101.02 63.8068 101.12 66.0068 97.7197C63.1068 100.72 55.9068 99.6197 53.5068 98.3197C53.1068 93.8197 52.7068 89.4197 52.5068 85.1197Z" fill="#74858C"/>
<path fill-rule="evenodd" clip-rule="evenodd" d="M68.4068 80.9198C64.0068 77.1198 55.9068 75.5198 50.3068 77.4198C44.7068 79.3198 43.7068 84.0198 48.2068 87.9198C52.6068 91.7198 60.7068 93.3198 66.3068 91.4198C71.9068 89.4198 72.8068 84.7198 68.4068 80.9198Z" fill="#697A82"/>
<path fill-rule="evenodd" clip-rule="evenodd" d="M67.9068 81.1197C63.7068 77.5197 56.0068 76.0197 50.7068 77.8197C45.4068 79.6197 44.5068 84.1197 48.7068 87.7197C52.9068 91.3197 60.6068 92.8197 65.9068 91.0197C71.2068 89.2197 72.1068 84.7197 67.9068 81.1197Z" fill="#5F6F78"/>
<path fill-rule="evenodd" clip-rule="evenodd" d="M83.6068 52.4197C83.9068 47.6197 83.7068 42.8197 82.8068 38.1197C82.6068 36.8197 82.3068 35.5197 81.9068 34.3197C75.8068 14.2197 68.6068 8.61973 53.5068 28.8197C52.9068 29.6197 52.3068 30.5197 51.8068 31.3197C49.3068 35.2197 47.2068 39.7197 45.7068 44.4197C42.2068 55.2197 41.6068 70.2197 44.8068 81.1197C45.2068 82.4197 45.6068 83.4197 46.0068 84.3197C46.5068 85.1197 47.0068 85.9197 48.0068 86.7197C52.6068 90.6197 60.7068 92.1197 66.3068 90.2197C68.0068 89.6197 69.1068 88.9197 70.2068 87.7197C71.0068 86.8197 71.9068 85.6197 72.5068 84.7197C78.6068 76.2197 82.8068 63.2197 83.6068 52.4197Z" fill="#CED2D6"/>
<path fill-rule="evenodd" clip-rule="evenodd" d="M53.5068 28.8198C51.4068 31.7198 49.3068 35.5198 47.9068 38.6198C46.7068 41.2198 45.8068 43.9198 45.0068 46.7198C42.1068 57.2198 41.8068 71.0198 44.8068 81.1198C45.2068 82.4198 45.6068 83.4198 46.0068 84.3198C48.2068 88.4198 54.1068 90.4198 58.5068 90.9198C61.2068 91.2198 64.0068 91.0198 66.3068 90.2198C68.0068 89.6198 68.6068 89.3198 70.2068 87.7198C65.4068 91.2198 57.2068 89.8198 52.4068 87.1198C49.7068 70.3198 50.1068 54.0198 56.9068 40.7198C58.4068 41.4198 71.6068 45.7198 78.0068 40.0198L53.9068 29.0198C54.2068 28.5198 54.5068 28.1198 54.9068 27.6198C57.3068 24.4198 59.5068 21.8198 61.5068 19.9198C59.0068 22.0198 56.4068 24.9198 53.5068 28.8198Z" fill="#AEB5BB"/>
<path fill-rule="evenodd" clip-rule="evenodd" d="M70.7068 86.3198L70.9068 85.9198L70.6068 86.3198H70.7068Z" fill="#838489"/>
<path fill-rule="evenodd" clip-rule="evenodd" d="M81.5068 32.5197C79.6068 26.1197 76.5068 18.4197 71.9068 13.5197C71.8068 13.4197 71.7068 13.3197 71.6068 13.2197C71.5068 13.1197 71.3068 12.9197 71.1068 12.8197C70.9068 12.8197 70.6068 12.9197 70.5068 13.0197C64.1068 16.1197 58.0068 22.5197 54.0068 28.1197C53.7068 28.5197 53.5068 28.8197 53.4068 29.2197C52.5068 31.2197 53.1068 33.3197 54.3068 35.1197C55.5068 36.8197 57.3068 38.1197 59.1068 39.0197C59.3068 39.1197 59.6068 39.3197 59.8068 39.4197C64.5068 41.8197 71.2068 42.4197 75.9068 41.0197C77.6068 40.5197 79.3068 39.6197 80.5068 38.4197C81.1068 37.8197 81.5068 37.1197 81.8068 36.2197C82.0068 35.7197 82.1068 35.1197 82.0068 34.6197C81.9068 33.9197 81.7068 33.2197 81.5068 32.5197Z" fill="#C01617"/>
<path fill-rule="evenodd" clip-rule="evenodd" d="M71.1068 12.8197C71.1068 12.8197 71.0068 12.8197 71.1068 12.8197C70.8068 12.7197 70.5068 12.9198 70.4068 12.9198C64.0068 16.0198 57.9068 22.4197 53.9068 28.0197C53.6068 28.4197 53.4068 28.7198 53.3068 29.1198C52.4068 31.1198 53.0068 33.2197 54.2068 35.0197C54.2068 35.0197 54.2068 35.0198 54.3068 35.1198V35.2198L54.4068 35.3197C54.4068 35.3197 54.4068 35.3198 54.5068 35.4198C54.5068 35.4198 54.5068 35.4197 54.6068 35.5197L54.7068 35.6198C54.8068 35.7198 54.8068 35.7197 54.9068 35.8197C54.9068 35.8197 54.9068 35.8198 55.0068 35.9198C55.1068 36.0198 55.1068 36.0198 55.2068 36.1198C55.3068 36.2198 55.3068 36.2197 55.4068 36.3197L55.5068 36.4198L55.6068 36.5197C55.7068 36.6197 55.9068 36.8198 56.0068 36.9198L56.1068 37.0197L56.2068 37.1198H56.3068L56.4068 37.2198H56.5068H56.6068L56.7068 37.3197H56.8068H56.9068L57.0068 37.4198H57.1068H57.2068H57.3068H57.4068H57.5068H57.6068C58.0068 37.7198 58.4068 37.9198 58.8068 38.1198C59.0068 38.2198 59.3068 38.4197 59.5068 38.5197C64.2068 40.9197 70.9068 41.5198 75.6068 40.1198C77.3068 39.6198 79.1068 38.7197 80.3068 37.3197C78.2068 38.8197 69.4068 43.3197 58.2068 35.3197C61.3068 28.1197 65.4068 20.6197 71.1068 12.8197Z" fill="#A51515"/>
<path fill-rule="evenodd" clip-rule="evenodd" d="M71.6068 14.4198C70.4068 16.2198 63.8068 27.5198 61.7068 36.6198C66.5068 39.7198 76.6068 41.1198 80.8068 34.9198C79.1068 27.7198 75.5068 19.2198 71.6068 14.4198Z" fill="#DE1F1F"/>
<path fill-rule="evenodd" clip-rule="evenodd" d="M71.7068 15.4198C71.6068 18.5198 70.6068 25.2198 69.4068 32.0198C68.0068 40.0198 79.9068 39.0198 77.8068 30.1198C76.6068 25.0198 73.7068 19.2198 71.7068 15.4198Z" fill="#FA3737"/>
<path fill-rule="evenodd" clip-rule="evenodd" d="M68.4068 91.0198C63.9068 94.0198 56.4068 93.0198 53.9068 91.9198C53.9068 93.8198 54.2068 95.7198 54.3068 97.6198C59.2068 99.3198 63.3068 98.9198 65.2068 97.2198C66.3068 96.3198 67.4068 93.5198 68.4068 91.0198Z" fill="#92A3AB"/>
<path fill-rule="evenodd" clip-rule="evenodd" d="M67.5068 92.1198C64.7068 94.5198 57.8068 94.1197 55.6068 93.3197C55.6068 94.4197 55.6068 95.0198 55.7068 95.8198C55.8068 97.2198 56.0068 97.3198 57.3068 97.6198C60.7068 98.5198 63.6068 97.9198 64.8068 96.7198C65.7068 95.9198 66.6068 94.0198 67.5068 92.1198Z" fill="#A9BAC2"/>
<path fill-rule="evenodd" clip-rule="evenodd" d="M81.4068 39.2197C77.8068 44.7197 67.2068 46.7197 58.9068 44.5197C55.8068 54.1197 54.8068 70.8197 56.6068 85.3197C60.5068 87.7197 67.3068 87.2197 70.7068 85.3197C81.6068 69.1197 82.6068 52.2197 81.4068 39.2197Z" fill="#DDE2E6"/>
<path fill-rule="evenodd" clip-rule="evenodd" d="M80.4068 42.9198C78.2068 46.2198 73.0068 47.7198 67.7068 47.8198C67.2068 55.2198 63.4068 80.6198 62.7068 85.2198C65.8068 85.6198 68.1068 85.1198 70.1068 84.0198C77.3068 70.5198 81.1068 53.7198 80.4068 42.9198Z" fill="#EDF3F7"/>
<path fill-rule="evenodd" clip-rule="evenodd" d="M64.8068 47.4197C70.5068 48.4197 74.2068 53.7197 73.2068 59.3197C72.2068 64.8197 66.8068 68.5197 61.1068 67.5197C55.4068 66.5197 51.7068 61.2197 52.6068 55.6197C53.7068 50.0197 59.1068 46.4197 64.8068 47.4197Z" fill="#AEB5BB"/>
<path fill-rule="evenodd" clip-rule="evenodd" d="M61.8068 64.0197C58.1068 63.3197 55.7068 59.8197 56.4068 56.2197C57.1068 52.5197 60.6068 50.1197 64.2068 50.8197C67.9068 51.5197 70.3068 55.0197 69.6068 58.6197C68.9068 62.3197 65.4068 64.7197 61.8068 64.0197ZM64.7068 47.8197C59.4068 46.8197 54.3068 50.4197 53.3068 55.7197C52.3068 61.0197 55.9068 66.1197 61.2068 67.0197C66.5068 68.0197 71.6068 64.4197 72.6068 59.1197C73.5068 53.8197 70.0068 48.7197 64.7068 47.8197Z" fill="#EDF3F7"/>
<path fill-rule="evenodd" clip-rule="evenodd" d="M61.8068 64.0197C65.5068 64.7197 69.0068 62.2197 69.6068 58.6197C70.3068 54.9197 67.8068 51.4197 64.2068 50.8197C60.5068 50.1197 57.0068 52.6197 56.4068 56.2197C55.7068 59.9197 58.1068 63.4197 61.8068 64.0197Z" fill="#435469"/>
<path fill-rule="evenodd" clip-rule="evenodd" d="M64.2068 50.8198C67.9068 51.5198 70.3068 55.0198 69.6068 58.6198C69.5068 59.0198 69.4068 59.4198 69.3068 59.8198C69.3068 56.6198 67.0068 53.8198 63.7068 53.2198C60.5068 52.6198 57.3068 54.5198 56.2068 57.4198C56.2068 57.0198 56.2068 56.6198 56.3068 56.2198C57.0068 52.5198 60.5068 50.1198 64.2068 50.8198Z" fill="#2E3D4F"/>
<path fill-rule="evenodd" clip-rule="evenodd" d="M64.2068 50.3198C64.6068 50.4198 65.0068 50.1198 65.0068 49.7198C65.1068 49.3198 64.8068 48.9198 64.4068 48.9198C64.0068 48.8198 63.6068 49.1198 63.6068 49.5198C63.6068 49.9198 63.8068 50.2198 64.2068 50.3198Z" fill="#4B6380"/>
<path fill-rule="evenodd" clip-rule="evenodd" d="M61.4068 65.9198C61.8068 66.0198 62.2068 65.7198 62.2068 65.3198C62.3068 64.9198 62.0068 64.5197 61.6068 64.5197C61.2068 64.4197 60.8068 64.7198 60.8068 65.1198C60.8068 65.5198 61.0068 65.8198 61.4068 65.9198Z" fill="#4B6380"/>
<path fill-rule="evenodd" clip-rule="evenodd" d="M71.5068 58.9197C71.4068 59.3197 71.1068 59.5197 70.7068 59.5197C70.3068 59.4197 70.0068 59.1197 70.1068 58.7197C70.2068 58.3197 70.5068 58.0197 70.9068 58.1197C71.3068 58.2197 71.5068 58.5197 71.5068 58.9197Z" fill="#4B6380"/>
<path fill-rule="evenodd" clip-rule="evenodd" d="M55.9068 56.1197C55.8068 56.5197 55.5068 56.7197 55.1068 56.7197C54.7068 56.6197 54.4068 56.3197 54.5068 55.9197C54.6068 55.5197 54.9068 55.2197 55.3068 55.3197C55.7068 55.4197 55.9068 55.7197 55.9068 56.1197Z" fill="#4B6380"/>
<path fill-rule="evenodd" clip-rule="evenodd" d="M70.1068 52.5197C70.3068 52.8197 70.2068 53.3197 69.9068 53.5197C69.6068 53.7197 69.1068 53.6197 68.9068 53.3197C68.7068 53.0197 68.8068 52.5197 69.1068 52.3197C69.4068 52.1197 69.8068 52.1197 70.1068 52.5197Z" fill="#4B6380"/>
<path fill-rule="evenodd" clip-rule="evenodd" d="M57.0068 61.5197C57.2068 61.8197 57.1068 62.3197 56.8068 62.5197C56.5068 62.7197 56.0068 62.6198 55.8068 62.3198C55.6068 62.0198 55.7068 61.5198 56.0068 61.3198C56.4068 61.1198 56.8068 61.2197 57.0068 61.5197Z" fill="#4B6380"/>
<path fill-rule="evenodd" clip-rule="evenodd" d="M67.9068 64.5197C67.6068 64.7197 67.1068 64.6198 66.9068 64.3198C66.7068 64.0198 66.8068 63.5198 67.1068 63.3198C67.4068 63.1198 67.9068 63.2197 68.1068 63.5197C68.3068 63.8197 68.2068 64.3197 67.9068 64.5197Z" fill="#4B6380"/>
<path fill-rule="evenodd" clip-rule="evenodd" d="M58.8068 51.5197C58.5068 51.7197 58.0068 51.6198 57.8068 51.3198C57.6068 51.0198 57.7068 50.5198 58.0068 50.3198C58.3068 50.1198 58.8068 50.2197 59.0068 50.5197C59.2068 50.8197 59.2068 51.2197 58.8068 51.5197Z" fill="#4B6380"/>
<path fill-rule="evenodd" clip-rule="evenodd" d="M76.6068 74.6198L72.9068 75.9198C75.7068 92.5198 73.4068 101.52 71.2068 115.32L74.9068 114.02C76.7068 107.62 79.4068 100.92 80.2068 94.4197C80.6068 91.5197 80.6068 88.6198 80.2068 85.6198C79.6068 81.8198 78.4068 78.2198 76.6068 74.6198Z" fill="#C01617"/>
<path fill-rule="evenodd" clip-rule="evenodd" d="M76.6068 75.7197L73.9068 76.6197C76.2068 81.7197 78.0068 88.1197 77.6068 93.9197C77.1068 100.72 74.4068 108.02 72.3068 114.12L74.6068 113.32C76.9068 106.92 79.6068 97.8197 80.0068 92.2197C80.3068 87.3197 79.2068 81.1197 76.6068 75.7197Z" fill="#DE1F1F"/>
<path fill-rule="evenodd" clip-rule="evenodd" d="M76.4068 76.3197L74.7068 76.8197C77.1068 79.6197 79.0068 86.4197 78.6068 92.7197C78.2068 98.4197 77.0068 104.62 75.1068 111.42C77.3068 105.42 79.2068 96.8197 79.5068 91.5197C79.8068 87.1197 78.9068 81.4197 76.4068 76.3197Z" fill="#FA3737"/>
<path fill-rule="evenodd" clip-rule="evenodd" d="M72.9068 75.9198L66.7068 90.9198C68.9068 97.7198 70.6068 105.62 71.3068 115.32C75.0068 101.62 80.7068 91.9198 72.9068 75.9198Z" fill="#A51515"/>
<path fill-rule="evenodd" clip-rule="evenodd" d="M72.9068 75.9198L66.7068 90.9198C68.9068 97.7198 70.6068 105.62 71.3068 115.32C73.9068 102.42 71.8068 87.4198 72.9068 75.9198Z" fill="#8F1111"/>
<path fill-rule="evenodd" clip-rule="evenodd" d="M44.2068 68.7197L47.2068 71.2197C38.8068 85.8197 37.7068 95.0197 35.0068 108.72L32.0068 106.12C32.6068 99.5197 32.4068 92.3197 33.9068 85.9197C34.6068 83.1197 35.5068 80.4197 37.0068 77.7197C38.9068 74.4197 41.3068 71.5197 44.2068 68.7197Z" fill="#C01617"/>
<path fill-rule="evenodd" clip-rule="evenodd" d="M43.8068 69.8197L46.0068 71.5197C42.0068 75.5197 38.1068 80.9197 36.5068 86.4197C34.6068 92.9197 34.5068 100.72 34.4068 107.12L32.5068 105.52C32.5068 98.7197 33.2068 89.2197 34.8068 83.8197C36.3068 79.4197 39.5068 74.0197 43.8068 69.8197Z" fill="#DE1F1F"/>
<path fill-rule="evenodd" clip-rule="evenodd" d="M43.8068 70.4197L45.2068 71.5197C41.9068 73.3197 37.8068 79.0197 36.0068 85.1197C34.4068 90.6197 33.4068 96.9197 32.7068 103.92C32.7068 97.5197 34.0068 88.8197 35.5068 83.7197C36.8068 79.4197 39.7068 74.3197 43.8068 70.4197Z" fill="#FA3737"/>
<path fill-rule="evenodd" clip-rule="evenodd" d="M47.2068 71.3197L47.8068 87.6197C43.3068 93.2197 39.0068 100.02 35.0068 108.92C36.2068 94.6197 34.3068 83.6197 47.2068 71.3197Z" fill="#A51515"/>
<path fill-rule="evenodd" clip-rule="evenodd" d="M47.2068 71.3197L47.8068 87.6197C43.3068 93.2197 39.0068 100.02 35.0068 108.92C37.0068 95.8197 44.2068 82.4197 47.2068 71.3197Z" fill="#8F1111"/>
<path fill-rule="evenodd" clip-rule="evenodd" d="M102.303 7.2197C103.003 5.7197 108.103 7.01969 107.103 9.01969C106.903 9.41969 106.503 9.51969 106.203 9.81969C106.203 9.81969 104.303 9.71969 104.003 9.61969C103.703 9.51969 102.303 8.2197 102.303 8.2197C102.303 7.9197 102.203 7.5197 102.303 7.2197Z" fill="#1D2933"/>
<path fill-rule="evenodd" clip-rule="evenodd" d="M102.803 6.81968C103.203 7.61968 105.603 9.31968 107.103 8.01968C107.303 7.51968 106.703 7.01969 105.603 6.71969C104.403 6.41969 103.303 5.91968 102.803 6.81968Z" fill="#C4CFE6"/>
<path fill-rule="evenodd" clip-rule="evenodd" d="M107.503 4.8197C108.003 5.1197 108.203 6.11971 107.703 6.91971C107.603 7.01971 107.203 7.5197 106.803 8.0197C106.703 8.1197 106.503 8.81971 106.403 9.11971C106.203 9.91971 104.803 9.21971 104.503 8.91971C104.203 8.61971 104.103 7.51971 104.203 7.21971C104.503 6.51971 104.203 4.5197 104.203 4.0197C104.203 3.5197 104.703 3.7197 104.503 2.8197L107.503 4.8197Z" fill="#DB9669"/>
<path fill-rule="evenodd" clip-rule="evenodd" d="M107.703 3.01967L109.503 1.41968H109.603C109.903 1.51968 110.103 1.81968 110.203 1.91968C110.403 2.31968 109.803 4.01968 109.503 4.41968C109.403 4.51968 109.103 5.11968 108.903 4.91968C108.903 5.21968 108.403 5.61968 108.103 5.41968C108.003 5.81968 107.903 5.71967 107.603 5.81967C107.503 5.91967 107.403 5.91968 107.303 5.91968L107.103 3.41968L107.703 3.01967Z" fill="#E8A476"/>
<path fill-rule="evenodd" clip-rule="evenodd" d="M107.403 3.7197L103.303 2.51969C103.203 2.01969 103.603 1.61969 104.503 1.01969C104.803 0.819688 105.603 0.319694 105.903 0.119694C106.503 -0.180306 107.703 0.119694 108.603 0.619694C108.803 0.719694 110.003 1.7197 110.103 1.9197C109.003 3.0197 108.003 3.6197 107.403 3.7197Z" fill="#F1B287"/>
<path fill-rule="evenodd" clip-rule="evenodd" d="M105.503 5.61974C105.203 5.51974 104.703 5.11974 104.703 4.71974C104.603 3.91974 105.303 4.41974 105.803 4.61974C106.003 4.71974 106.203 4.81974 106.503 4.81974C106.703 4.91974 106.703 4.91974 106.703 4.61974C106.703 4.51974 106.503 4.31974 106.303 4.21974C105.803 4.01974 105.403 3.81974 105.103 3.81974C104.803 3.81974 104.703 3.91974 104.803 4.41974C104.903 5.21974 105.303 5.71974 105.503 6.31974C105.703 6.81974 105.703 7.41974 105.203 8.21974C105.103 8.41974 104.903 8.61974 104.803 8.81974C104.703 9.01973 104.003 8.71973 103.703 8.51973C103.403 8.21973 102.703 8.61974 102.803 8.41974C103.503 7.31974 103.703 5.31974 103.403 3.91974C103.303 3.51974 103.203 2.01974 103.703 1.81974C104.803 1.41974 107.303 3.01974 107.703 3.81974C107.803 4.01974 107.903 4.21974 107.803 4.31974C107.803 4.81974 107.703 5.11974 107.703 5.61974C107.603 6.51974 105.903 5.81974 105.503 5.61974Z" fill="#E8A476"/>
<path fill-rule="evenodd" clip-rule="evenodd" d="M105.003 2.51965C104.803 2.81965 104.603 3.31966 104.503 3.61966L104.103 5.11966C104.003 4.01966 103.603 2.91965 105.003 2.51965Z" fill="#DB9669"/>
<path fill-rule="evenodd" clip-rule="evenodd" d="M104.203 5.81964C104.003 6.31964 103.403 8.01964 103.403 8.31964C103.403 8.61964 104.203 9.11964 104.703 9.01964C105.603 8.91964 106.003 7.51965 106.003 6.71965C106.003 6.11965 105.703 5.11964 105.903 4.51964C106.203 3.31964 105.903 2.91965 105.703 2.71965C105.403 2.41965 104.603 2.31965 104.703 3.91965C104.603 4.31965 104.303 5.31964 104.203 5.81964Z" fill="#E8A476"/>
<path fill-rule="evenodd" clip-rule="evenodd" d="M103.903 8.81973C104.103 8.91973 104.403 9.01972 104.603 9.01972C105.503 8.91972 105.903 7.51973 105.903 6.71973C105.903 6.11973 105.603 5.11972 105.803 4.51972C106.103 3.31972 105.803 2.91973 105.603 2.71973C105.403 2.51973 105.103 2.41973 104.803 2.71973C105.203 3.11973 105.403 3.71973 105.103 5.31973C104.903 6.91973 104.703 7.41973 103.903 8.81973Z" fill="#F1B287"/>
<path fill-rule="evenodd" clip-rule="evenodd" d="M102.303 8.11971C102.303 8.01971 102.503 7.5197 102.803 6.8197C103.203 7.6197 105.603 9.3197 107.103 8.0197L106.903 9.41971C105.903 10.2197 103.703 9.91971 102.303 8.11971Z" fill="#E6EDFF"/>
<path fill-rule="evenodd" clip-rule="evenodd" d="M98.403 20.5197C100.103 16.0197 100.703 12.8197 102.303 7.3197C102.703 8.5197 105.503 9.8197 107.103 9.0197C106.103 15.4197 106.503 22.4197 105.003 24.7197C103.103 27.8197 96.803 33.6197 93.903 35.8197C90.203 38.6197 88.403 41.5197 87.503 40.6197C85.903 39.1197 84.503 34.9197 85.303 32.9197C86.903 28.5197 94.303 24.5197 98.403 20.5197Z" fill="#152747"/>
<path fill-rule="evenodd" clip-rule="evenodd" d="M98.403 20.5197C100.103 16.0197 100.703 12.8197 102.303 7.3197C102.403 7.7197 102.803 8.1197 103.403 8.5197C102.503 14.0197 101.603 18.6197 100.403 22.5197C96.003 26.2197 89.903 28.8197 87.403 29.7197C90.403 26.5197 95.303 23.5197 98.403 20.5197Z" fill="#1A3059"/>
<path fill-rule="evenodd" clip-rule="evenodd" d="M101.903 23.0197C103.203 19.5197 104.503 13.5197 104.503 8.91968C105.403 9.21968 106.403 9.31968 107.203 8.91968C106.203 15.3197 106.603 22.3197 105.103 24.6197C103.203 27.7197 96.903 33.5197 94.003 35.7197C90.303 38.5197 88.503 41.4197 87.603 40.5197C86.803 39.8197 86.103 38.4197 85.603 36.9197C96.503 30.0197 100.703 24.9197 101.903 23.0197Z" fill="#0F1E38"/>
<path fill-rule="evenodd" clip-rule="evenodd" d="M106.703 1.91972L108.303 3.31972L108.003 5.31972L108.503 3.21973L106.803 1.71973L106.703 1.91972Z" fill="#DB9669"/>
<path fill-rule="evenodd" clip-rule="evenodd" d="M107.403 1.41972L109.003 2.81972L108.703 4.81972L109.203 2.71973L107.503 1.21973L107.403 1.41972Z" fill="#DB9669"/>
<path fill-rule="evenodd" clip-rule="evenodd" d="M108.103 0.919678L109.803 2.31967L109.403 4.31967L109.903 2.21968L108.403 1.01967L108.103 0.919678Z" fill="#DB9669"/>
<path fill-rule="evenodd" clip-rule="evenodd" d="M66.203 111.52C65.903 113.12 65.703 113.92 65.903 115.12C66.303 117.32 67.503 119.42 69.303 122.42C70.103 123.82 70.003 124.82 68.403 125.02C67.103 125.12 65.003 123.62 63.603 122.52C61.103 120.52 60.703 118.32 60.003 117.52L59.203 117.32C58.603 117.02 56.703 115.02 56.503 114.22C56.603 113.62 56.903 112.62 57.103 111.92C58.103 109.52 58.403 109.92 59.903 108.32C62.103 109.32 64.103 110.42 66.203 111.52Z" fill="#111214"/>
<path fill-rule="evenodd" clip-rule="evenodd" d="M69.703 124.22C69.503 124.62 69.103 124.82 68.403 124.92C67.103 125.02 65.003 123.52 63.603 122.42C61.103 120.42 60.703 118.22 60.003 117.42L59.203 117.22C58.603 116.92 56.703 114.92 56.503 114.12C56.603 113.52 56.903 112.52 57.103 111.82C58.103 109.42 58.403 109.82 59.903 108.22C60.803 108.72 61.703 109.22 62.603 109.72C62.003 111.32 60.603 113.92 61.403 115.52C62.303 117.32 63.303 118.12 64.003 119.12C66.303 122.42 67.603 124.82 69.703 124.22Z" fill="black"/>
<path fill-rule="evenodd" clip-rule="evenodd" d="M65.703 114.42C65.203 114.72 64.503 114.72 63.403 114.52C64.203 117.02 64.503 117.02 66.103 119.22C66.603 120.92 66.703 121.22 67.203 122.02C67.803 122.92 68.703 123.92 69.403 123.82C69.703 123.72 69.603 123.22 69.003 122.12C68.303 120.92 67.603 119.62 67.003 118.42C66.303 117.12 65.803 115.92 65.703 114.42Z" fill="#20232E"/>
<path fill-rule="evenodd" clip-rule="evenodd" d="M89.203 66.9197C89.003 67.8197 88.803 71.1197 88.203 72.5197C85.703 78.4197 79.803 86.5197 76.903 91.2197C72.403 98.3197 70.203 106.12 66.203 113.52C64.503 114.62 59.103 112.62 58.503 109.72C61.003 103.62 62.903 98.6197 64.603 95.4197C66.003 92.7197 66.903 91.2197 68.903 89.2197C70.503 83.6197 74.103 73.2197 77.003 67.5197L82.803 67.8197L86.403 66.9197H89.203Z" fill="#0C182E"/>
<path fill-rule="evenodd" clip-rule="evenodd" d="M89.203 65.7196C88.903 70.0196 87.603 73.8196 86.603 75.7196C84.503 77.4196 81.403 78.4196 78.803 78.7196C76.803 82.1196 74.403 87.3196 72.703 90.9196C67.903 97.3196 65.503 102.02 61.603 112.92C60.303 112.22 58.603 110.62 58.403 109.32C60.903 103.22 62.803 98.2196 64.503 95.0196C65.903 92.3196 66.803 90.8196 68.803 88.8196C71.003 82.0196 72.703 67.8196 76.103 65.4196L88.503 59.1196L89.203 65.7196Z" fill="#091224"/>
<path fill-rule="evenodd" clip-rule="evenodd" d="M85.003 78.0197C83.203 78.7197 82.103 79.0197 80.203 79.5197C77.403 84.8197 73.503 92.3196 70.403 97.4196L63.203 113.42C64.803 114.02 66.003 113.72 66.303 113.62L75.203 95.3197C78.403 90.3197 81.603 82.7197 85.003 78.0197Z" fill="#152747"/>
<path fill-rule="evenodd" clip-rule="evenodd" d="M67.203 95.0195L67.503 94.3195L67.403 91.3195C67.203 88.2195 65.303 87.8195 63.703 87.4195C61.103 86.8195 59.503 90.7195 60.203 92.5195C60.603 93.7195 60.603 94.6195 60.403 95.5195C59.603 98.2195 59.903 100.52 60.903 102.02C61.603 103.12 64.103 105.32 65.803 104.82C66.603 104.62 66.403 103.72 66.403 103.12C66.103 100.12 66.703 97.9195 67.203 95.0195Z" fill="#111214"/>
<path fill-rule="evenodd" clip-rule="evenodd" d="M65.403 88.0195C64.103 87.2195 62.203 87.0195 60.903 88.2195C60.003 89.0195 59.603 91.3195 60.003 92.5195C60.403 93.7195 60.603 94.6195 60.303 95.5195C59.503 98.2195 59.803 100.52 60.803 102.02C61.503 103.12 64.003 105.32 65.703 104.82H65.803C62.303 103.52 60.703 101.22 61.503 97.2195C61.703 96.1195 62.203 95.3195 61.903 93.6195C61.603 91.8195 61.503 89.4195 63.103 88.5195C63.703 88.2195 64.503 88.0195 65.403 88.0195Z" fill="black"/>
<path fill-rule="evenodd" clip-rule="evenodd" d="M66.303 103.52C66.303 103.42 66.303 103.22 66.303 103.12C66.103 100.52 66.603 98.5196 67.003 96.1196C65.903 96.4196 64.803 96.5196 63.203 95.8196C62.803 99.4196 63.103 102.32 66.303 103.52Z" fill="#20232E"/>
<path fill-rule="evenodd" clip-rule="evenodd" d="M68.103 88.9195L65.003 88.5195C61.903 88.3195 61.903 96.2195 67.003 94.8195L69.503 93.4195L67.903 89.1195L68.103 88.9195Z" fill="black"/>
<path fill-rule="evenodd" clip-rule="evenodd" d="M65.803 87.7195C69.403 87.8195 72.903 87.1195 76.103 86.9195C90.503 85.9195 93.803 94.7195 91.403 97.0195C90.903 97.5195 90.403 97.6195 89.203 97.6195C82.503 97.3195 73.103 96.5195 66.303 95.7195C61.703 95.1195 63.403 88.0195 65.803 87.7195Z" fill="#0F1E38"/>
<path fill-rule="evenodd" clip-rule="evenodd" d="M74.903 87.0196C75.303 87.0196 75.703 86.9196 76.103 86.9196C90.503 85.9196 93.803 94.7195 91.403 96.9195C90.903 97.4195 90.503 97.5195 89.203 97.4195C82.503 97.1195 73.103 96.4196 66.303 95.6196C64.003 95.3196 63.203 93.4196 63.403 91.5196C68.003 92.0196 75.703 92.0196 77.603 91.8196C76.703 90.2196 75.803 88.9196 74.903 87.0196Z" fill="#0C182E"/>
<path fill-rule="evenodd" clip-rule="evenodd" d="M76.703 86.9196C90.703 86.2196 93.803 94.7196 91.503 97.0196C91.003 97.5196 90.603 97.4196 89.303 97.5196C88.403 97.5196 87.403 97.5196 86.403 97.5196C85.203 96.6196 78.403 89.5196 76.703 86.9196Z" fill="#091224"/>
<path fill-rule="evenodd" clip-rule="evenodd" d="M71.103 62.8196C69.103 65.4196 66.603 68.5196 67.103 73.3196C67.603 77.9196 73.003 81.9196 78.503 87.8196C80.803 90.3196 82.703 92.1196 85.003 94.1196C86.303 95.3196 87.903 96.2196 89.203 96.6196C90.503 97.0196 91.503 97.7196 92.403 96.3196C93.203 94.9196 93.403 92.6196 92.503 90.3196C89.703 82.7196 86.703 78.6196 81.703 73.6196L71.103 62.8196Z" fill="#0F1E38"/>
<path fill-rule="evenodd" clip-rule="evenodd" d="M92.503 96.0195C93.203 94.6195 93.303 92.4196 92.503 90.2196C90.203 84.2196 87.903 80.3196 84.503 76.4196C83.503 77.2196 80.403 78.7196 78.603 78.9196C81.203 82.8196 89.103 96.4195 92.503 96.0195Z" fill="#152747"/>
<path fill-rule="evenodd" clip-rule="evenodd" d="M71.103 62.8196C69.103 65.4196 66.603 68.5196 67.103 73.3196C67.603 77.9196 73.303 82.4196 78.803 88.2196C80.903 90.4196 82.503 91.8196 84.403 93.5196C85.903 94.8196 88.503 97.6196 90.503 97.5196C91.003 97.5196 91.703 97.1196 91.903 96.9196C90.803 97.0196 88.103 94.9196 85.503 92.0196C81.203 87.1196 76.303 79.8196 74.503 77.1196C78.303 77.1196 79.903 76.2196 83.203 75.1196C82.703 74.6196 82.203 74.1196 81.703 73.6196L71.103 62.8196Z" fill="#0C182E"/>
<path fill-rule="evenodd" clip-rule="evenodd" d="M74.703 32.7196C77.203 31.8196 86.103 27.9196 88.403 28.6196C94.603 30.5196 94.503 36.4196 92.903 45.0196C92.403 47.9196 91.503 50.3196 90.903 53.9196C90.203 58.2196 89.903 65.6196 89.003 70.1196C87.403 72.5196 87.503 72.3196 85.203 73.6196C85.903 70.7196 86.403 68.0196 86.803 64.9196C85.803 67.9196 85.003 71.0196 83.803 73.9196C79.903 75.8196 69.703 75.6196 67.103 71.1196C68.303 63.2196 71.003 63.5196 72.203 58.6196C73.103 54.6196 68.903 42.7196 69.903 37.1196C70.303 34.7196 72.703 33.5196 74.703 32.7196Z" fill="#152747"/>
<path fill-rule="evenodd" clip-rule="evenodd" d="M77.303 31.6196L80.203 30.8196C79.303 31.9196 76.503 33.4196 74.103 34.9196C76.303 36.8196 78.103 48.6196 77.603 54.7196C76.703 65.8196 73.603 67.0196 72.403 74.6196C70.203 74.0196 68.303 73.1196 67.303 71.4196C68.503 63.5196 71.203 63.8196 72.403 58.9196C73.303 54.9196 69.103 43.0196 70.103 37.4196C70.203 37.0196 68.703 34.0196 69.003 33.9196C70.503 33.6196 72.103 33.1196 73.803 32.5196C74.803 32.0196 76.103 31.8196 77.303 31.6196Z" fill="#0F1E38"/>
<path fill-rule="evenodd" clip-rule="evenodd" d="M72.403 56.2195C72.103 54.4195 71.303 49.5195 71.103 48.8195C70.303 44.6195 69.403 40.1195 69.903 37.2195C70.003 36.8195 72.903 41.9195 72.703 43.4195C73.203 45.3195 72.803 53.7195 72.403 56.2195Z" fill="#091224"/>
<path fill-rule="evenodd" clip-rule="evenodd" d="M88.503 31.0196C90.203 32.1196 90.403 32.5196 91.303 34.6196L90.003 35.3196L91.303 36.0196C91.003 41.8196 89.403 49.5196 88.203 55.2196C88.403 49.4196 89.803 41.1196 88.703 35.7196C88.403 34.3196 88.003 33.5196 87.403 32.2196C87.203 32.0196 88.103 30.8196 88.503 31.0196Z" fill="#1D386B"/>
<path fill-rule="evenodd" clip-rule="evenodd" d="M80.003 30.4196C79.503 32.4196 84.703 36.0196 87.003 35.3196C87.203 35.2196 87.403 34.8196 87.603 34.6196C87.603 34.1196 87.503 33.7196 87.603 33.2196C87.703 32.6196 88.003 32.2196 88.303 31.7196C88.703 31.0196 88.903 29.6196 89.603 28.0196L83.603 24.2196L82.303 23.3196C82.503 26.5196 81.603 27.9196 80.003 30.4196Z" fill="#E8A476"/>
<path fill-rule="evenodd" clip-rule="evenodd" d="M80.003 30.4196C80.003 30.5196 80.003 30.6196 80.003 30.7196C83.303 29.3196 85.003 31.2196 88.703 30.8196C88.903 30.1196 89.203 29.0196 89.703 28.0196L83.703 24.2196L82.403 23.3196C82.503 26.5196 81.603 27.9196 80.003 30.4196Z" fill="#DB9669"/>
<path fill-rule="evenodd" clip-rule="evenodd" d="M80.803 31.5195C79.003 39.9195 88.103 40.7195 88.503 53.7195C89.103 46.6195 90.203 41.4195 88.403 34.4195L87.603 35.2195H85.703L80.803 31.5195Z" fill="#D1D7F2"/>
<path fill-rule="evenodd" clip-rule="evenodd" d="M85.703 35.8195C85.803 37.1195 85.903 37.1195 86.903 38.2195C86.703 38.8195 86.503 39.4195 86.303 40.0195C87.803 45.9195 88.003 47.3195 88.403 53.8195C88.503 52.8195 88.603 53.6195 88.703 52.7195C89.103 48.3195 89.303 43.7195 89.003 38.4195C88.503 38.0195 88.203 37.9195 87.903 37.8195C88.403 36.4195 88.403 35.5195 88.103 35.3195C87.003 35.1195 86.603 35.1195 85.703 35.8195Z" fill="#1A3059"/>
<path fill-rule="evenodd" clip-rule="evenodd" d="M85.703 35.8195C85.803 37.1195 85.903 37.1195 86.903 38.2195C86.703 38.8195 86.503 39.4195 86.303 40.0195C87.803 45.9195 88.003 47.3195 88.403 53.8195C88.703 48.8195 88.903 45.0195 87.203 40.2195C87.403 39.2195 87.503 38.6195 87.403 37.9195C86.703 36.6195 86.703 36.1195 86.703 35.3195C85.603 35.2195 86.603 35.1195 85.703 35.8195Z" fill="#152747"/>
<path fill-rule="evenodd" clip-rule="evenodd" d="M87.003 35.2196C87.303 34.6196 87.403 33.4196 87.703 32.8196C88.403 33.0196 88.903 34.9196 89.303 36.3196C88.403 35.5196 88.003 35.4196 87.003 35.2196Z" fill="#E6EDFF"/>
<path fill-rule="evenodd" clip-rule="evenodd" d="M80.403 29.9196C79.403 30.6196 78.703 30.8195 78.403 31.3195C77.403 32.9195 79.103 36.3195 79.503 39.5195L81.203 39.3195L80.403 40.9196C86.103 46.8196 88.503 49.7196 88.403 56.9196C89.903 39.3196 78.703 37.3196 80.403 29.9196Z" fill="#1D386B"/>
<path fill-rule="evenodd" clip-rule="evenodd" d="M80.603 29.3196C80.103 31.6196 84.603 34.2196 87.003 35.2196C86.303 35.9196 85.303 36.7196 85.203 37.4196C83.503 36.6196 80.303 34.9196 79.403 32.4196C78.803 30.8196 79.703 29.8196 80.603 29.3196Z" fill="#E6EDFF"/>
<path fill-rule="evenodd" clip-rule="evenodd" d="M80.303 42.8196C80.703 48.9196 79.603 53.3196 79.203 56.9196C78.703 62.1196 76.203 66.5196 73.603 74.3196C76.903 74.8196 80.103 74.9196 83.203 74.0196C84.803 68.9196 86.503 63.6196 87.003 57.9196C87.603 52.2196 86.003 46.3196 80.303 42.8196Z" fill="#1A3059"/>
<path fill-rule="evenodd" clip-rule="evenodd" d="M89.903 32.3196C92.603 36.8196 91.403 42.3196 90.403 48.4196C88.903 57.2196 87.803 64.3196 85.903 72.9196C87.003 72.2196 88.003 71.4196 88.703 70.0196C89.503 62.6196 90.203 54.3196 91.903 47.1196C93.303 41.0196 94.403 34.9196 91.403 30.8196C90.903 31.5196 90.503 31.8196 89.903 32.3196Z" fill="#1A3059"/>
<path fill-rule="evenodd" clip-rule="evenodd" d="M77.103 62.9196C79.703 62.1196 80.503 62.0196 82.703 61.8196L80.803 68.0196C79.203 69.0196 77.203 69.3196 75.403 69.1196L77.103 62.9196Z" fill="#152747"/>
<path fill-rule="evenodd" clip-rule="evenodd" d="M77.103 62.9196C79.703 62.1196 80.503 62.0196 82.703 61.8196C82.103 63.6196 82.303 63.6196 80.303 64.2196C76.703 65.3196 77.703 65.4196 76.003 69.1196C75.903 69.3196 75.603 69.1196 75.503 69.0196L77.103 62.9196Z" fill="#0F1E38"/>
<path fill-rule="evenodd" clip-rule="evenodd" d="M77.403 62.1196C80.103 61.3196 81.303 60.9196 83.203 60.3196L82.403 62.8196C81.703 63.3196 78.103 64.6196 76.603 64.3196L77.403 62.1196Z" fill="#152747"/>
<path fill-rule="evenodd" clip-rule="evenodd" d="M77.403 62.1196C80.103 61.3196 81.303 60.9196 83.203 60.3196C81.203 61.5196 78.003 62.1196 77.103 64.3196C76.903 64.3196 76.703 64.3196 76.603 64.3196L77.403 62.1196Z" fill="#0F1E38"/>
<path fill-rule="evenodd" clip-rule="evenodd" d="M81.903 63.9196L78.503 65.2196L76.703 68.6196C78.303 68.5196 78.803 68.3196 80.403 67.9196L81.903 63.9196Z" fill="#1A3059"/>
<path fill-rule="evenodd" clip-rule="evenodd" d="M82.903 60.7196C81.303 61.5196 79.003 62.7196 78.003 64.0196C79.703 63.7196 80.303 63.5196 82.103 62.7196C82.403 62.1196 82.603 61.4196 82.903 60.7196Z" fill="#1A3059"/>
<path fill-rule="evenodd" clip-rule="evenodd" d="M88.403 60.6196C89.403 59.8196 89.603 59.6196 90.403 59.3196L89.303 65.8196C88.803 66.3196 87.503 66.8196 87.203 66.7196L88.403 60.6196Z" fill="#152747"/>
<path fill-rule="evenodd" clip-rule="evenodd" d="M88.403 60.6196C89.403 59.8196 89.603 59.6196 90.403 59.3196C90.003 61.1196 90.103 61.1196 89.303 61.8196C88.003 63.0196 88.403 63.1196 87.403 66.8196C87.303 66.8196 87.203 66.8196 87.203 66.8196L88.403 60.6196Z" fill="#0F1E38"/>
<path fill-rule="evenodd" clip-rule="evenodd" d="M90.003 61.5195L88.703 62.9195L87.903 66.5195C88.403 66.3195 88.703 66.2195 89.203 65.7195L90.003 61.5195Z" fill="#1A3059"/>
<path fill-rule="evenodd" clip-rule="evenodd" d="M88.603 59.1196C89.503 58.7196 90.003 58.4196 90.703 58.1196L90.403 60.6196C90.103 61.0196 88.903 61.8196 88.403 61.3196L88.603 59.1196Z" fill="#152747"/>
<path fill-rule="evenodd" clip-rule="evenodd" d="M88.603 59.1196C89.503 58.7196 90.003 58.4196 90.703 58.1196C90.003 59.0196 88.803 59.2196 88.503 61.4196C88.403 61.4196 88.403 61.3196 88.303 61.3196L88.603 59.1196Z" fill="#0F1E38"/>
<path fill-rule="evenodd" clip-rule="evenodd" d="M90.503 58.5197C89.903 59.1197 89.103 60.0197 88.703 61.2197C89.303 61.1197 89.503 61.0197 90.203 60.5197C90.303 59.8197 90.403 59.2197 90.503 58.5197Z" fill="#1A3059"/>
<path fill-rule="evenodd" clip-rule="evenodd" d="M71.603 72.4196C71.703 72.0196 71.703 71.6196 71.503 71.3196L71.403 71.2196L60.303 59.1196C60.203 59.2196 60.103 59.6196 60.003 59.8196L58.903 63.2196L65.803 76.8196L70.503 75.8196L71.603 72.4196Z" fill="#4F260D"/>
<path fill-rule="evenodd" clip-rule="evenodd" d="M71.803 73.0197L66.903 74.1197L67.303 74.7197L72.303 73.6197L71.803 73.0197Z" fill="#8F4C22"/>
<path fill-rule="evenodd" clip-rule="evenodd" d="M67.103 75.0197L67.903 74.8197L68.003 74.4197L56.603 61.9197L55.803 62.0197L67.103 75.0197Z" fill="#8F4C22"/>
<path fill-rule="evenodd" clip-rule="evenodd" d="M64.503 84.1197L66.703 76.9197L67.303 74.6197L55.703 62.0197L52.803 71.4197C52.703 71.6197 52.703 71.9197 52.703 72.1197C52.703 72.2197 52.703 72.4197 52.803 72.5197C52.803 72.6197 52.803 72.6197 52.903 72.7197C52.903 72.8197 53.003 72.9197 53.103 73.0197L64.703 85.6197C64.303 85.3197 64.303 84.8197 64.503 84.1197Z" fill="#6E3715"/>
<path fill-rule="evenodd" clip-rule="evenodd" d="M72.303 73.6196L67.403 74.7196L64.503 84.1196C64.103 85.4196 64.903 86.2196 66.203 85.9196C67.503 85.6196 68.903 84.3196 69.303 83.0196L72.303 73.6196Z" fill="#783C18"/>
<path fill-rule="evenodd" clip-rule="evenodd" d="M70.503 70.8197C71.503 71.0197 72.203 71.8197 71.803 73.0197L71.503 74.0197L70.803 73.3197C71.003 72.8197 70.903 72.4197 70.603 72.1197C69.903 71.3197 68.303 72.3197 67.803 72.8197C67.403 73.2197 67.103 73.7197 66.903 74.1197L66.503 75.1197L65.503 75.3197L65.903 74.3197C66.203 73.2197 66.903 72.2197 67.903 71.5197C68.603 71.0197 69.503 70.7197 70.503 70.8197Z" fill="#85451D"/>
<path fill-rule="evenodd" clip-rule="evenodd" d="M59.403 75.1197L60.203 74.9197L59.403 77.3197L58.703 77.5197L59.103 76.1197L59.403 75.1197Z" fill="#F2930E"/>
<path fill-rule="evenodd" clip-rule="evenodd" d="M60.503 59.2197C60.403 59.1197 60.103 58.9197 59.903 58.8197C59.203 58.6197 58.403 58.8197 57.803 59.0197C57.303 59.2197 56.803 59.5197 56.403 59.9197C55.703 60.5197 55.203 61.2197 54.803 62.0197C54.803 62.1197 54.703 62.2197 54.703 62.3197L53.803 65.1197L58.003 74.1197L59.003 75.2197L65.303 77.7197H65.403L65.803 76.4197C66.003 75.6197 67.103 73.4197 67.703 72.8197C68.503 72.0197 71.003 70.7197 71.903 71.7197L60.503 59.2197Z" fill="#8F4C22"/>
<path fill-rule="evenodd" clip-rule="evenodd" d="M56.903 60.2196C56.003 60.8196 55.303 61.9196 55.103 62.6196L54.303 65.3196L58.303 73.9196L59.303 75.0196L65.003 77.2196H65.103C65.603 75.7196 66.003 73.5196 67.203 72.5196C67.903 71.9196 67.703 71.5196 67.303 71.0196L58.603 61.0196C58.003 60.3196 57.703 59.8196 56.903 60.2196Z" fill="#A35829"/>
<path fill-rule="evenodd" clip-rule="evenodd" d="M71.203 71.4196C72.203 71.6196 72.603 72.4196 72.303 73.7196L71.203 77.1196L70.203 77.3196L71.303 73.9196C71.503 73.4196 71.403 73.0196 71.203 72.7196C70.503 71.9196 68.803 72.9196 68.303 73.4196C67.903 73.8196 67.603 74.3196 67.403 74.7196L66.503 77.5196L65.503 77.7196L66.403 74.9196C66.703 73.8196 67.403 72.8196 68.403 72.1196C69.003 71.5196 70.203 71.2196 71.203 71.4196Z" fill="#783C18"/>
<path fill-rule="evenodd" clip-rule="evenodd" d="M59.403 75.1197L59.703 75.0197L59.003 77.4197L58.703 77.5197L59.103 76.1197L59.403 75.1197Z" fill="#F2930E"/>
<path fill-rule="evenodd" clip-rule="evenodd" d="M57.903 73.5197L58.803 74.5197L59.403 75.1197L59.703 75.0197L58.203 73.4197L57.903 73.5197Z" fill="#FFD563"/>
<path fill-rule="evenodd" clip-rule="evenodd" d="M57.903 73.5197L59.403 75.1197L58.703 77.5197L57.203 75.9197L57.903 73.5197Z" fill="#FFC526"/>
<path fill-rule="evenodd" clip-rule="evenodd" d="M58.003 73.6196L58.603 77.3196L57.303 75.8196L58.003 73.6196Z" fill="#FFD970"/>
<path fill-rule="evenodd" clip-rule="evenodd" d="M63.103 61.7197C63.103 61.7197 63.103 61.6197 63.203 61.6197C63.203 61.6197 63.203 61.5197 63.303 61.5197C63.303 61.5197 63.303 61.4197 63.403 61.4197L63.503 61.3197L63.603 61.2197H63.703L62.203 61.5197H62.103C62.103 61.5197 62.003 61.5197 62.003 61.6197C62.003 61.6197 61.903 61.6197 61.903 61.7197C61.903 61.7197 61.903 61.7197 61.903 61.8197C61.903 61.8197 61.903 61.8197 61.903 61.9197C61.903 61.9197 61.903 61.9197 61.903 62.0197C61.903 62.0197 61.903 62.0197 61.903 62.1197C61.903 62.1197 61.903 62.1197 61.903 62.2197L61.703 62.9197L63.203 62.6197L63.403 61.9197C63.103 61.8197 63.103 61.8197 63.103 61.7197C63.103 61.8197 63.103 61.7197 63.103 61.7197Z" fill="#783C18"/>
<path fill-rule="evenodd" clip-rule="evenodd" d="M64.803 60.7197C64.803 60.7197 64.803 60.6197 64.803 60.7197C64.703 60.6197 64.703 60.6197 64.703 60.6197C64.703 60.6197 64.703 60.6197 64.603 60.5197C64.603 60.5197 64.603 60.5197 64.503 60.4197H64.403H64.303C64.303 60.4197 64.303 60.4197 64.203 60.4197H64.103H64.003H63.903C63.803 60.4197 63.803 60.4197 63.703 60.4197L62.203 60.7197C62.703 60.7197 63.203 61.0197 63.603 61.4197L64.503 61.1197L64.803 60.7197C64.903 60.7197 64.903 60.7197 64.803 60.7197Z" fill="#8C491F"/>
<path fill-rule="evenodd" clip-rule="evenodd" d="M66.503 67.0197H66.603C66.603 67.1197 66.603 67.2197 66.603 67.2197C66.603 67.3197 66.603 67.4197 66.503 67.4197L68.003 67.1197V67.0197C68.103 66.8197 68.103 66.6197 68.103 66.4197C68.103 66.1197 68.103 65.9197 68.103 65.6197C68.003 65.2197 68.003 64.9197 67.903 64.5197C67.903 64.5197 67.903 64.4197 67.803 64.4197V64.3197C67.803 64.1197 67.303 63.4197 67.103 63.2197L66.403 63.3197L65.603 63.5197C66.403 64.3197 66.603 65.7197 66.503 67.0197Z" fill="#8C491F"/>
<path fill-rule="evenodd" clip-rule="evenodd" d="M65.503 63.4197L63.403 61.1197C62.503 60.1197 61.403 60.3197 61.003 61.6197L60.803 62.3197L61.403 62.9197L61.603 62.2197C61.903 61.4197 62.603 61.2197 63.103 61.9197L65.203 64.2197C65.803 64.8197 66.103 66.0197 65.803 66.9197L65.603 67.6197L66.203 68.2197L66.403 67.5197C66.903 66.2197 66.503 64.4197 65.503 63.4197Z" fill="#854219"/>
<path fill-rule="evenodd" clip-rule="evenodd" d="M66.503 67.5197L66.303 68.2197L67.803 67.9197L68.003 67.2197V67.1197V67.0197V66.9197L66.603 67.1197C66.603 67.2197 66.603 67.3197 66.603 67.3197C66.503 67.3197 66.503 67.4197 66.503 67.5197Z" fill="#783C18"/>
<path fill-rule="evenodd" clip-rule="evenodd" d="M64.903 60.7197L63.403 61.1197L65.503 63.4197L67.003 63.1197L64.903 60.7197Z" fill="#8F4C22"/>
<path fill-rule="evenodd" clip-rule="evenodd" d="M71.403 74.4197L67.703 75.2197L65.103 83.5197C64.803 84.5197 65.303 85.2197 66.403 85.0197C67.503 84.8197 68.403 83.7197 68.703 82.7197L71.403 74.4197Z" fill="#8F4C22"/>
<path fill-rule="evenodd" clip-rule="evenodd" d="M62.503 57.3197C62.303 60.6197 61.303 62.1197 61.503 62.8197C61.603 63.4197 64.003 66.4197 64.803 67.2197C65.103 67.4197 65.803 67.2197 65.903 67.1197C66.403 66.5197 66.003 65.5197 66.403 64.1197C66.603 63.3197 67.203 63.5197 67.503 63.7197C67.903 64.0197 68.003 64.9197 68.103 65.3197C68.203 63.4197 69.003 62.0197 68.003 60.5197C67.603 59.8197 66.203 57.2197 65.403 56.4197L62.503 57.3197Z" fill="#F1B287"/>
<path fill-rule="evenodd" clip-rule="evenodd" d="M62.503 57.3197C62.303 60.6197 61.303 62.1197 61.503 62.8197C61.603 63.4197 63.703 66.0197 64.603 67.0197C64.503 66.3197 64.403 65.9197 64.703 63.4197C65.003 60.5197 66.103 58.7197 64.303 56.5197L62.503 57.3197Z" fill="#E8A476"/>
<path fill-rule="evenodd" clip-rule="evenodd" d="M69.903 33.5197C73.703 32.0197 74.803 39.3197 74.903 42.2197L57.703 45.2197C53.803 45.9197 51.703 45.1197 51.203 43.9197C50.903 43.2197 50.903 42.6197 51.503 41.5197C52.003 40.5197 54.703 39.0197 56.903 38.3197C60.603 37.2197 65.603 34.9197 69.903 33.5197Z" fill="#152747"/>
<path fill-rule="evenodd" clip-rule="evenodd" d="M69.903 33.5197C72.103 32.7197 73.003 35.1197 73.703 37.6197C69.903 37.0197 61.803 38.5197 51.503 41.5197C52.003 40.3197 54.703 39.1197 56.903 38.3197C60.203 37.1197 65.603 34.9197 69.903 33.5197Z" fill="#1A3059"/>
<path fill-rule="evenodd" clip-rule="evenodd" d="M74.903 42.1196L59.203 44.9196C58.103 43.4196 56.603 43.2196 56.103 42.8196C58.703 41.6196 72.703 39.2196 74.903 42.1196Z" fill="#0F1E38"/>
<path fill-rule="evenodd" clip-rule="evenodd" d="M51.203 43.9196C52.603 47.4196 58.103 54.8196 61.203 59.5196C62.203 61.1196 65.703 58.2196 66.103 56.9196C62.203 51.5196 60.703 46.0196 58.403 42.7196C57.403 41.1196 55.603 40.8196 54.003 40.9196C52.303 40.9196 50.403 41.8196 51.203 43.9196Z" fill="#152747"/>
<path fill-rule="evenodd" clip-rule="evenodd" d="M64.703 58.7197C65.403 58.1197 65.903 57.4197 66.103 56.9197C62.803 52.4197 61.203 47.8197 59.503 44.5197C58.203 43.2197 57.603 42.9197 55.003 43.0197C55.303 44.3197 61.803 53.4197 64.703 58.7197Z" fill="#1A3059"/>
<path fill-rule="evenodd" clip-rule="evenodd" d="M51.203 43.9197C52.603 47.4197 58.103 54.8197 61.203 59.5197C61.803 60.4197 63.003 60.0197 64.003 59.3197C57.203 49.5197 52.503 44.2197 51.503 41.8197C51.003 42.3197 50.803 43.0197 51.203 43.9197Z" fill="#0F1E38"/>
<path fill-rule="evenodd" clip-rule="evenodd" d="M87.903 29.4197C87.003 29.2197 85.003 29.0197 84.203 28.7197C82.403 28.1197 82.103 26.4197 81.003 24.4197C79.303 23.9197 78.703 23.3197 78.303 22.4197C77.403 20.4197 77.803 17.9197 79.003 16.2197C80.003 14.7197 81.503 13.9197 83.403 13.7197C87.103 13.4197 89.303 15.5197 90.403 18.4197C90.503 18.6197 90.503 18.9197 90.503 19.2197C90.503 19.9197 90.303 20.2197 90.303 20.7197C90.303 21.8197 90.703 21.5197 90.903 22.5197C91.203 24.1197 91.103 25.7197 91.103 27.6197C91.103 28.1197 91.003 28.4197 90.703 28.6197C90.403 28.8197 90.103 28.9197 89.603 29.2197C89.403 29.5197 89.003 29.6197 87.903 29.4197Z" fill="#F1B287"/>
<path fill-rule="evenodd" clip-rule="evenodd" d="M87.903 29.4196C87.003 29.2196 85.003 29.0196 84.203 28.7196C82.403 28.1196 82.103 26.4196 81.003 24.4196C79.303 23.9196 78.703 23.3196 78.303 22.4196C77.403 20.4196 77.803 17.9196 79.003 16.2196C80.003 14.7196 81.503 13.9196 83.403 13.7196C86.603 13.4196 88.703 15.0196 89.903 17.3196C89.803 17.7196 87.003 19.5196 84.303 19.8196C84.203 21.0196 85.003 22.0196 85.103 22.6196C85.203 23.2196 85.203 23.7196 85.303 24.0196C85.403 24.5196 86.003 24.8196 86.103 25.5196C86.603 27.7196 88.003 29.1196 89.103 29.4196C88.803 29.5196 88.503 29.5196 87.903 29.4196Z" fill="#E8A476"/>
<path fill-rule="evenodd" clip-rule="evenodd" d="M88.603 16.9197C89.003 16.9197 89.503 16.6197 89.903 17.4197C89.503 16.1197 89.103 16.0197 88.203 16.0197L88.603 16.9197Z" fill="#361D07"/>
<path fill-rule="evenodd" clip-rule="evenodd" d="M83.703 19.2196C81.103 19.2196 78.103 17.7196 77.303 16.6196C76.403 18.9196 76.703 21.6196 78.003 23.6196C79.003 25.1196 81.103 26.4196 81.303 28.1196C82.303 26.4196 82.403 24.9196 81.803 23.3196L81.903 23.1196C82.103 23.4196 82.503 24.1196 82.703 24.4196C82.903 24.4196 83.103 24.1196 83.303 24.0196C82.603 21.7196 82.603 20.3196 83.703 19.2196Z" fill="#361D07"/>
<path fill-rule="evenodd" clip-rule="evenodd" d="M83.903 19.1196C86.603 18.6196 90.003 17.0196 91.103 14.8196C88.703 15.4196 85.503 12.1196 81.703 12.9196C79.503 13.4196 77.203 14.8197 77.303 16.7197C78.103 17.5197 81.703 19.5196 83.903 19.1196Z" fill="#361D07"/>
<path fill-rule="evenodd" clip-rule="evenodd" d="M83.803 19.2196C86.503 18.7196 90.003 16.9196 91.103 14.7196C88.803 16.2196 86.803 16.4196 84.703 16.3196C85.003 16.2196 85.303 16.0196 85.603 15.7196C83.603 16.0196 82.203 16.3196 80.303 15.4196C80.703 15.5196 81.203 15.5196 81.703 15.3196C80.603 15.2196 79.603 14.4196 78.003 14.7196C77.503 15.3196 77.203 15.9196 77.303 16.7196C78.003 17.8196 81.603 19.7196 83.803 19.2196Z" fill="#241304"/>
<path fill-rule="evenodd" clip-rule="evenodd" d="M80.903 22.5197C79.403 22.3197 79.803 23.9197 80.203 24.8197C80.503 25.4197 81.003 25.3197 81.303 25.7197C81.703 26.3197 82.203 26.5197 82.603 26.4197C83.403 26.2197 82.603 25.1197 82.403 24.6197C82.403 23.8197 81.803 22.7197 80.903 22.5197Z" fill="#E8A476"/>
<path fill-rule="evenodd" clip-rule="evenodd" d="M77.303 16.9197C77.103 17.4197 76.803 18.7197 77.003 19.7197C77.103 19.1197 77.203 18.5197 77.703 18.0197C77.203 18.9197 77.303 20.0197 77.803 21.3197C77.703 20.2197 77.703 19.5197 78.503 18.8197C78.003 20.0197 78.503 22.0197 78.903 22.8197C78.903 21.5197 78.803 19.8197 79.803 19.3197C79.303 20.4197 79.403 21.0197 79.903 21.9197C79.903 20.8197 80.203 20.1197 80.903 19.6197C81.003 20.6197 81.603 22.5197 82.703 23.3197C82.603 22.9197 81.803 20.2197 82.303 19.8197C82.203 20.4197 82.303 20.7197 82.503 21.1197C82.503 20.5197 82.803 19.9197 83.403 19.4197C81.203 19.6197 77.903 17.9197 77.303 16.9197Z" fill="#4A2B12"/>
<path fill-rule="evenodd" clip-rule="evenodd" d="M78.303 14.4196C79.303 13.4196 81.203 12.8197 82.603 12.7197C83.803 12.6197 85.003 13.0196 86.103 13.1196C85.703 13.2196 85.603 13.2197 85.303 13.2197C87.203 13.5197 89.003 15.0197 91.103 14.7197C90.203 15.1197 89.303 15.1196 88.503 14.9196C88.903 15.0196 89.103 15.2196 89.503 15.3196C87.403 15.7196 86.003 14.7196 84.003 14.3196C84.203 14.5196 84.603 14.7196 85.203 14.9196C83.203 14.7196 81.103 13.3196 78.303 14.4196Z" fill="#4A2B12"/>
</svg>
