<svg width="133" height="308" viewBox="0 0 133 308" fill="none" xmlns="http://www.w3.org/2000/svg">
<rect width="133" height="308" fill="#E5E5E5"/>
<path fill-rule="evenodd" clip-rule="evenodd" d="M98.0315 253.59C103.931 260.69 103.131 272.49 89.3315 277.49C100.631 290.19 70.6315 308.39 60.6315 298.89C57.0315 310.59 35.9315 310.99 33.9315 299.29C23.1315 305.09 10.3315 293.59 13.7315 287.99C4.6315 290.39 -6.06851 275.49 4.23149 266.79C-5.26851 277.49 8.73149 287.79 16.3315 283.79C13.1315 288.99 24.0315 304.59 36.2315 295.49C38.1315 306.49 57.9315 307.39 61.3315 294.19C70.6315 302.99 96.1315 286.39 85.6315 274.49C102.031 269.79 100.731 260.49 98.0315 253.59Z" fill="#DDE5E8"/>
<path fill-rule="evenodd" clip-rule="evenodd" d="M56.9056 223.022C61.6056 213.722 79.2056 214.222 81.1056 221.222C92.2056 220.322 100.306 232.622 81.4056 240.922C89.0056 248.522 79.0056 254.922 70.6056 255.122C70.0056 259.222 63.9056 263.122 59.4056 261.522C56.5056 268.522 37.0056 274.022 36.6056 263.022C27.0056 267.622 22.2056 260.922 25.0056 255.522C15.7056 258.922 1.70561 244.922 23.8056 235.322C24.3056 226.722 34.6056 221.822 42.3056 226.022C44.2056 220.022 52.0056 218.422 56.9056 223.022Z" fill="#F4FAFC"/>
<path fill-rule="evenodd" clip-rule="evenodd" d="M88.0316 242.79C93.8316 246.89 92.5316 255.49 79.8316 260.19C87.4316 267.79 77.4316 274.19 69.0316 274.39C68.4316 278.49 62.3316 282.39 57.8316 280.79C54.9316 287.79 35.4316 293.29 35.0316 282.29C25.4316 286.89 20.6316 280.19 23.4316 274.79C15.3316 277.79 3.73155 267.59 15.3316 258.49C7.23155 266.29 13.8316 273.19 26.0316 272.69C22.8316 279.79 34.9316 282.49 36.9316 276.99C36.7316 288.29 53.9316 283.49 54.9316 275.89C61.5316 278.89 69.4316 275.19 67.1316 269.49C77.8316 269.79 81.8316 263.99 76.7316 258.09C86.2316 254.49 93.5316 250.29 88.0316 242.79Z" fill="#DDE5E8"/>
<path fill-rule="evenodd" clip-rule="evenodd" d="M83.1315 227.59C88.0315 231.09 86.9315 238.39 76.2315 242.39C82.7315 248.79 74.2315 254.29 67.1315 254.49C66.6315 257.99 61.4315 261.29 57.6315 259.89C55.1315 265.89 38.5315 270.49 38.2315 261.19C30.1315 265.09 25.9315 259.39 28.4315 254.89C21.5315 257.39 11.6315 248.69 21.5315 241.09C14.6315 247.69 20.3315 253.59 30.6315 253.19C27.9315 259.19 38.2315 261.49 39.9315 256.89C39.7315 266.49 54.3315 262.39 55.2315 255.99C60.8315 258.59 67.5315 255.39 65.6315 250.59C74.7315 250.89 78.1315 245.89 73.7315 240.89C81.6315 237.49 87.8315 233.99 83.1315 227.59Z" fill="#DDE5E8"/>
<path fill-rule="evenodd" clip-rule="evenodd" d="M60.1928 194C60.4779 198.814 50.2145 228.165 59.4088 229.456C64.3266 230.161 65.2531 232.939 55.3462 235.327C53.6356 237.401 42.3033 241.432 40.2364 237.009C31.0422 237.518 33.6792 234.466 37.5992 232.509C38.7396 231.961 40.2363 231.452 41.2342 230.591C46.7222 225.934 56.6292 199.831 60.1928 194Z" fill="#F4FAFC"/>
<path fill-rule="evenodd" clip-rule="evenodd" d="M60.3999 193.99C59.2999 191.49 56.1999 182.29 55.9999 179.79L54.8999 182.59C52.0999 172.49 53.5999 169.19 58.2999 160.89L73.5999 163.19C74.5999 172.89 75.1999 176.39 68.8999 185.09L68.7999 182.09C67.6999 184.39 62.5999 191.59 60.3999 193.99Z" fill="#F57113"/>
<path fill-rule="evenodd" clip-rule="evenodd" d="M61.8 185.59C61 183.89 58.9 177.39 58.7 175.59L57.8999 177.59C55.9999 170.49 56.9 168.09 60.3 162.29L71.0999 163.89C71.7999 170.69 72.2 173.19 67.8 179.39L67.7 177.29C67 178.79 63.4 183.89 61.8 185.59Z" fill="#FA9A2C"/>
<path fill-rule="evenodd" clip-rule="evenodd" d="M62.9 179.49C62.3 178.19 60.7 173.49 60.6 172.19L60 173.59C58.6 168.39 59.3 166.69 61.7 162.39L69.6 163.59C70.1 168.59 70.4 170.39 67.2 174.89V173.29C66.6 174.49 64 178.19 62.9 179.49Z" fill="#FAC545"/>
<path fill-rule="evenodd" clip-rule="evenodd" d="M63.8 174.19C63.4 173.29 62.3 169.89 62.2 168.99L61.8 169.99C60.8 166.29 61.3 165.09 63 161.99L68.6 162.79C69 166.39 69.2 167.59 66.9 170.89V169.79C66.5 170.69 64.6 173.29 63.8 174.19Z" fill="#FFDF94"/>
<path opacity="0.3" fill-rule="evenodd" clip-rule="evenodd" d="M73.5001 166.39C71.4001 169.29 66.4 169.59 62.3 168.09C62.5 169.59 64.8001 184.59 64.6001 186.79C65.6001 184.79 69.1001 179.79 69.7001 177.49L69.9001 180.29C72.4001 176.39 74.2001 171.09 73.5001 166.39Z" fill="#FFFFD1"/>
<path opacity="0.5" fill-rule="evenodd" clip-rule="evenodd" d="M60.3999 193.99C59.2999 191.49 56.1999 182.29 55.9999 179.79L54.8999 182.59C52.0999 172.49 53.5999 169.19 58.2999 160.89L61.6999 161.39C57.7999 165.39 57.1999 170.69 56.9999 174.99C57.3999 174.49 57.7999 174.09 58.8999 173.39C58.1999 180.99 58.8999 186.99 60.3999 193.99Z" fill="#B3510B"/>
<path opacity="0.32" fill-rule="evenodd" clip-rule="evenodd" d="M72.8998 168.59C71.1998 170.29 67.6999 170.89 64.5999 170.39C65.5999 174.29 65.9998 180.49 65.8998 182.69C66.5998 181.29 69.9998 175.19 70.3998 173.59L70.6999 176.39C72.1999 173.59 72.6998 170.99 72.8998 168.59Z" fill="#FFFFD1"/>
<path fill-rule="evenodd" clip-rule="evenodd" d="M66.5999 158.59C70.9999 159.39 74.1999 161.99 73.6999 164.49C73.2999 166.99 69.3999 168.29 64.9999 167.49C60.5999 166.69 57.3999 164.09 57.8999 161.59C58.2999 159.09 62.1999 157.79 66.5999 158.59Z" fill="#FF9B54"/>
<path fill-rule="evenodd" clip-rule="evenodd" d="M76.1001 165.99C77.8001 162.59 79.2001 159.49 80.9001 156.09L56.2001 152.19C55.7001 151.39 54.2001 151.99 54.1001 151.19C54.4001 154.89 54.6001 158.39 55.1001 162.19C55.1001 163.49 55.9001 164.89 57.4001 166.19C59.5001 167.99 62.2002 168.99 64.8002 169.39C68.8002 169.89 73.9001 169.99 76.1001 165.99Z" fill="#7F9098"/>
<path fill-rule="evenodd" clip-rule="evenodd" d="M61.7 153.09L56.2999 152.29C55.7999 151.49 54.3 152.09 54.2 151.29C54.5 154.99 54.7 158.49 55.2 162.29C55.2 163.59 56 164.99 57.5 166.29C59.5 168.09 62.2999 169.09 64.8999 169.49C68.6999 170.09 73.6 170.09 76 166.49C72.9 169.69 65.2999 168.49 62.7999 167.09C62.2999 162.29 61.9 157.69 61.7 153.09Z" fill="#74858C"/>
<path fill-rule="evenodd" clip-rule="evenodd" d="M78.5001 148.59C73.8001 144.49 65.3001 142.89 59.3001 144.89C53.4001 146.89 52.4001 151.89 57.0001 155.99C61.7001 160.09 70.2001 161.69 76.2001 159.69C82.1001 157.59 83.2001 152.69 78.5001 148.59Z" fill="#697A82"/>
<path fill-rule="evenodd" clip-rule="evenodd" d="M77.9 148.79C73.5 144.99 65.4 143.39 59.7 145.29C54.1 147.19 53.1 151.89 57.5 155.79C61.9 159.69 70 161.19 75.7 159.29C81.4 157.29 82.3 152.69 77.9 148.79Z" fill="#5F6F78"/>
<path fill-rule="evenodd" clip-rule="evenodd" d="M94.6003 118.49C95.0003 113.49 94.7003 108.29 93.8003 103.39C93.5003 101.99 93.2003 100.69 92.9003 99.2898C86.4 78.0898 78.8 72.0898 62.8 93.4898C62.2 94.3898 61.6 95.2898 61 96.1898C58.4 100.29 56.2 105.09 54.5 109.99C50.8 121.39 50.1 137.29 53.6 148.79C54 150.09 54.4 151.19 54.9 152.19C55.4 153.09 56 153.89 57 154.79C61.8 158.99 70.4 160.49 76.3 158.49C78.1 157.89 79.3 157.09 80.4 155.79C81.3 154.79 82.2 153.49 82.8 152.59C89.3 143.59 93.7003 129.89 94.6003 118.49Z" fill="#CED2D6"/>
<path fill-rule="evenodd" clip-rule="evenodd" d="M62.7 93.5898C60.4 96.5898 58.3 100.59 56.8 103.99C55.6 106.79 54.5 109.59 53.7 112.49C50.7 123.69 50.3 138.19 53.5 148.89C53.9 150.19 54.3 151.29 54.8 152.29C57.2 156.59 63.4 158.79 68 159.29C70.9 159.59 73.8 159.39 76.2 158.49C78 157.89 78.7 157.59 80.3 155.89C75.3 159.59 66.5 158.09 61.5 155.29C58.6 137.59 59 120.29 66.2 106.29C67.8 107.09 81.7 111.59 88.5 105.49L63 93.8898C63.3 93.3898 63.7 92.8898 64 92.4898C66.5 89.0898 68.8 86.3898 71 84.2898C68.6 86.2898 65.8 89.3898 62.7 93.5898Z" fill="#AEB5BB"/>
<path fill-rule="evenodd" clip-rule="evenodd" d="M80.9001 154.29L81.1001 153.89L80.8 154.29H80.9001Z" fill="#838489"/>
<path fill-rule="evenodd" clip-rule="evenodd" d="M92.3004 97.3896C90.2999 90.5896 86.9999 82.4896 82.0999 77.2896C81.9999 77.1896 81.8999 77.0896 81.7999 76.9896C81.6999 76.8896 81.4999 76.6896 81.1999 76.5896C80.9999 76.5896 80.6999 76.6896 80.5999 76.7896C73.8999 79.9896 67.2999 86.7896 63.0999 92.7896C62.7999 93.1896 62.5999 93.5896 62.3999 93.8896C61.3999 95.9896 61.9999 98.2896 63.3999 100.09C64.6999 101.89 66.5999 103.29 68.3999 104.29C68.6999 104.39 68.8999 104.59 69.1999 104.69C74.1999 107.19 81.2999 107.89 86.2999 106.39C88.0999 105.79 89.8999 104.99 91.1004 103.59C91.7004 102.99 92.2004 102.19 92.5004 101.29C92.7004 100.69 92.8004 100.09 92.8004 99.5896C92.7004 98.8896 92.5004 98.0896 92.3004 97.3896Z" fill="#C01617"/>
<path fill-rule="evenodd" clip-rule="evenodd" d="M81.2999 76.5898C80.9999 76.4898 80.6999 76.6898 80.5999 76.7898C73.8999 79.9898 67.2999 86.7898 63.0999 92.7898C62.7999 93.1898 62.5999 93.5898 62.3999 93.8898C61.3999 95.9898 61.9999 98.2898 63.3999 100.09C63.3999 100.09 63.3999 100.19 63.4999 100.19V100.29C63.4999 100.39 63.5999 100.39 63.5999 100.49C63.5999 100.49 63.5999 100.49 63.6999 100.59C63.6999 100.59 63.6999 100.69 63.7999 100.69C63.7999 100.79 63.8999 100.79 63.8999 100.89C63.9999 100.99 63.9999 100.99 64.0999 101.09C64.0999 101.09 64.0999 101.09 64.1999 101.19C64.2999 101.29 64.2999 101.39 64.3999 101.39C64.4999 101.49 64.4999 101.49 64.5999 101.59L64.6999 101.69L64.7999 101.79C64.9999 101.89 65.0999 102.09 65.2999 102.19L65.3999 102.29L65.4999 102.39H65.5999C65.6999 102.39 65.6999 102.49 65.7999 102.49L65.8999 102.59H65.9999L66.0999 102.69H66.1999H66.2999L66.3999 102.79H66.4999H66.5999H66.6999H66.7999H66.8999H66.9999C67.3999 103.09 67.8999 103.29 68.2999 103.59C68.5999 103.69 68.7999 103.89 69.0999 103.99C74.0999 106.49 81.1999 107.19 86.1999 105.69C87.9999 105.19 89.8999 104.19 91.2004 102.79C88.8999 104.39 79.6999 109.19 67.7999 100.59C70.9999 92.7898 75.2999 84.7898 81.2999 76.5898Z" fill="#A51515"/>
<path fill-rule="evenodd" clip-rule="evenodd" d="M81.8 78.2898C80.5 80.1898 73.4999 92.1898 71.3999 101.79C76.4999 105.09 87.1999 106.59 91.6004 99.9898C89.6999 92.3898 86 83.3898 81.8 78.2898Z" fill="#DE1F1F"/>
<path fill-rule="evenodd" clip-rule="evenodd" d="M82 79.2898C81.9 82.4898 80.9 89.5898 79.6 96.8898C78.1 105.39 90.7003 104.29 88.5 94.8898C87.1 89.4898 84.1 83.3898 82 79.2898Z" fill="#FA3737"/>
<path fill-rule="evenodd" clip-rule="evenodd" d="M78.5001 159.39C73.8001 162.59 65.8001 161.49 63.1001 160.39C63.1001 162.39 63.4001 164.39 63.6001 166.49C68.8001 168.29 73.1001 167.89 75.1001 166.09C76.2001 164.99 77.4001 161.89 78.5001 159.39Z" fill="#92A3AB"/>
<path fill-rule="evenodd" clip-rule="evenodd" d="M92.3004 104.49C88.5 110.39 77.3 112.39 68.5 110.09C65.2 120.19 64.0999 137.89 66.0999 153.29C70.2999 155.89 77.4 155.29 81 153.29C92.4004 136.09 93.5004 118.19 92.3004 104.49Z" fill="#DDE2E6"/>
<path fill-rule="evenodd" clip-rule="evenodd" d="M91.1004 108.39C88.8 111.89 83.3 113.49 77.7 113.59C77.1 121.39 73.1 148.29 72.5 153.09C75.8 153.49 78.3 152.99 80.3 151.79C87.9 137.59 91.9004 119.89 91.1004 108.39Z" fill="#EDF3F7"/>
<path fill-rule="evenodd" clip-rule="evenodd" d="M74.6 113.19C80.6 114.29 84.6 119.89 83.5 125.69C82.4 131.59 76.7 135.39 70.8 134.29C64.8 133.19 60.8001 127.59 61.9001 121.79C62.9001 115.99 68.6 112.09 74.6 113.19Z" fill="#AEB5BB"/>
<path fill-rule="evenodd" clip-rule="evenodd" d="M71.5 130.79C67.6 130.09 65 126.39 65.7 122.49C66.4 118.59 70.1 116.09 74 116.69C77.9 117.39 80.5 121.09 79.8 124.99C79 128.89 75.3 131.49 71.5 130.79ZM74.5 113.59C68.9 112.59 63.5 116.29 62.5 121.89C61.5 127.49 65.2 132.89 70.8 133.89C76.4 134.89 81.8 131.19 82.8 125.59C83.9 119.99 80.2 114.59 74.5 113.59Z" fill="#EDF3F7"/>
<path fill-rule="evenodd" clip-rule="evenodd" d="M71.5001 130.79C75.4001 131.49 79.1001 128.89 79.8001 125.09C80.5001 121.19 77.9001 117.49 74.0001 116.79C70.1001 116.09 66.4001 118.69 65.7001 122.59C65.0001 126.39 67.6001 130.09 71.5001 130.79Z" fill="#435469"/>
<path fill-rule="evenodd" clip-rule="evenodd" d="M74.0001 116.79C77.9001 117.49 80.5002 121.19 79.8002 125.09C79.7002 125.49 79.6001 125.99 79.4001 126.39C79.4001 122.99 77.0001 120.09 73.5001 119.39C70.1001 118.79 66.8001 120.69 65.6001 123.89C65.6001 123.49 65.6001 122.99 65.7001 122.59C66.4001 118.59 70.1001 116.09 74.0001 116.79Z" fill="#2E3D4F"/>
<path fill-rule="evenodd" clip-rule="evenodd" d="M74.1001 116.29C74.5001 116.39 74.9001 116.09 75.0001 115.69C75.1001 115.29 74.8001 114.89 74.4001 114.79C74.0001 114.69 73.6001 114.99 73.5001 115.39C73.4001 115.79 73.7001 116.19 74.1001 116.29Z" fill="#4B6380"/>
<path fill-rule="evenodd" clip-rule="evenodd" d="M71.1001 132.79C71.5001 132.89 71.9001 132.59 72.0001 132.19C72.1001 131.79 71.8001 131.39 71.4001 131.29C71.0001 131.19 70.6001 131.49 70.5001 131.89C70.4001 132.29 70.7001 132.69 71.1001 132.79Z" fill="#4B6380"/>
<path fill-rule="evenodd" clip-rule="evenodd" d="M81.7 125.39C81.6 125.79 81.2 126.09 80.8 125.99C80.4 125.89 80.1 125.49 80.2 125.09C80.3 124.69 80.7 124.39 81.1 124.49C81.5 124.59 81.8 124.99 81.7 125.39Z" fill="#4B6380"/>
<path fill-rule="evenodd" clip-rule="evenodd" d="M65.2 122.39C65.1 122.79 64.7 123.09 64.3 122.99C63.9 122.89 63.6 122.49 63.7 122.09C63.8 121.69 64.2 121.39 64.6 121.49C65 121.59 65.3 121.99 65.2 122.39Z" fill="#4B6380"/>
<path fill-rule="evenodd" clip-rule="evenodd" d="M80.1999 118.49C80.3999 118.79 80.3999 119.29 79.9999 119.59C79.6999 119.79 79.1999 119.79 78.8999 119.39C78.6999 119.09 78.6999 118.59 79.0999 118.29C79.4999 118.09 79.9999 118.19 80.1999 118.49Z" fill="#4B6380"/>
<path fill-rule="evenodd" clip-rule="evenodd" d="M66.5 128.09C66.7 128.39 66.7 128.89 66.3 129.19C66 129.39 65.5 129.39 65.2 128.99C65 128.69 65 128.19 65.4 127.89C65.7 127.69 66.2 127.79 66.5 128.09Z" fill="#4B6380"/>
<path fill-rule="evenodd" clip-rule="evenodd" d="M77.9001 131.29C77.6001 131.49 77.1001 131.49 76.8001 131.09C76.6001 130.79 76.6001 130.29 77.0001 129.99C77.3001 129.79 77.8001 129.79 78.1001 130.19C78.4001 130.59 78.3001 130.99 77.9001 131.29Z" fill="#4B6380"/>
<path fill-rule="evenodd" clip-rule="evenodd" d="M68.4001 117.49C68.1001 117.69 67.6001 117.69 67.3001 117.29C67.1001 116.99 67.1001 116.49 67.5001 116.19C67.8001 115.99 68.3001 115.99 68.6001 116.39C68.8001 116.79 68.7001 117.29 68.4001 117.49Z" fill="#4B6380"/>
<path fill-rule="evenodd" clip-rule="evenodd" d="M87.1001 141.89L83.2001 143.29C86.1001 160.89 83.8001 170.39 81.4001 184.99L85.3001 183.59C87.2001 176.79 90.0001 169.79 90.9003 162.89C91.3003 159.79 91.3003 156.79 90.9003 153.59C90.3001 149.49 89.0001 145.79 87.1001 141.89Z" fill="#C01617"/>
<path fill-rule="evenodd" clip-rule="evenodd" d="M87.1001 143.09L84.3002 143.99C86.8002 149.39 88.7001 156.19 88.2001 162.29C87.7001 169.49 84.9001 177.19 82.6001 183.59L85.1001 182.69C87.6001 175.89 90.4002 166.29 90.8004 160.39C91.1004 155.39 89.9001 148.89 87.1001 143.09Z" fill="#DE1F1F"/>
<path fill-rule="evenodd" clip-rule="evenodd" d="M86.9001 143.69L85.1001 144.29C87.7001 147.19 89.7001 154.39 89.2001 161.19C88.8001 167.29 87.5001 173.79 85.5001 180.99C87.8001 174.69 89.8001 165.49 90.1001 159.89C90.5001 155.19 89.6001 149.09 86.9001 143.69Z" fill="#FA3737"/>
<path fill-rule="evenodd" clip-rule="evenodd" d="M83.2001 143.29L76.6001 159.19C79.0001 166.39 80.7001 174.79 81.4001 184.99C85.5001 170.49 91.5004 160.29 83.2001 143.29Z" fill="#A51515"/>
<path fill-rule="evenodd" clip-rule="evenodd" d="M83.2001 143.29L76.6001 159.19C79.0001 166.39 80.7001 174.79 81.4001 184.99C84.3001 171.39 82.1001 155.49 83.2001 143.29Z" fill="#8F1111"/>
<path fill-rule="evenodd" clip-rule="evenodd" d="M52.9 135.69L56.1 138.39C47.2 153.79 46.1 163.59 43.2 178.09L40 175.39C40.6 168.39 40.4 160.79 42 154.09C42.7 151.09 43.7 148.19 45.3 145.39C47.2 141.79 49.8 138.69 52.9 135.69Z" fill="#C01617"/>
<path fill-rule="evenodd" clip-rule="evenodd" d="M52.5 136.89L54.8 138.69C50.6 142.89 46.4 148.59 44.7 154.39C42.7 161.29 42.6 169.49 42.5 176.29L40.5 174.59C40.5 167.39 41.2 157.39 43 151.69C44.5 146.99 47.9 141.29 52.5 136.89Z" fill="#DE1F1F"/>
<path fill-rule="evenodd" clip-rule="evenodd" d="M52.4 137.49L53.9 138.69C50.5 140.59 46.1 146.59 44.2 153.09C42.5 158.89 41.4 165.49 40.7 172.89C40.7 166.09 42.1 156.89 43.7 151.49C45.1 146.99 48.1 141.59 52.4 137.49Z" fill="#FA3737"/>
<path fill-rule="evenodd" clip-rule="evenodd" d="M56 138.39L56.7 155.59C52 161.49 47.4 168.79 43.2 178.09C44.4 163.09 42.4 151.39 56 138.39Z" fill="#A51515"/>
<path fill-rule="evenodd" clip-rule="evenodd" d="M56 138.39L56.7 155.59C52 161.49 47.4 168.79 43.2 178.09C45.3 164.39 52.9 150.19 56 138.39Z" fill="#8F1111"/>
<path fill-rule="evenodd" clip-rule="evenodd" d="M75.5998 173.69C74.4998 173.99 74.1998 173.99 73.2998 175.59C73.2998 176.59 73.3998 178.19 73.4998 179.29L73.8998 179.69C74.4998 180.79 73.9998 182.69 73.9998 184.19C73.9998 185.29 74.2998 185.69 75.0998 186.59C75.8998 187.49 77.3998 188.09 79.0998 188.49C81.1998 188.89 83.1998 188.69 82.4998 187.29C82.0998 186.59 80.9998 185.79 80.6998 184.39C80.2998 181.29 79.9998 178.39 81.4998 175.49L75.5998 173.69Z" fill="#111214"/>
<path fill-rule="evenodd" clip-rule="evenodd" d="M75.5998 173.69C74.4998 173.99 74.1998 173.99 73.2998 175.59C73.2998 176.59 73.3998 178.19 73.4998 179.29L73.8998 179.69C74.4998 180.79 73.9998 182.69 73.9998 184.19C73.9998 185.29 74.2998 185.69 75.0998 186.59C75.8998 187.49 77.3998 188.09 79.0998 188.49C80.7998 188.79 82.3998 188.69 82.5998 187.99C81.4998 187.99 80.2998 187.49 78.5998 186.39C79.0998 185.79 79.3998 185.49 80.2998 184.99C79.2998 185.09 78.5998 185.19 77.5998 185.49C75.7998 182.49 77.2998 179.39 76.9998 176.09C76.8998 175.49 76.8998 174.79 76.8998 174.09L75.5998 173.69Z" fill="black"/>
<path fill-rule="evenodd" clip-rule="evenodd" d="M79.6999 164.79C78.7999 165.99 78.2999 166.49 77.9999 167.49C77.3999 169.39 77.4999 171.49 77.5999 174.69C77.5999 176.19 77.1999 176.89 75.7999 176.29C74.6999 175.89 73.6999 173.69 73.0999 172.29C71.8999 169.69 72.5999 167.79 72.3999 166.79L71.7999 166.29C71.3999 165.79 70.7999 163.39 70.9999 162.69C71.2999 162.29 71.8999 161.59 72.4999 161.09C74.2999 159.59 74.2999 160.09 76.1999 159.39C77.2999 161.39 78.3999 163.09 79.6999 164.79Z" fill="#111214"/>
<path fill-rule="evenodd" clip-rule="evenodd" d="M77.0999 176.29C76.7999 176.49 76.3999 176.49 75.7999 176.29C74.6999 175.89 73.6999 173.69 73.0999 172.29C71.8999 169.69 72.5999 167.79 72.3999 166.79L71.7999 166.29C71.3999 165.79 70.7999 163.39 70.9999 162.69C71.2999 162.29 71.8999 161.59 72.4999 161.09C74.2999 159.59 74.2999 160.09 76.1999 159.49C76.6999 160.29 77.1999 161.09 77.6999 161.79C76.5999 162.89 74.2999 164.29 74.2999 165.89C74.2999 167.69 74.6999 168.79 74.7999 169.89C75.0999 173.49 75.1999 175.99 77.0999 176.29Z" fill="black"/>
<path fill-rule="evenodd" clip-rule="evenodd" d="M77.9999 166.89C77.4999 166.89 76.8999 166.59 76.0999 165.99C75.5999 168.29 75.8999 168.39 76.1999 170.79C75.8999 172.39 75.7999 172.59 75.8999 173.39C75.9999 174.29 76.2999 175.49 76.8999 175.69C77.0999 175.79 77.2999 175.29 77.2999 174.19C77.2999 172.89 77.1999 171.69 77.2999 170.39C77.2999 169.29 77.4999 168.09 77.9999 166.89Z" fill="#20232E"/>
<path fill-rule="evenodd" clip-rule="evenodd" d="M97.9993 152.59C91.2993 157.39 86.1998 160.39 79.9998 165.39C78.0998 165.69 74.8998 162.09 75.4998 159.39C80.0998 154.99 82.2998 152.99 84.9998 150.89C87.2998 149.09 89.6998 147.79 92.2993 146.89C95.1993 144.29 99.6993 144.89 99.3993 147.49C99.2993 148.99 99.3993 151.39 97.9993 152.59Z" fill="#0C182E"/>
<path fill-rule="evenodd" clip-rule="evenodd" d="M99.9994 126.89C100.799 132.29 99.7994 142.99 99.2994 149.59C98.7994 155.09 92.3994 153.59 91.0994 151.39C89.9998 145.89 88.3998 135.99 88.2998 129.79L93.2994 127.49L97.7994 123.39L99.9994 126.89Z" fill="#0C182E"/>
<path fill-rule="evenodd" clip-rule="evenodd" d="M76.2999 162.89C75.5999 161.79 75.1999 160.59 75.4999 159.39C80.0999 154.99 82.2999 152.99 84.9999 150.89C86.6999 149.59 88.4999 148.49 90.3999 147.69C89.3999 142.19 88.3999 134.79 88.2999 129.89L93.3003 127.59L97.8003 123.49L100 126.99C100.2 128.59 100.3 130.69 100.3 132.99C98.8003 135.19 97.4003 136.19 94.2003 137.99C93.9003 140.39 94.3003 147.29 94.1003 149.19C94.0003 149.99 93.6003 150.09 92.1003 150.99C86.2999 154.09 81.3999 158.49 76.2999 162.89Z" fill="#091224"/>
<path fill-rule="evenodd" clip-rule="evenodd" d="M92.3004 128.79C92.2004 134.19 87.8 146.79 86.3 153.19C85.4 158.19 78.1 156.89 78.2 153.69C78.4 148.59 77.2 129.19 81.2 126.09H86.9L92.3004 128.79Z" fill="#0F1E38"/>
<path fill-rule="evenodd" clip-rule="evenodd" d="M86.1998 153.39C85.8998 155.29 85.3998 155.39 85.1998 156.49C83.7998 163.39 82.9998 170.39 81.9998 177.19C79.3998 179.09 75.5998 177.29 74.7998 174.99C75.1998 168.59 75.1998 165.29 75.6998 161.79C76.1998 158.89 76.8998 156.29 78.0998 153.89C79.6998 149.49 86.8998 149.69 86.1998 153.39Z" fill="#0F1E38"/>
<path fill-rule="evenodd" clip-rule="evenodd" d="M77.8998 177.69C76.3998 177.19 75.1998 176.19 74.7998 174.89C75.1998 168.49 75.1998 165.19 75.6998 161.69C76.1998 158.79 76.8998 156.19 78.0998 153.79C78.2998 148.69 77.0998 129.29 81.0998 126.19H83.9998L91.0994 135.59L90.8994 136.39C88.8998 137.09 84.9998 137.39 83.5998 137.29C82.6998 142.39 81.9998 146.89 81.6998 152.09C81.4998 154.49 81.2998 155.79 80.5998 158.19C78.5998 165.39 78.4998 169.89 77.8998 177.69Z" fill="#0C182E"/>
<path fill-rule="evenodd" clip-rule="evenodd" d="M89.8999 137.79C87.7999 138.19 86.4999 138.39 84.3999 138.19C83.0999 145.59 83.3999 150.39 82.3999 155.49C81.9999 157.69 80.9999 159.89 80.6999 162.09L78.8999 177.29C79.8999 177.39 80.5999 177.29 81.5999 176.89C82.5999 170.89 83.1999 162.19 84.5999 156.79C84.8999 155.89 85.1999 155.19 85.3999 154.29C85.5999 153.49 85.5999 153.09 85.8999 152.29C87.1999 147.59 88.7999 142.59 89.8999 137.79Z" fill="#152747"/>
<path fill-rule="evenodd" clip-rule="evenodd" d="M99.4994 134.99C97.5994 137.09 96.6994 137.79 95.0994 138.79C95.0994 141.79 95.1994 146.19 95.1994 147.79C95.1994 149.09 94.9994 149.89 94.4994 150.59C94.0994 151.09 88.5998 153.69 85.5998 156.69L84.7998 160.49C88.7998 157.69 93.4994 154.99 97.1994 152.19C98.2994 151.39 98.5994 150.19 98.6994 148.79C98.8994 145.29 99.3994 139.49 99.4994 134.99Z" fill="#152747"/>
<path fill-rule="evenodd" clip-rule="evenodd" d="M80.2 178.29C79.6 178.49 78.9 178.69 78.1 178.39C77.8 179.89 77.8 182.89 78.3 184.49C79 184.29 79.9 184.19 80.3 184.09C79.9 181.69 79.9 180.69 80.2 178.29Z" fill="#20232E"/>
<path fill-rule="evenodd" clip-rule="evenodd" d="M80.7998 185.29C79.9998 185.49 79.6998 185.79 79.2998 186.19C80.8998 187.29 82.0998 187.79 82.2998 187.49C82.5998 187.19 81.1998 186.09 80.7998 185.29Z" fill="#20232E"/>
<path fill-rule="evenodd" clip-rule="evenodd" d="M114.5 69.5896C115.4 68.1896 120.2 70.1896 119 71.9896C118.7 72.3896 118.4 72.4896 118 72.6896C118 72.6896 116.1 72.3896 115.8 72.1896C115.5 71.9896 114.3 70.5896 114.3 70.5896C114.4 70.2896 114.3 69.8896 114.5 69.5896Z" fill="#1D2933"/>
<path fill-rule="evenodd" clip-rule="evenodd" d="M115 69.2897C115.3 70.1897 117.5 72.1897 119.1 70.9897C119.3 70.4897 118.9 69.9897 117.8 69.4897C116.7 68.9897 115.6 68.3897 115 69.2897Z" fill="#C4CFE6"/>
<path fill-rule="evenodd" clip-rule="evenodd" d="M120 67.7896C120.4 68.1896 120.5 69.1896 119.9 69.8896C119.8 69.9896 119.3 70.4896 118.9 70.8896C118.8 70.9896 118.5 71.5896 118.3 71.9896C118 72.7896 116.7 71.8896 116.5 71.5896C116.2 71.2896 116.3 70.0896 116.4 69.8896C116.8 69.1896 116.7 67.1896 116.8 66.6896C116.9 66.1896 117.3 66.3896 117.3 65.5896L120 67.7896Z" fill="#DB9669"/>
<path fill-rule="evenodd" clip-rule="evenodd" d="M120.4 66.0896L122.4 64.7896C122.4 64.7896 122.5 64.7896 122.5 64.8896C122.7 65.0896 123 65.2896 123 65.4896C123.1 65.9896 122.4 67.5896 122 67.8896C121.9 67.9896 121.5 68.4896 121.3 68.2896C121.2 68.5896 120.7 68.8896 120.5 68.6896C120.3 68.9896 120.3 68.8896 120 69.0896C119.9 69.1896 119.8 69.0896 119.7 69.0896L119.8 66.5896L120.4 66.0896Z" fill="#E8A476"/>
<path fill-rule="evenodd" clip-rule="evenodd" d="M120 66.7897L116.099 65.0897C116.099 64.5897 116.499 64.2897 117.399 63.7897C117.799 63.5897 118.599 63.2897 118.899 63.0897C119.499 62.7897 120.699 63.2897 121.599 63.8897C121.799 63.9897 122.799 65.0897 122.899 65.3897C121.699 66.2897 120.6 66.6897 120 66.7897Z" fill="#F1B287"/>
<path fill-rule="evenodd" clip-rule="evenodd" d="M117.8 68.3897C117.5 68.1897 117.1 67.7897 117.1 67.3897C117.1 66.5897 117.8 67.1897 118.2 67.4897C118.4 67.5897 118.6 67.6897 118.8 67.7897C119 67.8897 119 67.8897 119 67.5897C119 67.4897 118.8 67.2897 118.6 67.1897C118.1 66.8897 117.7 66.6897 117.4 66.5897C117.1 66.4897 116.9 66.6897 117 67.0897C117 67.8897 117.3 68.4897 117.5 69.0897C117.6 69.6897 117.6 70.1897 117 70.8897C116.9 71.0897 116.7 71.2897 116.6 71.4897C116.5 71.6897 115.8 71.2897 115.5 70.9897C115.2 70.6897 114.5 70.9897 114.6 70.6897C115.4 69.6897 115.9 67.6897 115.8 66.3897C115.8 65.9897 115.8 64.4897 116.3 64.3897C117.5 64.0897 119.7 65.9897 120 66.8897C120.1 67.0897 120.1 67.2897 120.1 67.3897C120 67.8897 119.9 68.0897 119.8 68.5897C119.8 69.4897 118.2 68.5897 117.8 68.3897Z" fill="#E8A476"/>
<path fill-rule="evenodd" clip-rule="evenodd" d="M117.8 65.2896C117.5 65.4896 117.3 65.9896 117.2 66.3896L116.6 67.7896C116.6 66.5896 116.3 65.4896 117.8 65.2896Z" fill="#DB9669"/>
<path fill-rule="evenodd" clip-rule="evenodd" d="M116.5 68.4896C116.3 68.9896 115.4 70.5896 115.4 70.7896C115.4 71.0896 116.1 71.6896 116.6 71.5896C117.5 71.5896 118.1 70.2896 118.2 69.4896C118.3 68.8896 118.1 67.8896 118.3 67.2896C118.7 66.1896 118.5 65.6896 118.3 65.3896C118.1 65.0896 117.3 64.8896 117.2 66.3896C117.1 66.9896 116.8 67.9896 116.5 68.4896Z" fill="#E8A476"/>
<path fill-rule="evenodd" clip-rule="evenodd" d="M115.9 71.3898C116.1 71.4898 116.4 71.6898 116.6 71.6898C117.5 71.6898 118.1 70.3898 118.2 69.5898C118.3 68.9898 118.1 67.9898 118.3 67.3898C118.7 66.2898 118.5 65.7898 118.3 65.4898C118.2 65.2898 117.8 65.1898 117.5 65.3898C117.8 65.7898 118 66.4898 117.5 67.9898C117.1 69.6898 116.8 70.0898 115.9 71.3898Z" fill="#F1B287"/>
<path fill-rule="evenodd" clip-rule="evenodd" d="M114.4 70.4896C114.4 70.3896 114.7 69.8896 115.1 69.2896C115.4 70.1896 117.6 72.1896 119.2 70.9896L118.8 72.2896C117.6 73.0896 115.5 72.3896 114.4 70.4896Z" fill="#E6EDFF"/>
<path fill-rule="evenodd" clip-rule="evenodd" d="M108.9 82.2897C111.1 78.0897 112.2 74.8897 114.5 69.6897C114.7 70.8897 117.3 72.5897 119.1 71.9897C117.3 78.1897 116.8 85.1897 115 87.2897C112.7 90.0897 105.8 95.0897 102.6 96.8897C98.6004 99.1897 96.4004 101.79 95.6004 100.89C94.2004 99.1897 93.4004 94.8897 94.4004 92.9897C96.5004 88.7897 104.4 85.6897 108.9 82.2897Z" fill="#152747"/>
<path fill-rule="evenodd" clip-rule="evenodd" d="M108.9 82.2897C111.1 78.0897 112.2 74.8897 114.5 69.6897C114.6 70.0897 114.9 70.5897 115.4 70.9897C113.8 76.3897 112.3 80.7897 110.7 84.4897C105.9 87.5897 99.5004 89.3897 96.9004 89.9897C100.3 87.1897 105.5 84.8897 108.9 82.2897Z" fill="#1A3059"/>
<path fill-rule="evenodd" clip-rule="evenodd" d="M112 85.1896C113.7 81.8896 115.8 76.0896 116.4 71.5896C117.3 71.9896 118.2 72.1896 119 71.9896C117.2 78.1896 116.7 85.1896 114.9 87.2896C112.6 90.0896 105.7 95.0896 102.5 96.8896C98.5002 99.1896 96.3002 101.79 95.5002 100.89C94.8002 100.09 94.3002 98.5896 94.0002 97.0896C105.9 91.4896 110.6 86.8896 112 85.1896Z" fill="#0F1E38"/>
<path fill-rule="evenodd" clip-rule="evenodd" d="M119.5 64.8897L121 66.4897L120.4 68.3897L121.1 66.3897L119.7 64.6897L119.5 64.8897Z" fill="#DB9669"/>
<path fill-rule="evenodd" clip-rule="evenodd" d="M120.3 64.4896L121.7 66.0896L121.1 67.9896L121.9 65.9896L120.4 64.3896L120.3 64.4896Z" fill="#DB9669"/>
<path fill-rule="evenodd" clip-rule="evenodd" d="M121.099 64.0896L122.5 65.6896L121.899 67.5896L122.599 65.5896L121.399 64.1896L121.099 64.0896Z" fill="#DB9669"/>
<path fill-rule="evenodd" clip-rule="evenodd" d="M85.4001 93.5897C87.9001 92.5897 96.7004 88.5897 99.0004 89.2897C105.2 91.0897 105.2 96.9897 103.8 105.59C103.3 108.49 102.5 110.89 102 114.49C101.4 118.79 101.2 126.29 100.3 130.79C98.7004 133.19 98.8004 132.99 96.6004 134.39C97.3004 131.49 97.7004 128.79 98.1004 125.69C97.2004 128.79 96.4004 131.79 95.3004 134.79C91.5004 136.79 81.2001 136.69 78.6001 132.29C79.7001 124.39 82.4001 124.69 83.4001 119.69C84.2001 115.59 79.9001 103.89 80.7001 98.1897C81.1001 95.6897 83.5001 94.3897 85.4001 93.5897Z" fill="#152747"/>
<path fill-rule="evenodd" clip-rule="evenodd" d="M85.4 93.5897L90.8004 91.4897C89.9 92.5897 87.1 94.1897 84.7 95.6897C86.8 99.9897 88.9 109.29 88.5 115.39C87.8 126.49 84.7 127.79 83.7 135.39C81.5 134.79 79.5 133.89 78.5 132.19C79.6 124.29 82.3 124.59 83.3 119.59C84.1 115.49 79.8 103.79 80.6 98.0897C81.1 95.6897 83.5 94.3897 85.4 93.5897Z" fill="#0F1E38"/>
<path fill-rule="evenodd" clip-rule="evenodd" d="M99.2002 91.6897C100.9 92.7897 101.1 93.0897 102.1 95.2897L100.9 96.0897L102.2 96.7897C102 102.59 100.5 110.29 99.4002 116.09C99.5002 110.29 100.7 101.89 99.5002 96.5897C99.2002 95.1897 98.7002 94.3897 98.1002 93.1897C98.0002 92.6897 98.9002 91.4897 99.2002 91.6897Z" fill="#1D386B"/>
<path fill-rule="evenodd" clip-rule="evenodd" d="M90.7003 91.1897C90.2 93.1897 95.5003 96.6897 97.8003 95.8897C98.0003 95.7897 98.2003 95.3897 98.4003 95.1897C98.3003 94.6897 98.3003 94.2897 98.4003 93.7897C98.5003 93.1897 98.8003 92.7897 99.1003 92.2897C99.5003 91.5897 99.7003 90.1897 100.3 88.5897L94.3003 84.8897L93.0003 83.9897C93.2003 87.2897 92.3003 88.6897 90.7003 91.1897Z" fill="#E8A476"/>
<path fill-rule="evenodd" clip-rule="evenodd" d="M90.7004 91.1896C90.7004 91.2896 90.7004 91.3896 90.7004 91.4896C94.0004 89.9896 95.7004 91.8896 99.4004 91.3896C99.6004 90.5896 99.9004 89.5896 100.3 88.4896L94.3004 84.7896L93.0004 83.8896C93.2004 87.2896 92.3004 88.6896 90.7004 91.1896Z" fill="#DB9669"/>
<path fill-rule="evenodd" clip-rule="evenodd" d="M91.5004 92.2898C89.8001 100.69 98.9004 101.39 99.5004 114.29C99.9004 107.19 101 101.99 99.1004 94.9898L98.3004 95.7898L96.4004 95.8898L91.5004 92.2898Z" fill="#D1D7F2"/>
<path fill-rule="evenodd" clip-rule="evenodd" d="M96.5002 96.4898C96.7002 97.7898 96.7002 97.7898 97.8002 98.7898C97.6002 99.3898 97.4002 99.9898 97.2002 100.59C98.8002 106.39 99.1002 107.89 99.6002 114.39C99.7002 113.39 99.8002 114.19 99.8002 113.29C100.1 108.89 100.2 104.29 99.9002 98.9898C99.4002 98.5898 99.0002 98.4898 98.8002 98.3898C99.3002 96.9898 99.3002 96.0898 99.0002 95.8898C97.8002 95.6898 97.4002 95.7898 96.5002 96.4898Z" fill="#1A3059"/>
<path fill-rule="evenodd" clip-rule="evenodd" d="M96.5002 96.4896C96.7002 97.7896 96.7002 97.7896 97.8002 98.7896C97.6002 99.3896 97.4002 99.9896 97.2002 100.59C98.8002 106.39 99.1002 107.89 99.6002 114.39C100.1 108.49 99.5002 105.39 98.2002 100.59C98.4002 99.6896 98.4002 99.0896 98.3002 98.5896C97.7002 97.4896 97.2002 96.8896 97.2002 96.0896C96.1002 95.9896 97.4002 95.7896 96.5002 96.4896Z" fill="#152747"/>
<path fill-rule="evenodd" clip-rule="evenodd" d="M97.8003 95.7896C98.1003 95.1896 98.1003 93.9896 98.5003 93.3896C99.2003 93.5896 99.7003 95.3896 100.2 96.7896C99.3003 96.0896 98.9003 95.9896 97.8003 95.7896Z" fill="#E6EDFF"/>
<path fill-rule="evenodd" clip-rule="evenodd" d="M91.2003 90.5896C90.2001 91.2896 89.5001 91.4896 89.2001 92.0896C88.2001 93.7896 89.9001 97.0896 90.4001 100.29L92.1003 100.09L91.3003 101.69C97.1003 107.49 99.5003 110.29 99.6003 117.49C100.8 99.8896 89.6001 98.0896 91.2003 90.5896Z" fill="#1D386B"/>
<path fill-rule="evenodd" clip-rule="evenodd" d="M91.3003 90.0896C90.8003 92.3896 95.4003 94.8896 97.8003 95.7896C97.1003 96.4896 96.1003 97.2896 96.0003 98.0896C94.3003 97.3896 91.0003 95.6896 90.1 93.1896C89.5 91.5896 90.4 90.5896 91.3003 90.0896Z" fill="#E6EDFF"/>
<path fill-rule="evenodd" clip-rule="evenodd" d="M91.3004 103.59C91.8004 109.69 92.4004 113.79 92.1004 117.49C91.7004 122.69 90.5 127.29 88 135.59L94.0004 134.99C95.5004 129.89 98.1004 124.29 98.5004 118.59C98.7004 112.89 97.0004 106.99 91.3004 103.59Z" fill="#1A3059"/>
<path fill-rule="evenodd" clip-rule="evenodd" d="M101 92.6897C103.9 96.8897 102.3 102.89 101.4 108.99C100.1 117.79 99.1003 124.89 97.3003 133.59C98.4003 132.89 99.3003 131.99 100.1 130.69C100.8 123.29 101.3 114.99 102.9 107.79C104.2 101.69 105.3 95.4897 102.1 91.4897C101.7 91.9897 101.6 92.1897 101 92.6897Z" fill="#1A3059"/>
<path fill-rule="evenodd" clip-rule="evenodd" d="M88.9001 123.59C91.5004 122.79 92.3004 122.59 94.5004 122.39L92.7004 128.59C91.2004 129.59 89.1 129.99 87.3 129.79L88.9001 123.59Z" fill="#152747"/>
<path fill-rule="evenodd" clip-rule="evenodd" d="M88.9001 123.59C91.5003 122.79 92.3003 122.59 94.5003 122.39C94.0003 124.19 94.1003 124.19 92.1003 124.89C88.5001 126.09 89.6001 126.19 87.9001 129.89C87.8001 130.09 87.5001 129.89 87.4001 129.89L88.9001 123.59Z" fill="#0F1E38"/>
<path fill-rule="evenodd" clip-rule="evenodd" d="M89.2 122.79C91.9004 121.99 93.1004 121.49 95.0004 120.89L94.2004 123.39C93.5004 123.89 89.9 125.29 88.5 124.99L89.2 122.79Z" fill="#152747"/>
<path fill-rule="evenodd" clip-rule="evenodd" d="M89.2 122.79C91.9004 121.99 93.1004 121.49 95.0004 120.89C93.0004 122.09 89.8 122.79 89 124.99C88.8 124.99 88.6 124.99 88.5 124.99L89.2 122.79Z" fill="#0F1E38"/>
<path fill-rule="evenodd" clip-rule="evenodd" d="M93.7004 124.49L90.3002 125.89L88.6001 129.39C90.2001 129.19 90.7004 129.09 92.2004 128.59L93.7004 124.49Z" fill="#1A3059"/>
<path fill-rule="evenodd" clip-rule="evenodd" d="M94.6003 121.29C93.0003 122.19 90.8004 123.39 89.7 124.69C91.4004 124.39 92.0004 124.09 93.8004 123.29C94.2004 122.69 94.4003 122.09 94.6003 121.29Z" fill="#1A3059"/>
<path fill-rule="evenodd" clip-rule="evenodd" d="M99.7003 121.19C100.6 120.39 100.9 120.19 101.7 119.89L100.7 126.39C100.2 126.89 98.9003 127.39 98.6003 127.29L99.7003 121.19Z" fill="#152747"/>
<path fill-rule="evenodd" clip-rule="evenodd" d="M99.7004 121.19C100.6 120.39 100.9 120.19 101.7 119.89C101.3 121.79 101.4 121.69 100.7 122.39C99.4004 123.59 99.8004 123.69 98.9004 127.39C98.8004 127.39 98.7004 127.39 98.7004 127.39L99.7004 121.19Z" fill="#0F1E38"/>
<path fill-rule="evenodd" clip-rule="evenodd" d="M101.2 122.09L100 123.49L99.3003 127.09C99.8003 126.89 100.1 126.79 100.6 126.29L101.2 122.09Z" fill="#1A3059"/>
<path fill-rule="evenodd" clip-rule="evenodd" d="M99.8003 119.69C100.7 119.29 101.2 118.99 101.9 118.69L101.6 121.19C101.3 121.59 100.1 122.49 99.6003 121.89L99.8003 119.69Z" fill="#152747"/>
<path fill-rule="evenodd" clip-rule="evenodd" d="M99.8003 119.69C100.7 119.29 101.2 118.99 101.9 118.69C101.2 119.59 100.1 119.79 99.8003 121.99C99.7003 121.99 99.7003 121.89 99.6003 121.89L99.8003 119.69Z" fill="#0F1E38"/>
<path fill-rule="evenodd" clip-rule="evenodd" d="M101.7 118.99C101.1 119.59 100.3 120.49 100 121.79C100.6 121.69 100.8 121.59 101.4 120.99C101.6 120.39 101.6 119.79 101.7 118.99Z" fill="#1A3059"/>
<path fill-rule="evenodd" clip-rule="evenodd" d="M76.7 143.19C76.9 142.79 76.9 142.39 76.7 142.09C76.7 142.09 76.7 141.99 76.6 141.99L66.7 128.79C66.6 128.89 66.5 129.19 66.4 129.49L65 132.79L70.5 146.99L75.3 146.49L76.7 143.19Z" fill="#4F260D"/>
<path fill-rule="evenodd" clip-rule="evenodd" d="M76.8 143.79L71.8 144.39L72.2001 145.09L77.2001 144.39L76.8 143.79Z" fill="#8F4C22"/>
<path fill-rule="evenodd" clip-rule="evenodd" d="M71.9 145.29L72.8 145.19L72.9 144.79L62.8 131.29H62L71.9 145.29Z" fill="#8F4C22"/>
<path fill-rule="evenodd" clip-rule="evenodd" d="M68.5 154.09L71.4 147.19L72.3 144.99L62 131.29L58.2 140.39C58.1 140.59 58 140.89 58 141.09C58 141.19 58 141.39 58 141.49C58 141.59 58 141.59 58 141.69C58 141.79 58.1 141.89 58.2 141.99L68.5 155.69C68.2 155.29 68.3 154.79 68.5 154.09Z" fill="#6E3715"/>
<path fill-rule="evenodd" clip-rule="evenodd" d="M77.2 144.39L72.2 144.99L68.4 154.09C67.9 155.39 68.5 156.19 69.9 156.09C71.3 155.89 72.8 154.79 73.3 153.49L77.2 144.39Z" fill="#783C18"/>
<path fill-rule="evenodd" clip-rule="evenodd" d="M75.7001 141.49C76.7001 141.79 77.2 142.59 76.8 143.79L76.4001 144.69L75.7001 143.89C75.9001 143.39 75.9001 142.99 75.7001 142.69C75.0001 141.79 73.4 142.69 72.8 143.09C72.4 143.49 72 143.89 71.8 144.29L71.4001 145.19L70.3 145.29L70.7001 144.39C71.1001 143.39 71.9001 142.39 72.9001 141.79C73.9001 141.39 74.7001 141.19 75.7001 141.49Z" fill="#85451D"/>
<path fill-rule="evenodd" clip-rule="evenodd" d="M64.3 144.59L65.1001 144.49L64.1001 146.89H63.3L63.8 145.59L64.3 144.59Z" fill="#F2930E"/>
<path fill-rule="evenodd" clip-rule="evenodd" d="M66.9001 128.89C66.8001 128.69 66.5001 128.49 66.4001 128.49C65.8001 128.19 64.9 128.29 64.3 128.49C63.8 128.69 63.2 128.89 62.8 129.29C62.1 129.79 61.4001 130.49 61.0001 131.19C61.0001 131.29 60.9001 131.39 60.9001 131.49L59.8 134.19L63.1001 143.59L64.0001 144.79L70.0001 147.89H70.1001L70.7001 146.69C71.0001 145.99 72.3001 143.89 72.9001 143.29C73.8001 142.59 76.3001 141.59 77.2001 142.69L66.9001 128.89Z" fill="#8F4C22"/>
<path fill-rule="evenodd" clip-rule="evenodd" d="M63.2001 129.59C62.2001 130.09 61.4001 131.09 61.2001 131.79L60.1001 134.39L63.3002 143.29L64.2001 144.49L69.7001 147.19H69.8002C70.4002 145.79 71.0001 143.69 72.4001 142.69C73.2001 142.09 73.0001 141.79 72.6001 141.19L64.9001 130.39C64.3001 129.69 64.0001 129.19 63.2001 129.59Z" fill="#A35829"/>
<path fill-rule="evenodd" clip-rule="evenodd" d="M76.3999 142.09C77.3999 142.39 77.6999 143.29 77.1999 144.39L75.8 147.69L74.6999 147.79L76.0999 144.49C76.2999 143.99 76.2999 143.59 76.0999 143.29C75.3999 142.39 73.6999 143.19 73.0999 143.69C72.6999 144.09 72.2999 144.49 72.0999 144.89L70.9999 147.59L69.8999 147.69L70.9999 144.99C71.3999 143.99 72.1999 142.99 73.1999 142.39C74.1999 141.99 75.3999 141.79 76.3999 142.09Z" fill="#783C18"/>
<path fill-rule="evenodd" clip-rule="evenodd" d="M64.3 144.59H64.6001L63.6001 146.89H63.3L63.8 145.59L64.3 144.59Z" fill="#F2930E"/>
<path fill-rule="evenodd" clip-rule="evenodd" d="M63 142.89L63.7 143.99L64.3 144.59H64.6L63.3 142.79L63 142.89Z" fill="#FFD563"/>
<path fill-rule="evenodd" clip-rule="evenodd" d="M63 142.89L64.3 144.59L63.3 146.89L62 145.19L63 142.89Z" fill="#FFC526"/>
<path fill-rule="evenodd" clip-rule="evenodd" d="M63.0001 143.09L63.3002 146.79L62.1001 145.19L63.0001 143.09Z" fill="#FFD970"/>
<path fill-rule="evenodd" clip-rule="evenodd" d="M69.2999 131.69C69.2999 131.69 69.2999 131.59 69.3999 131.59C69.3999 131.59 69.4 131.49 69.5 131.49C69.5 131.49 69.5 131.39 69.6 131.39C69.6 131.39 69.7 131.39 69.7 131.29L69.7999 131.19H69.8999L68.3999 131.39H68.2999C68.2999 131.39 68.2 131.39 68.2 131.49C68.2 131.49 68.1 131.49 68.1 131.59C68.1 131.59 68.1 131.59 68 131.69C68 131.69 68 131.69 68 131.79C68 131.79 68 131.79 68 131.89C68 131.89 68 131.89 68 131.99C68 131.99 68 131.99 68 132.09L67.7 132.69L69.2 132.49L69.5 131.89C69.2 131.79 69.2999 131.79 69.2999 131.69Z" fill="#783C18"/>
<path fill-rule="evenodd" clip-rule="evenodd" d="M71.1 130.79C71.1 130.79 71 130.79 71.1 130.79C71 130.69 71 130.69 71 130.69C71 130.69 71 130.69 70.9 130.59C70.9 130.59 70.9 130.59 70.8 130.49C70.8 130.49 70.8 130.49 70.7 130.39H70.6C70.6 130.39 70.6 130.39 70.5 130.39H70.4H70.3H70.2C70.1 130.39 70.1 130.39 70 130.39L68.5 130.59C69 130.69 69.5 130.99 69.8 131.49L70.7 131.29L71.1 130.79C71.1 130.89 71.1 130.89 71.1 130.79Z" fill="#8C491F"/>
<path fill-rule="evenodd" clip-rule="evenodd" d="M72.0999 137.29H72.1999C72.1999 137.39 72.1999 137.49 72.0999 137.49C72.0999 137.59 71.9999 137.69 71.9999 137.69L73.4999 137.49V137.39C73.5999 137.19 73.5999 136.99 73.6999 136.79C73.6999 136.49 73.7999 136.29 73.7999 135.99C73.7999 135.59 73.7999 135.29 73.6999 134.89C73.6999 134.89 73.6999 134.79 73.6999 134.69V134.59C73.6999 134.39 73.2999 133.59 73.0999 133.39H72.3998L71.5999 133.59C72.1999 134.59 72.3999 135.99 72.0999 137.29Z" fill="#8C491F"/>
<path fill-rule="evenodd" clip-rule="evenodd" d="M71.4999 133.59L69.5999 131.09C68.7999 129.99 67.6999 130.19 67.1999 131.39L66.8999 131.99L67.3999 132.69L67.6999 132.09C67.9999 131.29 68.7 131.19 69.3 131.89L71.1999 134.39C71.6999 135.09 71.8999 136.29 71.4999 137.09L71.1999 137.69L71.6999 138.39L71.9999 137.79C72.5999 136.49 72.2999 134.69 71.4999 133.59Z" fill="#854219"/>
<path fill-rule="evenodd" clip-rule="evenodd" d="M72 137.79L71.7 138.39L73.2 138.19L73.5 137.59V137.49V137.39V137.29L72 137.39C72 137.49 71.9999 137.59 71.8999 137.59C72.0999 137.59 72.1 137.69 72 137.79Z" fill="#783C18"/>
<path fill-rule="evenodd" clip-rule="evenodd" d="M71.0999 130.89L69.5999 131.09L71.4999 133.59L72.9999 133.39L71.0999 130.89Z" fill="#8F4C22"/>
<path fill-rule="evenodd" clip-rule="evenodd" d="M76.2999 145.09L72.5999 145.59L69.1999 153.59C68.7999 154.59 69.1999 155.29 70.2999 155.19C71.3999 155.09 72.3999 154.09 72.7999 153.09L76.2999 145.09Z" fill="#8F4C22"/>
<path fill-rule="evenodd" clip-rule="evenodd" d="M69 127.19C68.5 130.39 67.4 131.79 67.5 132.59C67.5 133.19 69.6 136.39 70.4 137.19C70.6 137.39 71.4 137.29 71.5 137.09C72.1 136.59 71.7 135.49 72.2 134.19C72.5 133.39 73.1 133.69 73.3 133.89C73.7 134.29 73.7 135.09 73.8 135.59C74.1 133.69 75 132.39 74.1 130.79C73.7 130.09 73.2 129.39 73.2 128.19L69 127.19Z" fill="#F1B287"/>
<path fill-rule="evenodd" clip-rule="evenodd" d="M69 127.19C68.5 130.39 67.4 131.79 67.5 132.59C67.5 133.19 69.3 135.89 69.9 136.59C69.9 134.69 71.1 132.89 71.3 130.99C71.7 130.89 73.3 130.69 73.6 129.99L73.4 129.69L69 127.19Z" fill="#E8A476"/>
<path fill-rule="evenodd" clip-rule="evenodd" d="M83.3001 94.8896C79.6001 95.5896 75.1001 105.49 72.0001 111.59C70.6001 117.19 69.4001 121.69 68.4001 127.29C69.0001 128.69 72.6001 131.19 73.8001 129.29C75.1001 124.59 77.2001 119.09 77.5001 114.09C79.7001 111.99 81.4001 109.59 83.0001 107.19C83.9001 105.79 85.2001 104.19 85.9001 102.69C86.1001 100.19 86.1001 96.4896 83.3001 94.8896Z" fill="#152747"/>
<path fill-rule="evenodd" clip-rule="evenodd" d="M75.2999 113.59C75.1999 115.89 73.6 123.69 72.2 129.99C72.6 129.99 72.9999 129.99 73.3999 129.79C73.5999 129.69 73.6999 129.59 73.7999 129.39C75.0999 124.69 77.2 119.19 77.5 114.19C79.7 112.09 81.4 109.69 83 107.29C83.9 105.89 85.1999 104.29 85.8999 102.79C85.9999 101.29 86.1 99.4896 85.6 97.8896C83.4 101.29 76.4999 111.29 75.2999 113.59Z" fill="#1A3059"/>
<path fill-rule="evenodd" clip-rule="evenodd" d="M83.3001 94.8896C79.6001 95.5896 75.1001 105.49 72.0001 111.59C70.6001 117.19 69.4001 121.69 68.4001 127.29C68.7001 127.99 69.7001 128.99 70.9001 129.59L70.8001 129.09C71.5001 123.79 72.7001 118.19 73.8001 112.99C77.7001 106.19 80.2001 102.79 84.9001 96.6896C84.6001 95.9896 84.0001 95.2896 83.3001 94.8896Z" fill="#0F1E38"/>
<path fill-rule="evenodd" clip-rule="evenodd" d="M99.9003 90.6896C99.0003 90.5896 97.0003 90.4896 96.1003 90.3896C94.3003 90.0896 93.8003 88.7896 92.4003 86.9896C90.7003 86.7896 89.9 86.2896 89.4 85.4896C88.2 83.7896 88.2 81.1896 89.1 79.2896C89.9 77.6896 91.2003 76.6896 93.0003 76.1896C96.5003 75.2896 99.0003 76.9896 100.6 79.5896C100.7 79.7896 100.8 80.0896 100.9 80.2896C101 80.8896 100.9 81.2896 101 81.6896C101.1 82.4896 101.4 82.4896 101.7 82.8896C102 83.3896 102.1 84.4896 102.5 85.4896C102.6 85.6896 102.7 86.0896 102.8 86.6896C103 87.6896 103 88.9896 102.7 89.2896C102.5 89.5896 102.2 89.6896 101.8 89.9896C101.3 90.4896 101 90.6896 99.9003 90.6896Z" fill="#F1B287"/>
<path fill-rule="evenodd" clip-rule="evenodd" d="M99.9003 90.6898C99.0003 90.5898 97.0003 90.4898 96.1003 90.3898C94.3003 90.0898 93.8003 88.7898 92.4003 86.9898C90.7003 86.7898 89.9 86.2898 89.4 85.4898C88.2 83.7898 88.2 81.1898 89.1 79.2898C89.9 77.6898 91.2003 76.6898 93.0003 76.1898C96.0003 75.3898 98.3003 76.5898 99.9003 78.5898C99.9003 78.7898 98.6003 80.1898 97.1003 80.9898C96.3003 81.3898 95.2003 81.1898 94.1003 81.1898C94.3003 82.0898 95.9003 83.8898 96.2003 84.4898C96.3003 84.5898 96.1003 85.3898 96.7003 85.7898C96.9003 85.8898 97.2003 85.9898 97.2003 86.2898C97.7003 89.1898 100.1 89.8898 101.2 90.3898C100.8 90.5898 100.4 90.6898 99.9003 90.6898Z" fill="#E8A476"/>
<path fill-rule="evenodd" clip-rule="evenodd" d="M91.9004 80.8898C92.2004 83.2898 94.5004 85.8898 95.8004 87.7898C96.1004 88.1898 96.7004 88.4898 97.5004 88.6898C97.9004 88.7898 98.8004 88.9898 98.9004 88.9898C99.3004 88.7898 98.8004 87.7898 100 86.5898C100.4 86.1898 101 85.6898 101.3 85.6898C101.8 85.5898 102 85.7898 102.2 85.4898C102.5 86.2898 103.1 88.3898 102.8 89.1898C102.7 89.5898 102.2 89.9898 101.6 90.5898C101.2 90.8898 100.5 90.9898 99.6003 91.0898C98.0003 91.1898 96.1004 90.6898 94.8004 90.1898C94.3004 89.9898 93.9004 89.8898 93.9004 88.9898C93.9004 87.3898 93.3004 85.8898 92.7004 84.7898C92.1004 83.7898 91.6003 83.2898 90.3 82.5898C91.1003 81.0898 91.7004 78.6898 91.9004 80.8898ZM101.4 88.5898C101.1 88.1898 101.2 88.1898 101.4 87.9898C101.6 87.7898 101.7 87.7898 102 88.0898C102.2 87.8898 102.4 87.7898 102.4 87.6898C102.4 87.4898 102.4 87.3898 102.3 87.1898C102.1 86.7898 101.7 86.4898 101.3 86.7898C101.1 86.9898 100.5 87.4898 100.4 87.7898C100.3 88.0898 100.4 88.9898 100.7 89.1898C100.8 89.2898 100.8 89.3898 100.9 89.2898C101.1 88.9898 101.3 88.7898 101.4 88.5898Z" fill="#8C5B3C"/>
<path fill-rule="evenodd" clip-rule="evenodd" d="M97.4004 79.8898C96.4004 79.7898 93.3004 79.3898 91.7004 79.1898C90.1002 78.9898 88.3002 78.7898 87.6002 80.0898C87.1002 81.6898 87.8002 83.9898 88.5002 85.0898C89.5002 86.6898 90.9004 87.7898 93.1004 88.4898C93.9004 88.7898 93.7004 86.8898 93.6004 86.2898C93.4004 85.5898 93.3004 84.9898 93.2004 84.1898C93.0004 83.6898 93.4004 83.4898 93.2004 83.0898C92.7004 81.9898 92.2004 81.4898 92.1004 80.5898C92.6004 79.4898 95.5004 80.5898 97.4004 79.8898Z" fill="#8C5B3C"/>
<path fill-rule="evenodd" clip-rule="evenodd" d="M98.3003 88.8897C98.6003 88.9897 98.9003 88.9897 98.9003 88.9897C99.3003 88.7897 98.8003 87.7897 100 86.5897C100.4 86.1897 101 85.6897 101.3 85.6897C101.8 85.5897 102 85.7897 102.2 85.4897C102.5 86.2897 103.1 88.3897 102.8 89.1897C102.7 89.5897 102.2 89.9897 101.6 90.5897C101.5 90.6897 101.4 90.6897 101.3 90.7897C101 90.6897 100.6 90.4897 100.5 90.4897C100 90.0897 99.1003 89.6897 98.3003 88.8897ZM101.4 88.5897C101.1 88.1897 101.2 88.1897 101.4 87.9897C101.6 87.7897 101.7 87.7897 102 88.0897C102.2 87.8897 102.4 87.7897 102.4 87.6897C102.4 87.4897 102.4 87.3897 102.3 87.1897C102.1 86.7897 101.7 86.4897 101.3 86.7897C101.1 86.9897 100.5 87.4897 100.4 87.7897C100.3 88.0897 100.4 88.9897 100.7 89.1897C100.8 89.2897 100.8 89.3897 100.9 89.2897C101.1 88.9897 101.3 88.7897 101.4 88.5897Z" fill="#A36B48"/>
<path fill-rule="evenodd" clip-rule="evenodd" d="M92.0004 85.0896C90.5001 85.1896 91.1004 86.6896 91.7004 87.4896C92.1004 88.0896 92.6004 87.7896 93.0004 88.1896C93.4004 88.5896 93.8004 88.7896 94.2004 88.6896C94.2004 87.9896 94.0004 86.9896 93.8004 86.3896C93.4004 85.6896 92.8004 85.0896 92.0004 85.0896Z" fill="#E8A476"/>
<path fill-rule="evenodd" clip-rule="evenodd" d="M87.6001 80.0896C87.3001 80.6896 87.3001 82.1896 87.7001 82.9896C87.6001 82.3896 87.5001 81.7896 87.9001 81.0896C87.8001 82.0896 87.8001 82.4896 88.4001 83.3896C88.2001 82.5896 88.1001 81.7896 88.6001 81.1896C88.4001 82.5896 89.0001 83.8896 89.4001 84.4896C89.0001 83.3896 88.9001 82.0896 89.5001 81.1896C89.3001 82.1896 89.9001 83.0896 90.3001 83.7896C90.1001 82.6896 89.9001 82.0896 90.5001 81.1896C90.6004 82.1896 91.1004 83.1896 91.7004 83.6896C91.5004 83.3896 91.3004 81.6896 91.4004 81.0896C91.6004 81.6896 92.2004 82.1896 92.7004 82.2896C92.1004 81.2896 92.1004 80.6896 92.1004 80.3896C92.1004 79.4896 93.5004 79.7896 95.0004 79.7896C91.1004 78.8896 88.1001 79.9896 87.6001 80.0896Z" fill="#4F2B0C"/>
<path fill-rule="evenodd" clip-rule="evenodd" d="M87.6 80.0898C88.3 79.9898 90.1 79.4898 92.2004 79.5898C94.2004 79.6898 96.6004 80.5898 98.4004 79.3898C100.4 78.0898 100.4 75.5898 98.5004 74.2898C97.9004 74.8898 97.4004 74.4898 94.4004 74.3898C91.1004 74.4898 87.1 76.4898 87.6 80.0898Z" fill="#361D07"/>
<path fill-rule="evenodd" clip-rule="evenodd" d="M87.6001 80.0896C88.3001 79.9896 90.1002 79.4896 92.2004 79.5896C94.2004 79.6896 96.6003 80.5896 98.4003 79.3896C100.4 78.0896 100.4 75.6896 98.5003 74.3896C98.4003 75.2896 97.9004 75.4896 97.7004 76.1896C97.5004 76.9896 97.5003 77.4896 96.6003 77.7896C96.9003 77.4896 97.0004 77.3896 97.2004 76.7896C96.7004 77.3896 96.0003 77.8896 94.9003 78.2896C95.4003 77.9896 95.6003 77.7896 95.9003 77.3896C94.6003 78.0896 93.9003 78.2896 92.4003 78.5896C93.0003 78.1896 93.2003 78.1896 93.9003 77.8896C92.4003 77.9896 91.6003 78.3896 90.3001 78.9896C90.6003 78.6896 90.9004 78.4896 91.2004 78.2896C89.8002 78.6896 88.8001 79.5896 87.6001 79.6896C87.5001 79.7896 87.5001 79.9896 87.6001 80.0896Z" fill="#241304"/>
<path fill-rule="evenodd" clip-rule="evenodd" d="M88.2002 77.3898C88.9002 76.0898 90.6004 75.1898 92.0004 74.7898C93.1004 74.4898 94.6004 74.3898 95.3004 74.2898C95.0004 74.4898 94.9004 74.4898 94.7004 74.5898C96.4004 74.4898 97.3004 74.9898 98.2004 74.6898C97.0004 75.6898 94.5004 75.7898 93.8004 76.0898C94.0004 76.0898 94.0004 76.1898 94.3004 76.2898C92.3004 76.6898 90.6004 75.6898 88.2002 77.3898Z" fill="#4A2B12"/>
</svg>
