<svg width="123" height="241" viewBox="0 0 123 241" fill="none" xmlns="http://www.w3.org/2000/svg">
<path fill-rule="evenodd" clip-rule="evenodd" d="M58.4315 178.61C64.1315 168.91 82.8315 172.81 84.4315 180.41C101.432 179.61 110.232 202.51 89.3315 210.11C100.632 222.81 70.6315 241.01 60.6315 231.51C57.0315 243.21 35.9315 243.61 33.9315 231.91C23.1315 237.71 10.3315 226.21 13.7315 220.61C2.83154 223.51 -10.6685 201.21 13.5315 195.01C14.6315 185.81 25.8315 178.71 37.0315 186.91C39.3315 180.41 53.6315 173.41 58.4315 178.61Z" fill="#F4FAFC"/>
<path fill-rule="evenodd" clip-rule="evenodd" d="M98.0315 186.21C103.931 193.31 103.131 205.11 89.3315 210.11C100.631 222.81 70.6315 241.01 60.6315 231.51C57.0315 243.21 35.9315 243.61 33.9315 231.91C23.1315 237.71 10.3315 226.21 13.7315 220.61C4.6315 223.01 -6.06851 208.11 4.23149 199.41C-5.26851 210.11 8.73149 220.41 16.3315 216.41C13.1315 221.61 24.0315 237.21 36.2315 228.11C38.1315 239.11 57.9315 240.01 61.3315 226.81C70.6315 235.61 96.1315 219.01 85.6315 207.11C102.031 202.41 100.731 193.11 98.0315 186.21Z" fill="#DDE5E8"/>
<path fill-rule="evenodd" clip-rule="evenodd" d="M55.3315 174.91C60.0315 165.61 77.6315 166.11 79.5315 173.11C90.6315 172.21 98.7315 184.51 79.8315 192.81C87.4315 200.41 77.4315 206.81 69.0315 207.01C68.4315 211.11 62.3315 215.01 57.8315 213.41C54.9315 220.41 35.4315 225.91 35.0315 214.91C25.4315 219.51 20.6315 212.81 23.4315 207.41C14.1315 210.81 0.131501 196.81 22.2315 187.21C22.7315 178.61 33.0315 173.71 40.7315 177.91C42.6315 171.91 50.4315 170.31 55.3315 174.91Z" fill="#F4FAFC"/>
<path fill-rule="evenodd" clip-rule="evenodd" d="M88.0314 175.41C93.8314 179.51 92.5314 188.11 79.8314 192.81C87.4314 200.41 77.4314 206.81 69.0314 207.01C68.4314 211.11 62.3314 215.01 57.8314 213.41C54.9314 220.41 35.4314 225.91 35.0314 214.91C25.4314 219.51 20.6314 212.81 23.4314 207.41C15.3314 210.41 3.73144 200.21 15.3314 191.11C7.23144 198.91 13.8314 205.81 26.0314 205.31C22.8314 212.41 34.9314 215.11 36.9314 209.61C36.7314 220.91 53.9314 216.11 54.9314 208.51C61.5314 211.51 69.4314 207.81 67.1314 202.11C77.8314 202.41 81.8315 196.61 76.7315 190.71C86.2315 187.11 93.5314 182.91 88.0314 175.41Z" fill="#DDE5E8"/>
<path fill-rule="evenodd" clip-rule="evenodd" d="M68.2316 85C68.6316 97.3 54.2316 172.3 67.1316 175.6C74.0316 177.4 75.3316 184.5 61.4316 190.6C59.0316 195.9 43.1316 206.2 40.2316 194.9C27.3316 196.2 31.0316 188.4 36.5316 183.4C38.1316 182 40.2316 180.7 41.6316 178.5C49.3316 166.6 63.2316 99.9 68.2316 85Z" fill="#F4FAFC"/>
<path fill-rule="evenodd" clip-rule="evenodd" d="M59.8316 130.99C58.7316 128.49 55.6316 119.29 55.4316 116.79L54.3316 119.59C51.5316 109.49 53.0316 106.19 57.7316 97.8896L73.0316 100.19C74.0316 109.89 74.6316 113.39 68.3316 122.09L68.2316 119.09C67.1316 121.39 62.0316 128.59 59.8316 130.99Z" fill="#F57113"/>
<path fill-rule="evenodd" clip-rule="evenodd" d="M61.2316 122.59C60.4316 120.89 58.3316 114.39 58.1316 112.59L57.3315 114.59C55.4315 107.49 56.3316 105.09 59.7316 99.2897L70.5315 100.89C71.2315 107.69 71.6316 110.19 67.2316 116.39L67.1316 114.29C66.4316 115.79 62.8316 120.89 61.2316 122.59Z" fill="#FA9A2C"/>
<path fill-rule="evenodd" clip-rule="evenodd" d="M62.3316 116.49C61.7316 115.19 60.1316 110.49 60.0316 109.19L59.4316 110.59C58.0316 105.39 58.7316 103.69 61.1316 99.3896L69.0316 100.59C69.5316 105.59 69.8316 107.39 66.6316 111.89V110.29C66.0316 111.49 63.4316 115.19 62.3316 116.49Z" fill="#FAC545"/>
<path fill-rule="evenodd" clip-rule="evenodd" d="M63.2316 111.19C62.8316 110.29 61.7316 106.89 61.6316 105.99L61.2316 106.99C60.2316 103.29 60.7316 102.09 62.4316 98.9897L68.0315 99.7897C68.4315 103.39 68.6315 104.59 66.3315 107.89V106.79C65.9315 107.69 64.0316 110.29 63.2316 111.19Z" fill="#FFDF94"/>
<path opacity="0.3" fill-rule="evenodd" clip-rule="evenodd" d="M72.9316 103.39C70.8316 106.29 65.8316 106.59 61.7316 105.09C61.9316 106.59 64.2316 121.59 64.0316 123.79C65.0316 121.79 68.5316 116.79 69.1316 114.49L69.3316 117.29C71.8316 113.39 73.6316 108.09 72.9316 103.39Z" fill="#FFFFD1"/>
<path opacity="0.5" fill-rule="evenodd" clip-rule="evenodd" d="M59.8316 130.99C58.7316 128.49 55.6316 119.29 55.4316 116.79L54.3316 119.59C51.5316 109.49 53.0316 106.19 57.7316 97.8896L61.1316 98.3896C57.2316 102.39 56.6316 107.69 56.4316 111.99C56.8316 111.49 57.2316 111.09 58.3316 110.39C57.6316 117.99 58.3316 123.99 59.8316 130.99Z" fill="#B3510B"/>
<path opacity="0.32" fill-rule="evenodd" clip-rule="evenodd" d="M72.3316 105.59C70.6316 107.29 67.1316 107.89 64.0316 107.39C65.0316 111.29 65.4316 117.49 65.3316 119.69C66.0316 118.29 69.4316 112.19 69.8316 110.59L70.1316 113.39C71.6316 110.59 72.1316 107.99 72.3316 105.59Z" fill="#FFFFD1"/>
<path fill-rule="evenodd" clip-rule="evenodd" d="M66.0316 95.5897C70.4316 96.3897 73.6316 98.9897 73.1316 101.49C72.7316 103.99 68.8316 105.29 64.4316 104.49C60.0316 103.69 56.8316 101.09 57.3316 98.5897C57.7316 96.0897 61.6316 94.7897 66.0316 95.5897Z" fill="#FF9B54"/>
<path fill-rule="evenodd" clip-rule="evenodd" d="M75.5315 102.99C77.2315 99.5897 78.6315 96.4897 80.3315 93.0897L55.6315 89.1897C55.1315 88.3897 53.6315 88.9897 53.5315 88.1897C53.8315 91.8897 54.0315 95.3897 54.5315 99.1897C54.5315 100.49 55.3315 101.89 56.8315 103.19C58.9315 104.99 61.6315 105.99 64.2315 106.39C68.2315 106.89 73.3315 106.99 75.5315 102.99Z" fill="#7F9098"/>
<path fill-rule="evenodd" clip-rule="evenodd" d="M61.1315 90.0897L55.7315 89.2897C55.2315 88.4897 53.7315 89.0897 53.6315 88.2897C53.9315 91.9897 54.1315 95.4897 54.6315 99.2897C54.6315 100.59 55.4315 101.99 56.9315 103.29C58.9315 105.09 61.7315 106.09 64.3315 106.49C68.1315 107.09 73.0315 107.09 75.4315 103.49C72.3315 106.69 64.7315 105.49 62.2315 104.09C61.7315 99.2897 61.3315 94.6897 61.1315 90.0897Z" fill="#74858C"/>
<path fill-rule="evenodd" clip-rule="evenodd" d="M77.9315 85.5897C73.2315 81.4897 64.7315 79.8897 58.7315 81.8897C52.8315 83.8897 51.8315 88.8897 56.4315 92.9897C61.1315 97.0897 69.6315 98.6897 75.6315 96.6897C81.5315 94.5897 82.6315 89.6897 77.9315 85.5897Z" fill="#697A82"/>
<path fill-rule="evenodd" clip-rule="evenodd" d="M77.3315 85.7897C72.9315 81.9897 64.8315 80.3897 59.1315 82.2897C53.5315 84.1897 52.5315 88.8897 56.9315 92.7897C61.3315 96.6897 69.4315 98.1897 75.1315 96.2897C80.8315 94.2897 81.7315 89.6897 77.3315 85.7897Z" fill="#5F6F78"/>
<path fill-rule="evenodd" clip-rule="evenodd" d="M94.0315 55.4897C94.4315 50.4897 94.1316 45.2897 93.2316 40.3897C92.9316 38.9897 92.6315 37.6897 92.3315 36.2897C85.8315 15.0897 78.2316 9.08967 62.2316 30.4897C61.6316 31.3897 61.0315 32.2897 60.4315 33.1897C57.8315 37.2897 55.6315 42.0897 53.9315 46.9897C50.2315 58.3897 49.5315 74.2897 53.0315 85.7897C53.4315 87.0897 53.8315 88.1897 54.3315 89.1897C54.8315 90.0897 55.4315 90.8897 56.4315 91.7897C61.2315 95.9897 69.8316 97.4897 75.7316 95.4897C77.5316 94.8897 78.7315 94.0897 79.8315 92.7897C80.7315 91.7897 81.6316 90.4897 82.2316 89.5897C88.7316 80.5897 93.1315 66.8897 94.0315 55.4897Z" fill="#CED2D6"/>
<path fill-rule="evenodd" clip-rule="evenodd" d="M62.1315 30.5897C59.8315 33.5897 57.7315 37.5897 56.2315 40.9897C55.0315 43.7897 53.9315 46.5897 53.1315 49.4897C50.1315 60.6897 49.7315 75.1897 52.9315 85.8897C53.3315 87.1897 53.7315 88.2897 54.2315 89.2897C56.6315 93.5897 62.8315 95.7897 67.4315 96.2897C70.3315 96.5897 73.2315 96.3897 75.6315 95.4897C77.4315 94.8897 78.1315 94.5897 79.7315 92.8897C74.7315 96.5897 65.9315 95.0897 60.9315 92.2897C58.0315 74.5897 58.4315 57.2897 65.6315 43.2897C67.2315 44.0897 81.1315 48.5897 87.9315 42.4897L62.4315 30.8897C62.7315 30.3897 63.1315 29.8897 63.4315 29.4897C65.9315 26.0897 68.2315 23.3897 70.4315 21.2897C68.0315 23.2897 65.2315 26.3897 62.1315 30.5897Z" fill="#AEB5BB"/>
<path fill-rule="evenodd" clip-rule="evenodd" d="M80.3316 91.2896L80.5316 90.8896L80.2316 91.2896H80.3316Z" fill="#838489"/>
<path fill-rule="evenodd" clip-rule="evenodd" d="M91.7315 34.3896C89.7315 27.5896 86.4315 19.4896 81.5315 14.2896C81.4315 14.1896 81.3315 14.0896 81.2315 13.9896C81.1315 13.8896 80.9315 13.6896 80.6315 13.5896C80.4315 13.5896 80.1315 13.6896 80.0315 13.7896C73.3315 16.9896 66.7315 23.7896 62.5315 29.7896C62.2315 30.1896 62.0315 30.5896 61.8315 30.8896C60.8315 32.9896 61.4315 35.2896 62.8315 37.0896C64.1315 38.8896 66.0315 40.2896 67.8315 41.2896C68.1315 41.3896 68.3315 41.5896 68.6315 41.6896C73.6315 44.1896 80.7315 44.8896 85.7315 43.3896C87.5315 42.7896 89.3315 41.9896 90.5315 40.5896C91.1315 39.9896 91.6315 39.1896 91.9315 38.2896C92.1315 37.6896 92.2315 37.0896 92.2315 36.5896C92.1315 35.8896 91.9315 35.0896 91.7315 34.3896Z" fill="#C01617"/>
<path fill-rule="evenodd" clip-rule="evenodd" d="M80.7315 13.5896C80.4315 13.4896 80.1315 13.6896 80.0315 13.7896C73.3315 16.9896 66.7315 23.7896 62.5315 29.7896C62.2315 30.1896 62.0315 30.5896 61.8315 30.8896C60.8315 32.9896 61.4315 35.2896 62.8315 37.0896C62.8315 37.0896 62.8315 37.1896 62.9315 37.1896V37.2896C62.9315 37.3896 63.0315 37.3896 63.0315 37.4896C63.0315 37.4896 63.0315 37.4896 63.1315 37.5896C63.1315 37.5896 63.1315 37.6896 63.2315 37.6896C63.2315 37.7896 63.3315 37.7896 63.3315 37.8896C63.4315 37.9896 63.4315 37.9896 63.5315 38.0896C63.5315 38.0896 63.5315 38.0896 63.6315 38.1896C63.7315 38.2896 63.7315 38.3896 63.8315 38.3896C63.9315 38.4896 63.9315 38.4896 64.0315 38.5896L64.1315 38.6896L64.2315 38.7896C64.4315 38.8896 64.5315 39.0896 64.7315 39.1896L64.8315 39.2896L64.9315 39.3896H65.0315C65.1315 39.3896 65.1315 39.4896 65.2315 39.4896L65.3315 39.5896H65.4315L65.5315 39.6896H65.6315H65.7315L65.8315 39.7896H65.9315H66.0315H66.1315H66.2315H66.3315H66.4315C66.8315 40.0896 67.3315 40.2896 67.7315 40.5896C68.0315 40.6896 68.2315 40.8896 68.5315 40.9896C73.5315 43.4896 80.6315 44.1896 85.6315 42.6896C87.4315 42.1896 89.3315 41.1896 90.6315 39.7896C88.3315 41.3896 79.1315 46.1896 67.2315 37.5896C70.4315 29.7896 74.7315 21.7896 80.7315 13.5896Z" fill="#A51515"/>
<path fill-rule="evenodd" clip-rule="evenodd" d="M81.2316 15.2897C79.9316 17.1897 72.9315 29.1897 70.8315 38.7897C75.9315 42.0897 86.6315 43.5897 91.0315 36.9897C89.1315 29.3897 85.4316 20.3897 81.2316 15.2897Z" fill="#DE1F1F"/>
<path fill-rule="evenodd" clip-rule="evenodd" d="M81.4315 16.2897C81.3315 19.4897 80.3315 26.5897 79.0315 33.8897C77.5315 42.3897 90.1315 41.2897 87.9315 31.8897C86.5315 26.4897 83.5315 20.3897 81.4315 16.2897Z" fill="#FA3737"/>
<path fill-rule="evenodd" clip-rule="evenodd" d="M77.9315 96.3896C73.2315 99.5896 65.2315 98.4896 62.5315 97.3896C62.5315 99.3896 62.8315 101.39 63.0315 103.49C68.2315 105.29 72.5315 104.89 74.5315 103.09C75.6315 101.99 76.8315 98.8896 77.9315 96.3896Z" fill="#92A3AB"/>
<path fill-rule="evenodd" clip-rule="evenodd" d="M76.9315 97.3896C73.9315 99.8896 66.7315 99.4897 64.4315 98.6897C64.4315 99.7897 64.4315 100.49 64.5315 101.39C64.6315 102.89 64.8315 102.99 66.2315 103.29C69.8315 104.19 72.8315 103.59 74.2315 102.39C75.0315 101.49 76.0315 99.4896 76.9315 97.3896Z" fill="#A9BAC2"/>
<path fill-rule="evenodd" clip-rule="evenodd" d="M91.7316 41.4896C87.9316 47.3896 76.7316 49.3896 67.9316 47.0896C64.6316 57.1896 63.5315 74.8896 65.5315 90.2896C69.7315 92.8896 76.8316 92.2896 80.4316 90.2896C91.8316 73.0896 92.9316 55.1896 91.7316 41.4896Z" fill="#DDE2E6"/>
<path fill-rule="evenodd" clip-rule="evenodd" d="M90.5315 45.3896C88.2315 48.8896 82.7315 50.4897 77.1315 50.5897C76.5315 58.3897 72.5315 85.2897 71.9315 90.0897C75.2315 90.4897 77.7315 89.9897 79.7315 88.7896C87.3315 74.5897 91.3315 56.8896 90.5315 45.3896Z" fill="#EDF3F7"/>
<path fill-rule="evenodd" clip-rule="evenodd" d="M74.0314 50.1896C80.0314 51.2896 84.0315 56.8896 82.9315 62.6896C81.8315 68.5896 76.1315 72.3896 70.2315 71.2896C64.2315 70.1896 60.2314 64.5896 61.3314 58.7896C62.3314 52.9896 68.0314 49.0896 74.0314 50.1896Z" fill="#AEB5BB"/>
<path fill-rule="evenodd" clip-rule="evenodd" d="M70.9314 67.7896C67.0314 67.0896 64.4314 63.3896 65.1314 59.4896C65.8314 55.5896 69.5314 53.0896 73.4314 53.6896C77.3314 54.3896 79.9314 58.0896 79.2314 61.9896C78.4314 65.8896 74.7314 68.4896 70.9314 67.7896ZM73.9314 50.5896C68.3314 49.5896 62.9314 53.2896 61.9314 58.8896C60.9314 64.4896 64.6314 69.8896 70.2314 70.8896C75.8314 71.8896 81.2314 68.1896 82.2314 62.5896C83.3314 56.9896 79.6314 51.5896 73.9314 50.5896Z" fill="#EDF3F7"/>
<path fill-rule="evenodd" clip-rule="evenodd" d="M70.9315 67.7897C74.8315 68.4897 78.5315 65.8897 79.2315 62.0897C79.9315 58.1897 77.3315 54.4897 73.4315 53.7897C69.5315 53.0897 65.8315 55.6897 65.1315 59.5897C64.4315 63.3897 67.0315 67.0897 70.9315 67.7897Z" fill="#435469"/>
<path fill-rule="evenodd" clip-rule="evenodd" d="M73.4315 53.7897C77.3315 54.4897 79.9315 58.1897 79.2315 62.0897C79.1315 62.4897 79.0315 62.9897 78.8315 63.3897C78.8315 59.9897 76.4315 57.0897 72.9315 56.3897C69.5315 55.7897 66.2315 57.6897 65.0315 60.8897C65.0315 60.4897 65.0315 59.9897 65.1315 59.5897C65.8315 55.5897 69.5315 53.0897 73.4315 53.7897Z" fill="#2E3D4F"/>
<path fill-rule="evenodd" clip-rule="evenodd" d="M73.5315 53.2896C73.9315 53.3896 74.3315 53.0896 74.4315 52.6896C74.5315 52.2896 74.2315 51.8896 73.8315 51.7896C73.4315 51.6896 73.0315 51.9896 72.9315 52.3896C72.8315 52.7896 73.1315 53.1896 73.5315 53.2896Z" fill="#4B6380"/>
<path fill-rule="evenodd" clip-rule="evenodd" d="M70.5315 69.7896C70.9315 69.8896 71.3315 69.5896 71.4315 69.1896C71.5315 68.7896 71.2315 68.3896 70.8315 68.2896C70.4315 68.1896 70.0315 68.4896 69.9315 68.8896C69.8315 69.2896 70.1315 69.6896 70.5315 69.7896Z" fill="#4B6380"/>
<path fill-rule="evenodd" clip-rule="evenodd" d="M81.1314 62.3896C81.0314 62.7896 80.6314 63.0896 80.2314 62.9896C79.8314 62.8896 79.5314 62.4896 79.6314 62.0896C79.7314 61.6896 80.1314 61.3896 80.5314 61.4896C80.9314 61.5896 81.2314 61.9896 81.1314 62.3896Z" fill="#4B6380"/>
<path fill-rule="evenodd" clip-rule="evenodd" d="M64.6314 59.3896C64.5314 59.7896 64.1314 60.0896 63.7314 59.9896C63.3314 59.8896 63.0314 59.4896 63.1314 59.0896C63.2314 58.6896 63.6314 58.3896 64.0314 58.4896C64.4314 58.5896 64.7314 58.9896 64.6314 59.3896Z" fill="#4B6380"/>
<path fill-rule="evenodd" clip-rule="evenodd" d="M79.6314 55.4896C79.8314 55.7896 79.8315 56.2896 79.4315 56.5896C79.1315 56.7896 78.6314 56.7896 78.3314 56.3896C78.1314 56.0896 78.1314 55.5896 78.5314 55.2896C78.9314 55.0896 79.4314 55.1896 79.6314 55.4896Z" fill="#4B6380"/>
<path fill-rule="evenodd" clip-rule="evenodd" d="M65.9315 65.0897C66.1315 65.3897 66.1315 65.8897 65.7315 66.1897C65.4315 66.3897 64.9315 66.3897 64.6315 65.9897C64.4315 65.6897 64.4315 65.1897 64.8315 64.8897C65.1315 64.6897 65.6315 64.7897 65.9315 65.0897Z" fill="#4B6380"/>
<path fill-rule="evenodd" clip-rule="evenodd" d="M77.3315 68.2896C77.0315 68.4896 76.5315 68.4897 76.2315 68.0897C76.0315 67.7897 76.0315 67.2896 76.4315 66.9896C76.7315 66.7896 77.2315 66.7897 77.5315 67.1897C77.8315 67.5897 77.7315 67.9896 77.3315 68.2896Z" fill="#4B6380"/>
<path fill-rule="evenodd" clip-rule="evenodd" d="M67.8315 54.4896C67.5315 54.6896 67.0315 54.6896 66.7315 54.2896C66.5315 53.9896 66.5315 53.4896 66.9315 53.1896C67.2315 52.9896 67.7315 52.9896 68.0315 53.3896C68.2315 53.7896 68.1315 54.2896 67.8315 54.4896Z" fill="#4B6380"/>
<path fill-rule="evenodd" clip-rule="evenodd" d="M86.5315 78.8896L82.6315 80.2896C85.5315 97.8897 83.2315 107.39 80.8315 121.99L84.7316 120.59C86.6316 113.79 89.4315 106.79 90.3315 99.8896C90.7315 96.7896 90.7315 93.7897 90.3315 90.5897C89.7315 86.4897 88.4315 82.7896 86.5315 78.8896Z" fill="#C01617"/>
<path fill-rule="evenodd" clip-rule="evenodd" d="M86.5315 80.0896L83.7315 80.9896C86.2315 86.3896 88.1315 93.1896 87.6315 99.2896C87.1315 106.49 84.3315 114.19 82.0315 120.59L84.5315 119.69C87.0315 112.89 89.8315 103.29 90.2315 97.3896C90.5315 92.3896 89.3315 85.8896 86.5315 80.0896Z" fill="#DE1F1F"/>
<path fill-rule="evenodd" clip-rule="evenodd" d="M86.3315 80.6897L84.5315 81.2897C87.1315 84.1897 89.1315 91.3897 88.6315 98.1897C88.2315 104.29 86.9315 110.79 84.9315 117.99C87.2315 111.69 89.2315 102.49 89.5315 96.8897C89.9315 92.1897 89.0315 86.0897 86.3315 80.6897Z" fill="#FA3737"/>
<path fill-rule="evenodd" clip-rule="evenodd" d="M82.6315 80.2897L76.0315 96.1897C78.4315 103.39 80.1315 111.79 80.8315 121.99C84.9315 107.49 90.9315 97.2897 82.6315 80.2897Z" fill="#A51515"/>
<path fill-rule="evenodd" clip-rule="evenodd" d="M82.6315 80.2897L76.0315 96.1897C78.4315 103.39 80.1315 111.79 80.8315 121.99C83.7315 108.39 81.5315 92.4897 82.6315 80.2897Z" fill="#8F1111"/>
<path fill-rule="evenodd" clip-rule="evenodd" d="M52.3315 72.6897L55.5315 75.3897C46.6315 90.7897 45.5315 100.59 42.6315 115.09L39.4315 112.39C40.0315 105.39 39.8315 97.7897 41.4315 91.0897C42.1315 88.0897 43.1315 85.1897 44.7315 82.3897C46.6315 78.7897 49.2315 75.6897 52.3315 72.6897Z" fill="#C01617"/>
<path fill-rule="evenodd" clip-rule="evenodd" d="M51.9315 73.8896L54.2315 75.6897C50.0315 79.8897 45.8315 85.5896 44.1315 91.3896C42.1315 98.2896 42.0315 106.49 41.9315 113.29L39.9315 111.59C39.9315 104.39 40.6315 94.3897 42.4315 88.6897C43.9315 83.9897 47.3315 78.2896 51.9315 73.8896Z" fill="#DE1F1F"/>
<path fill-rule="evenodd" clip-rule="evenodd" d="M51.8315 74.4897L53.3315 75.6898C49.9315 77.5898 45.5315 83.5898 43.6315 90.0898C41.9315 95.8898 40.8315 102.49 40.1315 109.89C40.1315 103.09 41.5315 93.8897 43.1315 88.4897C44.5315 83.9897 47.5315 78.5897 51.8315 74.4897Z" fill="#FA3737"/>
<path fill-rule="evenodd" clip-rule="evenodd" d="M55.4315 75.3896L56.1315 92.5897C51.4315 98.4897 46.8315 105.79 42.6315 115.09C43.8315 100.09 41.8315 88.3896 55.4315 75.3896Z" fill="#A51515"/>
<path fill-rule="evenodd" clip-rule="evenodd" d="M55.4315 75.3896L56.1315 92.5897C51.4315 98.4897 46.8315 105.79 42.6315 115.09C44.7315 101.39 52.3315 87.1896 55.4315 75.3896Z" fill="#8F1111"/>
<path fill-rule="evenodd" clip-rule="evenodd" d="M75.0316 110.69C73.9316 110.99 73.6316 110.99 72.7316 112.59C72.7316 113.59 72.8316 115.19 72.9316 116.29L73.3316 116.69C73.9316 117.79 73.4316 119.69 73.4316 121.19C73.4316 122.29 73.7316 122.69 74.5316 123.59C75.3316 124.49 76.8316 125.09 78.5316 125.49C80.6316 125.89 82.6316 125.69 81.9316 124.29C81.5316 123.59 80.4316 122.79 80.1316 121.39C79.7316 118.29 79.4316 115.39 80.9316 112.49L75.0316 110.69Z" fill="#111214"/>
<path fill-rule="evenodd" clip-rule="evenodd" d="M75.0316 110.69C73.9316 110.99 73.6316 110.99 72.7316 112.59C72.7316 113.59 72.8316 115.19 72.9316 116.29L73.3316 116.69C73.9316 117.79 73.4316 119.69 73.4316 121.19C73.4316 122.29 73.7316 122.69 74.5316 123.59C75.3316 124.49 76.8316 125.09 78.5316 125.49C80.2316 125.79 81.8316 125.69 82.0316 124.99C80.9316 124.99 79.7316 124.49 78.0316 123.39C78.5316 122.79 78.8316 122.49 79.7316 121.99C78.7316 122.09 78.0316 122.19 77.0316 122.49C75.2316 119.49 76.7316 116.39 76.4316 113.09C76.3316 112.49 76.3316 111.79 76.3316 111.09L75.0316 110.69Z" fill="black"/>
<path fill-rule="evenodd" clip-rule="evenodd" d="M79.1316 101.79C78.2316 102.99 77.7316 103.49 77.4316 104.49C76.8316 106.39 76.9316 108.49 77.0316 111.69C77.0316 113.19 76.6316 113.89 75.2316 113.29C74.1316 112.89 73.1316 110.69 72.5316 109.29C71.3316 106.69 72.0316 104.79 71.8316 103.79L71.2316 103.29C70.8316 102.79 70.2316 100.39 70.4316 99.6897C70.7316 99.2897 71.3316 98.5897 71.9316 98.0897C73.7316 96.5897 73.7316 97.0896 75.6316 96.3896C76.7316 98.3896 77.8316 100.09 79.1316 101.79Z" fill="#111214"/>
<path fill-rule="evenodd" clip-rule="evenodd" d="M76.5316 113.29C76.2316 113.49 75.8316 113.49 75.2316 113.29C74.1316 112.89 73.1316 110.69 72.5316 109.29C71.3316 106.69 72.0316 104.79 71.8316 103.79L71.2316 103.29C70.8316 102.79 70.2316 100.39 70.4316 99.6896C70.7316 99.2896 71.3316 98.5896 71.9316 98.0896C73.7316 96.5896 73.7316 97.0896 75.6316 96.4896C76.1316 97.2896 76.6316 98.0896 77.1316 98.7896C76.0316 99.8896 73.7316 101.29 73.7316 102.89C73.7316 104.69 74.1316 105.79 74.2316 106.89C74.5316 110.49 74.6316 112.99 76.5316 113.29Z" fill="black"/>
<path fill-rule="evenodd" clip-rule="evenodd" d="M77.4316 103.89C76.9316 103.89 76.3316 103.59 75.5316 102.99C75.0316 105.29 75.3316 105.39 75.6316 107.79C75.3316 109.39 75.2316 109.59 75.3316 110.39C75.4316 111.29 75.7316 112.49 76.3316 112.69C76.5316 112.79 76.7316 112.29 76.7316 111.19C76.7316 109.89 76.6316 108.69 76.7316 107.39C76.7316 106.29 76.9316 105.09 77.4316 103.89Z" fill="#20232E"/>
<path fill-rule="evenodd" clip-rule="evenodd" d="M97.4316 89.5896C90.7316 94.3896 85.6316 97.3896 79.4316 102.39C77.5316 102.69 74.3316 99.0896 74.9316 96.3896C79.5316 91.9896 81.7316 89.9896 84.4316 87.8896C86.7316 86.0896 89.1316 84.7896 91.7316 83.8896C94.6316 81.2896 99.1316 81.8896 98.8316 84.4896C98.7316 85.9896 98.8316 88.3896 97.4316 89.5896Z" fill="#0C182E"/>
<path fill-rule="evenodd" clip-rule="evenodd" d="M99.4316 63.8896C100.232 69.2896 99.2316 79.9897 98.7316 86.5897C98.2316 92.0897 91.8316 90.5896 90.5316 88.3896C89.4316 82.8896 87.8316 72.9896 87.7316 66.7896L92.7316 64.4896L97.2316 60.3896L99.4316 63.8896Z" fill="#0C182E"/>
<path fill-rule="evenodd" clip-rule="evenodd" d="M75.7316 99.8896C75.0316 98.7896 74.6316 97.5896 74.9316 96.3896C79.5316 91.9896 81.7316 89.9896 84.4316 87.8896C86.1316 86.5896 87.9316 85.4896 89.8316 84.6896C88.8316 79.1896 87.8316 71.7896 87.7316 66.8896L92.7316 64.5896L97.2316 60.4896L99.4316 63.9896C99.6316 65.5896 99.7316 67.6896 99.7316 69.9896C98.2316 72.1896 96.8316 73.1896 93.6316 74.9896C93.3316 77.3896 93.7316 84.2896 93.5316 86.1896C93.4316 86.9896 93.0316 87.0896 91.5316 87.9896C85.7316 91.0896 80.8316 95.4896 75.7316 99.8896Z" fill="#091224"/>
<path fill-rule="evenodd" clip-rule="evenodd" d="M91.7316 65.7896C91.6316 71.1896 87.2316 83.7896 85.7316 90.1896C84.8316 95.1896 77.5316 93.8896 77.6316 90.6896C77.8316 85.5896 76.6316 66.1896 80.6316 63.0896H86.3316L91.7316 65.7896Z" fill="#0F1E38"/>
<path fill-rule="evenodd" clip-rule="evenodd" d="M85.6316 90.3896C85.3316 92.2896 84.8316 92.3896 84.6316 93.4896C83.2316 100.39 82.4316 107.39 81.4316 114.19C78.8316 116.09 75.0316 114.29 74.2316 111.99C74.6316 105.59 74.6316 102.29 75.1316 98.7896C75.6316 95.8896 76.3316 93.2896 77.5316 90.8896C79.1316 86.4896 86.3316 86.6896 85.6316 90.3896Z" fill="#0F1E38"/>
<path fill-rule="evenodd" clip-rule="evenodd" d="M77.3316 114.69C75.8316 114.19 74.6316 113.19 74.2316 111.89C74.6316 105.49 74.6316 102.19 75.1316 98.6897C75.6316 95.7897 76.3316 93.1897 77.5316 90.7897C77.7316 85.6897 76.5316 66.2897 80.5316 63.1897H83.4316L90.5316 72.5897L90.3316 73.3897C88.3316 74.0897 84.4316 74.3897 83.0316 74.2897C82.1316 79.3897 81.4316 83.8897 81.1316 89.0897C80.9316 91.4897 80.7316 92.7897 80.0316 95.1897C78.0316 102.39 77.9316 106.89 77.3316 114.69Z" fill="#0C182E"/>
<path fill-rule="evenodd" clip-rule="evenodd" d="M89.3315 74.7897C87.2315 75.1897 85.9315 75.3897 83.8315 75.1897C82.5315 82.5897 82.8315 87.3897 81.8315 92.4897C81.4315 94.6897 80.4315 96.8897 80.1315 99.0897L78.3315 114.29C79.3315 114.39 80.0315 114.29 81.0315 113.89C82.0315 107.89 82.6315 99.1897 84.0315 93.7897C84.3315 92.8897 84.6315 92.1897 84.8315 91.2897C85.0315 90.4897 85.0315 90.0897 85.3315 89.2897C86.6315 84.5897 88.2315 79.5897 89.3315 74.7897Z" fill="#152747"/>
<path fill-rule="evenodd" clip-rule="evenodd" d="M98.9316 71.9896C97.0316 74.0896 96.1316 74.7896 94.5316 75.7896C94.5316 78.7896 94.6316 83.1896 94.6316 84.7896C94.6316 86.0896 94.4316 86.8896 93.9316 87.5896C93.5316 88.0896 88.0316 90.6896 85.0316 93.6896L84.2316 97.4896C88.2316 94.6896 92.9316 91.9896 96.6316 89.1896C97.7316 88.3896 98.0316 87.1896 98.1316 85.7896C98.3316 82.2896 98.8316 76.4896 98.9316 71.9896Z" fill="#152747"/>
<path fill-rule="evenodd" clip-rule="evenodd" d="M79.6315 115.29C79.0315 115.49 78.3315 115.69 77.5315 115.39C77.2315 116.89 77.2315 119.89 77.7315 121.49C78.4315 121.29 79.3315 121.19 79.7315 121.09C79.3315 118.69 79.3315 117.69 79.6315 115.29Z" fill="#20232E"/>
<path fill-rule="evenodd" clip-rule="evenodd" d="M80.2316 122.29C79.4316 122.49 79.1316 122.79 78.7316 123.19C80.3316 124.29 81.5316 124.79 81.7316 124.49C82.0316 124.19 80.6316 123.09 80.2316 122.29Z" fill="#20232E"/>
<path fill-rule="evenodd" clip-rule="evenodd" d="M113.932 6.58969C114.832 5.18969 119.632 7.18969 118.432 8.98969C118.132 9.38969 117.832 9.48969 117.432 9.68969C117.432 9.68969 115.532 9.38969 115.232 9.18969C114.932 8.98969 113.732 7.58969 113.732 7.58969C113.832 7.28969 113.732 6.88969 113.932 6.58969Z" fill="#1D2933"/>
<path fill-rule="evenodd" clip-rule="evenodd" d="M114.432 6.28962C114.732 7.18962 116.932 9.18962 118.532 7.98962C118.732 7.48962 118.332 6.98962 117.232 6.48962C116.132 5.98962 115.032 5.38962 114.432 6.28962Z" fill="#C4CFE6"/>
<path fill-rule="evenodd" clip-rule="evenodd" d="M119.432 4.78972C119.832 5.18972 119.932 6.18972 119.332 6.88972C119.232 6.98972 118.732 7.48972 118.332 7.88972C118.232 7.98972 117.932 8.58972 117.732 8.98972C117.432 9.78972 116.132 8.88972 115.932 8.58972C115.632 8.28972 115.732 7.08972 115.832 6.88972C116.232 6.18972 116.132 4.18972 116.232 3.68972C116.332 3.18972 116.732 3.38972 116.732 2.58972L119.432 4.78972Z" fill="#DB9669"/>
<path fill-rule="evenodd" clip-rule="evenodd" d="M119.832 3.08967L121.832 1.78967C121.832 1.78967 121.932 1.78967 121.932 1.88967C122.132 2.08967 122.432 2.28967 122.432 2.48967C122.532 2.98967 121.832 4.58967 121.432 4.88967C121.332 4.98967 120.932 5.48967 120.732 5.28967C120.632 5.58967 120.132 5.88967 119.932 5.68967C119.732 5.98967 119.732 5.88967 119.432 6.08967C119.332 6.18967 119.232 6.08967 119.132 6.08967L119.232 3.58967L119.832 3.08967Z" fill="#E8A476"/>
<path fill-rule="evenodd" clip-rule="evenodd" d="M119.432 3.78967L115.532 2.08967C115.532 1.58967 115.932 1.28967 116.832 0.789674C117.232 0.589674 118.032 0.289673 118.332 0.0896728C118.932 -0.210327 120.132 0.289674 121.032 0.889674C121.232 0.989674 122.232 2.08967 122.332 2.38967C121.132 3.28967 120.032 3.68967 119.432 3.78967Z" fill="#F1B287"/>
<path fill-rule="evenodd" clip-rule="evenodd" d="M117.232 5.38969C116.932 5.18969 116.532 4.78969 116.532 4.38969C116.532 3.58969 117.232 4.18969 117.632 4.48969C117.832 4.58969 118.032 4.68969 118.232 4.78969C118.432 4.88969 118.432 4.88969 118.432 4.58969C118.432 4.48969 118.232 4.28969 118.032 4.18969C117.532 3.88969 117.132 3.68969 116.832 3.58969C116.532 3.48969 116.332 3.68969 116.432 4.08969C116.432 4.88969 116.732 5.48969 116.932 6.08969C117.032 6.68969 117.032 7.18969 116.432 7.88969C116.332 8.08969 116.132 8.28969 116.032 8.48969C115.932 8.68969 115.232 8.28969 114.932 7.98969C114.632 7.68969 113.932 7.98969 114.032 7.68969C114.832 6.68969 115.332 4.68969 115.232 3.38969C115.232 2.98969 115.232 1.48969 115.732 1.38969C116.932 1.08969 119.132 2.98969 119.432 3.88969C119.532 4.08969 119.532 4.28969 119.532 4.38969C119.432 4.88969 119.332 5.08969 119.232 5.58969C119.232 6.48969 117.632 5.58969 117.232 5.38969Z" fill="#E8A476"/>
<path fill-rule="evenodd" clip-rule="evenodd" d="M117.232 2.28967C116.932 2.48967 116.732 2.98967 116.632 3.38967L116.032 4.78967C116.032 3.58967 115.732 2.48967 117.232 2.28967Z" fill="#DB9669"/>
<path fill-rule="evenodd" clip-rule="evenodd" d="M115.932 5.48965C115.732 5.98965 114.832 7.58965 114.832 7.78965C114.832 8.08965 115.532 8.68965 116.032 8.58965C116.932 8.58965 117.532 7.28965 117.632 6.48965C117.732 5.88965 117.532 4.88965 117.732 4.28965C118.132 3.18965 117.932 2.68965 117.732 2.38965C117.532 2.08965 116.732 1.88965 116.632 3.38965C116.532 3.98965 116.232 4.98965 115.932 5.48965Z" fill="#E8A476"/>
<path fill-rule="evenodd" clip-rule="evenodd" d="M115.332 8.38966C115.532 8.48966 115.832 8.68966 116.032 8.68966C116.932 8.68966 117.532 7.38966 117.632 6.58966C117.732 5.98966 117.532 4.98966 117.732 4.38966C118.132 3.28966 117.932 2.78966 117.732 2.48966C117.632 2.28966 117.232 2.18966 116.932 2.38966C117.232 2.78966 117.432 3.48966 116.932 4.98966C116.532 6.68966 116.232 7.08966 115.332 8.38966Z" fill="#F1B287"/>
<path fill-rule="evenodd" clip-rule="evenodd" d="M113.832 7.48967C113.832 7.38967 114.132 6.88967 114.532 6.28967C114.832 7.18967 117.032 9.18967 118.632 7.98967L118.232 9.28967C117.032 10.0897 114.932 9.38967 113.832 7.48967Z" fill="#E6EDFF"/>
<path fill-rule="evenodd" clip-rule="evenodd" d="M108.332 19.2897C110.532 15.0897 111.632 11.8897 113.932 6.6897C114.132 7.8897 116.732 9.5897 118.532 8.9897C116.732 15.1897 116.232 22.1897 114.432 24.2897C112.132 27.0897 105.232 32.0897 102.032 33.8897C98.0316 36.1897 95.8316 38.7897 95.0316 37.8897C93.6316 36.1897 92.8316 31.8897 93.8316 29.9897C95.9316 25.7897 103.832 22.6897 108.332 19.2897Z" fill="#152747"/>
<path fill-rule="evenodd" clip-rule="evenodd" d="M108.332 19.2897C110.532 15.0897 111.632 11.8897 113.932 6.6897C114.032 7.0897 114.332 7.5897 114.832 7.9897C113.232 13.3897 111.732 17.7897 110.132 21.4897C105.332 24.5897 98.9315 26.3897 96.3315 26.9897C99.7315 24.1897 104.932 21.8897 108.332 19.2897Z" fill="#1A3059"/>
<path fill-rule="evenodd" clip-rule="evenodd" d="M111.432 22.1897C113.132 18.8897 115.232 13.0897 115.832 8.58972C116.732 8.98972 117.632 9.18972 118.432 8.98972C116.632 15.1897 116.132 22.1897 114.332 24.2897C112.032 27.0897 105.132 32.0897 101.932 33.8897C97.9316 36.1897 95.7316 38.7897 94.9316 37.8897C94.2316 37.0897 93.7316 35.5897 93.4316 34.0897C105.332 28.4897 110.032 23.8897 111.432 22.1897Z" fill="#0F1E38"/>
<path fill-rule="evenodd" clip-rule="evenodd" d="M118.932 1.8897L120.432 3.4897L119.832 5.3897L120.532 3.3897L119.132 1.6897L118.932 1.8897Z" fill="#DB9669"/>
<path fill-rule="evenodd" clip-rule="evenodd" d="M119.732 1.48965L121.132 3.08965L120.532 4.98965L121.332 2.98965L119.832 1.38965L119.732 1.48965Z" fill="#DB9669"/>
<path fill-rule="evenodd" clip-rule="evenodd" d="M120.532 1.08972L121.932 2.68972L121.332 4.58972L122.032 2.58972L120.832 1.18972L120.532 1.08972Z" fill="#DB9669"/>
<path fill-rule="evenodd" clip-rule="evenodd" d="M84.8315 30.5897C87.3315 29.5897 96.1315 25.5897 98.4315 26.2897C104.632 28.0897 104.632 33.9897 103.232 42.5897C102.732 45.4897 101.932 47.8897 101.432 51.4897C100.832 55.7897 100.632 63.2897 99.7315 67.7897C98.1315 70.1897 98.2315 69.9897 96.0315 71.3897C96.7315 68.4897 97.1315 65.7897 97.5315 62.6897C96.6315 65.7897 95.8315 68.7897 94.7315 71.7897C90.9315 73.7897 80.6315 73.6897 78.0315 69.2897C79.1315 61.3897 81.8315 61.6897 82.8315 56.6897C83.6315 52.5897 79.3315 40.8897 80.1315 35.1897C80.5315 32.6897 82.9315 31.3897 84.8315 30.5897Z" fill="#152747"/>
<path fill-rule="evenodd" clip-rule="evenodd" d="M84.8315 30.5896L90.2315 28.4896C89.3315 29.5896 86.5315 31.1896 84.1315 32.6896C86.2315 36.9896 88.3315 46.2896 87.9315 52.3896C87.2315 63.4896 84.1315 64.7896 83.1315 72.3896C80.9315 71.7896 78.9315 70.8896 77.9315 69.1896C79.0315 61.2896 81.7315 61.5896 82.7315 56.5896C83.5315 52.4896 79.2315 40.7896 80.0315 35.0896C80.5315 32.6896 82.9315 31.3896 84.8315 30.5896Z" fill="#0F1E38"/>
<path fill-rule="evenodd" clip-rule="evenodd" d="M98.6315 28.6896C100.332 29.7896 100.532 30.0896 101.532 32.2896L100.332 33.0896L101.632 33.7896C101.432 39.5896 99.9315 47.2896 98.8315 53.0896C98.9315 47.2896 100.132 38.8896 98.9315 33.5896C98.6315 32.1896 98.1315 31.3896 97.5315 30.1896C97.4315 29.6896 98.3315 28.4896 98.6315 28.6896Z" fill="#1D386B"/>
<path fill-rule="evenodd" clip-rule="evenodd" d="M90.1315 28.1896C89.6315 30.1896 94.9315 33.6896 97.2315 32.8896C97.4315 32.7896 97.6315 32.3896 97.8315 32.1896C97.7315 31.6896 97.7315 31.2896 97.8315 30.7896C97.9315 30.1896 98.2315 29.7896 98.5315 29.2896C98.9315 28.5896 99.1315 27.1896 99.7315 25.5896L93.7315 21.8896L92.4315 20.9896C92.6315 24.2896 91.7315 25.6896 90.1315 28.1896Z" fill="#E8A476"/>
<path fill-rule="evenodd" clip-rule="evenodd" d="M90.1315 28.1897C90.1315 28.2897 90.1315 28.3897 90.1315 28.4897C93.4315 26.9897 95.1315 28.8896 98.8315 28.3896C99.0315 27.5896 99.3315 26.5897 99.7315 25.4897L93.7315 21.7896L92.4315 20.8896C92.6315 24.2896 91.7315 25.6897 90.1315 28.1897Z" fill="#DB9669"/>
<path fill-rule="evenodd" clip-rule="evenodd" d="M90.9315 29.2897C89.2315 37.6897 98.3315 38.3897 98.9315 51.2897C99.3315 44.1897 100.431 38.9897 98.5315 31.9897L97.7315 32.7897L95.8315 32.8897L90.9315 29.2897Z" fill="#D1D7F2"/>
<path fill-rule="evenodd" clip-rule="evenodd" d="M95.9315 33.4897C96.1315 34.7897 96.1315 34.7897 97.2315 35.7897C97.0315 36.3897 96.8315 36.9897 96.6315 37.5897C98.2315 43.3897 98.5315 44.8897 99.0315 51.3897C99.1315 50.3897 99.2315 51.1897 99.2315 50.2897C99.5315 45.8897 99.6315 41.2897 99.3315 35.9897C98.8315 35.5897 98.4315 35.4897 98.2315 35.3897C98.7315 33.9897 98.7315 33.0897 98.4315 32.8897C97.2315 32.6897 96.8315 32.7897 95.9315 33.4897Z" fill="#1A3059"/>
<path fill-rule="evenodd" clip-rule="evenodd" d="M95.9315 33.4897C96.1315 34.7897 96.1315 34.7897 97.2315 35.7897C97.0315 36.3897 96.8315 36.9897 96.6315 37.5897C98.2315 43.3897 98.5315 44.8897 99.0315 51.3897C99.5315 45.4897 98.9315 42.3897 97.6315 37.5897C97.8315 36.6897 97.8315 36.0897 97.7315 35.5897C97.1315 34.4897 96.6315 33.8897 96.6315 33.0897C95.5315 32.9897 96.8315 32.7897 95.9315 33.4897Z" fill="#152747"/>
<path fill-rule="evenodd" clip-rule="evenodd" d="M97.2316 32.7896C97.5316 32.1896 97.5316 30.9896 97.9316 30.3896C98.6316 30.5896 99.1316 32.3896 99.6316 33.7896C98.7316 33.0896 98.3316 32.9896 97.2316 32.7896Z" fill="#E6EDFF"/>
<path fill-rule="evenodd" clip-rule="evenodd" d="M90.6315 27.5896C89.6315 28.2896 88.9315 28.4896 88.6315 29.0896C87.6315 30.7896 89.3315 34.0896 89.8315 37.2896L91.5315 37.0896L90.7315 38.6896C96.5315 44.4896 98.9315 47.2896 99.0315 54.4896C100.232 36.8896 89.0315 35.0896 90.6315 27.5896Z" fill="#1D386B"/>
<path fill-rule="evenodd" clip-rule="evenodd" d="M90.7316 27.0896C90.2316 29.3896 94.8316 31.8896 97.2316 32.7896C96.5316 33.4896 95.5316 34.2896 95.4316 35.0896C93.7316 34.3896 90.4316 32.6896 89.5316 30.1896C88.9316 28.5896 89.8316 27.5896 90.7316 27.0896Z" fill="#E6EDFF"/>
<path fill-rule="evenodd" clip-rule="evenodd" d="M90.7315 40.5896C91.2315 46.6896 91.8315 50.7896 91.5315 54.4896C91.1315 59.6896 89.9315 64.2896 87.4315 72.5896L93.4315 71.9896C94.9315 66.8896 97.5315 61.2896 97.9315 55.5896C98.1315 49.8896 96.4315 43.9896 90.7315 40.5896Z" fill="#1A3059"/>
<path fill-rule="evenodd" clip-rule="evenodd" d="M100.432 29.6896C103.332 33.8896 101.732 39.8896 100.832 45.9896C99.5316 54.7896 98.5316 61.8896 96.7316 70.5896C97.8316 69.8896 98.7316 68.9896 99.5316 67.6896C100.232 60.2896 100.732 51.9896 102.332 44.7896C103.632 38.6896 104.732 32.4896 101.532 28.4896C101.132 28.9896 101.032 29.1896 100.432 29.6896Z" fill="#1A3059"/>
<path fill-rule="evenodd" clip-rule="evenodd" d="M88.3316 60.5897C90.9316 59.7897 91.7316 59.5896 93.9316 59.3896L92.1316 65.5897C90.6316 66.5897 88.5316 66.9896 86.7316 66.7896L88.3316 60.5897Z" fill="#152747"/>
<path fill-rule="evenodd" clip-rule="evenodd" d="M88.3315 60.5897C90.9315 59.7897 91.7315 59.5896 93.9315 59.3896C93.4315 61.1896 93.5315 61.1896 91.5315 61.8896C87.9315 63.0896 89.0315 63.1896 87.3315 66.8896C87.2315 67.0896 86.9315 66.8896 86.8315 66.8896L88.3315 60.5897Z" fill="#0F1E38"/>
<path fill-rule="evenodd" clip-rule="evenodd" d="M88.6315 59.7896C91.3315 58.9896 92.5315 58.4896 94.4315 57.8896L93.6315 60.3896C92.9315 60.8896 89.3315 62.2896 87.9315 61.9896L88.6315 59.7896Z" fill="#152747"/>
<path fill-rule="evenodd" clip-rule="evenodd" d="M88.6315 59.7896C91.3315 58.9896 92.5315 58.4896 94.4315 57.8896C92.4315 59.0896 89.2315 59.7896 88.4315 61.9896C88.2315 61.9896 88.0315 61.9896 87.9315 61.9896L88.6315 59.7896Z" fill="#0F1E38"/>
<path fill-rule="evenodd" clip-rule="evenodd" d="M93.1315 61.4896L89.7315 62.8896L88.0315 66.3896C89.6315 66.1896 90.1315 66.0896 91.6315 65.5896L93.1315 61.4896Z" fill="#1A3059"/>
<path fill-rule="evenodd" clip-rule="evenodd" d="M94.0316 58.2897C92.4316 59.1897 90.2316 60.3897 89.1316 61.6897C90.8316 61.3897 91.4316 61.0897 93.2316 60.2897C93.6316 59.6897 93.8316 59.0897 94.0316 58.2897Z" fill="#1A3059"/>
<path fill-rule="evenodd" clip-rule="evenodd" d="M99.1315 58.1897C100.032 57.3897 100.332 57.1896 101.132 56.8896L100.132 63.3896C99.6315 63.8896 98.3315 64.3896 98.0315 64.2896L99.1315 58.1897Z" fill="#152747"/>
<path fill-rule="evenodd" clip-rule="evenodd" d="M99.1315 58.1897C100.031 57.3897 100.331 57.1896 101.131 56.8896C100.731 58.7896 100.831 58.6896 100.131 59.3896C98.8315 60.5896 99.2315 60.6896 98.3315 64.3896C98.2315 64.3896 98.1315 64.3896 98.1315 64.3896L99.1315 58.1897Z" fill="#0F1E38"/>
<path fill-rule="evenodd" clip-rule="evenodd" d="M100.631 59.0896L99.4314 60.4896L98.7314 64.0896C99.2314 63.8896 99.5314 63.7896 100.031 63.2896L100.631 59.0896Z" fill="#1A3059"/>
<path fill-rule="evenodd" clip-rule="evenodd" d="M99.2315 56.6897C100.132 56.2897 100.631 55.9897 101.331 55.6897L101.031 58.1897C100.731 58.5897 99.5315 59.4897 99.0315 58.8897L99.2315 56.6897Z" fill="#152747"/>
<path fill-rule="evenodd" clip-rule="evenodd" d="M99.2315 56.6897C100.132 56.2897 100.631 55.9897 101.331 55.6897C100.631 56.5897 99.5315 56.7897 99.2315 58.9897C99.1315 58.9897 99.1315 58.8897 99.0315 58.8897L99.2315 56.6897Z" fill="#0F1E38"/>
<path fill-rule="evenodd" clip-rule="evenodd" d="M101.132 55.9897C100.532 56.5897 99.7315 57.4897 99.4315 58.7897C100.032 58.6897 100.232 58.5897 100.832 57.9897C101.032 57.3897 101.032 56.7897 101.132 55.9897Z" fill="#1A3059"/>
<path fill-rule="evenodd" clip-rule="evenodd" d="M76.1315 80.1897C76.3315 79.7897 76.3315 79.3897 76.1315 79.0897C76.1315 79.0897 76.1315 78.9897 76.0315 78.9897L66.1315 65.7897C66.0315 65.8897 65.9315 66.1897 65.8315 66.4897L64.4315 69.7897L69.9315 83.9897L74.7315 83.4897L76.1315 80.1897Z" fill="#4F260D"/>
<path fill-rule="evenodd" clip-rule="evenodd" d="M76.2316 80.7897L71.2316 81.3897L71.6316 82.0897L76.6316 81.3897L76.2316 80.7897Z" fill="#8F4C22"/>
<path fill-rule="evenodd" clip-rule="evenodd" d="M71.3315 82.2897L72.2315 82.1897L72.3315 81.7897L62.2315 68.2897H61.4315L71.3315 82.2897Z" fill="#8F4C22"/>
<path fill-rule="evenodd" clip-rule="evenodd" d="M67.9315 91.0897L70.8315 84.1897L71.7315 81.9897L61.4315 68.2897L57.6315 77.3897C57.5315 77.5897 57.4315 77.8897 57.4315 78.0897C57.4315 78.1897 57.4315 78.3897 57.4315 78.4897C57.4315 78.5897 57.4315 78.5897 57.4315 78.6897C57.4315 78.7897 57.5315 78.8897 57.6315 78.9897L67.9315 92.6897C67.6315 92.2897 67.7315 91.7897 67.9315 91.0897Z" fill="#6E3715"/>
<path fill-rule="evenodd" clip-rule="evenodd" d="M76.6315 81.3896L71.6315 81.9896L67.8315 91.0897C67.3315 92.3897 67.9315 93.1897 69.3315 93.0897C70.7315 92.8897 72.2315 91.7896 72.7315 90.4896L76.6315 81.3896Z" fill="#783C18"/>
<path fill-rule="evenodd" clip-rule="evenodd" d="M75.1316 78.4897C76.1316 78.7897 76.6316 79.5897 76.2316 80.7897L75.8316 81.6897L75.1316 80.8897C75.3316 80.3897 75.3316 79.9897 75.1316 79.6897C74.4316 78.7897 72.8316 79.6897 72.2316 80.0897C71.8316 80.4897 71.4316 80.8897 71.2316 81.2897L70.8316 82.1897L69.7316 82.2897L70.1316 81.3897C70.5316 80.3897 71.3316 79.3897 72.3316 78.7897C73.3316 78.3897 74.1316 78.1897 75.1316 78.4897Z" fill="#85451D"/>
<path fill-rule="evenodd" clip-rule="evenodd" d="M63.7316 81.5896L64.5316 81.4896L63.5316 83.8896H62.7316L63.2316 82.5896L63.7316 81.5896Z" fill="#F2930E"/>
<path fill-rule="evenodd" clip-rule="evenodd" d="M66.3316 65.8896C66.2316 65.6896 65.9316 65.4896 65.8316 65.4896C65.2316 65.1896 64.3316 65.2896 63.7316 65.4896C63.2316 65.6896 62.6316 65.8896 62.2316 66.2896C61.5316 66.7896 60.8316 67.4896 60.4316 68.1896C60.4316 68.2896 60.3316 68.3896 60.3316 68.4896L59.2316 71.1896L62.5316 80.5896L63.4316 81.7896L69.4316 84.8896H69.5316L70.1316 83.6896C70.4316 82.9896 71.7316 80.8896 72.3316 80.2896C73.2316 79.5896 75.7316 78.5896 76.6316 79.6896L66.3316 65.8896Z" fill="#8F4C22"/>
<path fill-rule="evenodd" clip-rule="evenodd" d="M62.6315 66.5896C61.6315 67.0896 60.8315 68.0896 60.6315 68.7896L59.5315 71.3896L62.7315 80.2896L63.6315 81.4896L69.1315 84.1896H69.2315C69.8315 82.7896 70.4315 80.6896 71.8315 79.6896C72.6315 79.0896 72.4315 78.7896 72.0315 78.1896L64.3315 67.3896C63.7315 66.6896 63.4315 66.1896 62.6315 66.5896Z" fill="#A35829"/>
<path fill-rule="evenodd" clip-rule="evenodd" d="M75.8315 79.0896C76.8315 79.3896 77.1315 80.2896 76.6315 81.3896L75.2316 84.6896L74.1315 84.7896L75.5315 81.4896C75.7315 80.9896 75.7315 80.5896 75.5315 80.2896C74.8315 79.3896 73.1315 80.1896 72.5315 80.6896C72.1315 81.0896 71.7315 81.4896 71.5315 81.8896L70.4315 84.5896L69.3315 84.6896L70.4315 81.9896C70.8315 80.9896 71.6315 79.9896 72.6315 79.3896C73.6315 78.9896 74.8315 78.7896 75.8315 79.0896Z" fill="#783C18"/>
<path fill-rule="evenodd" clip-rule="evenodd" d="M63.7316 81.5896H64.0316L63.0316 83.8896H62.7316L63.2316 82.5896L63.7316 81.5896Z" fill="#F2930E"/>
<path fill-rule="evenodd" clip-rule="evenodd" d="M62.4315 79.8897L63.1315 80.9897L63.7315 81.5897H64.0315L62.7315 79.7897L62.4315 79.8897Z" fill="#FFD563"/>
<path fill-rule="evenodd" clip-rule="evenodd" d="M62.4315 79.8896L63.7315 81.5897L62.7315 83.8896L61.4315 82.1897L62.4315 79.8896Z" fill="#FFC526"/>
<path fill-rule="evenodd" clip-rule="evenodd" d="M62.4315 80.0896L62.7315 83.7896L61.5315 82.1896L62.4315 80.0896Z" fill="#FFD970"/>
<path fill-rule="evenodd" clip-rule="evenodd" d="M68.7316 68.6896C68.7316 68.6896 68.7316 68.5896 68.8316 68.5896C68.8316 68.5896 68.8316 68.4896 68.9316 68.4896C68.9316 68.4896 68.9316 68.3896 69.0316 68.3896C69.0316 68.3896 69.1316 68.3896 69.1316 68.2896L69.2316 68.1896H69.3316L67.8316 68.3896H67.7316C67.7316 68.3896 67.6316 68.3896 67.6316 68.4896C67.6316 68.4896 67.5316 68.4896 67.5316 68.5896C67.5316 68.5896 67.5316 68.5896 67.4316 68.6896C67.4316 68.6896 67.4316 68.6896 67.4316 68.7896C67.4316 68.7896 67.4316 68.7896 67.4316 68.8896C67.4316 68.8896 67.4316 68.8896 67.4316 68.9896C67.4316 68.9896 67.4316 68.9896 67.4316 69.0896L67.1316 69.6896L68.6316 69.4896L68.9316 68.8896C68.6316 68.7896 68.7316 68.7896 68.7316 68.6896Z" fill="#783C18"/>
<path fill-rule="evenodd" clip-rule="evenodd" d="M70.5315 67.7895C70.5315 67.7895 70.4315 67.7895 70.5315 67.7895C70.4315 67.6895 70.4315 67.6895 70.4315 67.6895C70.4315 67.6895 70.4315 67.6895 70.3315 67.5895C70.3315 67.5895 70.3315 67.5895 70.2315 67.4895C70.2315 67.4895 70.2315 67.4895 70.1315 67.3895H70.0315C70.0315 67.3895 70.0315 67.3895 69.9315 67.3895H69.8315H69.7315H69.6315C69.5315 67.3895 69.5315 67.3895 69.4315 67.3895L67.9315 67.5895C68.4315 67.6895 68.9315 67.9895 69.2315 68.4895L70.1315 68.2895L70.5315 67.7895C70.5315 67.8895 70.5315 67.8895 70.5315 67.7895Z" fill="#8C491F"/>
<path fill-rule="evenodd" clip-rule="evenodd" d="M71.5315 74.2895H71.6315C71.6315 74.3895 71.6315 74.4895 71.5315 74.4895C71.5315 74.5895 71.4315 74.6895 71.4315 74.6895L72.9315 74.4895V74.3895C73.0315 74.1895 73.0315 73.9895 73.1315 73.7895C73.1315 73.4895 73.2315 73.2895 73.2315 72.9895C73.2315 72.5895 73.2315 72.2895 73.1315 71.8895C73.1315 71.8895 73.1315 71.7895 73.1315 71.6895V71.5895C73.1315 71.3895 72.7315 70.5895 72.5315 70.3895H71.8315L71.0315 70.5895C71.6315 71.5895 71.8315 72.9895 71.5315 74.2895Z" fill="#8C491F"/>
<path fill-rule="evenodd" clip-rule="evenodd" d="M70.9315 70.5896L69.0315 68.0896C68.2315 66.9896 67.1315 67.1896 66.6315 68.3896L66.3315 68.9896L66.8315 69.6896L67.1315 69.0896C67.4315 68.2896 68.1316 68.1896 68.7316 68.8896L70.6315 71.3896C71.1315 72.0896 71.3315 73.2896 70.9315 74.0896L70.6315 74.6896L71.1315 75.3896L71.4315 74.7896C72.0315 73.4896 71.7315 71.6896 70.9315 70.5896Z" fill="#854219"/>
<path fill-rule="evenodd" clip-rule="evenodd" d="M71.4316 74.7896L71.1316 75.3895L72.6316 75.1896L72.9316 74.5896V74.4895V74.3895V74.2896L71.4316 74.3895C71.4316 74.4895 71.4316 74.5896 71.3316 74.5896C71.5316 74.5896 71.5316 74.6896 71.4316 74.7896Z" fill="#783C18"/>
<path fill-rule="evenodd" clip-rule="evenodd" d="M70.5315 67.8895L69.0315 68.0895L70.9315 70.5895L72.4315 70.3895L70.5315 67.8895Z" fill="#8F4C22"/>
<path fill-rule="evenodd" clip-rule="evenodd" d="M75.7316 82.0896L72.0316 82.5896L68.6316 90.5896C68.2316 91.5896 68.6316 92.2896 69.7316 92.1896C70.8316 92.0896 71.8316 91.0896 72.2316 90.0896L75.7316 82.0896Z" fill="#8F4C22"/>
<path fill-rule="evenodd" clip-rule="evenodd" d="M68.4316 64.1897C67.9316 67.3897 66.8316 68.7897 66.9316 69.5897C66.9316 70.1897 69.0316 73.3897 69.8316 74.1897C70.0316 74.3897 70.8316 74.2897 70.9316 74.0897C71.5316 73.5897 71.1316 72.4897 71.6316 71.1897C71.9316 70.3897 72.5316 70.6897 72.7316 70.8897C73.1316 71.2897 73.1316 72.0897 73.2316 72.5897C73.5316 70.6897 74.4315 69.3897 73.5315 67.7897C73.1315 67.0897 72.6316 66.3897 72.6316 65.1897L68.4316 64.1897Z" fill="#F1B287"/>
<path fill-rule="evenodd" clip-rule="evenodd" d="M68.4316 64.1897C67.9316 67.3897 66.8316 68.7897 66.9316 69.5897C66.9316 70.1897 68.7316 72.8897 69.3316 73.5897C69.3316 71.6897 70.5316 69.8897 70.7316 67.9897C71.1316 67.8897 72.7315 67.6897 73.0315 66.9897L72.8316 66.6897L68.4316 64.1897Z" fill="#E8A476"/>
<path fill-rule="evenodd" clip-rule="evenodd" d="M82.7316 31.8896C79.0316 32.5896 74.5315 42.4897 71.4315 48.5897C70.0315 54.1897 68.8315 58.6897 67.8315 64.2896C68.4315 65.6896 72.0316 68.1896 73.2316 66.2896C74.5316 61.5897 76.6315 56.0897 76.9315 51.0897C79.1315 48.9897 80.8315 46.5897 82.4315 44.1897C83.3315 42.7897 84.6315 41.1897 85.3315 39.6897C85.5315 37.1897 85.5316 33.4896 82.7316 31.8896Z" fill="#152747"/>
<path fill-rule="evenodd" clip-rule="evenodd" d="M74.7316 50.5897C74.6316 52.8897 73.0316 60.6896 71.6316 66.9896C72.0316 66.9896 72.4316 66.9896 72.8316 66.7896C73.0316 66.6896 73.1316 66.5896 73.2316 66.3896C74.5316 61.6896 76.6316 56.1897 76.9316 51.1897C79.1316 49.0897 80.8316 46.6897 82.4316 44.2896C83.3316 42.8896 84.6316 41.2896 85.3316 39.7896C85.4316 38.2896 85.5316 36.4896 85.0316 34.8896C82.8316 38.2896 75.9316 48.2897 74.7316 50.5897Z" fill="#1A3059"/>
<path fill-rule="evenodd" clip-rule="evenodd" d="M82.7316 31.8896C79.0316 32.5896 74.5315 42.4897 71.4315 48.5897C70.0315 54.1897 68.8315 58.6897 67.8315 64.2896C68.1315 64.9896 69.1315 65.9897 70.3315 66.5897L70.2316 66.0897C70.9316 60.7897 72.1316 55.1896 73.2316 49.9896C77.1316 43.1896 79.6315 39.7897 84.3315 33.6897C84.0315 32.9897 83.4316 32.2896 82.7316 31.8896Z" fill="#0F1E38"/>
<path fill-rule="evenodd" clip-rule="evenodd" d="M99.3314 27.6897C98.4314 27.5897 96.4314 27.4897 95.5314 27.3897C93.7314 27.0897 93.2314 25.7897 91.8314 23.9897C90.1314 23.7897 89.3314 23.2897 88.8314 22.4897C87.6314 20.7897 87.6314 18.1897 88.5314 16.2897C89.3314 14.6897 90.6314 13.6897 92.4314 13.1897C95.9314 12.2897 98.4314 13.9897 100.031 16.5897C100.131 16.7897 100.231 17.0897 100.331 17.2897C100.431 17.8897 100.331 18.2897 100.431 18.6897C100.531 19.4897 100.831 19.4897 101.131 19.8897C101.431 20.3897 101.531 21.4897 101.931 22.4897C102.031 22.6897 102.131 23.0897 102.231 23.6897C102.431 24.6897 102.431 25.9897 102.131 26.2897C101.931 26.5897 101.631 26.6897 101.231 26.9897C100.731 27.4897 100.431 27.6897 99.3314 27.6897Z" fill="#F1B287"/>
<path fill-rule="evenodd" clip-rule="evenodd" d="M99.3314 27.6897C98.4314 27.5897 96.4314 27.4897 95.5314 27.3897C93.7314 27.0897 93.2314 25.7897 91.8314 23.9897C90.1314 23.7897 89.3314 23.2897 88.8314 22.4897C87.6314 20.7897 87.6314 18.1897 88.5314 16.2897C89.3314 14.6897 90.6314 13.6897 92.4314 13.1897C95.4314 12.3897 97.7314 13.5897 99.3314 15.5897C99.3314 15.7897 98.0314 17.1897 96.5314 17.9897C95.7314 18.3897 94.6314 18.1897 93.5314 18.1897C93.7314 19.0897 95.3314 20.8897 95.6314 21.4897C95.7314 21.5897 95.5314 22.3897 96.1314 22.7897C96.3314 22.8897 96.6314 22.9897 96.6314 23.2897C97.1314 26.1897 99.5314 26.8897 100.631 27.3897C100.231 27.5897 99.8314 27.6897 99.3314 27.6897Z" fill="#E8A476"/>
<path fill-rule="evenodd" clip-rule="evenodd" d="M91.3314 17.8896C91.6314 20.2896 93.9314 22.8896 95.2314 24.7896C95.5314 25.1896 96.1314 25.4896 96.9314 25.6896C97.3314 25.7896 98.2314 25.9896 98.3314 25.9896C98.7314 25.7896 98.2314 24.7896 99.4314 23.5896C99.8314 23.1896 100.431 22.6896 100.731 22.6896C101.231 22.5896 101.431 22.7896 101.631 22.4896C101.931 23.2896 102.531 25.3896 102.231 26.1896C102.131 26.5896 101.631 26.9896 101.031 27.5896C100.631 27.8896 99.9314 27.9896 99.0314 28.0896C97.4314 28.1896 95.5314 27.6896 94.2314 27.1896C93.7314 26.9896 93.3314 26.8896 93.3314 25.9896C93.3314 24.3896 92.7314 22.8896 92.1314 21.7896C91.5314 20.7896 91.0314 20.2896 89.7314 19.5896C90.5314 18.0896 91.1314 15.6896 91.3314 17.8896ZM100.831 25.5896C100.531 25.1896 100.631 25.1896 100.831 24.9896C101.031 24.7896 101.131 24.7896 101.431 25.0896C101.631 24.8896 101.831 24.7896 101.831 24.6896C101.831 24.4896 101.831 24.3896 101.731 24.1896C101.531 23.7896 101.131 23.4896 100.731 23.7896C100.531 23.9896 99.9314 24.4896 99.8314 24.7896C99.7314 25.0896 99.8314 25.9896 100.131 26.1896C100.231 26.2896 100.231 26.3896 100.331 26.2896C100.531 25.9896 100.731 25.7896 100.831 25.5896Z" fill="#8C5B3C"/>
<path fill-rule="evenodd" clip-rule="evenodd" d="M96.8315 16.8896C95.8315 16.7896 92.7315 16.3896 91.1315 16.1896C89.5315 15.9896 87.7314 15.7896 87.0314 17.0896C86.5314 18.6896 87.2315 20.9896 87.9315 22.0896C88.9315 23.6896 90.3314 24.7896 92.5314 25.4896C93.3314 25.7896 93.1314 23.8896 93.0314 23.2896C92.8314 22.5896 92.7315 21.9896 92.6315 21.1896C92.4315 20.6896 92.8315 20.4896 92.6315 20.0896C92.1315 18.9896 91.6314 18.4896 91.5314 17.5896C92.0314 16.4896 94.9315 17.5896 96.8315 16.8896Z" fill="#8C5B3C"/>
<path fill-rule="evenodd" clip-rule="evenodd" d="M97.7314 25.8896C98.0314 25.9896 98.3314 25.9896 98.3314 25.9896C98.7314 25.7896 98.2314 24.7896 99.4314 23.5896C99.8314 23.1896 100.431 22.6896 100.731 22.6896C101.231 22.5896 101.431 22.7896 101.631 22.4896C101.931 23.2896 102.531 25.3896 102.231 26.1896C102.131 26.5896 101.631 26.9896 101.031 27.5896C100.931 27.6896 100.831 27.6896 100.731 27.7896C100.431 27.6896 100.031 27.4896 99.9314 27.4896C99.4314 27.0896 98.5314 26.6896 97.7314 25.8896ZM100.831 25.5896C100.531 25.1896 100.631 25.1896 100.831 24.9896C101.031 24.7896 101.131 24.7896 101.431 25.0896C101.631 24.8896 101.831 24.7896 101.831 24.6896C101.831 24.4896 101.831 24.3896 101.731 24.1896C101.531 23.7896 101.131 23.4896 100.731 23.7896C100.531 23.9896 99.9314 24.4896 99.8314 24.7896C99.7314 25.0896 99.8314 25.9896 100.131 26.1896C100.231 26.2896 100.231 26.3896 100.331 26.2896C100.531 25.9896 100.731 25.7896 100.831 25.5896Z" fill="#A36B48"/>
<path fill-rule="evenodd" clip-rule="evenodd" d="M91.4314 22.0897C89.9314 22.1897 90.5314 23.6897 91.1314 24.4897C91.5314 25.0897 92.0314 24.7897 92.4314 25.1897C92.8314 25.5897 93.2314 25.7897 93.6314 25.6897C93.6314 24.9897 93.4314 23.9897 93.2314 23.3897C92.8314 22.6897 92.2314 22.0897 91.4314 22.0897Z" fill="#E8A476"/>
<path fill-rule="evenodd" clip-rule="evenodd" d="M87.0315 17.0897C86.7315 17.6897 86.7315 19.1897 87.1315 19.9897C87.0315 19.3897 86.9315 18.7897 87.3315 18.0897C87.2315 19.0897 87.2315 19.4897 87.8315 20.3897C87.6315 19.5897 87.5315 18.7897 88.0315 18.1897C87.8315 19.5897 88.4315 20.8897 88.8315 21.4897C88.4315 20.3897 88.3315 19.0897 88.9315 18.1897C88.7315 19.1897 89.3315 20.0897 89.7315 20.7897C89.5315 19.6897 89.3315 19.0897 89.9315 18.1897C90.0315 19.1897 90.5315 20.1897 91.1315 20.6897C90.9315 20.3897 90.7315 18.6897 90.8315 18.0897C91.0315 18.6897 91.6315 19.1897 92.1315 19.2897C91.5315 18.2897 91.5315 17.6897 91.5315 17.3897C91.5315 16.4897 92.9315 16.7897 94.4315 16.7897C90.5315 15.8897 87.5315 16.9897 87.0315 17.0897Z" fill="#4F2B0C"/>
<path fill-rule="evenodd" clip-rule="evenodd" d="M87.0315 17.0897C87.7315 16.9897 89.5315 16.4897 91.6315 16.5897C93.6315 16.6897 96.0315 17.5897 97.8315 16.3897C99.8315 15.0897 99.8315 12.5897 97.9315 11.2897C97.3315 11.8897 96.8315 11.4897 93.8315 11.3897C90.5315 11.4897 86.5315 13.4897 87.0315 17.0897Z" fill="#361D07"/>
<path fill-rule="evenodd" clip-rule="evenodd" d="M87.0314 17.0896C87.7314 16.9896 89.5314 16.4896 91.6314 16.5896C93.6314 16.6896 96.0314 17.5896 97.8314 16.3896C99.8314 15.0896 99.8314 12.6896 97.9314 11.3896C97.8314 12.2896 97.3314 12.4896 97.1314 13.1896C96.9314 13.9896 96.9314 14.4896 96.0314 14.7896C96.3314 14.4896 96.4314 14.3896 96.6314 13.7896C96.1314 14.3896 95.4314 14.8896 94.3314 15.2896C94.8314 14.9896 95.0314 14.7896 95.3314 14.3896C94.0314 15.0896 93.3314 15.2896 91.8314 15.5896C92.4314 15.1896 92.6314 15.1896 93.3314 14.8896C91.8314 14.9896 91.0314 15.3896 89.7314 15.9896C90.0314 15.6896 90.3314 15.4896 90.6314 15.2896C89.2314 15.6896 88.2314 16.5896 87.0314 16.6896C86.9314 16.7896 86.9314 16.9896 87.0314 17.0896Z" fill="#241304"/>
<path fill-rule="evenodd" clip-rule="evenodd" d="M87.6315 14.3897C88.3315 13.0897 90.0315 12.1897 91.4315 11.7897C92.5315 11.4897 94.0315 11.3897 94.7315 11.2897C94.4315 11.4897 94.3315 11.4897 94.1315 11.5897C95.8315 11.4897 96.7315 11.9897 97.6315 11.6897C96.4315 12.6897 93.9315 12.7897 93.2315 13.0897C93.4315 13.0897 93.4315 13.1897 93.7315 13.2897C91.7315 13.6897 90.0315 12.6897 87.6315 14.3897Z" fill="#4A2B12"/>
</svg>
