<svg width="49" height="42" viewBox="0 0 49 42" fill="none" xmlns="http://www.w3.org/2000/svg">
<g opacity="0.74">
<g opacity="0.74">
<path opacity="0.74" d="M47.3 3.6001H2.30005C1.50005 3.6001 0.800049 2.9001 0.800049 2.1001C0.800049 1.3001 1.50005 0.600098 2.30005 0.600098H47.3C48.1 0.600098 48.8 1.3001 48.8 2.1001C48.8 2.9001 48.1 3.6001 47.3 3.6001Z" fill="white"/>
</g>
<g opacity="0.74">
<path opacity="0.74" d="M39.3 23.6001H2.30005C1.50005 23.6001 0.800049 22.9001 0.800049 22.1001C0.800049 21.3001 1.50005 20.6001 2.30005 20.6001H39.3C40.1 20.6001 40.8 21.3001 40.8 22.1001C40.8 22.9001 40.1 23.6001 39.3 23.6001Z" fill="white"/>
</g>
<g opacity="0.74">
<path opacity="0.74" d="M24.3 41.6001H2.30005C1.50005 41.6001 0.800049 40.9001 0.800049 40.1001C0.800049 39.3001 1.50005 38.6001 2.30005 38.6001H24.3C25.1 38.6001 25.8 39.3001 25.8 40.1001C25.8 40.9001 25.1 41.6001 24.3 41.6001Z" fill="white"/>
</g>
</g>
</svg>
