<svg width="108" height="134" viewBox="0 0 108 134" fill="none" xmlns="http://www.w3.org/2000/svg">
<path d="M6.6149 70.5453C14.3042 70.5453 26.5502 63.2832 32.6731 55.8786C32.9579 55.4514 32.9579 54.8818 32.5308 54.5971C32.1036 54.3123 31.534 54.3123 31.2492 54.7395C24.1295 63.5679 8.89321 70.9725 3.767 68.1246C1.2039 66.7006 1.77348 62.856 2.77024 60.0081C8.60843 42.2087 42.4984 37.0825 42.7832 37.0825C43.2104 37.0825 43.6375 36.5129 43.4952 36.0857C43.3528 35.6585 42.9256 35.2314 42.4984 35.3738C41.0744 35.5162 7.04208 40.6424 0.919105 59.5809C-1.21682 66.1311 0.776715 68.8365 2.77024 69.9757C3.9094 70.2605 5.19095 70.5453 6.6149 70.5453Z" fill="url(#paint0_radial)"/>
<path fill-rule="evenodd" clip-rule="evenodd" d="M85.7863 29.2509L65.5663 29.678L11.4562 38.7913L22.9902 39.9305L85.7863 29.2509Z" fill="url(#paint1_linear)"/>
<path fill-rule="evenodd" clip-rule="evenodd" d="M108 117.82L85.7865 29.2509L22.9904 39.9305L38.6538 133.626L108 117.82Z" fill="url(#paint2_linear)"/>
<path fill-rule="evenodd" clip-rule="evenodd" d="M38.6536 133.626L22.8478 128.5L11.4562 38.7914L26.1229 37.2251L22.9902 39.9306L38.6536 133.626Z" fill="url(#paint3_linear)"/>
<path fill-rule="evenodd" clip-rule="evenodd" d="M22.8478 128.5L33.2427 119.814L38.6537 133.626L22.8478 128.5Z" fill="#FF9F57"/>
<path opacity="0.5" fill-rule="evenodd" clip-rule="evenodd" d="M33.2427 119.814L20.7119 37.7947L26.1229 37.2251L22.9902 39.9306L38.6537 133.626L33.2427 119.814Z" fill="#811734"/>
<path fill-rule="evenodd" clip-rule="evenodd" d="M65.9936 41.3547C66.4208 43.3482 67.8447 44.7722 69.1263 44.4874C70.4078 44.2026 71.2622 42.3515 70.835 40.3579C70.4078 38.3644 68.9839 36.9405 67.7023 37.2253C66.4208 37.51 65.5664 39.3612 65.9936 41.3547Z" fill="#95295C"/>
<path d="M45.8257 49.8171C47.1359 49.5509 47.868 47.7107 47.4609 45.7069C47.0538 43.7031 45.6617 42.2945 44.3515 42.5606C43.0413 42.8268 42.3092 44.667 42.7163 46.6708C43.1234 48.6746 44.5155 50.0833 45.8257 49.8171Z" fill="#95295C"/>
<path d="M67.4175 41.4969C69.5535 40.2153 70.9774 38.649 72.5437 36.9402C74.1101 35.2315 75.3916 33.3804 76.5308 31.5292C77.67 29.6781 78.8091 27.6846 79.6635 25.5487C80.5179 23.5551 81.5146 21.4192 82.0842 19.1409C82.7962 17.005 82.9386 14.5842 82.7962 12.3059C82.6538 10.0276 81.9418 7.60691 80.6602 5.61338C79.3787 3.61985 77.3852 1.76872 75.1068 0.914349C72.8285 -0.082415 70.123 -0.0824106 67.7023 0.629563C65.2816 1.19914 63.1457 3.05026 61.8641 5.04379C60.5826 7.03732 59.7282 9.31563 59.0162 11.4516C57.7347 15.7234 56.8803 20.1376 55.7412 24.4095C54.602 28.6813 53.3204 32.8108 51.1845 36.513C49.191 40.2153 46.3431 43.4904 42.7832 46.0535C42.356 46.3383 42.2137 46.9079 42.4984 47.3351C42.7832 47.7622 43.3528 47.7622 43.78 47.6198C47.6247 45.0567 50.7573 41.6393 53.1781 37.7946C55.4564 33.8075 57.0227 29.5357 58.1619 25.2639C59.4434 20.992 60.1554 16.5778 61.5793 12.4483C62.2913 10.4548 63.0033 8.46128 64.1425 6.75254C64.712 5.89817 65.2816 5.1862 66.136 4.61662C66.4208 4.33183 66.8479 4.04704 67.2751 3.90465C67.7023 3.76225 68.1295 3.47746 68.5567 3.47746C70.4078 2.90788 72.4013 2.90787 74.2525 3.61984C76.1036 4.33182 77.67 5.61337 78.6667 7.17971C79.8059 8.88845 80.5178 10.7396 80.6602 12.8755C80.8026 13.4451 80.8026 13.8723 80.8026 14.4419C80.8026 15.0114 80.8026 15.4386 80.8026 16.0082L80.6602 17.5745C80.5178 18.1441 80.3755 18.5713 80.3755 19.1409C80.2331 20.1376 79.8059 21.1344 79.5211 22.1312C79.0939 23.1279 78.6667 24.1247 78.2395 25.1215C77.2428 27.115 76.3884 28.9661 75.2492 30.8173C74.1101 32.6684 72.8285 34.3771 71.4046 36.0859C69.9806 37.6522 68.4143 39.2186 66.7056 40.2153H66.5632C66.136 40.5001 65.9936 41.0697 66.2784 41.4969C66.4208 41.6393 66.9904 41.7817 67.4175 41.4969Z" fill="url(#paint4_linear)"/>
<path d="M93.1909 93.4711L88.3495 61.4323L34.809 68.6944L43.6375 103.154L93.1909 93.4711Z" fill="#FFE557"/>
<defs>
<radialGradient id="paint0_radial" cx="0" cy="0" r="1" gradientUnits="userSpaceOnUse" gradientTransform="translate(22.0188 53.0181) rotate(176.233) scale(19.7848)">
<stop stop-color="#EBD7E3"/>
<stop offset="0.9829" stop-color="#BDAFD2"/>
</radialGradient>
<linearGradient id="paint1_linear" x1="48.9065" y1="38.2069" x2="48.4225" y2="30.8563" gradientUnits="userSpaceOnUse">
<stop stop-color="#C73E27"/>
<stop offset="0.998" stop-color="#A4152C"/>
</linearGradient>
<linearGradient id="paint2_linear" x1="68.9787" y1="131.688" x2="62.3314" y2="30.7346" gradientUnits="userSpaceOnUse">
<stop stop-color="#FF8647"/>
<stop offset="1" stop-color="#FFB934"/>
</linearGradient>
<linearGradient id="paint3_linear" x1="28.2558" y1="134.369" x2="21.8745" y2="37.4552" gradientUnits="userSpaceOnUse">
<stop offset="0.00198413" stop-color="#C93347"/>
<stop offset="1" stop-color="#FF7527"/>
</linearGradient>
<linearGradient id="paint4_linear" x1="62.6942" y1="47.4928" x2="62.6942" y2="0.0715153" gradientUnits="userSpaceOnUse">
<stop offset="0.0171145" stop-color="#BD8BD2"/>
<stop offset="1" stop-color="#EBD7E3"/>
</linearGradient>
</defs>
</svg>
