<svg width="36" height="36" viewBox="0 0 36 36" fill="none" xmlns="http://www.w3.org/2000/svg">
<path d="M35.0553 27.7708L27.7688 22.9115C26.8441 22.2998 25.6046 22.5011 24.921 23.374L22.7985 26.103C22.5258 26.4627 22.0299 26.567 21.6353 26.3478L21.2316 26.1252C19.8932 25.3957 18.2278 24.4875 14.8725 21.131C11.5172 17.7745 10.6072 16.1079 9.87763 14.772L9.65625 14.3682C9.43403 13.9737 9.53639 13.4757 9.89619 13.2008L12.6234 11.0789C13.4959 10.3952 13.6975 9.15608 13.0865 8.23111L8.22722 0.944583C7.60104 0.00267564 6.34474 -0.280079 5.37535 0.302655L2.32838 2.13297C1.37101 2.69581 0.668621 3.60735 0.368501 4.67657C-0.728704 8.67437 0.0967126 15.574 10.2604 25.7389C18.3455 33.8233 24.3644 35.9974 28.5014 35.9974C29.4535 36.0014 30.4018 35.8776 31.321 35.629C32.3904 35.3293 33.3021 34.6268 33.8646 33.6692L35.6967 30.624C36.2803 29.6544 35.9977 28.3973 35.0553 27.7708ZM34.663 30.0085L32.8351 33.0554C32.4312 33.7466 31.7755 34.2548 31.0053 34.4736C27.3147 35.4869 20.8668 34.6476 11.1093 24.89C1.35168 15.1325 0.51248 8.6852 1.52574 4.99398C1.74481 4.22291 2.25365 3.56636 2.94571 3.16184L5.99267 1.33392C6.41329 1.08083 6.95855 1.20351 7.23027 1.61224L9.8699 5.57524L12.0854 8.89814C12.3507 9.29935 12.2635 9.8371 11.885 10.134L9.15725 12.2558C8.32712 12.8906 8.09006 14.0391 8.60116 14.9507L8.81776 15.3442C9.58447 16.7504 10.5377 18.4997 14.0178 21.9793C17.4979 25.4587 19.2467 26.412 20.6522 27.1787L21.0463 27.3958C21.9578 27.9068 23.1064 27.6699 23.7411 26.8397L25.863 24.1119C26.16 23.7336 26.6975 23.6465 27.0988 23.9116L34.3847 28.7709C34.7938 29.0424 34.9164 29.5879 34.663 30.0085Z" fill="#818181"/>
<path d="M20.3988 6.00202C26.0287 6.00828 30.591 10.5707 30.5974 16.2005C30.5974 16.5319 30.8659 16.8004 31.1972 16.8004C31.5286 16.8004 31.7971 16.5319 31.7971 16.2005C31.7902 9.90829 26.6911 4.80914 20.3988 4.80225C20.0675 4.80225 19.799 5.0708 19.799 5.40213C19.799 5.73347 20.0675 6.00202 20.3988 6.00202Z" fill="#818181"/>
<path d="M20.3988 9.60139C24.0416 9.60567 26.9936 12.5577 26.9979 16.2004C26.9979 16.5318 27.2665 16.8003 27.5978 16.8003C27.9291 16.8003 28.1977 16.5318 28.1977 16.2004C28.1927 11.8953 24.7039 8.40653 20.3988 8.40161C20.0675 8.40161 19.799 8.67017 19.799 9.0015C19.799 9.33283 20.0675 9.60139 20.3988 9.60139Z" fill="#818181"/>
<path d="M20.3988 13.2008C22.0546 13.2027 23.3964 14.5445 23.3984 16.2003C23.3984 16.5317 23.667 16.8002 23.9983 16.8002C24.3296 16.8002 24.5982 16.5317 24.5982 16.2003C24.5955 13.8822 22.717 12.0036 20.3988 12.001C20.0675 12.001 19.799 12.2695 19.799 12.6009C19.799 12.9322 20.0675 13.2008 20.3988 13.2008Z" fill="#818181"/>
</svg>
