<svg width="133" height="197" viewBox="0 0 133 197" fill="none" xmlns="http://www.w3.org/2000/svg">
<path d="M61.9219 0.664917L85.4557 1.65235L84.962 9.38724L63.0739 8.56438L61.9219 0.664917Z" fill="#FF1D9C"/>
<path d="M0.0426025 46.4163L9.75238 57.1135L13.5375 52.67L4.32149 42.6311L0.0426025 46.4163Z" fill="#6877FF"/>
<path d="M123.472 103.687C123.472 103.523 123.472 103.358 123.472 103.194L129.396 102.7C129.396 98.7502 128.244 94.9651 125.94 92.1673L121.168 95.1296C118.864 91.0153 114.914 87.8884 110.142 86.7364L111.293 81.7993C107.508 80.4827 103.559 80.4827 100.267 81.7993L101.419 86.7364C96.6466 87.8884 92.6969 91.0153 90.3928 95.1296L85.6203 92.1673C83.3162 95.2942 81.9996 99.0794 82.1642 102.7L88.0888 103.194C88.0888 103.358 88.0888 103.523 88.0888 103.687C88.0888 108.295 89.8991 112.41 92.6968 115.537L87.5951 119.815C89.8991 123.107 93.026 125.411 96.482 126.398L99.1152 119.98C101.09 120.803 103.229 121.132 105.533 121.132C107.837 121.132 109.977 120.638 111.952 119.98L114.585 126.398C118.37 125.246 121.497 122.942 123.472 119.815L118.37 115.537C121.662 112.41 123.472 108.295 123.472 103.687ZM108.331 110.435C107.508 110.764 106.85 110.929 105.863 110.929C105.04 110.929 104.217 110.764 103.394 110.435C102.407 110.106 101.584 109.612 100.761 108.789C99.4443 107.637 98.6215 105.827 98.6215 104.017C98.6215 103.852 98.6215 103.852 98.6215 103.687C98.6215 102.535 98.786 101.548 99.2797 100.561C100.103 98.7502 101.748 97.2691 103.888 96.7754C104.546 96.6108 105.04 96.4462 105.698 96.4462C106.356 96.4462 107.015 96.6108 107.508 96.7754C109.483 97.2691 111.129 98.7502 112.116 100.561C112.61 101.548 112.775 102.535 112.775 103.687C112.775 103.852 112.775 103.852 112.775 104.017C112.61 105.827 111.952 107.637 110.635 108.789C110.141 109.612 109.319 110.106 108.331 110.435Z" fill="url(#paint0_linear)"/>
<path d="M123.472 98.9149C123.472 98.7503 123.472 98.5857 123.472 98.4211L129.397 97.9274C129.397 93.9777 128.245 90.1925 125.941 87.3948L121.168 90.3571C118.864 86.2428 114.915 83.1159 110.142 81.9639L111.294 77.0267C107.509 75.7102 103.559 75.7102 100.268 77.0267L101.42 81.9639C96.647 83.1159 92.6973 86.2428 90.3933 90.3571L85.6207 87.3948C83.3167 90.5217 82.0001 94.3068 82.1647 97.9274L88.0893 98.4211C88.0893 98.5857 88.0893 98.7503 88.0893 98.9149C88.0893 103.523 89.8996 107.637 92.6973 110.764L87.5955 115.043C89.8996 118.334 93.0264 120.638 96.4824 121.626L99.1156 115.208C101.09 116.03 103.23 116.36 105.534 116.36C107.838 116.36 109.977 115.866 111.952 115.208L114.585 121.626C118.371 120.474 121.497 118.17 123.472 115.043L118.371 110.764C121.662 107.637 123.472 103.523 123.472 98.9149ZM108.332 105.662C107.509 105.991 106.851 106.156 105.863 106.156C105.04 106.156 104.217 105.991 103.395 105.662C102.407 105.333 101.584 104.839 100.761 104.017C99.4448 102.865 98.6219 101.054 98.6219 99.244C98.6219 99.0794 98.6219 99.0794 98.6219 98.9149C98.6219 97.7628 98.7865 96.7754 99.2802 95.788C100.103 93.9777 101.749 92.4965 103.888 92.0028C104.546 91.8382 105.04 91.6737 105.699 91.6737C106.357 91.6737 107.015 91.8382 107.509 92.0028C109.484 92.4965 111.129 93.9777 112.117 95.788C112.611 96.7754 112.775 97.7628 112.775 98.9149C112.775 99.0794 112.775 99.0794 112.775 99.244C112.611 101.054 111.952 102.865 110.636 104.017C110.142 104.839 109.319 105.333 108.332 105.662Z" fill="url(#paint1_linear)"/>
<path d="M96.4821 120.474C93.6844 119.486 91.2158 117.676 89.4055 115.207L94.5073 110.764L93.849 110.106C91.0513 106.979 89.4055 103.029 89.4055 98.9148C89.4055 98.7502 89.4055 98.7502 89.4055 98.5857V97.5982L83.3163 97.1045C83.3163 94.1422 84.3038 91.3445 86.1141 88.7113L90.8867 91.6736L91.3804 90.8508C93.5199 86.901 97.305 83.9387 101.748 82.7867L102.571 82.6222L101.419 77.5204C102.736 77.0267 104.217 76.8621 105.698 76.8621C107.179 76.8621 108.825 77.0267 110.306 77.5204L109.154 82.6222L109.977 82.7867C114.421 83.9387 118.206 86.7365 120.345 90.8508L120.839 91.6736L125.611 88.7113C127.257 91.0153 128.245 93.9776 128.409 97.1045L122.32 97.5982V98.5857C122.32 98.7502 122.32 98.7502 122.32 98.9148C122.32 103.029 120.839 107.143 117.877 110.106L117.218 110.764L122.32 115.207C120.51 117.511 118.041 119.322 115.079 120.474L112.446 114.055L111.623 114.385C109.648 115.207 107.673 115.537 105.534 115.537C103.394 115.537 101.419 115.207 99.4445 114.385L98.6216 114.055L96.4821 120.474ZM105.863 90.8508C105.04 90.8508 104.382 91.0153 103.723 91.1799C101.419 91.8382 99.609 93.3194 98.6216 95.4588C98.1279 96.4462 97.7987 97.5982 97.7987 98.9148C97.7987 99.0794 97.7987 99.244 97.7987 99.4085C97.7987 101.383 98.7862 103.194 100.267 104.675C101.09 105.498 102.078 106.156 103.23 106.485C104.052 106.814 105.04 106.979 105.863 106.979C106.85 106.979 107.673 106.814 108.661 106.485C109.648 106.156 110.8 105.498 111.623 104.675C113.104 103.194 113.927 101.383 114.091 99.244C114.091 99.244 114.091 99.0794 114.091 98.9148C114.091 97.5982 113.762 96.4462 113.269 95.4588C112.281 93.3194 110.471 91.8382 108.167 91.1799C107.344 91.0153 106.686 90.8508 105.863 90.8508Z" fill="url(#paint2_linear)"/>
<path d="M123.801 115.043V119.815C123.801 119.815 120.674 124.917 114.914 126.398V121.626C114.914 121.626 120.674 119.322 123.801 115.043Z" fill="url(#paint3_linear)"/>
<path d="M96.9759 121.626V126.398C96.9759 126.398 91.0513 124.753 88.089 119.815V115.043C88.089 115.043 91.8741 120.309 96.9759 121.626Z" fill="url(#paint4_linear)"/>
<path d="M129.397 98.0919V102.865L123.472 103.358V98.4211L129.397 98.0919Z" fill="url(#paint5_linear)"/>
<path d="M110.964 82.1287L111.458 81.7995V77.0269L110.306 81.9641L110.964 82.1287Z" fill="url(#paint6_linear)"/>
<path d="M100.432 77.0269V81.7995L100.926 82.1287L101.584 81.9641L100.432 77.0269Z" fill="url(#paint7_linear)"/>
<path d="M82.4934 98.0919V102.865L88.418 103.358V98.4211L82.4934 98.0919Z" fill="url(#paint8_linear)"/>
<path d="M96.9759 126.399V121.626L99.6091 115.208V119.98L96.9759 126.399Z" fill="url(#paint9_linear)"/>
<path d="M112.281 119.98V115.208L114.914 121.626V125.905L112.281 119.98Z" fill="url(#paint10_linear)"/>
<path d="M132.688 52.1764L122.813 58.101L118.864 50.6952L129.725 44.4415L132.688 52.1764Z" fill="#4F31E0"/>
<path d="M91.3803 163.098C93.026 158.325 94.178 146.97 91.3803 140.058L84.6328 149.438C83.9745 144.666 82.3288 140.222 79.8602 136.272L84.9619 132.816C83.1516 129.031 78.5436 124.259 74.4293 122.284L71.1379 127.056C67.3527 124.259 62.7447 122.284 57.9721 121.296L58.9595 115.865C55.0098 114.549 48.2623 114.384 43.9834 115.865L44.9709 121.296C40.0337 122.284 35.5903 124.259 31.8051 127.056L28.5136 122.284C24.7285 124.094 19.9559 128.702 17.981 132.816L23.0828 136.272C20.6142 140.222 18.9685 144.666 18.3102 149.438L11.5627 148.122C10.2461 152.071 10.0815 158.819 11.5627 163.098L18.8039 161.781C19.7913 166.389 21.7662 170.503 24.5639 174.124L17.981 178.732C19.7913 182.517 24.3993 187.29 28.5136 189.265L33.2862 182.353C36.9068 184.821 41.1857 186.467 45.6292 187.125L43.9834 195.683C47.9332 197 54.6806 197.164 58.9595 195.683L57.3138 187.125C61.7573 186.302 65.8716 184.657 69.6567 182.353L74.4293 189.265C78.2145 187.454 82.9871 182.846 84.9619 178.732L78.379 174.124C81.0122 170.503 82.9871 166.389 84.1391 161.781L91.3803 163.098ZM63.2384 163.756C62.0864 165.073 60.7698 166.225 59.2887 167.212C57.643 168.199 55.8326 168.858 53.8578 169.187C53.0349 169.351 52.212 169.351 51.3892 169.351C50.5663 169.351 49.7435 169.351 48.9206 169.187C46.9457 168.858 45.1354 168.199 43.6543 167.212C42.1731 166.225 40.8566 165.073 39.7046 163.756C38.388 162.275 37.4006 160.465 36.9068 158.49C36.5777 157.173 36.2485 155.692 36.2485 154.211C36.2485 153.717 36.2485 153.388 36.2485 152.894C36.4131 150.59 37.0714 148.451 38.2234 146.64C39.2108 144.83 40.5274 143.349 42.1732 142.032C43.9834 140.716 46.1229 139.564 48.4269 139.235C49.4143 139.07 50.4018 138.906 51.5538 138.906C52.5412 138.906 53.6932 139.07 54.6806 139.235C56.9846 139.728 59.1241 140.716 60.9344 142.032C62.5801 143.349 63.8967 144.83 64.8841 146.64C65.8716 148.451 66.5298 150.59 66.859 152.894C66.859 153.223 66.859 153.717 66.859 154.211C66.859 155.692 66.6944 157.173 66.2007 158.49C65.5424 160.465 64.555 162.275 63.2384 163.756Z" fill="#7C006F"/>
<path d="M91.3802 155.034C92.5322 151.742 92.8614 146.641 92.0385 142.691C91.8739 141.703 91.7094 140.881 91.3802 140.058L84.6328 141.374C83.9745 136.602 82.3288 132.158 79.8602 128.209L84.9619 124.753C84.3036 123.436 83.3162 121.955 82.1642 120.638C80.0247 118.005 77.0624 115.536 74.4292 114.22L71.1378 118.993C67.3526 116.195 62.7446 114.22 57.972 113.232L58.9595 107.802C55.0097 106.485 48.2622 106.32 43.9834 107.802L44.9708 113.232C40.1982 114.22 35.5902 116.195 31.805 118.993L28.5136 114.22C24.7284 116.03 19.9558 120.638 17.981 124.753L23.0827 128.209C20.6141 132.158 18.9684 136.602 18.3101 141.374L11.5626 140.058C11.0689 141.703 10.5752 143.843 10.5752 145.982C10.4106 149.109 10.7398 152.401 11.5626 155.034L18.8038 153.717C19.7913 158.325 21.7661 162.44 24.5639 166.06L17.981 170.668C18.8038 172.314 20.1204 174.289 21.7661 175.935C23.741 178.074 26.2096 180.049 28.5136 181.201L33.2862 174.289C36.9068 176.757 41.1856 178.403 45.6291 179.061L43.9834 187.619C47.9331 188.936 54.6806 189.1 58.9595 187.619L57.3137 179.061C60.276 178.568 63.0738 177.745 65.5424 176.428C66.8589 175.77 68.3401 175.112 69.4921 174.124L74.2647 181.036C78.0498 179.226 82.8225 174.618 84.7973 170.504L78.2144 165.896C80.8476 162.275 82.8225 158.161 83.9745 153.553L91.3802 155.034ZM63.2383 155.692C62.0863 157.009 60.7698 158.161 59.2886 159.148C57.6429 160.136 55.8326 160.794 54.0223 161.123C53.1994 161.288 52.3766 161.288 51.5537 161.288C50.7308 161.288 49.908 161.288 49.0851 161.123C47.2748 160.794 45.6291 160.3 44.1479 159.477C43.9834 159.477 43.8188 159.313 43.8188 159.313C42.3377 158.325 41.0211 157.173 39.8691 155.857C38.5525 154.376 37.5651 152.565 37.0713 150.59C37.0713 150.426 37.0713 150.426 36.9068 150.261C36.5776 148.945 36.4131 147.628 36.4131 146.311C36.4131 145.982 36.4131 145.489 36.4131 144.995C36.5776 142.691 37.2359 140.551 38.3879 138.741C39.0462 137.589 39.8691 136.437 40.8565 135.45C41.3502 134.956 41.8439 134.462 42.3376 134.133C44.1479 132.817 46.2874 131.665 48.5914 131.335C49.5788 131.171 50.5663 131.006 51.7183 131.006C52.212 131.006 52.7057 131.006 53.364 131.006C53.8577 131.006 54.3514 131.171 54.8451 131.171C57.1492 131.665 59.2886 132.652 61.0989 133.969C62.7446 135.285 64.0612 136.766 65.0487 138.577C66.0361 140.387 66.6943 142.526 67.0235 144.83C67.0235 145.159 67.0235 145.653 67.0235 146.147C67.0235 147.628 66.8589 149.109 66.3652 150.426C66.2006 150.92 66.0361 151.413 65.8715 151.907C65.0487 153.224 64.2258 154.54 63.2383 155.692Z" fill="url(#paint11_linear)"/>
<path d="M44.1479 159.313L24.7283 166.06C22.0952 162.439 20.1203 158.325 18.9683 153.717L11.7271 155.034C10.9043 152.565 10.5751 149.109 10.7397 145.982L40.8564 135.12C39.869 136.108 39.0461 137.095 38.3878 138.412C37.4004 140.222 36.7421 142.362 36.413 144.666C36.413 144.995 36.413 145.488 36.413 145.982C36.413 147.299 36.5776 148.615 36.9067 149.932C36.9067 150.097 36.9067 150.096 37.0713 150.261C37.7296 152.236 38.5524 154.046 39.869 155.527C41.021 156.844 42.3376 157.996 43.8187 158.983C43.8187 159.148 43.9833 159.148 44.1479 159.313Z" fill="white"/>
<path d="M66.0359 150.261C66.3651 148.945 66.6943 147.464 66.6943 145.982C66.6943 145.653 66.6943 145.16 66.6943 144.666C66.5297 142.362 65.8714 140.222 64.7194 138.412C63.7319 136.602 62.4154 135.121 60.7696 133.804C58.9594 132.488 56.8199 131.336 54.5159 131.006C54.0222 130.842 53.5284 130.842 53.0347 130.842L82.1641 120.474C83.3161 121.955 84.3035 123.271 84.9618 124.588L79.8601 128.044C82.3286 131.994 83.9743 136.437 84.6326 141.21L91.3801 139.893C91.7093 140.716 91.8738 141.539 92.0384 142.526L65.5422 151.742C65.7068 151.413 65.8714 150.92 66.0359 150.261Z" fill="white"/>
<path d="M51.5536 186.796C49.5787 186.796 47.7684 186.632 46.1227 186.303L47.7684 177.58L45.9581 177.251C41.8438 176.593 37.8941 174.947 34.4381 172.643L32.9569 171.656L28.1843 178.732C26.5386 177.745 24.8929 176.264 23.4117 174.618C22.4243 173.466 21.4368 172.314 20.614 171.162L27.3615 166.554L26.2095 165.073C23.5763 161.617 21.766 157.667 20.7786 153.388L20.4494 151.742L13.0437 153.059C12.3854 149.932 12.3854 145.653 13.0437 142.362L19.9557 143.678L20.2848 141.704C20.9431 137.26 22.4243 133.146 24.8929 129.196L25.8803 127.715L20.614 124.094C22.4243 121.297 25.3866 118.334 28.1843 116.524L31.6403 121.461L33.1215 120.309C36.7421 117.511 41.0209 115.701 45.629 114.878L47.4393 114.549L46.4518 108.954C47.933 108.624 49.7433 108.46 51.7182 108.46C53.693 108.46 55.5033 108.624 57.149 108.954L56.1616 114.549L57.9719 114.878C62.5799 115.701 66.6942 117.676 70.4794 120.309L71.9605 121.461L75.4166 116.524C78.2143 118.334 81.1766 121.297 82.9869 124.094L77.7206 127.715L78.708 129.196C81.1766 132.981 82.6577 137.26 83.316 141.704L83.6452 143.678L90.5572 142.362C91.2155 145.489 91.2155 149.768 90.5572 153.059L83.1515 151.742L82.8223 153.553C81.8349 157.832 80.0246 161.617 77.3915 165.237L76.2394 166.719L82.9869 171.327C81.3412 174.124 78.2143 177.087 75.4166 178.897L70.644 171.82L69.1628 172.808C68.0108 173.631 66.6942 174.289 65.3777 174.947C62.9091 176.099 60.2759 176.922 57.6428 177.416L55.8325 177.745L57.4782 186.467C55.3388 186.467 53.5285 186.796 51.5536 186.796ZM51.5536 128.867C50.4016 128.867 49.2496 129.031 48.0976 129.196C45.629 129.69 43.1604 130.842 41.021 132.487C39.2107 133.804 37.7295 135.614 36.5775 137.589C35.4255 139.729 34.6026 142.197 34.4381 144.666C34.4381 145.16 34.4381 145.653 34.4381 145.982C34.4381 147.464 34.6026 148.945 35.0964 150.426C35.0964 150.59 35.2609 150.755 35.2609 150.92C35.9192 153.059 36.9067 155.034 38.3878 156.844C39.7044 158.325 41.1855 159.642 42.8312 160.629C44.8061 161.781 46.781 162.44 48.9204 162.769C49.7433 162.933 50.7307 162.933 51.7182 162.933C52.7056 162.933 53.693 162.769 54.5159 162.604C56.6553 162.275 58.6302 161.452 60.4405 160.465C62.0862 159.477 63.5674 158.161 64.884 156.68C66.3651 154.869 67.3525 152.894 68.0108 150.755C68.5045 149.109 68.6691 147.628 68.6691 145.982C68.6691 145.489 68.6691 144.995 68.6691 144.501C68.5045 142.033 67.6817 139.564 66.5297 137.589C65.3777 135.614 63.8965 133.804 62.0862 132.487C60.1113 130.842 57.6428 129.854 55.1742 129.196C53.8576 129.031 52.7056 128.867 51.5536 128.867Z" fill="url(#paint12_linear)"/>
<path d="M84.9618 124.588V132.817L83.1516 133.969L79.8601 128.209L84.9618 124.588Z" fill="#7C006F"/>
<path d="M84.9618 178.567V170.503C84.9618 170.503 80.1892 178.074 74.4292 181.036V189.1C74.4292 189.265 82.6578 185.15 84.9618 178.567Z" fill="#981382"/>
<path d="M17.9809 178.567V170.503C17.9809 170.503 21.1077 177.086 28.5135 181.036V189.1C28.5135 189.265 22.918 187.29 17.9809 178.567Z" fill="#7C006F"/>
<path d="M11.5626 163.098V155.034C11.5626 155.034 9.42317 147.628 11.5626 140.058C11.5626 140.058 6.62544 151.249 11.5626 163.098Z" fill="#7C006F"/>
<path d="M17.9809 132.817V124.588L23.0826 128.209L19.7911 133.969L17.9809 132.817Z" fill="#7C006F"/>
<path d="M43.9833 112.081V107.637L45.1353 113.068H44.3124L43.9833 112.081Z" fill="url(#paint13_linear)"/>
<path d="M58.9595 107.637V112.081L58.7949 113.233L57.972 113.068L58.9595 107.637Z" fill="url(#paint14_linear)"/>
<path opacity="0.62" d="M74.4292 189.265V181.036L69.6566 174.124V182.188L74.4292 189.265Z" fill="url(#paint15_linear)"/>
<path opacity="0.62" d="M84.1389 161.782V153.717L91.3802 155.034V163.098L84.1389 161.782Z" fill="url(#paint16_linear)"/>
<path opacity="0.62" d="M33.2861 182.188V174.124L28.5135 181.036V189.265L33.2861 182.188Z" fill="url(#paint17_linear)"/>
<path opacity="0.62" d="M18.8039 161.782L18.9685 153.717L11.5627 155.034V163.098L18.8039 161.782Z" fill="url(#paint18_linear)"/>
<path opacity="0.86" d="M57.3137 179.061L58.9594 187.619C53.6931 190.088 45.9582 188.113 43.9833 187.619L45.629 179.061C41.1856 178.239 37.0713 176.593 33.2861 174.289L28.5135 181.201C26.2095 180.049 23.7409 178.239 21.7661 175.935L36.7421 150.097C36.7421 150.261 36.7422 150.261 36.9067 150.426C37.565 152.401 38.3879 154.211 39.7045 155.692C40.8565 157.009 42.173 158.161 43.6542 159.148C45.2999 160.136 47.1102 160.794 48.9205 161.123C49.7433 161.288 50.5662 161.288 51.3891 161.288C52.2119 161.288 53.0348 161.288 53.8577 161.123C55.8325 160.794 57.6428 160.136 59.124 159.148C60.6051 158.161 61.9217 157.009 63.0737 155.692L65.3777 176.428C63.0737 177.58 60.276 178.568 57.3137 179.061Z" fill="#C99AC7"/>
<path d="M58.9594 187.455V195.519C58.9594 195.519 53.5285 198.152 43.9833 195.519V187.455C43.9833 187.455 49.7433 189.265 58.9594 187.455Z" fill="#7C006F"/>
<path d="M86.7721 61.8859C87.2658 47.0744 78.8727 35.3897 78.8727 35.3897L73.7709 34.7314L72.4544 56.2904C67.3526 61.7213 61.0988 62.3796 61.0988 62.3796C61.0988 62.3796 55.1742 60.0756 51.5536 53.6573L55.668 32.592L50.5662 31.9337C50.5662 31.9337 39.5399 40.9852 36.413 55.6321C36.413 55.6321 35.5901 60.5693 35.7547 61.063C36.0838 63.8607 38.8816 68.4688 46.9456 72.9122L41.5147 141.21C36.9067 143.678 33.4507 148.286 32.7924 153.882C31.6404 162.933 38.0587 171.326 47.2748 172.478C56.3262 173.63 64.7195 167.212 65.8715 157.996C66.5298 152.401 64.3903 147.134 60.4405 143.514L72.1252 76.0391C80.8475 73.7351 84.7972 70.1145 85.9493 67.3168C86.2784 66.6585 86.7721 61.8859 86.7721 61.8859ZM53.0348 164.25L43.8188 163.098L40.1982 154.54L45.7936 147.134L55.0097 148.286L58.6302 156.844L53.0348 164.25Z" fill="url(#paint19_linear)"/>
<path d="M85.9492 67.1521C86.4429 52.3406 78.0497 40.656 78.0497 40.656L72.948 39.9977L71.6314 61.5567C66.5297 66.9875 60.2759 67.6458 60.2759 67.6458C60.2759 67.6458 54.3513 65.3418 50.7307 58.9235L54.845 37.8582L49.7433 37.2C49.7433 37.2 38.7169 46.2514 35.5901 60.8984C35.5901 60.8984 36.5775 72.9121 46.1227 78.1785L40.6918 146.476C36.0838 148.945 32.6278 153.553 31.9695 159.148C30.8175 168.2 37.2358 176.593 46.4518 177.745C55.5033 178.897 63.8965 172.478 65.0485 163.262C65.7068 157.667 63.5673 152.401 59.6176 148.78L71.3022 81.3053C82.164 78.6722 85.9492 67.1521 85.9492 67.1521ZM52.3764 169.681L43.1604 168.529L39.5398 159.971L45.1353 152.565L54.3513 153.717L57.9719 162.275L52.3764 169.681Z" fill="url(#paint20_linear)"/>
<path d="M50.7418 31.8347L50.064 37.2233L55.126 37.86L55.8037 32.4714L50.7418 31.8347Z" fill="#E5E2FF"/>
<path d="M73.8249 34.7861L73.1471 40.1746L78.209 40.8113L78.8868 35.4228L73.8249 34.7861Z" fill="#E5E2FF"/>
<path d="M43.9359 163.058L43.2581 168.447L52.4023 169.597L53.0801 164.208L43.9359 163.058Z" fill="#E5E2FF"/>
<path d="M49.9077 85.5844L45.2996 141.045C50.8951 144.83 56.6551 142.526 56.6551 142.526L66.5295 87.7238C58.63 82.2929 49.9077 85.5844 49.9077 85.5844ZM54.6802 141.704C53.6928 141.868 52.2117 142.033 50.7305 141.704C49.4139 141.539 48.2619 141.21 47.1099 140.716L51.0597 86.0781C52.7054 85.7489 55.3386 85.5844 58.4654 85.9135C60.7694 86.2426 62.9089 86.7364 64.8837 87.7238L54.6802 141.704Z" fill="url(#paint21_linear)"/>
<path d="M54.6803 141.704L56.4906 142.362C56.4906 142.362 51.2243 145.16 45.1351 140.881L47.11 140.716C47.2746 140.716 50.566 142.362 54.6803 141.704Z" fill="#E5E2FF"/>
<path opacity="0.62" d="M49.9078 85.5843L51.2244 86.2426C51.2244 86.2426 57.3136 84.7614 65.0484 87.8883L66.5296 87.7237C66.5296 87.7237 64.061 85.4197 58.4656 84.7614C52.8701 84.1031 49.9078 85.5843 49.9078 85.5843Z" fill="url(#paint22_linear)"/>
<path opacity="0.62" d="M46.4518 78.1785C46.4518 78.1785 58.1365 82.9511 71.4668 81.3054L69.9857 89.8632C69.9857 89.8632 68.8337 84.5968 59.9468 83.1157C49.5787 81.3054 45.9581 88.2174 45.9581 88.2174L46.4518 78.1785Z" fill="url(#paint23_linear)"/>
<path opacity="0.5" d="M69.9857 89.8633C68.8337 87.2301 66.6942 85.749 66.6942 85.749L55.6679 149.768L59.7822 148.78L69.9857 89.8633Z" fill="url(#paint24_linear)"/>
<path d="M69.9856 89.8631C69.9856 89.8631 63.5673 95.294 67.8462 102.535L69.9856 89.8631Z" fill="white"/>
<defs>
<linearGradient id="paint0_linear" x1="82.4583" y1="103.603" x2="129.384" y2="103.603" gradientUnits="userSpaceOnUse">
<stop stop-color="#3D2C97"/>
<stop offset="1" stop-color="#183683"/>
</linearGradient>
<linearGradient id="paint1_linear" x1="105.915" y1="121.588" x2="105.915" y2="76.0161" gradientUnits="userSpaceOnUse">
<stop stop-color="#7459F1"/>
<stop offset="1" stop-color="#60B3F7"/>
</linearGradient>
<linearGradient id="paint2_linear" x1="105.911" y1="120.454" x2="105.911" y2="76.9441" gradientUnits="userSpaceOnUse">
<stop stop-color="#744FD8"/>
<stop offset="1" stop-color="#3996F7"/>
</linearGradient>
<linearGradient id="paint3_linear" x1="114.893" y1="120.737" x2="123.85" y2="120.737" gradientUnits="userSpaceOnUse">
<stop stop-color="#3D2C97"/>
<stop offset="1" stop-color="#183683"/>
</linearGradient>
<linearGradient id="paint4_linear" x1="88.0091" y1="120.737" x2="96.9665" y2="120.737" gradientUnits="userSpaceOnUse">
<stop stop-color="#3D2C97"/>
<stop offset="1" stop-color="#183683"/>
</linearGradient>
<linearGradient id="paint5_linear" x1="123.415" y1="100.671" x2="129.382" y2="100.671" gradientUnits="userSpaceOnUse">
<stop stop-color="#3D2C97"/>
<stop offset="1" stop-color="#183683"/>
</linearGradient>
<linearGradient id="paint6_linear" x1="110.24" y1="79.584" x2="111.459" y2="79.584" gradientUnits="userSpaceOnUse">
<stop stop-color="#3D2C97"/>
<stop offset="1" stop-color="#183683"/>
</linearGradient>
<linearGradient id="paint7_linear" x1="100.39" y1="79.584" x2="101.603" y2="79.584" gradientUnits="userSpaceOnUse">
<stop stop-color="#3D2C97"/>
<stop offset="1" stop-color="#183683"/>
</linearGradient>
<linearGradient id="paint8_linear" x1="85.4557" y1="103.301" x2="85.4557" y2="98.0401" gradientUnits="userSpaceOnUse">
<stop stop-color="#3D2C97"/>
<stop offset="1" stop-color="#183683"/>
</linearGradient>
<linearGradient id="paint9_linear" x1="98.2703" y1="126.389" x2="98.2703" y2="115.241" gradientUnits="userSpaceOnUse">
<stop stop-color="#8B8BE0"/>
<stop offset="1" stop-color="#A177B7"/>
</linearGradient>
<linearGradient id="paint10_linear" x1="113.586" y1="125.901" x2="113.586" y2="115.241" gradientUnits="userSpaceOnUse">
<stop stop-color="#8B8BE0"/>
<stop offset="1" stop-color="#A177B7"/>
</linearGradient>
<linearGradient id="paint11_linear" x1="51.5124" y1="188.581" x2="51.5124" y2="106.572" gradientUnits="userSpaceOnUse">
<stop stop-color="#971A8F"/>
<stop offset="0.4678" stop-color="#EF22AC"/>
<stop offset="1" stop-color="#FE4CCE"/>
</linearGradient>
<linearGradient id="paint12_linear" x1="51.5136" y1="186.725" x2="51.5136" y2="108.428" gradientUnits="userSpaceOnUse">
<stop stop-color="#B31A8F"/>
<stop offset="1" stop-color="#FE117E"/>
</linearGradient>
<linearGradient id="paint13_linear" x1="44.5392" y1="113.107" x2="44.5392" y2="107.667" gradientUnits="userSpaceOnUse">
<stop stop-color="#3D2CB0"/>
<stop offset="1" stop-color="#0355C7"/>
</linearGradient>
<linearGradient id="paint14_linear" x1="58.4722" y1="113.27" x2="58.4722" y2="107.667" gradientUnits="userSpaceOnUse">
<stop stop-color="#3D2CB0"/>
<stop offset="1" stop-color="#0355C7"/>
</linearGradient>
<linearGradient id="paint15_linear" x1="72.0661" y1="189.201" x2="72.0661" y2="174.155" gradientUnits="userSpaceOnUse">
<stop stop-color="#8B8BE0"/>
<stop offset="1" stop-color="#A177B7"/>
</linearGradient>
<linearGradient id="paint16_linear" x1="87.7665" y1="163.169" x2="87.7665" y2="153.691" gradientUnits="userSpaceOnUse">
<stop stop-color="#8B8BE0"/>
<stop offset="1" stop-color="#A177B7"/>
</linearGradient>
<linearGradient id="paint17_linear" x1="30.9441" y1="189.201" x2="30.9441" y2="174.137" gradientUnits="userSpaceOnUse">
<stop stop-color="#8B8BE0"/>
<stop offset="1" stop-color="#A177B7"/>
</linearGradient>
<linearGradient id="paint18_linear" x1="15.2348" y1="163.169" x2="15.2348" y2="153.691" gradientUnits="userSpaceOnUse">
<stop stop-color="#8B8BE0"/>
<stop offset="1" stop-color="#A177B7"/>
</linearGradient>
<linearGradient id="paint19_linear" x1="47.4016" y1="172.182" x2="64.8328" y2="33.5986" gradientUnits="userSpaceOnUse">
<stop stop-color="#DBCCFF"/>
<stop offset="1" stop-color="#D1BBFF"/>
</linearGradient>
<linearGradient id="paint20_linear" x1="46.7134" y1="177.588" x2="64.1445" y2="39.0042" gradientUnits="userSpaceOnUse">
<stop stop-color="#B5A6E7"/>
<stop offset="1" stop-color="#7760BF"/>
</linearGradient>
<linearGradient id="paint21_linear" x1="51.0474" y1="143.134" x2="58.395" y2="84.7187" gradientUnits="userSpaceOnUse">
<stop stop-color="#B5A6E7"/>
<stop offset="1" stop-color="#7760BF"/>
</linearGradient>
<linearGradient id="paint22_linear" x1="49.9582" y1="84.8452" x2="66.5379" y2="86.9306" gradientUnits="userSpaceOnUse">
<stop stop-color="#8B8BE0"/>
<stop offset="1" stop-color="#A177B7"/>
</linearGradient>
<linearGradient id="paint23_linear" x1="57.7638" y1="89.7371" x2="59.0262" y2="79.7007" gradientUnits="userSpaceOnUse">
<stop stop-color="white"/>
<stop offset="1" stop-color="#A177B7"/>
</linearGradient>
<linearGradient id="paint24_linear" x1="59.0673" y1="150.2" x2="67.1674" y2="85.8022" gradientUnits="userSpaceOnUse">
<stop/>
<stop offset="1" stop-color="white"/>
</linearGradient>
</defs>
</svg>
