<svg width="187" height="164" viewBox="0 0 187 164" fill="none" xmlns="http://www.w3.org/2000/svg">
<path d="M167.187 109.751C167.187 109.751 167.187 120.408 157.084 120.408H36.5375C32.5239 119.993 29.7559 115.149 29.7559 111.827C29.7559 110.581 30.4479 96.0494 31.2783 78.6111C32.6623 51.2079 34.3231 16.7464 34.3231 16.7464C34.3231 16.7464 35.0151 12.0408 42.4887 11.4872L101.17 12.0408L157.084 12.5944C157.084 12.5944 162.481 12.8712 164.696 18.4072L167.187 109.751Z" fill="url(#paint0_linear)"/>
<path d="M35.0151 108.228C35.0151 108.228 120.131 113.072 160.544 108.782C160.544 108.782 164.28 62.5565 159.16 19.6527C159.16 19.6527 95.6341 15.2239 40.2743 18.2687C40.2743 18.1303 34.8767 57.9894 35.0151 108.228Z" fill="url(#paint1_linear)"/>
<path d="M30.5862 92.1743H21.7287V101.309H30.171L30.5862 92.1743Z" fill="url(#paint2_linear)"/>
<path d="M145.458 110.581L149.887 120.408H157.084C157.084 120.408 165.941 120.961 167.187 109.751V91.3438L161.512 92.0357L160.544 108.644L145.458 110.581Z" fill="#361488"/>
<path d="M74.7358 137.292C54.1143 137.292 38.1983 134.386 30.5863 132.587C20.3447 130.234 14.8088 128.158 13.0096 125.944C7.88877 125.113 3.87517 123.729 1.79918 121.792C0.553582 120.684 0 119.3 0 117.778C0 105.737 21.8671 96.6029 22.6975 96.1877L23.1127 97.1565C22.8359 97.2949 0.968793 106.429 0.968793 117.778C0.968793 119.024 1.38398 120.131 2.49118 120.961C4.29037 122.76 7.75037 124.006 12.3176 124.698C12.3176 124.56 12.3176 124.56 12.3176 124.421C12.0408 122.899 13.1479 121.515 15.6391 119.854C18.8223 117.778 23.1127 117.363 27.2647 118.608C31.1399 119.854 34.3231 122.484 36.5375 125.944C44.4263 125.944 53.007 125.528 61.4494 125.252C79.1646 124.56 95.9109 124.006 105.599 125.805C109.197 126.497 110.858 127.189 110.858 128.296C110.858 129.127 110.028 130.234 103.523 131.48C86.4997 134.94 40.4127 137.292 37.2295 129.404C36.9527 128.573 36.5375 127.743 35.9839 126.912C28.0951 126.912 20.7599 126.774 14.8088 125.944C17.2999 127.604 22.5591 129.404 30.8631 131.341C43.1807 134.248 76.3966 139.922 117.224 131.895C138.4 127.743 140.752 124.421 140.891 123.176C141.029 121.93 138.815 120.961 138.123 120.684L138.4 119.716C138.538 119.716 141.998 120.961 141.86 123.176C141.721 126.497 133.694 129.68 117.363 132.864C101.724 136.185 87.3302 137.292 74.7358 137.292ZM37.0911 127.189C37.5063 127.881 37.7831 128.573 38.0599 129.265C39.8591 133.832 62.1414 134.663 83.0398 133.14C100.755 131.895 109.474 129.542 109.751 128.435C109.751 128.435 109.474 127.743 105.322 127.051C95.6341 125.252 79.0262 125.944 61.311 126.497C53.1454 126.774 44.8415 127.189 37.0911 127.189ZM13.4248 124.975C19.3759 125.944 26.8495 126.22 35.1535 126.082C33.0775 123.037 30.1711 120.823 26.7111 119.716C22.9743 118.47 18.9607 118.885 15.916 120.823C13.84 122.207 12.8712 123.314 13.0096 124.283C13.2864 124.56 13.2864 124.836 13.4248 124.975Z" fill="url(#paint3_linear)"/>
<path d="M105.461 13.0096L102.001 16.0544C102.001 16.0544 51.4848 15.6392 39.444 17.1616C39.444 17.1616 34.1848 53.9759 34.1848 76.8119L31.2784 78.6111C32.6624 51.2079 34.3232 16.7464 34.3232 16.7464C34.3232 16.7464 35.0152 12.0408 42.4888 11.4872L101.17 12.0408L105.461 13.0096Z" fill="url(#paint4_linear)"/>
<path d="M35.0151 108.228L33.9079 109.474C33.9079 109.474 115.148 113.903 161.928 109.474L160.544 108.92C160.544 108.782 102.277 112.104 35.0151 108.228Z" fill="url(#paint5_linear)"/>
<path d="M64.2173 110.443L75.1508 118.609H124.836L117.363 111.55C117.363 111.55 72.9365 111.135 64.2173 110.443Z" fill="url(#paint6_linear)"/>
<path d="M21.7287 92.1741L28.3719 90.6517H30.5862V92.1741H21.7287Z" fill="url(#paint7_linear)"/>
<path d="M43.3192 27.9567C43.3192 27.9567 40.9664 41.935 40.9664 52.8686H78.4727C78.4727 52.8686 78.3343 34.4614 78.4727 27.9567H43.3192Z" fill="#9275C2"/>
<path d="M55.0833 40.8278H48.9938L49.2706 34.5999H55.3602L55.0833 40.8278Z" fill="#6EFFE8"/>
<path d="M62.9721 40.8278H56.8825L57.0209 34.5999H63.1105L62.9721 40.8278Z" fill="#839FFF"/>
<path d="M70.861 40.8278H64.633L64.7714 34.5999H70.861V40.8278Z" fill="#6877FF"/>
<path d="M54.8065 49.4085H48.5785L48.8553 43.1805H55.0833L54.8065 49.4085Z" fill="#FF1D9C"/>
<path d="M62.8336 49.4085H56.4672L56.744 43.1805H62.972L62.8336 49.4085Z" fill="#981382"/>
<path d="M70.8608 49.4085H64.4944L64.6329 43.1805H70.8608V49.4085Z" fill="#140047"/>
<path d="M42.6273 32.2471H78.3344L78.4728 27.9567H43.3193L42.6273 32.2471Z" fill="url(#paint8_linear)"/>
<path d="M43.4578 31.5551L43.873 28.6487H46.7794L46.5026 31.5551H43.4578Z" fill="white"/>
<path d="M95.7724 79.58L96.7412 70.8608H106.706L107.398 79.1648L104.076 81.5176H99.094L95.7724 79.58Z" fill="url(#paint9_linear)"/>
<path d="M101.585 40.2744C86.4996 40.2744 87.0532 56.6056 92.4508 62.6952C96.1876 66.9856 94.6652 68.6463 95.0804 69.4767C95.4956 70.3071 96.8796 70.8607 96.8796 70.8607H101.724H106.568C106.568 70.8607 107.952 70.3071 108.367 69.4767C108.782 68.6463 107.121 66.9856 110.996 62.6952C116.256 56.4672 116.948 40.2744 101.585 40.2744Z" fill="url(#paint10_linear)"/>
<path d="M99.0939 81.5175L100.478 82.3479H102.692L104.076 81.5175H99.0939Z" fill="url(#paint11_linear)"/>
<path d="M91.3436 49.6857H94.3884C94.3884 49.6857 94.942 45.8105 96.7412 43.8729L94.1116 43.1809C93.9732 43.0425 91.0668 45.3953 91.3436 49.6857Z" fill="white"/>
<path d="M108.505 60.2038L110.166 61.1726C110.166 61.1726 113.487 57.5742 113.349 52.5918H110.996C110.996 52.4534 111.411 56.8822 108.505 60.2038Z" fill="white"/>
<path d="M94.9419 69.4767C94.9419 69.4767 104.215 70.7223 107.951 69.4767C107.951 69.4767 107.536 70.5839 106.567 70.8607L106.844 75.2895C106.844 75.2895 102.554 72.6599 96.4643 72.3831L96.6027 70.8607C96.7411 70.8607 95.3571 70.1687 94.9419 69.4767Z" fill="url(#paint12_linear)"/>
<path d="M33.4928 32.2472H31.5552V37.368L33.216 37.6448L33.4928 32.2472Z" fill="url(#paint13_linear)"/>
<path d="M33.0775 40.8279L31.5551 41.2431L31.1399 45.1182L32.9391 45.6719L33.0775 40.8279Z" fill="url(#paint14_linear)"/>
<path d="M170.647 15.7775L179.92 9.27271L183.795 11.4871L173.553 21.0367L170.647 15.7775Z" fill="#FF1D9C"/>
<path d="M40.8279 4.42878L50.239 0L52.7302 4.56719L43.0423 6.91998L40.8279 4.42878Z" fill="#4F31E0"/>
<path d="M136.047 136.185L149.333 135.908L152.24 140.337L137.016 139.784L136.047 136.185Z" fill="#6877FF"/>
<path d="M132.033 44.4263C132.033 44.4263 128.435 56.7438 129.127 61.8646C129.127 61.8646 129.542 67.2622 135.355 67.539L141.583 52.0382L132.033 44.4263Z" fill="url(#paint15_linear)"/>
<path d="M105.461 55.4982C105.461 55.4982 103.246 57.159 103.385 57.851C103.523 58.543 105.876 59.6502 105.876 59.6502L105.461 55.4982Z" fill="url(#paint16_linear)"/>
<path d="M181.442 121.515L179.089 162.066C179.089 162.066 146.011 117.778 136.047 109.889C135.216 109.197 134.386 108.505 133.555 107.952C125.39 101.724 121.653 101.032 120.408 100.34C119.024 99.5093 116.394 95.6341 116.117 94.3885C115.84 93.1429 115.84 74.7357 114.733 70.7221C113.626 66.5701 108.782 62.4182 108.367 60.8958C107.952 59.3734 109.751 56.8822 111.55 56.6054C113.349 56.3286 122.622 59.0966 125.528 68.3694C125.528 68.3694 124.421 70.4453 123.729 72.9365C123.037 75.4277 124.006 79.5797 124.006 79.5797C124.006 79.5797 127.881 80.2717 129.542 79.8565C131.203 79.4413 134.386 70.1686 134.109 62.9718C133.971 55.775 126.912 42.0734 126.912 42.0734L121.792 29.8943C121.792 29.8943 127.743 26.9879 131.064 27.6799C131.064 27.6799 136.185 35.9839 139.23 37.783C139.23 37.783 146.011 38.8903 149.887 40.1359C149.887 40.1359 154.592 40.8278 158.467 44.011C158.467 44.011 162.758 44.2878 164.834 45.9486C166.771 47.471 175.629 58.543 176.044 61.5878V61.7262C176.321 65.3246 169.539 85.8077 156.115 99.2325C156.115 99.2325 159.298 102.277 164.003 106.568C169.124 111.135 175.352 116.671 181.442 121.515Z" fill="url(#paint17_linear)"/>
<path d="M167.187 50.2391C166.633 50.5159 165.941 50.7927 165.388 50.7927C165.388 50.7927 145.735 53.8375 131.48 56.6055C123.868 57.9895 117.778 59.2351 116.809 59.7887C115.841 60.3423 115.287 60.8959 114.872 61.5879C113.903 62.9719 113.903 64.2175 113.903 64.2175C113.903 64.2175 109.613 63.8023 106.153 59.6503C106.153 59.6503 104.492 57.9895 105.322 55.9135C105.322 55.9135 106.706 52.3151 110.443 49.9623C111.273 49.4087 112.242 48.9935 113.349 48.5783C113.349 48.5783 113.349 48.8552 113.488 49.132C113.626 49.824 114.041 50.9311 115.01 50.9311C115.702 50.9311 125.113 47.4711 135.909 43.0424C146.565 38.752 158.606 33.4928 165.664 29.6176C165.664 29.6176 172.308 29.756 173.553 37.2296C174.66 43.4576 170.924 48.3016 167.187 50.2391Z" fill="url(#paint18_linear)"/>
<path opacity="0.86" d="M131.341 56.4669C123.729 57.8509 117.64 59.0965 116.671 59.6501C115.702 60.2037 115.148 60.7573 114.733 61.4493L110.028 62.6949C107.536 57.5741 110.443 49.8237 110.443 49.8237L113.488 48.9933C113.626 49.6853 114.041 50.7925 115.01 50.7925C115.702 50.7925 125.113 47.3325 135.908 42.9037C130.649 48.4397 131.341 56.4669 131.341 56.4669Z" fill="#9A7AB3"/>
<path d="M110.304 49.8239C110.304 49.8239 111.688 54.391 119.992 50.5159C119.992 50.5159 131.064 40.6895 133.279 31.0015L131.203 27.9567C131.203 27.9567 125.113 26.9879 121.93 30.1711C121.93 30.1711 120.684 37.6447 117.501 42.7655C116.394 44.4263 110.304 48.163 110.304 48.163V49.8239Z" fill="url(#paint19_linear)"/>
<path d="M108.367 60.8958C108.367 60.8958 114.318 68.5077 114.733 70.7221C115.148 72.9365 115.979 93.8349 115.979 93.8349C115.979 93.8349 115.564 85.5309 124.006 79.7181C124.006 79.7181 123.591 76.8117 124.006 73.9053C124.421 70.8605 125.252 69.7533 125.528 68.5077C125.805 67.2621 122.068 57.0206 112.934 55.775C112.934 55.775 111.273 56.3286 110.166 57.4358C108.782 58.543 108.367 60.8958 108.367 60.8958Z" fill="url(#paint20_linear)"/>
<path d="M182.964 156.391C181.857 159.159 180.058 161.235 178.259 163.035L168.017 147.672C168.017 147.672 163.588 150.163 162.343 149.887C159.021 149.195 159.021 142.136 159.021 142.136C159.021 142.136 158.191 133.694 160.405 125.113C161.928 119.162 164.972 113.072 171.062 109.889C171.062 109.889 175.075 108.505 177.982 115.425L186.424 121.1C186.286 121.1 188.5 142.828 182.964 156.391Z" fill="url(#paint21_linear)"/>
<path opacity="0.5" d="M182.964 156.392C181.857 159.16 180.473 161.512 178.536 163.312L167.879 147.672C167.879 147.672 163.45 150.164 162.204 149.887C158.883 149.195 158.883 142.136 158.883 142.136C158.883 142.136 158.052 133.694 160.267 125.113C160.128 126.221 157.914 140.06 160.959 144.628C164.142 149.472 169.401 118.747 177.844 115.425C177.844 115.425 169.263 129.542 169.955 139.368C170.785 149.195 182.964 156.392 182.964 156.392Z" fill="url(#paint22_linear)"/>
<path d="M156.391 99.5091C156.391 99.5091 159.575 102.554 164.28 106.844C164.28 106.844 153.07 104.076 143.659 105.184C136.739 106.014 134.386 107.398 133.556 108.09C125.39 101.862 121.653 101.17 120.408 100.478L131.064 93.8348C131.064 93.8348 141.444 70.9988 142.828 59.2349L140.199 54.9445L148.088 56.0517C148.088 56.0517 153.347 57.5741 162.204 57.4357C162.204 57.4357 166.771 59.7885 170.785 59.3733L176.183 61.8644V62.0028C176.598 65.4628 169.816 85.946 156.391 99.5091Z" fill="url(#paint23_linear)"/>
<path d="M124.006 79.7183C124.006 79.7183 126.636 82.2095 128.988 82.6247C128.988 82.6247 131.064 80.1335 132.31 75.2895C132.31 75.2895 131.064 78.7495 129.542 79.4415C129.542 79.3031 127.051 80.5486 124.006 79.7183Z" fill="url(#paint24_linear)"/>
<path d="M108.367 60.8958C108.367 60.8958 113.211 67.1238 114.595 67.1238C116.532 67.1238 117.64 64.2173 116.256 60.3422C115.287 57.5742 112.38 56.467 112.38 56.467C112.38 56.467 110.028 56.8822 108.367 60.8958Z" fill="url(#paint25_linear)"/>
<path d="M109.059 61.7261C109.059 61.7261 110.581 58.543 113.488 57.0206L112.519 56.467C112.519 56.467 110.028 57.159 108.367 60.8958L109.059 61.7261Z" fill="url(#paint26_linear)"/>
<path d="M114.872 58.1277C114.872 58.1277 117.363 60.2037 116.809 64.2173C116.256 68.2308 113.764 66.9852 112.796 66.0164C112.796 66.0164 113.903 67.262 115.01 67.4004C116.117 67.5388 117.501 66.1548 117.501 63.3869C117.501 60.6189 114.872 58.1277 114.872 58.1277Z" fill="url(#paint27_linear)"/>
<path d="M167.187 50.239L166.495 50.5158C166.495 50.5158 161.512 46.779 161.512 39.0286C161.512 32.1086 165.664 29.4791 165.664 29.4791C165.664 29.4791 172.307 29.6175 173.553 37.091C174.66 43.4574 170.923 48.3014 167.187 50.239Z" fill="url(#paint28_linear)"/>
<path d="M170.37 40.4125L170.232 40.5509C170.232 40.5509 168.709 39.5821 168.709 37.7829C168.709 36.1221 170.093 35.5685 170.093 35.5685C170.093 35.5685 171.616 35.5685 172.031 37.3677C172.169 38.8901 171.339 39.9973 170.37 40.4125Z" fill="url(#paint29_linear)"/>
<path opacity="0.86" d="M169.816 39.5822C169.678 39.5822 168.986 39.1671 168.986 38.0599C168.986 37.0911 169.678 36.399 169.678 36.399C169.678 36.399 170.647 36.399 170.924 37.5062C170.924 38.6134 170.37 39.3054 169.816 39.5822Z" fill="#9A7AD9"/>
<path d="M127.189 42.4886L124.006 35.0151L124.975 45.1182C124.975 45.2566 126.082 43.8726 127.189 42.4886Z" fill="url(#paint30_linear)"/>
<path d="M123.037 49.1317L151.133 38.0598L150.164 40.2741L123.037 50.2389V49.1317Z" fill="url(#paint31_linear)"/>
<path d="M152.101 40.1357L153.208 36.9525L158.883 34.1845L157.499 38.6133L152.101 40.1357Z" fill="white"/>
<path d="M170.923 42.2117C170.923 42.2117 170.508 44.0109 169.124 45.6717L170.231 46.7789C170.231 46.7789 172.169 45.2565 172.584 42.9037L170.923 42.2117Z" fill="white"/>
<path d="M176.736 116.532C175.767 111.273 171.062 110.304 170.923 110.304L171.062 109.612C171.062 109.612 176.321 110.719 177.428 116.394L176.736 116.532Z" fill="white"/>
<path d="M174.522 119.715C171.892 114.871 166.633 113.487 166.633 113.487L166.772 112.934C167.048 112.934 172.308 114.456 175.076 119.439L174.522 119.715Z" fill="white"/>
<path d="M172.584 123.314C168.571 119.992 162.758 118.885 162.758 118.885L162.896 118.193C163.173 118.193 168.848 119.3 173 122.76L172.584 123.314Z" fill="white"/>
<path d="M170.785 129.265C166.08 125.805 160.682 124.421 160.682 124.283L160.82 123.729C160.82 123.729 166.356 125.113 171.2 128.711L170.785 129.265Z" fill="white"/>
<path d="M169.401 134.663C162.758 131.479 159.298 131.895 159.298 131.895L159.159 131.203C159.298 131.203 162.758 130.787 169.678 133.971L169.401 134.663Z" fill="white"/>
<path d="M164.972 140.475C161.512 140.475 159.021 139.783 158.883 139.783L159.021 139.23C159.021 139.23 163.45 140.337 168.571 139.645L168.709 140.337C167.325 140.337 166.08 140.475 164.972 140.475Z" fill="white"/>
<path d="M159.99 147.672L159.852 146.98C159.852 146.98 163.311 147.119 167.74 144.351L168.017 144.904C164.003 147.534 160.682 147.672 159.99 147.672Z" fill="white"/>
<path d="M168.294 147.672H167.602C167.602 147.395 167.879 124.975 177.705 115.148L178.12 115.564C168.571 125.252 168.294 147.534 168.294 147.672Z" fill="white"/>
<path d="M121.93 30.171C121.93 30.171 126.22 37.2294 129.127 39.9974C133.279 44.011 138.261 40.2742 138.261 40.2742L139.23 38.6134C139.23 38.6134 134.248 33.2158 131.341 27.9566C131.203 27.9566 125.529 26.8494 121.93 30.171Z" fill="#E1D197"/>
<defs>
<linearGradient id="paint0_linear" x1="98.4598" y1="120.41" x2="98.4598" y2="11.4969" gradientUnits="userSpaceOnUse">
<stop stop-color="#1C257B"/>
<stop offset="1" stop-color="#482C83"/>
</linearGradient>
<linearGradient id="paint1_linear" x1="98.4363" y1="110.494" x2="98.4363" y2="17.1281" gradientUnits="userSpaceOnUse">
<stop stop-color="#FDFDFF"/>
<stop offset="1" stop-color="#DBCAFF"/>
</linearGradient>
<linearGradient id="paint2_linear" x1="26.1826" y1="101.305" x2="26.1826" y2="92.1091" gradientUnits="userSpaceOnUse">
<stop stop-color="#1C257B"/>
<stop offset="1" stop-color="#482C83"/>
</linearGradient>
<linearGradient id="paint3_linear" x1="70.8379" y1="137.297" x2="70.8379" y2="96.2163" gradientUnits="userSpaceOnUse">
<stop stop-color="#1C257B"/>
<stop offset="1" stop-color="#482C83"/>
</linearGradient>
<linearGradient id="paint4_linear" x1="68.3639" y1="78.7144" x2="68.3639" y2="11.4969" gradientUnits="userSpaceOnUse">
<stop stop-color="#B9ACF4"/>
<stop offset="1" stop-color="#E1D1F5"/>
</linearGradient>
<linearGradient id="paint5_linear" x1="97.8525" y1="111.376" x2="97.8525" y2="108.202" gradientUnits="userSpaceOnUse">
<stop stop-color="#744FD8"/>
<stop offset="1" stop-color="#3996F7"/>
</linearGradient>
<linearGradient id="paint6_linear" x1="94.5579" y1="118.658" x2="94.5579" y2="110.494" gradientUnits="userSpaceOnUse">
<stop stop-color="#B9ACF4"/>
<stop offset="1" stop-color="#E1D1F5"/>
</linearGradient>
<linearGradient id="paint7_linear" x1="26.1826" y1="92.1089" x2="26.1826" y2="90.6425" gradientUnits="userSpaceOnUse">
<stop stop-color="#744FD8"/>
<stop offset="1" stop-color="#3996F7"/>
</linearGradient>
<linearGradient id="paint8_linear" x1="60.5121" y1="32.2613" x2="60.5121" y2="27.9421" gradientUnits="userSpaceOnUse">
<stop stop-color="#B9ACF4"/>
<stop offset="1" stop-color="#E1D1F5"/>
</linearGradient>
<linearGradient id="paint9_linear" x1="101.543" y1="81.483" x2="101.543" y2="70.917" gradientUnits="userSpaceOnUse">
<stop stop-color="#EFEAFF"/>
<stop offset="1" stop-color="#D1BBFF"/>
</linearGradient>
<linearGradient id="paint10_linear" x1="101.636" y1="70.9169" x2="101.636" y2="40.3251" gradientUnits="userSpaceOnUse">
<stop stop-color="#CF95FF"/>
<stop offset="1" stop-color="#9552FF"/>
</linearGradient>
<linearGradient id="paint11_linear" x1="101.589" y1="82.3928" x2="101.589" y2="81.4829" gradientUnits="userSpaceOnUse">
<stop stop-color="#1C257B"/>
<stop offset="1" stop-color="#482C83"/>
</linearGradient>
<linearGradient id="paint12_linear" x1="95.0098" y1="72.4135" x2="108.076" y2="72.4135" gradientUnits="userSpaceOnUse">
<stop stop-color="#8B8BE0"/>
<stop offset="1" stop-color="white"/>
</linearGradient>
<linearGradient id="paint13_linear" x1="32.5582" y1="37.6907" x2="32.5582" y2="32.2614" gradientUnits="userSpaceOnUse">
<stop stop-color="#1C257B"/>
<stop offset="1" stop-color="#482C83"/>
</linearGradient>
<linearGradient id="paint14_linear" x1="32.1534" y1="45.6319" x2="32.1534" y2="40.8223" gradientUnits="userSpaceOnUse">
<stop stop-color="#1C257B"/>
<stop offset="1" stop-color="#482C83"/>
</linearGradient>
<linearGradient id="paint15_linear" x1="129.005" y1="55.9939" x2="141.415" y2="55.9939" gradientUnits="userSpaceOnUse">
<stop stop-color="#CF6074"/>
<stop offset="1" stop-color="#FF817F"/>
</linearGradient>
<linearGradient id="paint16_linear" x1="104.713" y1="59.6346" x2="104.713" y2="55.4701" gradientUnits="userSpaceOnUse">
<stop stop-color="#1C257B"/>
<stop offset="1" stop-color="#482C83"/>
</linearGradient>
<linearGradient id="paint17_linear" x1="144.888" y1="162.065" x2="144.888" y2="27.8127" gradientUnits="userSpaceOnUse">
<stop offset="0.0159875" stop-color="#FFC2A9"/>
<stop offset="1" stop-color="#FF9595"/>
</linearGradient>
<linearGradient id="paint18_linear" x1="139.311" y1="64.1638" x2="139.311" y2="29.4355" gradientUnits="userSpaceOnUse">
<stop stop-color="#1C257B"/>
<stop offset="1" stop-color="#482C83"/>
</linearGradient>
<linearGradient id="paint19_linear" x1="121.753" y1="52.1032" x2="121.753" y2="27.7599" gradientUnits="userSpaceOnUse">
<stop offset="0.0159875" stop-color="#FF9A93"/>
<stop offset="1" stop-color="#FF9595"/>
</linearGradient>
<linearGradient id="paint20_linear" x1="116.963" y1="93.7987" x2="116.963" y2="55.6809" gradientUnits="userSpaceOnUse">
<stop offset="0.0159875" stop-color="#FF9A93"/>
<stop offset="1" stop-color="#FF9595"/>
</linearGradient>
<linearGradient id="paint21_linear" x1="172.812" y1="163.143" x2="172.812" y2="109.819" gradientUnits="userSpaceOnUse">
<stop stop-color="#744FD8"/>
<stop offset="1" stop-color="#3996F7"/>
</linearGradient>
<linearGradient id="paint22_linear" x1="170.911" y1="163.377" x2="170.911" y2="115.466" gradientUnits="userSpaceOnUse">
<stop stop-color="#8B8BE0"/>
<stop offset="1" stop-color="white"/>
</linearGradient>
<linearGradient id="paint23_linear" x1="148.359" y1="108.039" x2="148.359" y2="54.9406" gradientUnits="userSpaceOnUse">
<stop offset="0.0159875" stop-color="#FF997C"/>
<stop offset="1" stop-color="#FF898E"/>
</linearGradient>
<linearGradient id="paint24_linear" x1="124.02" y1="78.8274" x2="132.302" y2="78.8274" gradientUnits="userSpaceOnUse">
<stop stop-color="#CF6074"/>
<stop offset="1" stop-color="#FF817F"/>
</linearGradient>
<linearGradient id="paint25_linear" x1="108.416" y1="61.7958" x2="116.947" y2="61.7958" gradientUnits="userSpaceOnUse">
<stop stop-color="#B9ACF4"/>
<stop offset="1" stop-color="#E1D1F5"/>
</linearGradient>
<linearGradient id="paint26_linear" x1="110.98" y1="61.7183" x2="110.98" y2="56.5243" gradientUnits="userSpaceOnUse">
<stop stop-color="#B9ACF4"/>
<stop offset="1" stop-color="#E1D1F5"/>
</linearGradient>
<linearGradient id="paint27_linear" x1="115.185" y1="67.2966" x2="115.185" y2="58.0905" gradientUnits="userSpaceOnUse">
<stop stop-color="#CF6074"/>
<stop offset="1" stop-color="#FF817F"/>
</linearGradient>
<linearGradient id="paint28_linear" x1="167.58" y1="50.5128" x2="167.58" y2="29.4353" gradientUnits="userSpaceOnUse">
<stop stop-color="#B9ACF4"/>
<stop offset="1" stop-color="#E1D1F5"/>
</linearGradient>
<linearGradient id="paint29_linear" x1="170.344" y1="40.5398" x2="170.344" y2="35.5366" gradientUnits="userSpaceOnUse">
<stop stop-color="#FDFDFF"/>
<stop offset="1" stop-color="#DBCAFF"/>
</linearGradient>
<linearGradient id="paint30_linear" x1="125.626" y1="45.2366" x2="125.626" y2="35.0674" gradientUnits="userSpaceOnUse">
<stop stop-color="#CF6074"/>
<stop offset="1" stop-color="#FF817F"/>
</linearGradient>
<linearGradient id="paint31_linear" x1="137.12" y1="50.2512" x2="137.12" y2="38.0383" gradientUnits="userSpaceOnUse">
<stop stop-color="#B9ACF4"/>
<stop offset="1" stop-color="#E1D1F5"/>
</linearGradient>
</defs>
</svg>
