<svg width="33" height="33" viewBox="0 0 33 33" fill="none" xmlns="http://www.w3.org/2000/svg">
<path d="M27.33 0H5C2.23858 0 0 2.23857 0 5V27.33C0 30.0914 2.23857 32.33 5 32.33H27.33C30.0914 32.33 32.33 30.0914 32.33 27.33V5C32.33 2.23858 30.0914 0 27.33 0Z" fill="#61A8DE"/>
<path d="M24.5881 8.07027L4.46733 15.6851C3.81562 15.9318 3.8551 16.84 4.52596 17.0324L9.63887 18.4987L11.547 24.3789C11.7463 24.9931 12.5478 25.1793 13.0117 24.7192L15.6552 22.0979L20.842 25.7953C21.4768 26.2478 22.3808 25.9117 22.5419 25.1632L25.9772 9.21269C26.1454 8.43139 25.3539 7.78044 24.5881 8.07027ZM22.0655 11.6101L12.7195 19.6365C12.6264 19.7165 12.5671 19.8272 12.5532 19.9473L12.1934 23.0538C12.1816 23.1551 12.0356 23.1685 12.0045 23.0711L10.524 18.4383C10.4562 18.2262 10.5446 17.9964 10.7389 17.8793L21.7756 11.2316C22.0294 11.0786 22.2892 11.418 22.0655 11.6101Z" fill="white"/>
</svg>
