<svg width="33" height="33" viewBox="0 0 33 33" fill="none" xmlns="http://www.w3.org/2000/svg">
<path d="M27.33 0H5C2.23858 0 0 2.23857 0 5V27.33C0 30.0914 2.23857 32.33 5 32.33H27.33C30.0914 32.33 32.33 30.0914 32.33 27.33V5C32.33 2.23858 30.0914 0 27.33 0Z" fill="#8E24AA"/>
<path d="M27.748 18.6795C28.5509 11.9215 27.3623 7.65503 25.2184 5.72529L25.2195 5.72417C21.7592 2.42871 10.0732 1.94095 5.93339 5.87218C4.0743 7.79519 3.41947 10.6175 3.34771 14.1114C3.27594 17.6065 3.19073 24.1537 9.29165 25.9298H9.29726L9.29165 28.6422C9.29165 28.6422 9.25016 29.741 9.95209 29.9619C10.7549 30.2221 11.1182 29.7119 13.6153 26.7293C17.791 27.0914 20.9979 26.2617 21.3623 26.1406C22.2055 25.858 26.9766 25.2267 27.748 18.6795ZM14.0268 24.8208C14.0268 24.8208 11.384 28.1163 10.5621 28.9718C10.293 29.2499 9.99806 29.2241 10.0025 28.6724C10.0025 28.3103 10.0227 24.1694 10.0227 24.1694C4.85023 22.687 5.15522 17.112 5.21129 14.1955C5.26735 11.2779 5.80108 8.88845 7.37537 7.2794C11.0072 3.87405 21.2524 4.6354 23.8628 7.08878C27.054 9.91779 25.9181 17.9103 25.9248 18.1828C25.2689 23.648 21.4027 23.9944 20.6918 24.231C20.3879 24.3319 17.5679 25.0574 14.0268 24.8208V24.8208Z" fill="white"/>
<path d="M15.489 7.91992C15.0573 7.91992 15.0573 8.59269 15.489 8.5983C18.8383 8.62409 21.5966 10.9586 21.6269 15.2408C21.6269 15.6927 22.2885 15.6871 22.2829 15.2352H22.2818C22.2459 10.6211 19.2341 7.94571 15.489 7.91992V7.91992Z" fill="white"/>
<path d="M19.8945 14.5307C19.8844 14.977 20.5449 14.9983 20.5505 14.5464C20.6054 12.0022 19.0367 9.90652 16.0889 9.68563C15.6572 9.65423 15.6123 10.3326 16.0429 10.364C18.5994 10.558 19.9461 12.3027 19.8945 14.5307V14.5307Z" fill="white"/>
<path d="M19.1882 17.4247C18.6342 17.104 18.0702 17.3036 17.837 17.6187L17.3492 18.25C17.1014 18.5707 16.6384 18.5281 16.6384 18.5281C13.2588 17.6344 12.355 14.0979 12.355 14.0979C12.355 14.0979 12.3135 13.6191 12.623 13.3623L13.233 12.8577C13.538 12.6155 13.7309 12.0325 13.4203 11.4595C12.5905 9.96032 12.0332 9.44341 11.7495 9.04647C11.4513 8.67308 11.0028 8.58899 10.5363 8.84128H10.5262C9.5563 9.40865 8.49444 10.4705 8.83419 11.5638C9.4139 12.7164 10.4791 16.3909 13.8744 19.1672C15.47 20.4802 17.9951 21.8258 19.0671 22.1364L19.0772 22.1521C20.1334 22.5042 21.1605 21.4008 21.7088 20.4018V20.3939C21.9521 19.9106 21.8714 19.4531 21.516 19.1538C20.8858 18.5393 19.9349 17.8609 19.1882 17.4247Z" fill="white"/>
<path d="M16.5509 12.1884C17.6284 12.2512 18.151 12.8141 18.207 13.9701C18.2272 14.422 18.8832 14.3906 18.863 13.9387C18.7912 12.4295 18.0041 11.5885 16.5868 11.51C16.1551 11.4842 16.1147 12.1626 16.5509 12.1884V12.1884Z" fill="white"/>
</svg>
