<svg width="32" height="33" viewBox="0 0 32 33" fill="none" xmlns="http://www.w3.org/2000/svg">
<path d="M24.6695 0.43457H7C3.13401 0.43457 0 3.56857 0 7.43457V25.104C0 28.97 3.134 32.104 6.99999 32.104H24.6695C28.5355 32.104 31.6695 28.97 31.6695 25.104V7.43457C31.6695 3.56858 28.5355 0.43457 24.6695 0.43457Z" fill="#1E88E5"/>
<path d="M8.20424 10.0724C8.96322 11.9467 9.92512 13.7139 11.192 15.3003C11.3601 15.5114 11.5719 15.6991 11.795 15.8519C12.1209 16.0758 12.4284 15.9971 12.5609 15.6243C12.7011 15.233 12.8297 14.4401 12.8374 14.0293C12.8583 12.9558 12.8343 12.2523 12.7766 11.1801C12.7392 10.4934 12.4951 9.89039 11.4849 9.70839C11.173 9.65196 11.144 9.39519 11.3444 9.13904C11.7616 8.60576 12.3429 8.52078 12.9732 8.48714C13.9947 8.43197 15.02 8.477 16.0427 8.48714C16.4593 8.49096 16.8785 8.52453 17.2887 8.61396C17.8239 8.73064 18.1105 9.10603 18.1987 9.62847C18.2443 9.89796 18.2678 10.175 18.2614 10.4477C18.2348 11.6195 18.1784 12.7906 18.165 13.9618C18.1593 14.4214 18.1929 14.8926 18.2912 15.3403C18.4288 15.9642 18.8536 16.1208 19.288 15.67C19.8396 15.0975 20.326 14.4532 20.7825 13.7989C21.6119 12.6087 22.2313 11.3025 22.7646 9.95578C23.0404 9.26086 23.2516 9.10993 23.9991 9.10805C25.4042 9.10485 26.8094 9.1036 28.2145 9.10805C28.4637 9.1093 28.7243 9.13279 28.9595 9.20763C29.3412 9.32938 29.4928 9.6407 29.4033 10.0358C29.1947 10.9615 28.6945 11.7484 28.1587 12.5049C27.2989 13.7185 26.3978 14.903 25.5178 16.1026C25.4056 16.2554 25.3067 16.4184 25.2147 16.5838C24.8856 17.1786 24.9084 17.5121 25.3884 18.0073C26.1525 18.7955 26.9704 19.5328 27.7104 20.3425C28.2481 20.9316 28.7458 21.5707 29.1719 22.2435C29.7109 23.0944 29.378 23.8959 28.3711 24.0385C27.7377 24.128 24.6435 24.0392 24.4836 24.0385C23.6517 24.0348 22.9226 23.7462 22.3354 23.1813C21.6823 22.5523 21.0887 21.8624 20.4616 21.2061C20.2727 21.0083 20.071 20.8187 19.8536 20.6532C19.3406 20.2619 18.8371 20.3488 18.5975 20.9512C18.3927 21.4687 18.2157 22.8274 18.2075 22.9435C18.1644 23.5503 17.7782 23.9371 17.0985 23.9745C15.136 24.081 13.2344 23.8622 11.4628 22.913C9.96133 22.109 8.76232 20.9721 7.7237 19.6463C6.07383 17.5404 4.77066 15.2256 3.58089 12.8428C3.52009 12.721 2.31503 10.1567 2.28265 10.0356C2.17501 9.63007 2.27542 9.24265 2.61809 9.1093C2.8317 9.02619 6.80481 9.10902 6.8709 9.11257C7.50487 9.1469 7.93718 9.41437 8.20424 10.0724Z" fill="white"/>
</svg>
