<svg width="33" height="33" viewBox="0 0 33 33" fill="none" xmlns="http://www.w3.org/2000/svg">
<path d="M27.33 0H5C2.23858 0 0 2.23857 0 5V27.33C0 30.0914 2.23857 32.33 5 32.33H27.33C30.0914 32.33 32.33 30.0914 32.33 27.33V5C32.33 2.23858 30.0914 0 27.33 0Z" fill="#4CAF50"/>
<path d="M25.6604 22.5872C25.2733 23.6994 23.7372 24.6218 22.5119 24.8912C21.6736 25.0729 20.5787 25.2177 16.8927 23.6627C12.178 21.675 9.14178 16.7997 8.90514 16.4833C8.67853 16.167 7 13.9018 7 11.559C7 9.21625 8.16916 8.07547 8.64043 7.58569C9.02748 7.18367 9.6672 7 10.2809 7C10.4794 7 10.6579 7.0102 10.8183 7.01837C11.2896 7.03877 11.5262 7.06735 11.8371 7.82446C12.2241 8.77341 13.1667 11.1162 13.279 11.357C13.3933 11.5978 13.5076 11.9243 13.3471 12.2406C13.1967 12.5672 13.0644 12.712 12.8277 12.9896C12.5911 13.2671 12.3665 13.4794 12.1299 13.7773C11.9133 14.0365 11.6686 14.314 11.9413 14.7936C12.2141 15.263 13.1566 16.8282 14.5444 18.0853C16.3352 19.7077 17.7871 20.2261 18.3065 20.4465C18.6936 20.6097 19.1548 20.571 19.4376 20.2649C19.7966 19.871 20.2398 19.218 20.691 18.5751C21.0118 18.1139 21.4169 18.0568 21.8421 18.22C22.2752 18.3731 24.5674 19.5261 25.0387 19.7649C25.51 20.0057 25.8208 20.12 25.9351 20.322C26.0474 20.524 26.0474 21.473 25.6604 22.5872Z" fill="#FAFAFA"/>
</svg>
